<svg width="750" height="494" viewBox="0 0 750 494" fill="none" xmlns="http://www.w3.org/2000/svg">
<path d="M540.826 102.653C540.826 106.261 538.444 109.873 533.671 112.627C530.398 114.518 526.422 115.761 522.232 116.355C514.212 117.486 505.388 116.246 499.124 112.627C494.682 110.061 492.306 106.754 492.002 103.398C491.649 99.5456 494.024 95.6222 499.124 92.6797C500.037 92.1536 501.003 91.6763 502.01 91.2517V96.1108C501.863 97.6178 502.791 99.1548 504.787 100.312C508.515 102.462 514.558 102.462 518.286 100.312C520.153 99.2337 521.082 97.8244 521.082 96.4152H521.093V88.809C521.472 88.8503 521.852 88.8992 522.232 88.9518C526.422 89.5455 530.398 90.7894 533.671 92.6797C538.444 95.4343 540.826 99.0458 540.826 102.653Z" stroke="#2F80ED" stroke-width="1.5" stroke-miterlimit="10"/>
<path d="M540.814 183.47C540.814 183.47 540.814 183.5 540.811 183.515L530.123 176.882C529.706 176.728 529.33 176.495 529.003 176.187L530.085 176.799L530.393 176.972C530.375 176.968 530.356 176.961 530.337 176.953L540.814 183.47Z" stroke="#2F80ED" stroke-width="1.5" stroke-miterlimit="10"/>
<path d="M616.407 125.149C616.407 128.148 614.426 131.147 610.462 133.435C602.536 138.013 589.684 138.013 581.758 133.435C578.067 131.301 576.095 128.554 575.839 125.765C575.546 122.564 577.519 119.305 581.758 116.859C589.687 112.282 602.54 112.282 610.462 116.859C614.426 119.147 616.407 122.15 616.407 125.145V125.149Z" stroke="#2F80ED" stroke-width="1.5" stroke-miterlimit="10"/>
<path d="M616.433 125.149V191.971H616.407C616.407 194.969 614.427 197.968 610.462 200.257C602.532 204.834 589.68 204.834 581.754 200.257C577.504 197.803 575.535 194.533 575.839 191.324V125.765C576.091 128.554 578.064 131.301 581.758 133.436C589.687 138.013 602.54 138.013 610.462 133.436C614.427 131.147 616.407 128.144 616.407 125.149H616.433Z" stroke="#2F80ED" stroke-width="1.5" stroke-miterlimit="10"/>
<path d="M603.896 54.0924C603.896 55.3137 603.092 56.5351 601.476 57.4671C598.248 59.3311 593.017 59.3311 589.789 57.4671C588.286 56.599 587.481 55.4791 587.38 54.3442C587.26 53.0401 588.064 51.7136 589.789 50.7177C593.017 48.8537 598.248 48.8537 601.476 50.7177C603.092 51.6497 603.896 52.871 603.896 54.0924Z" stroke="#2F80ED" stroke-width="1.5" stroke-miterlimit="10"/>
<path d="M603.908 54.0925V126.652H603.897C603.897 127.874 603.093 129.095 601.477 130.027C598.249 131.891 593.018 131.891 589.789 130.027C588.061 129.027 587.257 127.697 587.381 126.389V54.3443C587.482 55.4792 588.286 56.5991 589.789 57.4672C593.018 59.3312 598.249 59.3312 601.477 57.4672C603.093 56.5352 603.897 55.3139 603.897 54.0925H603.908Z" stroke="#2F80ED" stroke-width="1.5" stroke-miterlimit="10"/>
<path d="M571.056 61.9092C571.056 65.5169 568.673 69.1284 563.9 71.883C554.362 77.3923 538.894 77.3923 529.353 71.883C524.911 69.3163 522.536 66.0092 522.231 62.6533C521.886 58.869 524.17 55.017 529.082 52.0933C529.172 52.0407 529.263 51.9881 529.353 51.9354C530.138 51.4807 530.969 51.0636 531.829 50.684C532.487 51.2703 533.257 51.8227 534.148 52.3376C540.939 56.2572 551.942 56.2572 558.729 52.3376C559.676 51.7926 560.488 51.1989 561.168 50.5713C562.1 50.9734 562.995 51.4168 563.84 51.9016C563.859 51.9129 563.881 51.9242 563.9 51.9354C568.673 54.6901 571.056 58.3015 571.056 61.9092Z" stroke="#2F80ED" stroke-width="1.5" stroke-miterlimit="10"/>
<path d="M527.571 171.82C527.492 173.699 527.98 175.134 528.856 176.029L528.867 176.04L530.085 176.799L529.002 176.187C529.329 176.495 529.705 176.728 530.122 176.882L540.81 183.515C540.626 186.976 538.247 190.407 533.67 193.049C524.128 198.558 508.66 198.558 499.119 193.049C494.004 190.095 491.633 186.161 492.001 182.297V103.398C492.305 106.754 494.68 110.061 499.122 112.627C505.387 116.246 514.211 117.486 522.231 116.355C526.421 115.762 530.397 114.518 533.67 112.627C538.443 109.873 540.825 106.261 540.825 102.654H540.855V159.798L540.34 159.479C539.078 158.656 537.27 158.682 535.233 159.745C534.113 160.332 533.039 161.17 532.073 162.173C529.54 164.789 527.71 168.528 527.571 171.82Z" stroke="#2F80ED" stroke-width="1.5" stroke-miterlimit="10"/>
<path d="M571.086 61.9092V150.839H571.056C571.056 154.447 568.673 158.058 563.9 160.813C559.748 163.21 554.483 164.563 549.064 164.875L540.856 159.798V102.654H540.826C540.826 99.0459 538.444 95.4345 533.671 92.6798C530.398 90.7896 526.422 89.5457 522.231 88.9519V62.6533C522.536 66.0092 524.911 69.3162 529.353 71.883C538.895 77.3922 554.363 77.3922 563.9 71.883C568.673 69.1283 571.056 65.5169 571.056 61.9092H571.086Z" stroke="#2F80ED" stroke-width="1.5" stroke-miterlimit="10"/>
<path d="M563.821 45.2423C563.821 47.095 562.938 48.9478 561.168 50.5712C560.488 51.1988 559.676 51.7926 558.729 52.3375C551.942 56.2571 540.939 56.2571 534.148 52.3375C533.257 51.8226 532.487 51.2702 531.829 50.684C530.153 49.1845 529.236 47.4859 529.082 45.7722C528.83 43.0289 530.518 40.2404 534.148 38.1434C540.939 34.2238 551.942 34.2238 558.729 38.1434C562.126 40.1051 563.821 42.6756 563.821 45.2423Z" stroke="#2F80ED" stroke-width="1.5" stroke-miterlimit="10"/>
<path d="M563.84 45.2423V58.1699H563.821C563.821 60.7366 562.127 63.3071 558.729 65.2688C551.939 69.1884 540.935 69.1884 534.144 65.2688C530.507 63.1643 528.819 60.3646 529.082 57.6175V45.7722C529.236 47.4858 530.153 49.1845 531.829 50.6839C532.487 51.2702 533.257 51.8226 534.148 52.3375C540.939 56.2571 551.942 56.2571 558.729 52.3375C559.676 51.7925 560.488 51.1988 561.168 50.5712C562.938 48.9477 563.821 47.095 563.821 45.2423H563.84Z" stroke="#2F80ED" stroke-width="1.5" stroke-miterlimit="10"/>
<path d="M521.081 76.0167C521.081 77.426 520.152 78.8352 518.285 79.9138C514.56 82.0671 508.518 82.0671 504.79 79.9138C503.053 78.9104 502.125 77.6176 502.009 76.3061C501.87 74.8029 502.798 73.2696 504.79 72.1196C508.518 69.9663 514.56 69.9663 518.285 72.1196C520.152 73.1944 521.081 74.6075 521.081 76.0167Z" stroke="#2F80ED" stroke-width="1.5" stroke-miterlimit="10"/>
<path d="M521.092 76.0167V96.4153H521.081C521.081 97.8245 520.153 99.2338 518.285 100.312C514.557 102.462 508.514 102.462 504.786 100.312C502.791 99.1549 501.863 97.6178 502.009 96.1109V76.3061C502.126 77.6176 503.054 78.9104 504.79 79.9138C508.518 82.0671 514.561 82.0671 518.285 79.9138C520.153 78.8352 521.081 77.426 521.081 76.0167H521.092Z" stroke="#2F80ED" stroke-width="1.5" stroke-miterlimit="10"/>
<path d="M628.881 214.766L651.771 201.967L652.376 159.76L629.486 172.56L628.881 214.766Z" stroke="#2F80ED" stroke-width="1.5" stroke-linecap="round" stroke-linejoin="round"/>
<path d="M630.007 172.023L652.375 159.347L617.102 138.979L616.076 140.918C614.017 144.804 610.65 147.836 606.565 149.475L597.357 153.169L630.011 172.023H630.007Z" stroke="#2F80ED" stroke-width="1.5" stroke-linecap="round" stroke-linejoin="round"/>
<path d="M597.354 195.229L628.88 214.767L630.007 172.023L597.429 153.274L597.354 195.229Z" stroke="#2F80ED" stroke-width="1.5" stroke-linecap="round" stroke-linejoin="round"/>
<path d="M572.116 179.141C570.875 178.49 569.188 178.581 567.294 179.569C563.254 181.685 559.827 187.089 559.635 191.647C559.541 193.917 560.27 195.552 561.525 196.352L540.815 183.474L530.338 176.953C530.356 176.961 530.375 176.968 530.394 176.972L530.086 176.799L528.868 176.04L528.857 176.033C527.981 175.134 527.493 173.699 527.572 171.82C527.711 168.528 529.541 164.789 532.074 162.173C533.04 161.17 534.114 160.332 535.234 159.745C537.271 158.682 539.079 158.656 540.342 159.479L540.856 159.798L549.064 164.875L572.116 179.141Z" stroke="#2F80ED" stroke-width="1.5" stroke-linecap="round" stroke-linejoin="round"/>
<path d="M530.394 176.972C530.375 176.968 530.357 176.961 530.338 176.953L530.233 176.89L530.086 176.799L530.394 176.972Z" stroke="#2F80ED" stroke-width="1.5" stroke-linecap="round" stroke-linejoin="round"/>
<path d="M530.393 176.972C530.375 176.968 530.356 176.961 530.337 176.953C530.266 176.935 530.194 176.908 530.123 176.882C529.706 176.728 529.33 176.495 529.003 176.187L530.085 176.799L530.393 176.972Z" stroke="#2F80ED" stroke-width="1.5" stroke-linecap="round" stroke-linejoin="round"/>
<path d="M528.984 176.172L528.996 176.183L528.984 176.176V176.172Z" stroke="#2F80ED" stroke-width="1.5" stroke-linecap="round" stroke-linejoin="round"/>
<path d="M574.269 183.996C574.077 188.551 570.646 193.958 566.602 196.067C564.577 197.126 562.784 197.156 561.525 196.352C560.27 195.552 559.541 193.917 559.635 191.647C559.827 187.089 563.254 181.685 567.294 179.569C569.188 178.581 570.875 178.49 572.115 179.141H572.123L572.514 179.381L572.533 179.396C573.694 180.234 574.359 181.82 574.269 183.996Z" stroke="#2F80ED" stroke-width="1.5" stroke-linecap="round" stroke-linejoin="round"/>
<path d="M652.375 192.97L678.549 208.633C683.255 211.448 683.348 218.235 678.722 221.185L659.072 233.707L657.275 234.853L640.627 245.458L540.811 183.515" stroke="#2F80ED" stroke-width="1.5" stroke-linecap="round" stroke-linejoin="round"/>
<path d="M530.123 176.882L529.003 176.187L528.984 176.175" stroke="#2F80ED" stroke-width="1.5" stroke-linecap="round" stroke-linejoin="round"/>
<path d="M615.802 206.661L659.072 233.707" stroke="#2F80ED" stroke-width="1.5" stroke-linecap="round" stroke-linejoin="round"/>
<path d="M633.265 229.667C631.21 230.855 631.21 232.779 633.265 233.962C635.321 235.15 638.651 235.15 640.706 233.962C642.762 232.775 642.762 230.851 640.706 229.667C638.651 228.483 635.321 228.48 633.265 229.667Z" stroke="#2F80ED" stroke-width="1.5" stroke-linecap="round" stroke-linejoin="round"/>
<path d="M601.029 208.671C598.973 209.859 598.973 211.783 601.029 212.966C603.085 214.154 606.414 214.154 608.47 212.966C610.526 211.779 610.526 209.855 608.47 208.671C606.414 207.484 603.085 207.484 601.029 208.671Z" stroke="#2F80ED" stroke-width="1.5" stroke-linecap="round" stroke-linejoin="round"/>
<path d="M657.276 234.853L628.339 253.358C624.423 255.864 619.425 255.943 615.43 253.561L520.814 197.183" stroke="#2F80ED" stroke-width="1.5" stroke-linecap="round" stroke-linejoin="round"/>
<path d="M646.249 310.476L634.599 317.136L616.344 327.562L560.997 296.112L590.826 279.068L604.967 287.085L646.249 310.476Z" stroke="#2F80ED" stroke-width="1.5" stroke-linecap="round" stroke-linejoin="round"/>
<path d="M616.344 327.562L616.288 327.597L560.864 296.189L560.997 296.112L616.344 327.562Z" stroke="#2F80ED" stroke-width="1.5" stroke-linecap="round" stroke-linejoin="round"/>
<path d="M568.287 391.23L584.363 381.681L568.356 391.268L568.287 391.23Z" stroke="#2F80ED" stroke-width="1.5" stroke-linecap="round" stroke-linejoin="round"/>
<path d="M587.586 392.334V402.196L579.133 397.393L587.586 392.334Z" stroke="#2F80ED" stroke-width="1.5" stroke-linecap="round" stroke-linejoin="round"/>
<path d="M616.404 327.597V327.952L616.399 358.191V418.567L587.585 402.196V392.334L608.841 379.601V367.145L584.362 381.681L608.738 367.081L583.986 351.938L560.864 365.669V296.039L560.997 296.112L616.344 327.562L616.404 327.597Z" stroke="#2F80ED" stroke-width="1.5" stroke-linecap="round" stroke-linejoin="round"/>
<path d="M645.958 310.382V401.318L616.113 418.704L616.108 373.061V357.999L616.113 327.759L634.505 317.05L645.958 310.382Z" stroke="#2F80ED" stroke-width="1.5" stroke-linecap="round" stroke-linejoin="round"/>
<path d="M616.404 327.952L616.399 358.191V327.956L616.404 327.952Z" stroke="#2F80ED" stroke-width="1.5" stroke-linecap="round" stroke-linejoin="round"/>
<path d="M569.776 315.886L606.873 337.86" stroke="#2F80ED" stroke-width="1.5" stroke-linecap="round" stroke-linejoin="round"/>
<path d="M568.471 327.695L605.563 349.665" stroke="#2F80ED" stroke-width="1.5" stroke-linecap="round" stroke-linejoin="round"/>
<path d="M678.038 308.875L649.386 325.418L646.249 323.659V310.575L634.795 317.243L634.598 317.136L646.249 310.476L604.967 287.085L621.792 277.369L678.038 308.875Z" stroke="#2F80ED" stroke-width="1.5" stroke-linecap="round" stroke-linejoin="round"/>
<path d="M649.387 399.088L678.039 382.55V309.23L649.383 325.773L649.387 399.088Z" stroke="#2F80ED" stroke-width="1.5" stroke-linecap="round" stroke-linejoin="round"/>
<path d="M652.528 345.689L672.5 334.077" stroke="#2F80ED" stroke-width="1.5" stroke-linecap="round" stroke-linejoin="round"/>
<path d="M608.738 367.081L584.363 381.681L568.287 391.23L527.261 415.593L502.406 400.385L560.865 365.669L583.986 351.938L608.738 367.081Z" stroke="#2F80ED" stroke-width="1.5" stroke-linecap="round" stroke-linejoin="round"/>
<path d="M608.841 367.145L584.362 381.681L608.738 367.081L608.841 367.145Z" stroke="#2F80ED" stroke-width="1.5" stroke-linecap="round" stroke-linejoin="round"/>
<path d="M608.841 367.145V379.601L587.585 392.334L579.132 397.393L565.992 405.265L541.411 419.988L527.83 428.121V415.541L568.355 391.268L584.362 381.681L608.841 367.145Z" stroke="#2F80ED" stroke-width="1.5" stroke-linecap="round" stroke-linejoin="round"/>
<path d="M608.841 367.021V367.145L584.362 381.681L608.738 367.081L608.841 367.021Z" stroke="#2F80ED" stroke-width="1.5" stroke-linecap="round" stroke-linejoin="round"/>
<path d="M502.149 400.633C502.149 400.633 491.205 408.419 498.053 416.098C502.8 421.418 512.465 426.289 518.239 429.092C520.862 430.363 523.935 430.278 526.486 428.865L527.83 428.12" stroke="#2F80ED" stroke-width="1.5" stroke-linecap="round" stroke-linejoin="round"/>
<path d="M520.246 429.786C520.246 429.786 518.94 420.656 527.835 415.854" stroke="#2F80ED" stroke-width="1.5" stroke-linecap="round" stroke-linejoin="round"/>
<path d="M541.411 419.988V459.845" stroke="#2F80ED" stroke-width="1.5" stroke-linecap="round" stroke-linejoin="round"/>
<path d="M506.126 422.535V437.301" stroke="#2F80ED" stroke-width="1.5" stroke-linecap="round" stroke-linejoin="round"/>
<path d="M587.586 431.164V402.196" stroke="#2F80ED" stroke-width="1.5" stroke-linecap="round" stroke-linejoin="round"/>
<path d="M565.992 405.269V421.606" stroke="#2F80ED" stroke-width="1.5" stroke-linecap="round" stroke-linejoin="round"/>
<path d="M520.178 389.736L543.963 404.798" stroke="#2F80ED" stroke-width="1.5" stroke-linecap="round" stroke-linejoin="round"/>
<path d="M538.476 379.374L561.832 394.008" stroke="#2F80ED" stroke-width="1.5" stroke-linecap="round" stroke-linejoin="round"/>
<path d="M555.267 369.936L579.056 384.998" stroke="#2F80ED" stroke-width="1.5" stroke-linecap="round" stroke-linejoin="round"/>
<path d="M571.467 359.492L595.252 374.554" stroke="#2F80ED" stroke-width="1.5" stroke-linecap="round" stroke-linejoin="round"/>
<path d="M678.038 367.145L703.175 381.681L555.266 474.252L497.728 439.917L518.238 429.096" stroke="#2F80ED" stroke-width="1.5" stroke-miterlimit="10"/>
<path d="M108.652 259.616V273.76L106.182 272.603C104.017 271.587 101.496 271.7 99.4292 272.9L93.8912 276.128C90.754 277.956 88.8246 281.314 88.8246 284.945V324.498C88.8246 330.112 86.0248 335.356 81.3608 338.479L64.7685 349.591C62.966 350.799 61.8852 352.826 61.8852 354.995V413.186C61.8525 416.893 58.846 419.881 55.1322 419.881C51.4184 419.881 48.3828 416.86 48.3828 413.128C48.3828 412.954 48.3901 412.78 48.4046 412.61C48.3973 412.613 48.3901 412.613 48.3828 412.617V353.066C48.3828 349.961 49.2134 346.98 50.7185 344.387C52.2199 341.794 54.3996 339.589 57.0906 338.048L73.8426 328.455C75.3368 327.599 76.2616 326.018 76.2797 324.299L76.7005 284.568C76.7984 275.551 81.6691 267.268 89.4956 262.8L98.1345 257.867C100.314 256.623 102.983 256.587 105.196 257.77L107.042 258.756L108.652 259.616Z" stroke="#2F80ED" stroke-width="1.5" stroke-linecap="round" stroke-linejoin="round"/>
<path d="M65.9177 418.26C65.9105 418.775 65.8053 419.29 65.5913 419.791C65.109 420.933 64.1007 422.007 62.563 422.895C58.0912 425.477 50.8414 425.477 46.3696 422.895C44.8319 422.007 43.8236 420.933 43.3412 419.794C43.1309 419.29 43.0221 418.775 43.0149 418.26C42.9967 416.556 44.1174 414.847 46.3696 413.545C46.9898 413.186 47.6679 412.878 48.3824 412.617C48.3897 412.613 48.3969 412.613 48.4042 412.61C48.3897 412.78 48.3824 412.954 48.3824 413.128C48.3824 416.86 51.4035 419.881 55.1318 419.881C58.8601 419.881 61.8521 416.893 61.8848 413.186C62.1169 413.299 62.3417 413.419 62.563 413.545C64.8188 414.847 65.9358 416.556 65.9177 418.26Z" stroke="#2F80ED" stroke-width="1.5" stroke-linecap="round" stroke-linejoin="round"/>
<path d="M65.9175 421.365C65.9175 423.058 64.8005 424.752 62.5628 426.043C58.091 428.625 50.8412 428.625 46.3694 426.043C44.1353 424.752 43.0146 423.058 43.0146 421.365C43.0146 420.839 43.1234 420.309 43.341 419.794C43.8234 420.933 44.8316 422.007 46.3694 422.895C50.8412 425.477 58.091 425.477 62.5628 422.895C64.1005 422.007 65.1088 420.933 65.5911 419.794C65.8087 420.309 65.9175 420.839 65.9175 421.365Z" stroke="#2F80ED" stroke-width="1.5" stroke-linecap="round" stroke-linejoin="round"/>
<path d="M65.918 418.26V422.097" stroke="#2F80ED" stroke-width="1.5" stroke-linecap="round" stroke-linejoin="round"/>
<path d="M140.019 302.342C140.019 305.523 137.916 308.704 133.716 311.13C125.313 315.982 111.687 315.982 103.284 311.13C99.1459 308.74 97.046 305.621 96.9844 302.491V302.194C96.9844 302.067 96.9916 301.936 97.0025 301.809C97.2238 298.81 99.3164 295.85 103.284 293.558C111.687 288.706 125.313 288.706 133.716 293.558C137.68 295.85 139.776 298.81 139.998 301.809C140.012 301.987 140.019 302.165 140.019 302.342Z" stroke="#2F80ED" stroke-width="1.5" stroke-linecap="round" stroke-linejoin="round"/>
<path d="M103.197 344.122L102.298 344.666C102.523 344.365 102.831 344.18 103.197 344.122Z" stroke="#2F80ED" stroke-width="1.5" stroke-linecap="round" stroke-linejoin="round"/>
<path d="M140.019 302.342V374.449C140.019 377.63 137.916 380.81 133.716 383.237C132.998 383.65 132.244 384.031 131.457 384.372C123.024 388.053 110.969 387.676 103.284 383.237C103.255 383.219 103.226 383.204 103.197 383.186C99.378 380.959 97.3217 378.101 97.0279 375.193C96.9989 374.946 96.988 374.696 96.988 374.449H96.9844V355.753L99.777 354.219L112.761 361.164V345.526L96.9844 337.086V302.491C97.046 305.621 99.1459 308.74 103.284 311.13C111.687 315.982 125.313 315.982 133.716 311.13C137.916 308.703 140.019 305.523 140.019 302.342Z" stroke="#2F80ED" stroke-width="1.5" stroke-linecap="round" stroke-linejoin="round"/>
<path d="M128.149 261.389C128.149 262.814 127.206 264.24 125.324 265.328C121.555 267.504 115.448 267.504 111.68 265.328C109.823 264.258 108.884 262.858 108.854 261.454V261.324C108.854 261.266 108.858 261.208 108.865 261.15C108.869 261.103 108.873 261.052 108.884 261.005C109.25 261.302 109.66 261.581 110.117 261.842C114.744 264.519 122.255 264.519 126.887 261.842C127.344 261.578 127.753 261.298 128.12 261.001C128.131 261.052 128.134 261.099 128.138 261.15C128.145 261.229 128.149 261.309 128.149 261.389Z" stroke="#2F80ED" stroke-width="1.5" stroke-linecap="round" stroke-linejoin="round"/>
<path d="M128.149 261.389V293.714C128.149 295.14 127.206 296.565 125.324 297.653C121.556 299.829 115.448 299.829 111.68 297.653C109.794 296.565 108.855 295.14 108.858 293.714V261.454C108.887 262.858 109.827 264.254 111.684 265.328C115.452 267.504 121.559 267.504 125.327 265.328C127.21 264.24 128.153 262.814 128.153 261.389H128.149Z" stroke="#2F80ED" stroke-width="1.5" stroke-linecap="round" stroke-linejoin="round"/>
<path d="M131.457 384.372V390.262C131.457 392.347 130.075 394.436 127.319 396.032C121.799 399.216 112.852 399.216 107.335 396.032C104.575 394.44 103.197 392.351 103.201 390.262H103.197V383.186C103.226 383.204 103.255 383.219 103.284 383.237C110.969 387.676 123.025 388.053 131.457 384.372Z" stroke="#2F80ED" stroke-width="1.5" stroke-linecap="round" stroke-linejoin="round"/>
<path d="M130.361 240.553C130.361 242.305 129.201 244.06 126.887 245.395C122.256 248.072 114.745 248.072 110.117 245.395C107.836 244.079 106.679 242.36 106.643 240.637V240.47C106.643 240.401 106.646 240.329 106.653 240.26C106.777 238.606 107.93 236.977 110.117 235.712C114.745 233.039 122.256 233.039 126.887 235.712C129.07 236.977 130.227 238.606 130.347 240.26C130.358 240.358 130.361 240.455 130.361 240.553Z" stroke="#2F80ED" stroke-width="1.5" stroke-linecap="round" stroke-linejoin="round"/>
<path d="M130.361 240.553V257.001C130.361 258.408 129.614 259.815 128.12 261.001C127.754 261.298 127.344 261.578 126.887 261.842C122.256 264.519 114.745 264.519 110.117 261.842C109.66 261.581 109.25 261.302 108.884 261.005C108.804 260.947 108.728 260.881 108.652 260.816V259.616L107.042 258.756C106.777 258.183 106.646 257.592 106.646 257.001H106.643V240.637C106.679 242.359 107.836 244.079 110.117 245.395C114.745 248.072 122.256 248.072 126.887 245.395C129.201 244.06 130.361 242.305 130.361 240.553Z" stroke="#2F80ED" stroke-width="1.5" stroke-linecap="round" stroke-linejoin="round"/>
<path d="M108.652 259.616V260.816C107.905 260.178 107.368 259.481 107.042 258.756L108.652 259.616Z" stroke="#2F80ED" stroke-width="1.5" stroke-linecap="round" stroke-linejoin="round"/>
<path d="M107.365 348.453C107.35 348.369 107.328 348.282 107.307 348.195" stroke="#2F80ED" stroke-width="1.5" stroke-linecap="round" stroke-linejoin="round"/>
<path d="M99.777 354.219L112.761 361.164V345.526L96.9844 337.086V347.648" stroke="#2F80ED" stroke-width="1.5" stroke-linecap="round" stroke-linejoin="round"/>
<path d="M103.197 344.122C102.831 344.18 102.523 344.365 102.298 344.666" stroke="#2F80ED" stroke-width="1.5" stroke-linecap="round" stroke-linejoin="round"/>
<path d="M103.197 344.122L102.298 344.666C102.523 344.365 102.831 344.18 103.197 344.122Z" stroke="#2F80ED" stroke-width="1.5" stroke-linecap="round" stroke-linejoin="round"/>
<path d="M105.286 351.152V351.14" stroke="#2F80ED" stroke-width="1.5" stroke-linecap="round" stroke-linejoin="round"/>
<path d="M189.891 374.921V432.147C189.891 434.229 188.774 436.151 186.964 437.181L162.045 451.38C158.922 453.16 155.093 453.164 151.966 451.39L140.52 444.891L137.18 442.995L75.141 407.764C72.3157 406.161 70.5713 403.162 70.5713 399.916V366.242C70.5713 363.99 71.7463 361.904 73.6721 360.736L96.9848 347.647L102.298 344.666L103.197 344.122C103.245 344.115 103.295 344.111 103.346 344.108C103.741 344.086 104.195 344.206 104.677 344.481C104.869 344.594 105.058 344.724 105.236 344.869C105.254 344.884 105.268 344.898 105.286 344.913C105.421 345.025 105.555 345.149 105.682 345.283C105.747 345.348 105.809 345.417 105.87 345.486C105.925 345.548 105.979 345.613 106.034 345.678C106.393 346.117 106.705 346.621 106.94 347.147C106.969 347.209 106.998 347.27 107.02 347.332C107.089 347.488 107.143 347.644 107.194 347.8C107.22 347.876 107.245 347.952 107.263 348.032C107.281 348.086 107.296 348.141 107.307 348.195C107.328 348.282 107.346 348.366 107.365 348.453C107.419 348.732 107.448 349.011 107.448 349.28C107.448 350.806 106.523 351.55 105.286 351.151V351.198L103.197 352.344L99.7775 354.219L96.9848 355.753L79.5003 365.346C78.0134 366.198 77.0994 367.783 77.0994 369.499V396.601C77.0994 398.763 78.2491 400.761 80.1205 401.846L80.6029 402.125L137.18 434.95L147.335 440.84L154.335 444.902C155.546 445.602 157.033 445.624 158.262 444.957L180.501 432.905C181.521 432.35 182.152 431.287 182.152 430.13V378.032C182.152 376.045 181.107 374.206 179.399 373.191L140.02 349.802V340.978L185.408 367.163C188.183 368.762 189.891 371.722 189.891 374.921Z" stroke="#2F80ED" stroke-width="1.5" stroke-linecap="round" stroke-linejoin="round"/>
<path d="M103.197 344.122L102.298 344.666C102.523 344.365 102.831 344.18 103.197 344.122Z" stroke="#2F80ED" stroke-width="1.5" stroke-linecap="round" stroke-linejoin="round"/>
<path d="M178.884 393.482V422.094L147.335 440.84L137.18 434.95V418.26L178.884 393.482Z" stroke="#2F80ED" stroke-width="1.5" stroke-linecap="round" stroke-linejoin="round"/>
<path d="M80.6025 402.128L137.18 434.678V417.959L80.6025 385.195V402.128Z" stroke="#2F80ED" stroke-width="1.5" stroke-linecap="round" stroke-linejoin="round"/>
<path d="M80.6025 385.195L97.028 375.193" stroke="#2F80ED" stroke-width="1.5" stroke-linecap="round" stroke-linejoin="round"/>
<path d="M178.884 393.482L140.02 370.354" stroke="#2F80ED" stroke-width="1.5" stroke-linecap="round" stroke-linejoin="round"/>
<path d="M178.405 412.875L182.152 414.721" stroke="#2F80ED" stroke-width="1.5" stroke-linecap="round" stroke-linejoin="round"/>
<path d="M189.89 418.26L204.749 426.986C206.929 428.266 206.939 431.414 204.771 432.713L132.49 475.871C129.349 477.746 125.432 477.75 122.284 475.882L34.2955 423.617C32.4785 422.536 32.4459 419.914 34.2375 418.793L48.3818 409.937" stroke="#2F80ED" stroke-width="1.5" stroke-linecap="round" stroke-linejoin="round"/>
<path d="M61.8848 402.995L70.5708 398.422" stroke="#2F80ED" stroke-width="1.5" stroke-linecap="round" stroke-linejoin="round"/>
<path d="M77.0996 394.897L80.6031 393.12" stroke="#2F80ED" stroke-width="1.5" stroke-linecap="round" stroke-linejoin="round"/>
<path d="M189.891 394.733L240.926 365.271C245.905 362.396 254.048 362.532 258.732 365.567L289.445 385.469C294.02 388.434 301.925 388.643 306.951 385.933L355.087 359.974" stroke="#2F80ED" stroke-width="1.5"/>
<path d="M148.176 96.4152C148.176 104.314 138.593 110.917 125.772 112.564C123.762 112.822 121.672 112.958 119.528 112.958C103.705 112.958 90.877 105.552 90.877 96.4152C90.877 92.7614 92.9292 89.3839 96.4051 86.6464C96.3596 86.9909 96.3369 87.3355 96.3369 87.6876C96.3369 91.0234 98.4497 94.0752 101.945 96.4152C106.197 99.2701 112.497 101.076 119.528 101.076C119.79 101.076 120.047 101.072 120.308 101.069C120.486 101.065 120.664 101.061 120.839 101.054C120.998 101.05 121.153 101.046 121.308 101.038C121.516 101.027 121.725 101.019 121.933 101.004C122.213 100.989 122.489 100.97 122.766 100.947C123.012 100.929 123.254 100.906 123.497 100.879C123.625 100.868 123.754 100.853 123.879 100.841C124.008 100.826 124.136 100.811 124.265 100.796C124.508 100.77 124.746 100.735 124.985 100.701C125.25 100.667 125.511 100.626 125.772 100.584C125.802 100.58 125.837 100.573 125.867 100.569C126.113 100.531 126.359 100.486 126.605 100.44C126.791 100.406 126.98 100.368 127.166 100.33C127.321 100.3 127.476 100.27 127.627 100.236C127.635 100.236 127.639 100.232 127.646 100.232C127.885 100.183 128.12 100.13 128.351 100.073C128.366 100.073 128.385 100.065 128.4 100.061C128.438 100.054 128.476 100.043 128.514 100.035C128.699 99.9895 128.885 99.9403 129.07 99.8911C129.312 99.8305 129.555 99.7661 129.79 99.6942C130.017 99.6336 130.244 99.5655 130.463 99.4973C130.774 99.3989 131.084 99.3004 131.387 99.1944C131.524 99.1452 131.66 99.0997 131.792 99.0505C131.804 99.0467 131.815 99.0429 131.827 99.0392C131.842 99.0354 131.853 99.0278 131.868 99.024C131.948 98.9975 132.027 98.9672 132.107 98.9369C132.141 98.9256 132.175 98.9142 132.205 98.8991C132.379 98.8347 132.554 98.7665 132.72 98.6984C132.894 98.6302 133.065 98.5621 133.231 98.4864C133.239 98.4864 133.246 98.4864 133.254 98.4788C133.36 98.4371 133.462 98.3917 133.561 98.3463C133.765 98.2554 133.966 98.1645 134.163 98.0736C134.329 97.9941 134.496 97.9146 134.659 97.8351C134.92 97.7026 135.174 97.57 135.424 97.4337C135.515 97.3845 135.605 97.3353 135.696 97.2823C135.787 97.2369 135.874 97.1838 135.961 97.1308C136.158 97.0172 136.351 96.9036 136.541 96.7825C136.544 96.7825 136.548 96.7825 136.552 96.7749C136.741 96.6575 136.931 96.5364 137.112 96.4152C140.607 94.0752 142.716 91.0234 142.716 87.6876C142.716 87.3355 142.693 86.9909 142.648 86.6464C146.124 89.3839 148.176 92.7614 148.176 96.4152Z" stroke="#2F80ED" stroke-width="1.5" stroke-linecap="round" stroke-linejoin="round"/>
<path d="M148.176 172.525C148.047 172.51 147.919 172.495 147.79 172.476C148.044 173.362 148.176 174.267 148.176 175.195C148.176 176.982 147.684 178.704 146.771 180.317C145.715 182.196 144.091 183.926 142.016 185.44C136.772 189.276 128.65 191.737 119.528 191.737C110.407 191.737 102.285 189.276 97.0374 185.44C94.9625 183.926 93.3381 182.196 92.2817 180.317C91.3692 178.704 90.877 176.982 90.877 175.195C90.877 173.6 91.267 172.059 91.9977 170.602C92.9292 172.468 94.4134 174.195 96.3407 175.725C101.547 179.859 109.994 182.548 119.528 182.548C129.063 182.548 137.506 179.859 142.712 175.725C142.849 175.615 142.985 175.505 143.118 175.395C143.216 175.312 143.314 175.225 143.413 175.142C143.526 175.043 143.64 174.945 143.75 174.842C144.193 174.437 144.609 174.021 144.992 173.589C145.128 173.441 145.257 173.294 145.378 173.142C145.386 173.139 145.389 173.131 145.389 173.127C145.484 173.017 145.571 172.904 145.658 172.794C145.7 172.741 145.742 172.688 145.779 172.639C145.885 172.495 145.991 172.355 146.09 172.211C146.325 171.881 146.537 171.544 146.734 171.204C146.783 171.12 146.828 171.037 146.874 170.95C146.938 170.836 146.999 170.719 147.055 170.602C147.786 169.144 148.176 167.599 148.176 166.005V172.525Z" stroke="#2F80ED" stroke-width="1.5" stroke-linecap="round" stroke-linejoin="round"/>
<path d="M148.176 175.194V185.44C148.176 194.577 135.352 201.983 119.528 201.983C103.705 201.983 90.877 194.577 90.877 185.44V175.194C90.877 176.982 91.3692 178.704 92.2817 180.317C93.3381 182.195 94.9625 183.926 97.0374 185.44C102.285 189.276 110.407 191.737 119.528 191.737C128.65 191.737 136.772 189.276 142.016 185.44C144.091 183.926 145.715 182.195 146.771 180.317C147.684 178.704 148.176 176.982 148.176 175.194Z" stroke="#2F80ED" stroke-width="1.5" stroke-linecap="round" stroke-linejoin="round"/>
<path d="M126.719 140.913L126.655 141.03L125.772 142.632V141.087L126.609 140.932L126.719 140.913Z" stroke="#2F80ED" stroke-width="1.5" stroke-linecap="round" stroke-linejoin="round"/>
<path d="M91.9977 170.602C91.267 172.059 90.877 173.6 90.877 175.195V166.005C90.877 167.599 91.267 169.144 91.9977 170.602Z" stroke="#2F80ED" stroke-width="1.5" stroke-linecap="round" stroke-linejoin="round"/>
<path d="M148.175 172.525V175.194C148.175 174.267 148.043 173.362 147.789 172.476C147.918 172.495 148.047 172.51 148.175 172.525Z" stroke="#2F80ED" stroke-width="1.5" stroke-linecap="round" stroke-linejoin="round"/>
<path d="M125.772 112.564C123.762 112.822 121.672 112.958 119.528 112.958C103.705 112.958 90.877 105.552 90.877 96.4152V166.005C90.877 167.599 91.267 169.144 91.9977 170.602C92.9292 172.468 94.4134 174.195 96.3407 175.725C101.547 179.859 109.994 182.548 119.528 182.548C129.063 182.548 137.506 179.859 142.712 175.725C142.849 175.615 142.985 175.505 143.118 175.395C143.216 175.312 143.314 175.225 143.413 175.141C143.526 175.043 143.64 174.945 143.75 174.842C144.193 174.437 144.609 174.021 144.992 173.589C145.124 173.441 145.253 173.294 145.378 173.142C145.386 173.138 145.389 173.131 145.389 173.127C145.484 173.017 145.571 172.904 145.658 172.794C145.7 172.741 145.742 172.688 145.779 172.639C145.885 172.495 145.991 172.355 146.09 172.211C146.325 171.881 146.537 171.544 146.734 171.204C146.783 171.12 146.828 171.037 146.874 170.95C146.938 170.836 146.999 170.719 147.055 170.602C147.786 169.144 148.176 167.599 148.176 166.005V96.4152C148.176 104.314 138.593 110.917 125.772 112.564ZM126.654 141.03L125.772 142.632V141.087L126.609 140.932L126.719 140.913L126.654 141.03Z" stroke="#2F80ED" stroke-width="1.5" stroke-linecap="round" stroke-linejoin="round"/>
<path d="M125.772 142.632L118.139 156.505" stroke="#2F80ED" stroke-width="1.5" stroke-linecap="round" stroke-linejoin="round"/>
<path d="M125.772 141.087L112.33 143.548L121.334 127.055" stroke="#2F80ED" stroke-width="1.5" stroke-linecap="round" stroke-linejoin="round"/>
<path d="M222.567 80.6221C222.567 83.9579 220.458 87.0097 216.963 89.3497C212.711 92.2046 206.41 94.0107 199.379 94.0107C199.072 94.0107 198.769 94.007 198.467 93.9994C198.334 93.9956 198.201 93.9918 198.069 93.988C197.918 93.9842 197.77 93.9804 197.622 93.9729C197.596 93.9729 197.569 93.9691 197.543 93.9691C197.406 93.9653 197.27 93.9577 197.134 93.9502C197.013 93.9426 196.888 93.935 196.766 93.9274C196.566 93.9161 196.365 93.9009 196.164 93.882C195.945 93.8669 195.725 93.8479 195.509 93.8252C195.362 93.8101 195.218 93.7987 195.074 93.7798C194.832 93.7533 194.593 93.7268 194.358 93.6965C194.12 93.6662 193.885 93.6321 193.65 93.598C193.643 93.598 193.631 93.5942 193.624 93.5942C193.427 93.5677 193.234 93.5374 193.041 93.5034C192.855 93.4731 192.677 93.4428 192.495 93.4087C192.446 93.4011 192.393 93.3936 192.344 93.3822C192.177 93.3557 192.011 93.3216 191.848 93.2875C191.651 93.2497 191.454 93.208 191.261 93.1664C190.871 93.0831 190.489 92.9922 190.11 92.8975C189.921 92.8521 189.731 92.8029 189.546 92.7499C189.163 92.6477 188.789 92.5378 188.418 92.4243C188.243 92.3712 188.073 92.3144 187.903 92.2576C187.16 92.0153 186.441 91.7465 185.756 91.4587C185.619 91.4019 185.483 91.3414 185.347 91.2808C185.214 91.224 185.085 91.1672 184.961 91.1066C184.767 91.0195 184.582 90.9324 184.396 90.8415C184.359 90.8226 184.324 90.8075 184.29 90.7885C184.158 90.7242 184.029 90.6598 183.904 90.5916C183.76 90.5197 183.62 90.444 183.484 90.3683C183.344 90.2925 183.207 90.2168 183.071 90.1411C183.056 90.1297 183.037 90.1221 183.022 90.1146C182.886 90.0351 182.749 89.9555 182.617 89.8722C182.477 89.7889 182.337 89.7019 182.2 89.6148C182.064 89.5277 181.928 89.4406 181.795 89.3497C178.3 87.0097 176.188 83.9579 176.188 80.6221C176.188 80.27 176.21 79.9254 176.256 79.5809H176.259C176.343 78.9523 176.502 78.3314 176.733 77.7293C177.6 75.4537 179.47 73.3977 182.06 71.7204C182.386 71.5083 182.723 71.3039 183.071 71.107C187.259 68.7102 193.022 67.2335 199.379 67.2335C211.579 67.2335 221.579 72.6745 222.495 79.5809H222.499C222.544 79.9254 222.567 80.27 222.567 80.6221Z" stroke="#2F80ED" stroke-width="1.5" stroke-linecap="round" stroke-linejoin="round"/>
<path d="M228.026 89.3498C228.026 98.4863 215.201 105.892 199.378 105.892C193.316 105.892 187.701 104.806 183.07 102.954C175.611 99.9668 170.727 94.9877 170.727 89.3498C170.727 85.6959 172.779 82.3185 176.255 79.5809C176.209 79.9255 176.186 80.2701 176.186 80.6222C176.186 83.958 178.299 87.0098 181.794 89.3498C181.927 89.4406 182.063 89.5277 182.199 89.6148C182.336 89.7019 182.476 89.789 182.616 89.8723C182.748 89.9556 182.885 90.0351 183.021 90.1146C183.036 90.1222 183.055 90.1298 183.07 90.1411C183.206 90.2169 183.343 90.2926 183.483 90.3683C183.619 90.444 183.759 90.5198 183.903 90.5917C184.028 90.6599 184.157 90.7242 184.289 90.7886C184.323 90.8075 184.357 90.8227 184.395 90.8416C184.581 90.9325 184.766 91.0196 184.96 91.1067C185.084 91.1672 185.213 91.224 185.346 91.2808C185.482 91.3414 185.618 91.402 185.755 91.4588C186.44 91.7465 187.159 92.0154 187.902 92.2577C188.072 92.3145 188.242 92.3713 188.416 92.4243C188.788 92.5379 189.162 92.6477 189.545 92.7499C189.73 92.8029 189.92 92.8522 190.109 92.8976C190.488 92.9923 190.87 93.0831 191.26 93.1664C191.453 93.2119 191.65 93.2497 191.847 93.2876C192.01 93.3217 192.176 93.3557 192.343 93.3823C192.392 93.3936 192.445 93.4012 192.494 93.4088C192.676 93.4428 192.854 93.4731 193.04 93.5034C193.233 93.5375 193.426 93.5678 193.623 93.5943C193.63 93.5943 193.642 93.5981 193.649 93.5981C193.884 93.6322 194.119 93.6662 194.357 93.6965C194.592 93.7268 194.831 93.7533 195.073 93.7798C195.217 93.7988 195.361 93.8101 195.508 93.8253C195.724 93.848 195.944 93.8669 196.163 93.8821C196.364 93.901 196.565 93.9161 196.765 93.9275C196.887 93.9351 197.012 93.9426 197.133 93.9502C197.269 93.9578 197.405 93.9654 197.542 93.9691C197.568 93.9691 197.595 93.9729 197.621 93.9729C197.769 93.9805 197.916 93.9843 198.068 93.9881C198.2 93.9881 198.333 93.9956 198.466 93.9994C198.768 94.007 199.071 94.0108 199.378 94.0108C206.409 94.0108 212.71 92.2047 216.962 89.3498C220.457 87.0098 222.566 83.958 222.566 80.6222C222.566 80.2701 222.543 79.9255 222.498 79.5809C225.974 82.3185 228.026 85.6959 228.026 89.3498Z" stroke="#2F80ED" stroke-width="1.5" stroke-linecap="round" stroke-linejoin="round"/>
<path d="M228.026 168.129V178.375C228.026 187.511 215.201 194.917 199.378 194.917C183.555 194.917 170.727 187.511 170.727 178.375V168.129C170.727 168.735 170.783 169.329 170.893 169.916C170.897 169.943 170.905 169.969 170.908 169.996C170.931 170.113 170.958 170.23 170.984 170.348C171.011 170.469 171.041 170.59 171.075 170.711C171.113 170.848 171.151 170.984 171.196 171.116C171.253 171.306 171.321 171.495 171.389 171.681C171.435 171.794 171.48 171.908 171.529 172.021C171.613 172.226 171.707 172.43 171.802 172.631C171.904 172.839 172.014 173.047 172.131 173.252C173.188 175.13 174.812 176.86 176.887 178.375C182.135 182.21 190.257 184.672 199.378 184.672C208.499 184.672 216.621 182.21 221.865 178.375C223.94 176.86 225.565 175.13 226.621 173.252C227.534 171.639 228.026 169.916 228.026 168.129Z" stroke="#2F80ED" stroke-width="1.5" stroke-linecap="round" stroke-linejoin="round"/>
<path d="M228.026 89.3496V158.939C228.026 160.533 227.636 162.078 226.905 163.536C225.974 165.403 224.489 167.129 222.562 168.659C217.356 172.794 208.912 175.482 199.378 175.482C189.844 175.482 181.397 172.794 176.19 168.659C175.834 168.375 175.49 168.083 175.164 167.788C173.733 166.486 172.605 165.058 171.847 163.536C171.238 162.317 170.863 161.037 170.761 159.719C170.738 159.462 170.727 159.201 170.727 158.939V89.3496C170.727 94.9875 175.611 99.9666 183.07 102.954C187.701 104.806 193.316 105.892 199.378 105.892C215.201 105.892 228.026 98.4861 228.026 89.3496Z" stroke="#2F80ED" stroke-width="1.5" stroke-linecap="round" stroke-linejoin="round"/>
<path d="M170.761 159.719C170.761 159.719 170.738 159.731 170.727 159.735V158.939C170.727 159.201 170.738 159.462 170.761 159.719Z" stroke="#2F80ED" stroke-width="1.5" stroke-linecap="round" stroke-linejoin="round"/>
<path d="M228.026 158.939V168.129C228.026 166.535 227.636 164.994 226.905 163.536C227.636 162.078 228.026 160.534 228.026 158.939Z" stroke="#2F80ED" stroke-width="1.5" stroke-linecap="round" stroke-linejoin="round"/>
<path d="M201.185 119.989L192.185 136.482L206.573 133.847L197.989 149.439" stroke="#2F80ED" stroke-width="1.5" stroke-linecap="round" stroke-linejoin="round"/>
<path d="M177.611 58.6309C177.611 61.9667 175.502 65.0185 172.007 67.3585C167.755 70.2134 161.454 72.0195 154.423 72.0195C147.392 72.0195 141.091 70.2134 136.839 67.3585C133.344 65.0185 131.231 61.9667 131.231 58.6309C131.231 58.2788 131.254 57.9342 131.3 57.5897H131.303C132.22 50.6833 142.219 45.2423 154.423 45.2423C166.626 45.2423 176.622 50.6833 177.539 57.5897C177.584 57.9342 177.607 58.2788 177.607 58.6309H177.611Z" stroke="#2F80ED" stroke-width="1.5" stroke-linecap="round" stroke-linejoin="round"/>
<path d="M183.072 67.3547C183.072 67.4682 183.068 67.5781 183.064 67.6916C183.064 67.7371 183.06 67.7825 183.06 67.828V67.8507C183.053 67.9491 183.049 68.0438 183.038 68.1422C183.038 68.1801 183.034 68.2217 183.026 68.2596C183.019 68.3656 183.007 68.4754 182.992 68.5814C182.973 68.7367 182.95 68.8919 182.924 69.0472C182.897 69.1873 182.871 69.3236 182.841 69.4637C182.818 69.5735 182.791 69.6833 182.761 69.7931C182.735 69.9029 182.704 70.0165 182.67 70.1263C182.644 70.2172 182.617 70.308 182.587 70.3951C182.53 70.5769 182.466 70.7548 182.398 70.929C182.364 71.0199 182.33 71.107 182.292 71.194C182.22 71.372 182.144 71.5462 182.061 71.7203C179.471 73.3977 177.6 75.4537 176.733 77.7293C176.57 77.8505 176.404 77.9641 176.233 78.0777L176.029 78.214C175.961 78.2632 175.889 78.3086 175.821 78.3503C175.669 78.4487 175.51 78.5472 175.355 78.6456C175.241 78.7176 175.128 78.7857 175.014 78.8539C174.821 78.9712 174.624 79.0848 174.424 79.1946C174.246 79.2969 174.068 79.3953 173.886 79.4938C173.769 79.5543 173.647 79.6187 173.526 79.6793C173.314 79.7891 173.102 79.8989 172.883 80.0011C172.795 80.0466 172.708 80.0882 172.617 80.1299C172.311 80.2775 171.996 80.4214 171.682 80.5577C171.474 80.6486 171.262 80.7395 171.05 80.8266C171.035 80.8341 171.02 80.8379 171.008 80.8455C170.766 80.944 170.516 81.0424 170.266 81.1408C170.221 81.1598 170.171 81.1749 170.126 81.1939C170.1 81.2052 170.073 81.2128 170.043 81.2241C169.944 81.262 169.846 81.2999 169.744 81.3339C169.301 81.4968 168.85 81.652 168.392 81.7997C168.161 81.8754 167.93 81.9473 167.695 82.0155C167.487 82.0799 167.275 82.1442 167.063 82.201C166.783 82.2843 166.499 82.3601 166.215 82.4358C165.791 82.5456 165.363 82.6516 164.927 82.75C164.855 82.7652 164.783 82.7803 164.715 82.7955C164.5 82.8447 164.28 82.8939 164.06 82.9356C164.026 82.9432 163.992 82.9507 163.958 82.9583C163.75 83.0037 163.538 83.0454 163.326 83.0833C163.295 83.087 163.265 83.0946 163.235 83.0984C163.034 83.1363 162.834 83.1741 162.629 83.2082C162.621 83.2082 162.614 83.212 162.606 83.212C162.599 83.212 162.591 83.2158 162.584 83.2158C162.576 83.2158 162.568 83.2196 162.561 83.2196C161.717 83.3634 160.853 83.4846 159.975 83.5868C159.926 83.5906 159.88 83.5982 159.831 83.602C159.748 83.6096 159.661 83.6209 159.577 83.6285C159.49 83.6361 159.403 83.6474 159.32 83.655C159.074 83.6815 158.824 83.7042 158.574 83.7231C158.464 83.7307 158.358 83.7421 158.252 83.7497C158.142 83.761 158.032 83.7686 157.926 83.7724C157.76 83.7875 157.593 83.7989 157.423 83.8064C157.4 83.8064 157.377 83.8102 157.355 83.8102C157.196 83.8216 157.033 83.8292 156.874 83.8367C156.749 83.8405 156.62 83.8481 156.495 83.8519C156.298 83.8632 156.098 83.8708 155.897 83.8746C155.689 83.8822 155.477 83.886 155.268 83.8897C154.988 83.8935 154.704 83.8973 154.424 83.8973C154.144 83.8973 153.856 83.8935 153.572 83.8897C153.364 83.886 153.156 83.8822 152.951 83.8746C152.705 83.867 152.463 83.8595 152.22 83.8481C151.978 83.8367 151.736 83.8254 151.493 83.8102C151.384 83.8064 151.274 83.7989 151.168 83.7913C150.994 83.7799 150.816 83.7686 150.641 83.7534C150.335 83.7307 150.028 83.7042 149.721 83.6739C149.464 83.6512 149.206 83.6247 148.953 83.5944C148.824 83.5793 148.695 83.5641 148.566 83.549C148.362 83.5263 148.161 83.4998 147.964 83.4732C147.927 83.4695 147.885 83.4619 147.847 83.4581C147.65 83.4316 147.457 83.4051 147.264 83.3748C147.037 83.3407 146.81 83.3066 146.582 83.2688C146.423 83.2461 146.261 83.2158 146.102 83.1893C145.916 83.1552 145.73 83.1211 145.545 83.087C145.439 83.0681 145.337 83.0454 145.234 83.0265C145.132 83.0075 145.03 82.9886 144.932 82.9659C144.916 82.9621 144.901 82.9583 144.886 82.9545C144.723 82.9242 144.564 82.8901 144.405 82.8561C144.152 82.8031 143.898 82.7463 143.648 82.6857C143.599 82.6743 143.553 82.663 143.508 82.6554C143.243 82.591 142.985 82.5267 142.728 82.4585C142.486 82.3941 142.243 82.3298 142.005 82.2654C141.952 82.2502 141.902 82.2351 141.849 82.22C141.724 82.1859 141.6 82.148 141.478 82.1139C141.353 82.0761 141.228 82.042 141.107 82.0041C140.842 81.9208 140.581 81.8375 140.32 81.7542H140.316C138.033 79.0848 134.246 76.919 129.601 75.6241H129.597C129.597 75.6241 129.578 75.6014 129.566 75.59C129.426 75.4499 129.29 75.306 129.158 75.1622C129.07 75.0713 128.987 74.9804 128.908 74.8858C128.885 74.8592 128.862 74.8365 128.839 74.81C128.775 74.7381 128.714 74.6661 128.658 74.5942C128.612 74.5412 128.567 74.4882 128.521 74.4314C128.476 74.3784 128.431 74.3254 128.389 74.2686C128.26 74.1133 128.139 73.9543 128.025 73.7953C127.965 73.712 127.904 73.6287 127.847 73.5454C127.817 73.5037 127.787 73.4621 127.76 73.4204C127.704 73.3447 127.654 73.2652 127.605 73.1857C127.598 73.1743 127.594 73.1667 127.586 73.1554C127.518 73.0569 127.454 72.9547 127.397 72.8525C127.351 72.7805 127.306 72.7048 127.264 72.6329C127.204 72.5344 127.147 72.436 127.098 72.3375C127.079 72.3072 127.06 72.2732 127.045 72.2429C126.992 72.1482 126.942 72.0535 126.897 71.9589C126.878 71.921 126.863 71.8869 126.844 71.8491C126.783 71.7279 126.727 71.6105 126.674 71.4894C126.666 71.4742 126.659 71.4629 126.655 71.4477C126.602 71.3303 126.552 71.2092 126.507 71.0918C126.45 70.9593 126.401 70.8268 126.356 70.6905C126.321 70.5996 126.291 70.5087 126.261 70.414C126.234 70.3383 126.212 70.2588 126.189 70.1793C126.185 70.1717 126.185 70.1604 126.181 70.1528C126.159 70.0695 126.132 69.9824 126.109 69.8953C126.087 69.812 126.064 69.7249 126.045 69.6378C126 69.4599 125.966 69.2819 125.932 69.104C125.924 69.0623 125.916 69.0169 125.909 68.9752C125.894 68.8919 125.882 68.8086 125.871 68.7291C125.871 68.7215 125.871 68.7178 125.867 68.7102C125.867 68.6647 125.856 68.6193 125.852 68.5777C125.848 68.5739 125.848 68.5663 125.848 68.5625C125.837 68.4716 125.825 68.3808 125.818 68.2861C125.81 68.2331 125.807 68.1763 125.803 68.1195C125.795 68.0324 125.791 67.9415 125.784 67.8507V67.828C125.784 67.7825 125.78 67.7371 125.78 67.6879C125.776 67.5781 125.772 67.4682 125.772 67.3547C125.772 63.7008 127.825 60.3234 131.301 57.5858C131.255 57.9304 131.232 58.2749 131.232 58.6271C131.232 61.9629 133.345 65.0147 136.84 67.3547C141.092 70.2096 147.393 72.0157 154.424 72.0157C161.455 72.0157 167.756 70.2096 172.008 67.3547C175.503 65.0147 177.612 61.9629 177.612 58.6271C177.612 58.2749 177.589 57.9304 177.544 57.5858C181.019 60.3234 183.072 63.7008 183.072 67.3547Z" stroke="#2F80ED" stroke-width="1.5" stroke-linecap="round" stroke-linejoin="round"/>
<path d="M170.762 159.719C170.762 159.719 170.739 159.731 170.727 159.735C166.1 161.59 160.481 162.677 154.423 162.677C152.276 162.677 150.186 162.54 148.176 162.283V153.093C150.186 153.351 152.276 153.487 154.423 153.487C160.481 153.487 166.1 152.4 170.727 150.549V158.939C170.727 159.201 170.739 159.462 170.762 159.719Z" stroke="#2F80ED" stroke-width="1.5" stroke-linecap="round" stroke-linejoin="round"/>
<path d="M228.026 168.129C228.026 169.916 227.534 171.639 226.621 173.252C225.565 175.13 223.94 176.86 221.865 178.375C216.621 182.211 208.499 184.672 199.378 184.672C190.257 184.672 182.135 182.211 176.887 178.375C174.812 176.86 173.188 175.13 172.131 173.252C172.014 173.048 171.904 172.839 171.802 172.631C171.707 172.43 171.613 172.226 171.529 172.021C171.48 171.908 171.435 171.794 171.389 171.681C171.321 171.495 171.253 171.306 171.196 171.116C171.151 170.984 171.113 170.848 171.075 170.711C171.041 170.59 171.011 170.469 170.984 170.348C170.958 170.23 170.931 170.113 170.908 169.996C170.905 169.969 170.897 169.943 170.893 169.916C170.783 169.329 170.727 168.735 170.727 168.129V159.735C170.727 159.735 170.749 159.727 170.761 159.719C170.863 161.037 171.238 162.317 171.847 163.536C172.605 165.058 173.733 166.486 175.164 167.788C175.49 168.084 175.834 168.375 176.19 168.659C181.397 172.794 189.844 175.482 199.378 175.482C208.912 175.482 217.356 172.794 222.562 168.659C224.489 167.129 225.974 165.403 226.905 163.536C227.636 164.994 228.026 166.535 228.026 168.129Z" stroke="#2F80ED" stroke-width="1.5" stroke-linecap="round" stroke-linejoin="round"/>
<path d="M170.894 169.916C170.841 169.939 170.784 169.962 170.727 169.984C166.1 171.836 160.481 172.923 154.423 172.923C152.276 172.923 150.186 172.786 148.176 172.525V162.283C150.186 162.54 152.276 162.677 154.423 162.677C160.481 162.677 166.1 161.59 170.727 159.735V168.129C170.727 168.735 170.784 169.329 170.894 169.916Z" stroke="#2F80ED" stroke-width="1.5" stroke-linecap="round" stroke-linejoin="round"/>
<path d="M126.718 140.913L126.654 141.03C126.635 140.996 126.624 140.962 126.608 140.932L126.718 140.913Z" stroke="#2F80ED" stroke-width="1.5" stroke-linecap="round" stroke-linejoin="round"/>
<path d="M142.715 87.6876C142.715 91.0234 140.606 94.0752 137.111 96.4152C136.93 96.5363 136.74 96.6575 136.551 96.7749C136.547 96.7786 136.543 96.7824 136.54 96.7824C136.35 96.9036 136.157 97.0172 135.96 97.1308C135.873 97.18 135.782 97.233 135.695 97.2822C135.604 97.3352 135.514 97.3845 135.423 97.4337C135.173 97.57 134.919 97.7025 134.658 97.835C134.495 97.9146 134.328 97.9941 134.162 98.0736C133.965 98.1645 133.764 98.2553 133.56 98.3462C133.461 98.3916 133.359 98.4371 133.253 98.4787C133.245 98.4825 133.238 98.4863 133.23 98.4863C133.064 98.562 132.893 98.6302 132.719 98.6983C132.553 98.7665 132.378 98.8346 132.204 98.899C132.174 98.9142 132.14 98.9255 132.106 98.9369C132.026 98.9672 131.947 98.9975 131.867 99.024C131.852 99.0278 131.841 99.0353 131.826 99.0391C131.814 99.0429 131.803 99.0467 131.792 99.0505C131.659 99.0997 131.523 99.1451 131.386 99.1943C131.083 99.3004 130.773 99.3988 130.462 99.4973C130.239 99.5654 130.016 99.6298 129.789 99.6942C129.554 99.7661 129.311 99.8305 129.069 99.891C128.884 99.9403 128.698 99.9895 128.513 100.035C128.475 100.042 128.437 100.054 128.399 100.061C128.384 100.065 128.365 100.069 128.35 100.073C128.119 100.13 127.884 100.183 127.645 100.232C127.638 100.232 127.634 100.236 127.627 100.236C127.475 100.27 127.32 100.3 127.165 100.33C126.979 100.368 126.79 100.406 126.604 100.44C126.358 100.486 126.112 100.527 125.866 100.569C125.836 100.573 125.801 100.58 125.771 100.584C125.51 100.626 125.249 100.667 124.984 100.701C124.745 100.735 124.507 100.769 124.264 100.796C124.135 100.811 124.007 100.826 123.878 100.841C123.753 100.853 123.624 100.868 123.496 100.879C123.253 100.906 123.011 100.929 122.765 100.947C122.488 100.97 122.212 100.989 121.932 101.004C121.724 101.019 121.515 101.027 121.307 101.038C121.152 101.046 120.997 101.05 120.838 101.053C120.663 101.061 120.485 101.065 120.307 101.069C120.046 101.072 119.789 101.076 119.527 101.076C112.496 101.076 106.196 99.2701 101.944 96.4152C98.4487 94.0752 96.3359 91.0234 96.3359 87.6876C96.3359 87.3354 96.3587 86.9909 96.4041 86.6463H96.4079C97.3242 79.74 107.324 74.299 119.527 74.299C121.689 74.299 123.783 74.4693 125.771 74.7912C127.096 75.0032 128.376 75.2834 129.595 75.6204H129.599C134.245 76.9191 138.031 79.0849 140.315 81.7543H140.318C141.598 83.2499 142.412 84.9008 142.643 86.6463C142.689 86.9909 142.711 87.3354 142.711 87.6876H142.715Z" stroke="#2F80ED" stroke-width="1.5" stroke-linecap="round" stroke-linejoin="round"/>
<path d="M129.597 75.6204C128.378 75.2834 127.098 75.0032 125.772 74.7912V67.3547C125.772 67.4683 125.776 67.5781 125.78 67.6879C125.78 67.7372 125.784 67.7826 125.784 67.828V67.8508C125.791 67.9416 125.795 68.0325 125.803 68.1196C125.807 68.1764 125.81 68.2332 125.818 68.2862C125.825 68.3808 125.837 68.4717 125.848 68.5626C125.848 68.5664 125.848 68.5739 125.852 68.5777C125.856 68.6194 125.863 68.6648 125.867 68.7103C125.871 68.7178 125.871 68.7216 125.871 68.7292C125.882 68.8087 125.894 68.892 125.909 68.9753C125.916 69.017 125.924 69.0624 125.932 69.104C125.966 69.282 126 69.46 126.045 69.6379C126.064 69.725 126.087 69.8121 126.109 69.8954C126.132 69.9825 126.159 70.0696 126.181 70.1529C126.185 70.1604 126.185 70.1718 126.189 70.1794C126.212 70.2589 126.234 70.3384 126.261 70.4141C126.291 70.5088 126.321 70.5997 126.356 70.6905C126.401 70.8268 126.45 70.9594 126.507 71.0919C126.552 71.2093 126.602 71.3304 126.655 71.4478C126.659 71.4629 126.666 71.4743 126.674 71.4895C126.727 71.6106 126.783 71.728 126.844 71.8492C126.863 71.887 126.878 71.9211 126.897 71.959C126.942 72.0536 126.992 72.1483 127.045 72.2429C127.06 72.2732 127.079 72.3073 127.098 72.3376C127.147 72.436 127.204 72.5345 127.264 72.6329C127.306 72.7049 127.351 72.7806 127.397 72.8526C127.454 72.9548 127.518 73.057 127.586 73.1555C127.594 73.1668 127.598 73.1744 127.605 73.1857C127.654 73.2653 127.704 73.3448 127.76 73.4205C127.787 73.4622 127.817 73.5038 127.847 73.5455C127.904 73.6288 127.965 73.7121 128.025 73.7954C128.139 73.9544 128.26 74.1134 128.389 74.2687C128.431 74.3254 128.476 74.3785 128.521 74.4315C128.567 74.4883 128.612 74.5413 128.658 74.5943C128.714 74.6662 128.775 74.7382 128.839 74.8101C128.862 74.8366 128.885 74.8593 128.908 74.8858C128.987 74.9805 129.07 75.0714 129.158 75.1622C129.29 75.3061 129.426 75.45 129.566 75.5901C129.578 75.6015 129.585 75.609 129.597 75.6204Z" stroke="#2F80ED" stroke-width="1.5" stroke-linecap="round" stroke-linejoin="round"/>
<path d="M176.732 77.7294C176.501 78.3314 176.342 78.9524 176.259 79.5809H176.255C172.779 82.3185 170.727 85.6959 170.727 89.3497V150.549C166.1 152.4 160.481 153.487 154.423 153.487C152.276 153.487 150.186 153.351 148.175 153.093V96.4151C148.175 92.7613 146.123 89.3838 142.647 86.6463C142.416 84.9008 141.602 83.2499 140.322 81.7543C140.584 81.8376 140.845 81.9209 141.11 82.0042C141.231 82.0421 141.356 82.0761 141.481 82.114C141.602 82.1481 141.727 82.1859 141.852 82.22C141.905 82.2352 141.954 82.2503 142.007 82.2654C142.246 82.3298 142.488 82.3942 142.73 82.4586C142.988 82.5267 143.245 82.5911 143.51 82.6554C143.556 82.663 143.601 82.6744 143.651 82.6857C143.9 82.7463 144.154 82.8031 144.408 82.8561C144.567 82.8902 144.726 82.9243 144.889 82.9546C144.904 82.9584 144.919 82.9621 144.934 82.9659C145.033 82.9886 145.135 83.0076 145.237 83.0265C145.339 83.0454 145.441 83.0682 145.547 83.0871C145.733 83.1212 145.919 83.1552 146.104 83.1893C146.263 83.2158 146.426 83.2461 146.585 83.2688C146.812 83.3067 147.039 83.3446 147.266 83.3749C147.46 83.4051 147.653 83.4316 147.85 83.4582C147.887 83.4619 147.929 83.4695 147.967 83.4733C148.164 83.4998 148.365 83.5263 148.569 83.549C148.698 83.5642 148.826 83.5793 148.955 83.5945C149.209 83.6248 149.466 83.6513 149.724 83.674C150.031 83.7043 150.337 83.7308 150.644 83.7535C150.818 83.7686 150.996 83.78 151.17 83.7914C151.276 83.7989 151.386 83.8065 151.496 83.8103C151.738 83.8254 151.981 83.8368 152.223 83.8482C152.465 83.8595 152.707 83.8671 152.954 83.8747C153.158 83.8822 153.366 83.886 153.575 83.8898C153.859 83.8936 154.143 83.8974 154.427 83.8974C154.71 83.8974 154.991 83.8936 155.271 83.8898C155.479 83.886 155.691 83.8822 155.899 83.8747C156.1 83.8709 156.301 83.8633 156.498 83.8519C156.623 83.8482 156.751 83.8406 156.876 83.8368C157.035 83.8292 157.198 83.8216 157.357 83.8103C157.38 83.8103 157.403 83.8065 157.425 83.8065C157.596 83.7989 157.762 83.7876 157.929 83.7724C158.035 83.7686 158.145 83.7611 158.255 83.7497C158.361 83.7421 158.467 83.7308 158.576 83.7232C158.826 83.7043 159.076 83.6816 159.322 83.655C159.406 83.6475 159.493 83.6361 159.58 83.6285C159.663 83.621 159.75 83.6096 159.833 83.602C159.883 83.602 159.928 83.5907 159.977 83.5869C160.856 83.4847 161.719 83.3635 162.563 83.2196C162.571 83.2196 162.579 83.2158 162.586 83.2158C162.594 83.2158 162.601 83.212 162.609 83.212C162.616 83.212 162.624 83.2083 162.632 83.2083C162.836 83.1742 163.037 83.1363 163.237 83.0984C163.268 83.0947 163.298 83.0871 163.328 83.0833C163.54 83.0454 163.752 83.0038 163.961 82.9584C163.995 82.9508 164.029 82.9432 164.063 82.9356C164.282 82.894 164.502 82.8448 164.718 82.7955C164.786 82.7804 164.858 82.7652 164.93 82.7501C165.365 82.6517 165.793 82.5456 166.217 82.4358C166.501 82.3601 166.785 82.2844 167.065 82.2011C167.277 82.1443 167.49 82.0799 167.698 82.0155C167.933 81.9474 168.163 81.8754 168.394 81.7997C168.853 81.6521 169.303 81.4968 169.746 81.334C169.848 81.2999 169.947 81.2621 170.045 81.2242C170.076 81.2128 170.102 81.2053 170.129 81.1939C170.174 81.175 170.223 81.1598 170.269 81.1409C170.519 81.0425 170.769 80.944 171.011 80.8456C171.022 80.838 171.037 80.8342 171.052 80.8266C171.265 80.7395 171.477 80.6487 171.685 80.5578C171.999 80.4215 172.313 80.2776 172.62 80.1299C172.711 80.0883 172.798 80.0466 172.885 80.0012C173.105 79.899 173.317 79.7892 173.529 79.6794C173.65 79.6188 173.771 79.5544 173.888 79.4938C174.07 79.3954 174.248 79.2969 174.426 79.1947C174.627 79.0849 174.824 78.9713 175.017 78.8539C175.13 78.7858 175.244 78.7176 175.358 78.6457C175.513 78.5472 175.672 78.4488 175.823 78.3503C175.891 78.3087 175.963 78.2633 176.032 78.214L176.236 78.0777C176.406 77.9641 176.573 77.8505 176.736 77.7294H176.732Z" stroke="#2F80ED" stroke-width="1.5" stroke-linecap="round" stroke-linejoin="round"/>
<path d="M183.072 67.3547V71.107C182.723 71.3039 182.386 71.5084 182.061 71.7204C182.144 71.5462 182.22 71.3721 182.292 71.1941C182.329 71.107 182.363 71.0199 182.398 70.9291C182.466 70.7549 182.53 70.5769 182.587 70.3952C182.617 70.3081 182.644 70.2172 182.67 70.1264C182.704 70.0166 182.735 69.903 182.761 69.7932C182.791 69.6834 182.818 69.5736 182.841 69.4637C182.871 69.3237 182.901 69.1873 182.924 69.0472C182.95 68.892 182.973 68.7368 182.992 68.5815C183.007 68.4755 183.019 68.3657 183.026 68.2597C183.034 68.2218 183.037 68.1802 183.037 68.1423C183.049 68.0439 183.053 67.9492 183.06 67.8508V67.828C183.06 67.7826 183.064 67.7372 183.064 67.6917C183.064 67.5781 183.072 67.4683 183.072 67.3547Z" stroke="#2F80ED" stroke-width="1.5" stroke-linecap="round" stroke-linejoin="round"/>
<path d="M126.655 141.03L125.772 142.632V141.087L126.609 140.932C126.624 140.962 126.636 140.996 126.655 141.03Z" stroke="#2F80ED" stroke-width="1.5" stroke-linecap="round" stroke-linejoin="round"/>
<path d="M148.176 114.313L161.614 111.852L153.034 127.444" stroke="#2F80ED" stroke-width="1.5" stroke-linecap="round" stroke-linejoin="round"/>
<path d="M156.229 97.9978L148.176 112.746" stroke="#2F80ED" stroke-width="1.5" stroke-linecap="round" stroke-linejoin="round"/>
<path d="M149.531 188.334L227.108 234.798C231.863 237.646 239.741 237.688 244.587 234.891L250.548 231.45C255.412 228.641 263.329 228.696 268.075 231.572L273.964 235.14" stroke="#2F80ED" stroke-width="1.5"/>
<path d="M415.538 269.461L466.137 240.829C470.933 238.115 478.621 238.137 483.37 240.879L496.876 248.676C501.803 251.52 509.843 251.422 514.557 248.459L558.981 220.538" stroke="#2F80ED" stroke-width="1.5"/>
<path d="M483.79 349.023L484.63 348.485C489.313 345.487 497.385 345.358 502.35 348.2L546.647 373.564" stroke="#2F80ED" stroke-width="1.5"/>
<g clip-path="url(#clip0_421_863)">
<path d="M373.508 290.661C373.508 299.71 368.903 304.857 362.254 304.633V310.828L361.175 310.209V310.089L346.995 301.912V302.028L345.917 301.405V295.396C343.254 292.477 340.9 289.073 339.023 285.463C336.089 279.818 334.314 273.658 334.314 268.048C334.314 262.437 336.089 258.321 339.027 256.067C342.622 253.294 347.958 253.307 353.916 256.745C364.737 262.987 373.513 278.17 373.508 290.661Z" stroke="#2F80ED" stroke-width="1.5" stroke-linecap="round" stroke-linejoin="round"/>
<path d="M361.175 310.089V310.209L361.171 310.205L361.175 310.089Z" stroke="#2F80ED" stroke-width="1.5" stroke-linecap="round" stroke-linejoin="round"/>
<path d="M361.175 310.089V310.209L361.171 318.773L360.398 318.327L347.773 311.046L346.995 310.596V301.912L361.175 310.089Z" stroke="#2F80ED" stroke-width="1.5" stroke-linecap="round" stroke-linejoin="round"/>
<path d="M360.397 318.327L359.483 323.173L348.683 316.945L347.772 311.047L360.397 318.327Z" stroke="#2F80ED" stroke-width="1.5" stroke-linecap="round" stroke-linejoin="round"/>
<path d="M337.717 322.061C338.146 322.525 338.58 322.988 339.023 323.439V321.306L337.717 322.061Z" stroke="#2F80ED" stroke-width="1.5" stroke-linecap="round" stroke-linejoin="round"/>
<path d="M361.175 310.089V310.209L361.171 318.773L360.398 318.327L359.483 323.173L348.683 316.944L347.773 311.046L346.995 310.596V303.281L346.252 302.852V302.736L346.995 303.165V301.912L361.175 310.089Z" stroke="#2F80ED" stroke-width="1.5" stroke-linecap="round" stroke-linejoin="round"/>
<path d="M361.175 310.089V310.209L361.171 318.773L360.398 318.327L359.483 323.173L348.683 316.944L347.773 311.046L346.995 310.596V303.281L346.252 302.852V302.736L346.995 303.165V301.912L361.175 310.089Z" stroke="#2F80ED" stroke-width="1.5" stroke-linecap="round" stroke-linejoin="round"/>
<path d="M339.027 233.797V236.085C337.575 235.909 336.166 235.849 334.8 235.9C336.114 235.029 337.528 234.325 339.027 233.797Z" stroke="#2F80ED" stroke-width="1.5" stroke-linecap="round" stroke-linejoin="round"/>
<path d="M313.064 336.27L274.359 313.944L274.368 124.349L313.068 146.679L313.064 336.27Z" stroke="#2F80ED" stroke-width="1.5" stroke-linecap="round" stroke-linejoin="round"/>
<path d="M351.772 190.691L339.104 198.001L351.772 205.312V205.561L339.026 198.212V236.085C337.574 235.909 336.165 235.849 334.799 235.901H334.795C321.972 236.394 313.244 246.95 313.244 264.893C313.244 284.166 323.313 306.531 337.716 322.061L313.076 336.274L313.067 146.679L351.772 124.349V190.691Z" stroke="#2F80ED" stroke-width="1.5" stroke-linecap="round" stroke-linejoin="round"/>
<path d="M274.441 124.139L313.068 146.426L351.699 124.139L313.068 101.852L274.441 124.139Z" stroke="#2F80ED" stroke-width="1.5" stroke-linecap="round" stroke-linejoin="round"/>
<path d="M361.175 310.089V310.209L361.171 318.773L360.398 318.327L359.483 323.173L348.683 316.944L347.773 311.046L346.995 310.596V303.281L346.252 302.852V302.736L346.995 303.165V301.912L361.175 310.089Z" stroke="#2F80ED" stroke-width="1.5" stroke-linecap="round" stroke-linejoin="round"/>
<path d="M377.727 340.129V372.43L339.022 350.105V323.439C343.632 328.195 348.658 332.243 353.911 335.278C362.803 340.408 371.034 341.859 377.727 340.129Z" stroke="#2F80ED" stroke-width="1.5" stroke-linecap="round" stroke-linejoin="round"/>
<path d="M405.233 308.505C405.233 326.448 396.504 337.004 383.681 337.497C390.442 333.016 394.579 324.165 394.579 311.811C394.584 296.164 387.947 278.479 377.74 264.068C377.74 264.068 377.737 264.066 377.732 264.06C371.043 254.608 362.813 246.563 353.916 241.429C348.658 238.395 343.637 236.652 339.027 236.085V233.797C346.008 231.312 354.891 232.544 364.565 238.12C369.175 240.781 373.603 244.22 377.732 248.237C377.736 248.237 377.736 248.242 377.736 248.242C393.733 263.781 405.233 287.909 405.233 308.505Z" stroke="#2F80ED" stroke-width="1.5" stroke-linecap="round" stroke-linejoin="round"/>
<path d="M377.736 220.537V248.237C373.603 244.22 369.175 240.781 364.565 238.12C354.891 232.544 346.008 231.312 339.027 233.797V198.212L351.773 205.561L377.736 220.537Z" stroke="#2F80ED" stroke-width="1.5" stroke-linecap="round" stroke-linejoin="round"/>
<path d="M406.302 285.192L416.444 291.043V291.301L406.224 285.411V356.003L377.744 372.43V340.124C379.887 339.571 381.876 338.691 383.676 337.497H383.681C396.503 337.004 405.232 326.448 405.232 308.505C405.232 287.909 393.733 263.781 377.735 248.242V220.537L416.44 198.212V279.341L406.302 285.192Z" stroke="#2F80ED" stroke-width="1.5" stroke-linecap="round" stroke-linejoin="round"/>
<path d="M416.362 198.001L377.736 220.284L351.772 205.307L339.104 198.001L351.772 190.691L377.736 175.706L416.362 198.001Z" stroke="#2F80ED" stroke-width="1.5" stroke-linecap="round" stroke-linejoin="round"/>
<path d="M444.937 307.737L444.924 408.995L406.22 386.669V356.003L406.228 285.407L416.443 291.301L444.937 307.737Z" stroke="#2F80ED" stroke-width="1.5" stroke-linecap="round" stroke-linejoin="round"/>
<path d="M483.641 386.669L444.941 408.995L444.933 307.737L483.637 285.407L483.641 386.669Z" stroke="#2F80ED" stroke-width="1.5" stroke-linecap="round" stroke-linejoin="round"/>
<path d="M483.564 285.192L444.937 307.484L416.444 291.043L406.302 285.192L416.444 279.341L444.937 262.905L483.564 285.192Z" stroke="#2F80ED" stroke-width="1.5" stroke-linecap="round" stroke-linejoin="round"/>
<path d="M354.947 268.795L348.632 278.238H354.947L353.061 286.695" stroke="#2F80ED" stroke-width="1.5" stroke-linecap="round" stroke-linejoin="round"/>
</g>
<defs>
<clipPath id="clip0_421_863">
<rect width="211" height="350" fill="white" transform="translate(273.5 59.8531)"/>
</clipPath>
</defs>
</svg>
