<svg width="750" height="492" viewBox="0 0 750 492" fill="none" xmlns="http://www.w3.org/2000/svg">
<path d="M449.096 311.308C449.096 313.147 448.996 314.902 448.801 316.569C448.426 319.765 447.708 322.633 446.678 325.154C445.346 328.445 443.491 331.137 441.213 333.184C434.408 339.291 423.821 339.63 411.93 332.765C410.897 332.166 409.876 331.532 408.871 330.854V330.998L278.582 255.781C258.058 243.933 241.42 215.117 241.42 191.418C241.424 178.095 246.681 169.227 254.931 166.12C258.557 164.752 262.761 164.5 267.352 165.474C269.195 160.926 272.032 157.516 275.614 155.385L277.437 154.44C279.431 153.543 281.621 153.004 283.971 152.84C285.714 141.232 291.334 133.354 299.372 130.043L299.4 130.027C302.99 128.555 307.059 127.989 311.487 128.408C314.634 128.707 317.965 129.505 321.427 130.829C323.917 131.778 326.478 133.003 329.086 134.511C344.436 143.375 358.015 159.957 366.296 178.143C368.063 178.861 369.874 179.75 371.713 180.815C392.236 192.663 408.875 221.475 408.875 245.178V245.322C409.88 245.804 410.901 246.347 411.934 246.945C432.458 258.793 449.096 287.605 449.096 311.308Z" stroke="#2F80ED" stroke-width="1.50519" stroke-miterlimit="10"/>
<path d="M277.438 154.44L275.615 155.385C276.202 155.034 276.812 154.719 277.438 154.44Z" stroke="#2F80ED" stroke-width="1.50519" stroke-miterlimit="10"/>
<path d="M472.612 299.205C472.608 309.102 469.704 316.545 464.83 320.989H464.826C464.826 320.989 464.81 321.005 464.798 321.013C464.443 321.244 461.132 322.967 456.776 325.209C452.013 327.663 445.997 330.742 441.215 333.183C443.492 331.137 445.347 328.444 446.68 325.153C447.709 322.632 448.427 319.764 448.802 316.569C448.997 314.902 449.097 313.147 449.097 311.308C449.097 287.605 432.459 258.792 411.935 246.945C410.902 246.347 409.881 245.804 408.876 245.321V245.178C408.876 221.475 392.238 192.662 371.714 180.815C369.875 179.75 368.064 178.861 366.297 178.142C358.016 159.957 344.437 143.374 329.088 134.511C326.479 133.003 323.918 131.778 321.429 130.829C317.966 129.505 314.635 128.707 311.488 128.408C307.06 127.989 302.991 128.555 299.401 130.027L317.531 121.116C325.908 114.37 338.51 114.278 352.603 122.412C367.952 131.276 381.531 147.854 389.812 166.044C391.579 166.758 393.39 167.651 395.229 168.712C415.753 180.56 432.391 209.376 432.391 233.075V233.223C433.396 233.705 434.417 234.248 435.45 234.842C455.978 246.694 472.612 275.506 472.612 299.205Z" stroke="#2F80ED" stroke-width="1.50519" stroke-miterlimit="10"/>
<path d="M464.797 321.013C462.52 323.083 459.815 324.503 456.775 325.209C461.131 322.968 464.442 321.244 464.797 321.013Z" stroke="#2F80ED" stroke-width="1.50519" stroke-miterlimit="10"/>
<path d="M361.722 222.05C361.263 220.043 360.657 218.021 359.931 216.018L364.442 211.638L355.463 196.089L349.42 197.808C348.044 196.177 346.6 194.641 345.088 193.237L344.003 183.991L331.31 176.659L330.225 184.653C328.713 184.318 327.265 184.178 325.893 184.226L319.845 175.526L310.866 180.708L315.378 190.293C314.652 191.458 314.049 192.782 313.583 194.258L306.119 191.203V205.866L313.579 211.423C314.045 213.437 314.648 215.456 315.378 217.462L310.866 221.838L319.841 237.387L325.893 235.668C327.265 237.304 328.709 238.835 330.221 240.244L331.306 249.49L344.003 256.818L345.81 249.182C346.105 249.246 345.674 248.948 345.965 248.995C346.089 244.627 347.617 241.113 350.553 239.418C353.536 237.695 357.422 238.169 361.331 240.335C361.471 239.972 360.208 240.066 360.327 239.683L369.189 242.274V227.614L361.722 222.05ZM337.652 230.215C331.21 226.497 325.984 217.446 325.984 210.003C325.984 202.559 331.21 199.54 337.652 203.261C344.102 206.983 349.324 216.03 349.324 223.478C349.324 230.925 344.098 233.937 337.652 230.215Z" stroke="#2F80ED" stroke-width="1.50519" stroke-miterlimit="10"/>
<path d="M372.766 277.896C366.631 281.438 356.687 275.694 350.552 265.071C347.352 259.53 345.821 253.754 345.964 248.995C346.088 244.627 347.616 241.113 350.552 239.418C353.535 237.694 357.421 238.169 361.33 240.335C365.459 242.617 369.615 246.785 372.766 252.242C378.902 262.869 378.902 274.353 372.766 277.896Z" stroke="#2F80ED" stroke-width="1.50519" stroke-miterlimit="10"/>
<path d="M353.436 257.34L360.013 268.007L369.882 251.995" stroke="#2F80ED" stroke-width="1.50519" stroke-miterlimit="10"/>
<path d="M154.398 399.895V413.282H154.293C152.992 422.422 139.553 429.606 123.163 429.606C106.773 429.606 93.3338 422.422 92.0329 413.282C91.9639 412.799 91.9277 412.313 91.9277 411.824V399.895C91.9277 401.988 92.5618 403.998 93.7313 405.861C95.5381 408.755 98.6262 411.301 102.605 413.282C108.094 416.019 115.292 417.678 123.163 417.678C131.034 417.678 138.232 416.019 143.722 413.282C147.7 411.301 150.788 408.755 152.595 405.861C153.764 403.998 154.398 401.988 154.398 399.895Z" stroke="#2F80ED" stroke-width="1.50519" stroke-miterlimit="10"/>
<path d="M154.398 374.714V399.895C154.398 401.988 153.764 403.998 152.595 405.861C150.788 408.755 147.7 411.301 143.722 413.282C138.232 416.019 131.034 417.678 123.163 417.678C115.292 417.678 108.094 416.019 102.605 413.282C98.6262 411.301 95.5381 408.755 93.7313 405.861C92.5618 403.998 91.9277 401.988 91.9277 399.895V374.714C91.9277 379.632 95.4363 384.087 101.11 387.306C106.757 390.513 114.556 392.497 123.163 392.497C131.77 392.497 139.569 390.513 145.216 387.306C150.89 384.087 154.398 379.632 154.398 374.714Z" stroke="#2F80ED" stroke-width="1.50519" stroke-miterlimit="10"/>
<path d="M144.763 380.431L132.936 385.47L128.685 357.208L119.792 298.118L130.111 303.101L140.906 360.079L144.763 380.431Z" stroke="#2F80ED" stroke-width="1.50519" stroke-miterlimit="10"/>
<path d="M154.398 374.715C154.398 379.632 150.89 384.087 145.216 387.307C139.569 390.513 131.77 392.497 123.163 392.497C114.556 392.497 106.757 390.513 101.11 387.307C95.4363 384.087 91.9277 379.632 91.9277 374.715C91.9277 373.979 92.0066 373.256 92.1577 372.546C93.1827 367.75 97.5552 363.548 103.909 360.713L104.825 368.824L132.936 385.47L144.763 380.431L140.906 360.079C148.071 362.898 153.065 367.379 154.168 372.546C154.32 373.256 154.398 373.979 154.398 374.715Z" stroke="#2F80ED" stroke-width="1.50519" stroke-miterlimit="10"/>
<path d="M92.1577 372.546C92.0066 373.256 91.9277 373.979 91.9277 374.715V372.546H92.1577Z" stroke="#2F80ED" stroke-width="1.50519" stroke-miterlimit="10"/>
<path d="M154.398 372.546V374.715C154.398 373.979 154.319 373.256 154.168 372.546H154.398Z" stroke="#2F80ED" stroke-width="1.50519" stroke-miterlimit="10"/>
<path d="M92.0329 413.282H91.9277V411.824C91.9277 412.313 91.9639 412.799 92.0329 413.282Z" stroke="#2F80ED" stroke-width="1.50519" stroke-miterlimit="10"/>
<path d="M132.936 385.47L104.825 368.824L103.908 360.713L94.8545 280.69C97.5023 284.944 100.994 288.62 104.822 290.831C105.282 291.097 105.738 291.334 106.188 291.544L106.32 291.61L119.792 298.118L128.685 357.208L132.936 385.47Z" stroke="#2F80ED" stroke-width="1.50519" stroke-miterlimit="10" stroke-linejoin="round"/>
<path d="M111.091 277.152C111.091 281.048 108.42 282.684 105.075 280.91C104.993 280.864 104.908 280.818 104.822 280.769C101.363 278.771 98.5576 273.913 98.5576 269.915C98.5576 266.452 100.667 264.773 103.482 265.69C103.916 265.828 104.366 266.031 104.826 266.298C108.285 268.295 111.091 273.154 111.091 277.152Z" stroke="#2F80ED" stroke-width="1.50519" stroke-miterlimit="10"/>
<path d="M189.879 320.861L187.471 322.372L181.863 325.884L172.727 331.61L166.882 320.861L130.112 303.101L119.793 298.118L106.32 291.61C111.669 294.084 116.189 292.835 118.38 288.729C119.297 287.02 119.806 284.816 119.806 282.181C119.806 277.806 118.397 272.996 116.077 268.61C113.331 263.42 109.31 258.824 104.826 256.235C103.988 255.752 103.167 255.355 102.365 255.049L102.276 254.188L172.139 290.637L189.021 319.399L189.879 320.861Z" stroke="#2F80ED" stroke-width="1.50519" stroke-miterlimit="10"/>
<path d="M116.077 268.61C113.331 263.42 109.31 258.824 104.825 256.235C103.988 255.752 103.166 255.355 102.365 255.049C100.177 254.202 98.15 253.995 96.3924 254.363C92.4371 255.197 89.8418 258.942 89.8418 264.885C89.8418 270.016 91.7768 275.746 94.855 280.687C97.5028 284.944 100.995 288.62 104.822 290.831C105.282 291.097 105.739 291.334 106.189 291.544L106.32 291.61C111.668 294.083 116.189 292.835 118.38 288.729C119.297 287.02 119.806 284.816 119.806 282.181C119.806 277.805 118.396 272.996 116.077 268.61ZM105.075 280.91C104.993 280.864 104.908 280.818 104.822 280.769C101.363 278.771 98.5573 273.913 98.5573 269.914C98.5573 266.452 100.666 264.773 103.482 265.69C103.915 265.828 104.366 266.031 104.825 266.297C108.285 268.295 111.09 273.154 111.09 277.152C111.09 281.15 108.419 282.684 105.075 280.91Z" stroke="#2F80ED" stroke-width="1.50519" stroke-miterlimit="10"/>
<path d="M197.982 316.919L193.961 318.873L189.878 320.861L189.02 319.399L172.138 290.637L102.275 254.188L102.364 255.049C100.176 254.202 98.1492 253.995 96.3916 254.363L109.94 248.232L180.462 285.601L197.982 316.919Z" stroke="#2F80ED" stroke-width="1.50519" stroke-miterlimit="10"/>
<path d="M227.986 345.063L224.701 350.536L215.723 338.072L197.326 334.33L194.261 348.256L202.362 367.619L194.261 365.211L184.622 348.256L187.47 322.372L189.878 320.861L193.962 318.873L218.571 328.637L227.986 345.063Z" stroke="#2F80ED" stroke-width="1.50519" stroke-miterlimit="10" stroke-linejoin="round"/>
<path d="M224.701 350.536L220.542 354.918L212.218 341.12L198.42 338.072L197.326 334.33L215.723 338.072L224.701 350.536Z" stroke="#2F80ED" stroke-width="1.50519" stroke-miterlimit="10" stroke-linejoin="round"/>
<path d="M202.362 367.618L200.174 370.687L189.878 369.153L194.26 365.21L202.362 367.618Z" stroke="#2F80ED" stroke-width="1.50519" stroke-miterlimit="10" stroke-linejoin="round"/>
<path d="M194.261 365.21L189.879 369.153L178.492 350.976L184.622 348.256L194.261 365.21Z" stroke="#2F80ED" stroke-width="1.50519" stroke-miterlimit="10" stroke-linejoin="round"/>
<path d="M187.471 322.372L184.622 348.256L178.492 350.976L181.863 325.884L187.471 322.372Z" stroke="#2F80ED" stroke-width="1.50519" stroke-miterlimit="10" stroke-linejoin="round"/>
<path d="M154.398 386.892L195.542 407.944C199.441 409.938 199.596 415.454 195.814 417.661L133.531 454.084C127.115 457.836 119.181 457.875 112.729 454.182L44.9037 415.378C42.7092 414.123 42.6961 410.963 44.8807 409.688L91.9243 382.293" stroke="#2F80ED" stroke-width="1.50519" stroke-miterlimit="10"/>
<path d="M520.871 37.5854L519.229 38.2006" stroke="#2F80ED" stroke-width="1.50519" stroke-miterlimit="10"/>
<path d="M580.238 84.4258V125.985C580.238 127.365 579.573 128.516 578.595 129.227C577.382 130.115 575.689 130.325 574.203 129.467L511.225 93.1114C509.04 91.8478 507.693 89.5168 507.693 86.9929V45.3203C507.693 43.3019 509.137 41.7888 510.879 41.4397C511.77 41.2568 512.738 41.3798 513.629 41.8953L517.44 44.0966L520.981 46.1383L576.707 78.3105C578.895 79.5708 580.238 81.9019 580.238 84.4258Z" stroke="#2F80ED" stroke-width="1.50519" stroke-miterlimit="10"/>
<path d="M523.371 38.0842L586.452 74.4995C588.637 75.7598 589.984 78.0908 589.984 80.6147V122.174C589.98 123.687 589.179 124.924 588.048 125.609L586.678 126.135L578.595 129.227C579.605 128.662 580.237 127.365 580.237 125.985V84.4255C580.237 81.9016 578.894 79.5706 576.706 78.3103L520.981 46.1381L517.439 44.0964L513.628 41.895C512.737 41.3796 511.769 41.2566 510.878 41.4395L510.785 41.3563L519.228 38.2006" stroke="#2F80ED" stroke-width="1.50519" stroke-miterlimit="10"/>
<path d="M573.298 91.7279L572.19 84.4123L552.016 103.034L534.947 71.3306L524.083 88.1798L519.229 77.0966" stroke="#2F80ED" stroke-width="1.50519" stroke-miterlimit="10"/>
<path d="M564.985 83.7605H572.66" stroke="#2F80ED" stroke-width="1.50519" stroke-miterlimit="10"/>
<path d="M520.436 37.7487L521.46 37.3763C521.589 37.3297 521.736 37.3364 521.862 37.3962L523.571 38.2009" stroke="#2F80ED" stroke-width="1.50519" stroke-miterlimit="10"/>
<path d="M637.916 111.068C637.916 114.2 635.847 117.336 631.704 119.727C623.424 124.512 609.993 124.512 601.706 119.727C597.852 117.499 595.791 114.626 595.525 111.713C595.219 108.368 597.281 104.963 601.706 102.409C603.466 101.395 605.457 100.593 607.582 100.011V112.361C607.453 113.728 608.291 115.118 610.1 116.162C613.471 118.111 618.938 118.111 622.313 116.162C623.999 115.188 624.841 113.911 624.841 112.637H624.854V99.7585C627.345 100.354 629.679 101.238 631.704 102.409C635.847 104.8 637.916 107.935 637.916 111.068Z" stroke="#2F80ED" stroke-width="1.50519" stroke-miterlimit="10"/>
<path d="M627.627 145.169L618.003 149.029L637.942 160.542V160.568L618.083 149.139L618.003 192.98L618.213 193.109C612.294 193.352 606.232 192.165 601.706 189.551C597.263 186.988 595.205 183.573 595.524 180.217V111.713C595.79 114.626 597.852 117.499 601.706 119.727C609.993 124.512 623.424 124.512 631.704 119.727C635.847 117.336 637.915 114.2 637.915 111.068H637.942V135.515L637.566 136.227C635.415 140.291 631.893 143.456 627.627 145.169Z" stroke="#2F80ED" stroke-width="1.50519" stroke-linecap="round" stroke-linejoin="round"/>
<path d="M624.839 36.8141C624.839 38.091 623.998 39.3679 622.312 40.3422C618.94 42.2875 613.47 42.2875 610.098 40.3422C608.529 39.4344 607.688 38.2639 607.581 37.0801C607.458 35.7168 608.296 34.3301 610.098 33.2893C613.47 31.344 618.94 31.344 622.312 33.2893C623.998 34.2636 624.839 35.5405 624.839 36.8141Z" stroke="#2F80ED" stroke-width="1.50519" stroke-miterlimit="10"/>
<path d="M624.853 36.814V112.637H624.84C624.84 113.911 623.998 115.188 622.312 116.162C618.937 118.111 613.471 118.111 610.099 116.162C608.29 115.118 607.452 113.728 607.581 112.361V37.08C607.688 38.2638 608.529 39.4343 610.099 40.3421C613.471 42.2874 618.941 42.2874 622.312 40.3421C623.998 39.3678 624.84 38.0909 624.84 36.814H624.853Z" stroke="#2F80ED" stroke-width="1.50519" stroke-miterlimit="10"/>
<path d="M675.497 155.916L674.869 200.019L650.95 213.397L651.579 169.294L652.121 168.991L675.497 155.916Z" stroke="#2F80ED" stroke-width="1.50519" stroke-linecap="round" stroke-linejoin="round"/>
<path d="M675.497 155.484L652.127 168.732L637.941 160.542L618.003 149.029L627.626 145.169C631.893 143.456 635.414 140.291 637.566 136.227L637.941 135.515L638.636 134.202L675.497 155.484Z" stroke="#2F80ED" stroke-width="1.50519" stroke-linecap="round" stroke-linejoin="round"/>
<path d="M652.127 168.732L652.12 168.991L651.578 169.294L650.95 213.397L618.212 193.11L618.003 192.98L618.083 149.139L637.941 160.568L652.127 168.732Z" stroke="#2F80ED" stroke-width="1.50519" stroke-linecap="round" stroke-linejoin="round"/>
<path d="M652.121 168.991L650.95 213.397L651.579 169.294L652.121 168.991Z" stroke="#2F80ED" stroke-width="1.50519" stroke-linecap="round" stroke-linejoin="round"/>
<path d="M561.882 175.502L539.064 162.327C537.368 161.346 537.368 158.899 539.064 157.918L553.21 149.751C554.769 148.85 556.691 148.85 558.251 149.751L580.959 162.863C582.705 163.87 582.705 166.391 580.959 167.398L566.927 175.502C565.367 176.403 563.445 176.403 561.885 175.502H561.882Z" stroke="#2F80ED" stroke-width="1.50519" stroke-miterlimit="10"/>
<path d="M595.524 155.301L558.743 134.601C557.779 134.059 556.598 134.072 555.647 134.637L510.493 161.522C508.485 162.719 508.481 165.626 510.483 166.826L624.331 235.134C626.117 236.205 628.348 236.188 630.117 235.091L686.558 200.116C688.223 199.082 688.214 196.654 686.538 195.637L675.009 188.623" stroke="#2F80ED" stroke-width="1.50519" stroke-miterlimit="10"/>
<path d="M615.534 452.344V394.95L635.156 385.519V440.729M661.28 370.398V389.133M666.476 320.867L592.123 276.894L584.264 290.376M638.001 323.59L556.229 274.237L518.326 324.261M526.16 329.082L566.177 280.452M536.992 335.573L577.009 286.943M547.466 341.742L587.483 293.112M557.223 348.171L597.569 298.884M567.476 354.344L607.494 305.385M577.558 360.546L617.576 311.258M588.141 367.278L627.501 317.661M688.837 389.136L707.345 399.403C709.41 400.55 709.476 403.497 707.463 404.733L601.229 470.016C598.013 471.993 593.978 472.078 590.683 470.237L494.843 416.7C492.581 415.434 492.581 412.178 494.843 410.912L518.323 397.801M563.109 413.879L564.862 421.518L575.822 417.091L570.123 409.636L571.998 407.006L578.154 409.525V397.439L571.998 392.852C571.619 391.198 571.12 389.531 570.521 387.88L574.24 384.269L566.838 371.451L561.856 372.868C560.721 371.523 559.531 370.257 558.285 369.099L557.39 361.477L546.926 355.432L546.032 362.023C544.785 361.746 543.592 361.631 542.461 361.671L537.475 354.498L530.073 358.77L533.792 366.672C533.194 367.633 532.697 368.724 532.312 369.941L526.16 367.422V379.511L532.309 384.092C532.694 385.752 533.19 387.416 533.792 389.07L530.073 392.678L537.472 405.496L542.461 404.079C543.592 405.427 544.782 406.69 546.029 407.851L546.923 415.473L557.39 421.514L558.281 414.924L563.109 413.875V413.879ZM552.155 399.587C546.844 396.522 542.536 389.06 542.536 382.924C542.536 376.788 546.844 374.298 552.155 377.367C557.472 380.435 561.777 387.893 561.777 394.033C561.777 400.172 557.469 402.655 552.155 399.587ZM518.323 410.791L600.377 461.312V374.779L518.326 324.258V410.791H518.323ZM600.377 461.315L688.837 408.959V337.533L666.476 320.871L657.268 347.994L640.168 357.248L638.001 323.597L600.381 374.788V461.321L600.377 461.315ZM649.28 396.229L673.273 382.375V363.045L649.277 376.9V396.229H649.28Z" stroke="#2F80ED" stroke-width="1.50519" stroke-linecap="round" stroke-linejoin="round"/>
<path d="M210.986 47.4994L189.247 50.3592L181.996 66.1524L119.497 30.4343L147.764 14.2837L161.164 21.8811L210.986 47.4994Z" stroke="#2F80ED" stroke-width="1.50519" stroke-linecap="round" stroke-linejoin="round"/>
<path d="M181.996 66.1524L181.943 66.1862L119.369 30.5096L119.497 30.4343L181.996 66.1524Z" stroke="#2F80ED" stroke-width="1.50519" stroke-linecap="round" stroke-linejoin="round"/>
<path d="M126.401 120.576L141.638 111.526L126.469 120.614L126.401 120.576Z" stroke="#2F80ED" stroke-width="1.50519" stroke-linecap="round" stroke-linejoin="round"/>
<path d="M144.694 121.622V130.97L136.683 126.416L144.694 121.622Z" stroke="#2F80ED" stroke-width="1.50519" stroke-linecap="round" stroke-linejoin="round"/>
<path d="M182.053 66.1863V66.525L182.049 95.18V152.396L144.694 130.97V121.622L164.837 109.554V97.7501L141.638 111.526L164.739 97.6899L141.281 83.3417L119.369 96.354V30.3667L119.497 30.4344L181.996 66.1525L182.053 66.1863Z" stroke="#2F80ED" stroke-width="1.50519" stroke-linecap="round" stroke-linejoin="round"/>
<path d="M210.707 47.4092V133.589L181.777 152.528L181.773 109.272V94.9994L181.777 66.3406L189.156 50.2766L210.707 47.4092Z" stroke="#2F80ED" stroke-width="1.50519" stroke-linecap="round" stroke-linejoin="round"/>
<path d="M182.052 66.5249L182.048 95.1799V66.5287L182.052 66.5249Z" stroke="#2F80ED" stroke-width="1.50519" stroke-linecap="round" stroke-linejoin="round"/>
<path d="M164.739 97.6897L141.638 111.526L126.402 120.576L87.5269 143.662L63.9707 129.253L119.369 96.3539L141.281 83.3416L164.739 97.6897Z" stroke="#2F80ED" stroke-width="1.50519" stroke-linecap="round" stroke-linejoin="round"/>
<path d="M164.836 97.7499L141.638 111.526L164.739 97.6897L164.836 97.7499Z" stroke="#2F80ED" stroke-width="1.50519" stroke-linecap="round" stroke-linejoin="round"/>
<path d="M164.836 97.75V109.554L144.693 121.622L136.682 126.416L124.23 133.874L100.934 147.828L88.0645 155.534V143.613L126.469 120.614L141.638 111.526L164.836 97.75Z" stroke="#2F80ED" stroke-width="1.50519" stroke-linecap="round" stroke-linejoin="round"/>
<path d="M164.836 97.6333V97.75L141.638 111.526L164.739 97.6897L164.836 97.6333Z" stroke="#2F80ED" stroke-width="1.50519" stroke-linecap="round" stroke-linejoin="round"/>
<path d="M63.7257 129.487C63.7257 129.487 53.355 136.866 59.8423 144.144C64.3391 149.186 73.4981 153.803 78.9695 156.46C81.4568 157.664 84.3693 157.585 86.7851 156.245L88.057 155.538" stroke="#2F80ED" stroke-width="1.50519" stroke-linecap="round" stroke-linejoin="round"/>
<path d="M80.8773 157.114C80.8773 157.114 79.6393 148.463 88.0683 143.91" stroke="#2F80ED" stroke-width="1.50519" stroke-linecap="round" stroke-linejoin="round"/>
<path d="M100.934 147.828V185.6" stroke="#2F80ED" stroke-width="1.50519" stroke-linecap="round" stroke-linejoin="round"/>
<path d="M67.4961 150.243V164.238" stroke="#2F80ED" stroke-width="1.50519" stroke-linecap="round" stroke-linejoin="round"/>
<path d="M144.693 158.42V130.969" stroke="#2F80ED" stroke-width="1.50519" stroke-linecap="round" stroke-linejoin="round"/>
<path d="M124.23 133.878V149.363" stroke="#2F80ED" stroke-width="1.50519" stroke-linecap="round" stroke-linejoin="round"/>
<path d="M80.8135 119.161L103.354 133.434" stroke="#2F80ED" stroke-width="1.50519" stroke-linecap="round" stroke-linejoin="round"/>
<path d="M98.1533 109.34L120.287 123.206" stroke="#2F80ED" stroke-width="1.50519" stroke-linecap="round" stroke-linejoin="round"/>
<path d="M114.062 100.395L136.606 114.668" stroke="#2F80ED" stroke-width="1.50519" stroke-linecap="round" stroke-linejoin="round"/>
<path d="M129.416 90.4988L151.956 104.772" stroke="#2F80ED" stroke-width="1.50519" stroke-linecap="round" stroke-linejoin="round"/>
<path d="M210.985 88.7563L249.417 108.99C251.554 110.115 251.667 113.137 249.62 114.416L119.888 195.613C116.317 197.848 111.794 197.897 108.174 195.737L64.6062 169.739C62.3861 168.415 62.4726 165.171 64.7567 163.967L78.977 156.463" stroke="#2F80ED" stroke-width="1.50519" stroke-miterlimit="10"/>
<path d="M164.836 97.75L174.417 92.6851V70.7771L164.738 76.128L164.836 97.75Z" stroke="#2F80ED" stroke-width="1.50519" stroke-linecap="round" stroke-linejoin="round"/>
<path d="M164.837 109.554L174.417 92.6851" stroke="#2F80ED" stroke-width="1.50519" stroke-linecap="round" stroke-linejoin="round"/>
<path d="M164.739 76.1279L141.262 62.7468L141.281 83.3415" stroke="#2F80ED" stroke-width="1.50519" stroke-linecap="round" stroke-linejoin="round"/>
<path d="M141.262 62.7469L151.813 58.3179L174.417 70.777" stroke="#2F80ED" stroke-width="1.50519" stroke-linecap="round" stroke-linejoin="round"/>
<path d="M167.682 393.814L237.797 353.262C242.586 350.491 250.363 350.495 255.146 353.269L264.417 358.646C269.196 361.418 276.967 361.423 281.757 358.657L368.76 308.43" stroke="#2F80ED" stroke-width="1.5"/>
<path d="M189.878 152.396L242.046 182.486" stroke="#2F80ED" stroke-width="1.5"/>
<path d="M565.846 199.674L517.225 227.743C512.442 230.504 504.687 230.504 499.904 227.743L470.645 210.852C465.848 208.082 458.064 208.092 453.287 210.873L431.826 223.371" stroke="#2F80ED" stroke-width="1.5"/>
<path d="M446.219 330.832L518.367 373.457" stroke="#2F80ED" stroke-width="1.5"/>
</svg>
