<svg width="750" height="548" viewBox="0 0 750 548" fill="none" xmlns="http://www.w3.org/2000/svg">
<path d="M428.643 379.148L436.241 377.743" stroke="#2F80ED" stroke-width="1.68851" stroke-linecap="round" stroke-linejoin="round"/>
<path d="M226.756 219.267L264.254 240.918V197.62L226.756 175.969V219.267Z" stroke="#2F80ED" stroke-width="1.5" stroke-linecap="round" stroke-linejoin="round"/>
<path d="M226.76 175.97L264.253 197.621L301.751 175.97L264.253 154.319L226.76 175.97Z" stroke="#2F80ED" stroke-width="1.5" stroke-linecap="round" stroke-linejoin="round"/>
<path d="M264.258 240.918L301.755 219.267L301.751 175.969L264.253 197.62L264.258 240.918Z" stroke="#2F80ED" stroke-width="1.5" stroke-linecap="round" stroke-linejoin="round"/>
<path d="M303.727 259.737L341.228 281.383V238.086L303.731 216.439L303.727 259.737Z" stroke="#2F80ED" stroke-width="1.5" stroke-linecap="round" stroke-linejoin="round"/>
<path d="M303.731 216.439L341.229 238.09L378.726 216.439L341.229 194.788L303.731 216.439Z" stroke="#2F80ED" stroke-width="1.5" stroke-linecap="round" stroke-linejoin="round"/>
<path d="M341.229 281.383L378.726 259.737V216.439L341.229 238.086V281.383Z" stroke="#2F80ED" stroke-width="1.5" stroke-linecap="round" stroke-linejoin="round"/>
<path d="M385.763 306.876L423.26 328.523V285.225L385.763 263.578V306.876Z" stroke="#2F80ED" stroke-width="1.5" stroke-linecap="round" stroke-linejoin="round"/>
<path d="M385.767 263.578L423.26 285.229L460.758 263.578L423.26 241.927L385.767 263.578Z" stroke="#2F80ED" stroke-width="1.5" stroke-linecap="round" stroke-linejoin="round"/>
<path d="M423.264 328.523L460.762 306.876L460.757 263.578L423.26 285.225L423.264 328.523Z" stroke="#2F80ED" stroke-width="1.5" stroke-linecap="round" stroke-linejoin="round"/>
<path d="M301.755 186.941L328.315 202.243" stroke="#2F80ED" stroke-width="1.5" stroke-linecap="round" stroke-linejoin="round"/>
<path d="M378.727 230.842L410.082 249.534" stroke="#2F80ED" stroke-width="1.5" stroke-linecap="round" stroke-linejoin="round"/>
<path d="M460.762 281.384L499.991 303.765C507.576 308.092 512.258 316.154 512.258 324.888V325.074C512.258 329.81 509.759 334.196 505.685 336.611L436.275 377.743V364.129C436.275 355.497 431.64 347.527 424.139 343.259L203.26 217.617L226.755 203.264" stroke="#2F80ED" stroke-width="1.5" stroke-linecap="round" stroke-linejoin="round"/>
<path d="M203.26 217.613L200.022 220.631C194.551 225.734 193.488 234.008 197.481 240.336L198.595 242.104C199.992 244.321 201.905 246.165 204.163 247.491L428.672 379.149C433.071 378.334 436.258 374.488 436.241 370.014L436.211 362.479" stroke="#2F80ED" stroke-width="1.5" stroke-linecap="round" stroke-linejoin="round"/>
<path d="M391.591 347.585C393.729 346.35 393.73 342.349 391.593 338.649C389.456 334.948 385.991 332.948 383.853 334.183C381.715 335.417 381.714 339.418 383.85 343.119C385.987 346.82 389.452 348.819 391.591 347.585Z" stroke="#2F80ED" stroke-width="1.5" stroke-linecap="round" stroke-linejoin="round"/>
<path d="M307.419 296.897C309.558 295.662 309.638 291.799 307.599 288.268C305.561 284.736 302.175 282.874 300.036 284.109C297.898 285.343 297.818 289.207 299.857 292.738C301.895 296.269 305.281 298.131 307.419 296.897Z" stroke="#2F80ED" stroke-width="1.5" stroke-linecap="round" stroke-linejoin="round"/>
<path d="M227.409 251.258C229.547 250.023 229.627 246.16 227.589 242.629C225.55 239.097 222.164 237.235 220.026 238.47C217.888 239.704 217.807 243.568 219.846 247.099C221.885 250.63 225.271 252.492 227.409 251.258Z" stroke="#2F80ED" stroke-width="1.5" stroke-linecap="round" stroke-linejoin="round"/>
<path d="M222.534 258.263V298.383" stroke="#2F80ED" stroke-width="1.5" stroke-linecap="round" stroke-linejoin="round"/>
<path d="M390.686 357.261V397.38" stroke="#2F80ED" stroke-width="1.5" stroke-linecap="round" stroke-linejoin="round"/>
<path d="M458.805 262.958L496.997 240.688C501.773 237.903 509.561 237.892 514.361 240.663L521.706 244.903L529.095 249.169C533.878 251.93 541.633 251.93 546.416 249.169L589.178 224.482" stroke="#2F80ED" stroke-width="1.5"/>
<path d="M360.63 137.737C360.63 159.661 376.019 186.319 395.009 197.279C413.995 208.239 429.388 199.352 429.388 177.428C429.388 155.504 413.999 128.846 395.009 117.886C376.022 106.925 360.63 115.813 360.63 137.737Z" stroke="#2F80ED" stroke-width="1.68851" stroke-linecap="round" stroke-linejoin="round"/>
<path d="M395.009 103.664C388.59 99.958 382.472 97.9225 376.903 97.4193C374.647 97.2105 372.481 97.2552 370.424 97.546C368.657 97.7883 366.964 98.2133 365.365 98.8098L360.627 101.252C352.981 106.437 348.31 116.555 348.31 130.628C348.31 160.406 369.216 196.615 395.005 211.505C408.299 219.177 420.296 219.687 428.799 214.301C430.395 213.294 431.867 212.075 433.202 210.658C435.054 208.694 436.643 206.345 437.925 203.635C440.356 198.513 441.701 192.097 441.701 184.541C441.705 154.762 420.799 118.553 395.009 103.664Z" stroke="#2F80ED" stroke-width="1.68851" stroke-linecap="round" stroke-linejoin="round"/>
<path d="M365.365 98.8098L360.626 101.252C362.099 100.253 363.683 99.4361 365.365 98.8098Z" stroke="#2F80ED" stroke-width="1.68851" stroke-linecap="round" stroke-linejoin="round"/>
<path d="M395.005 197.279V190.845" stroke="#2F80ED" stroke-width="1.68851" stroke-linecap="round" stroke-linejoin="round"/>
<path d="M395.009 117.886V123.493" stroke="#2F80ED" stroke-width="1.68851" stroke-linecap="round" stroke-linejoin="round"/>
<path d="M360.63 137.737L367.087 141.14" stroke="#2F80ED" stroke-width="1.68851" stroke-linecap="round" stroke-linejoin="round"/>
<path d="M429.365 176.171L422.315 172.675" stroke="#2F80ED" stroke-width="1.68851" stroke-linecap="round" stroke-linejoin="round"/>
<path d="M395.005 136.935L395.009 162.017L411.382 157.584" stroke="#2F80ED" stroke-width="1.68851" stroke-linecap="round" stroke-linejoin="round"/>
<path d="M440.953 120.756L436.968 124.137L434.183 126.501C433.191 127.343 431.98 127.753 430.772 127.753C429.254 127.753 427.745 127.101 426.701 125.834C425.064 123.858 425.221 120.957 427.055 119.164L430.589 115.712L433.169 113.192C432.792 113.766 432.699 114.59 432.96 115.585C433.586 117.964 436.021 120.417 438.392 121.062C439.484 121.36 440.375 121.222 440.953 120.756Z" stroke="#2F80ED" stroke-width="1.68851" stroke-linecap="round" stroke-linejoin="round"/>
<path d="M455.316 177.577C455.312 189.92 451.722 199.221 445.679 204.817L436.527 209.962L428.799 214.305C430.395 213.294 431.867 212.075 433.202 210.659C435.054 208.694 436.643 206.345 437.925 203.635C440.356 198.513 441.701 192.097 441.701 184.541C441.705 154.762 420.799 118.553 395.009 103.664C388.59 99.9582 382.472 97.9228 376.903 97.4195C374.647 97.2107 372.481 97.2555 370.424 97.5463C368.656 97.7886 366.964 98.2136 365.365 98.81L374.584 94.0569C378.055 91.7978 382.118 90.5303 386.621 90.3477V90.9292H386.655C386.375 93.3002 387.803 95.727 390.942 97.5388C391.915 98.1017 392.992 98.5677 394.137 98.9368C399.397 100.648 406.085 100.35 410.842 98.0421C417.954 102.534 424.654 108.626 430.588 115.712L427.054 119.164C425.22 120.958 425.064 123.858 426.7 125.834C427.744 127.101 429.254 127.754 430.771 127.754C431.979 127.754 433.19 127.343 434.182 126.501L436.967 124.137C448.121 140.428 455.316 160.108 455.316 177.577Z" stroke="#2F80ED" stroke-width="1.68851" stroke-linecap="round" stroke-linejoin="round"/>
<path d="M416.075 81.0836C415.848 82.8431 414.677 84.5654 412.571 85.982C412.325 86.1498 412.068 86.3101 411.796 86.4667C406.036 89.792 396.701 89.792 390.942 86.4667C390.67 86.3101 390.412 86.1498 390.166 85.982C387.803 84.394 386.621 82.4219 386.621 80.4461C386.621 78.269 388.064 76.0882 390.942 74.4255C396.701 71.1039 406.036 71.1039 411.796 74.4255C414.957 76.2522 416.385 78.6977 416.075 81.0836Z" stroke="#2F80ED" stroke-width="1.68851" stroke-linecap="round" stroke-linejoin="round"/>
<path d="M411.796 97.5385C411.486 97.7175 411.169 97.8852 410.841 98.0418C406.084 100.349 399.396 100.648 394.136 98.9365C392.992 98.5674 391.915 98.1015 390.942 97.5385C387.803 95.7268 386.375 93.2999 386.654 90.9289H386.621V80.446C386.621 82.4218 387.803 84.3939 390.166 85.982C390.412 86.1498 390.669 86.3101 390.942 86.4666C396.701 89.7919 406.036 89.7919 411.796 86.4666C412.068 86.3101 412.325 86.1498 412.571 85.982C414.677 84.5654 415.848 82.8431 416.075 81.0835V90.8805C416.385 93.2663 414.957 95.7119 411.796 97.5385Z" stroke="#2F80ED" stroke-width="1.68851" stroke-linecap="round" stroke-linejoin="round"/>
<path d="M394.137 98.9329V101.248L396.422 102.102C399.736 103.339 403.382 103.339 406.696 102.102L408.981 101.248V98.9329" stroke="#2F80ED" stroke-width="1.68851" stroke-linecap="round" stroke-linejoin="round"/>
<path d="M440.951 120.756C440.373 121.222 439.482 121.36 438.39 121.062C436.019 120.417 433.585 117.964 432.959 115.585C432.698 114.59 432.791 113.766 433.167 113.192C433.685 112.391 434.744 112.074 436.124 112.45C438.494 113.099 440.925 115.548 441.551 117.927C441.891 119.209 441.633 120.212 440.951 120.756Z" stroke="#2F80ED" stroke-width="1.68851" stroke-linecap="round" stroke-linejoin="round"/>
<path d="M441.03 120.693L440.952 120.756" stroke="#2F80ED" stroke-width="1.68851" stroke-linecap="round" stroke-linejoin="round"/>
<path d="M121.722 176.03V187.851C121.722 192.098 118.915 196.345 113.304 199.586C102.079 206.066 83.8815 206.066 72.656 199.586C67.0415 196.345 64.2378 192.098 64.2378 187.851V176.03C64.2378 178.033 64.8624 180.04 66.1153 181.939C67.5117 184.06 69.6908 186.053 72.656 187.765C72.7063 187.794 72.7565 187.822 72.8104 187.851C83.9964 194.216 101.964 194.216 113.15 187.851C113.203 187.822 113.254 187.794 113.304 187.765C116.266 186.053 118.448 184.06 119.845 181.939C121.098 180.04 121.722 178.033 121.722 176.03Z" stroke="#2F80ED" stroke-width="1.5" stroke-linecap="round" stroke-linejoin="round"/>
<path d="M121.722 116.262V176.03C121.722 178.033 121.098 180.04 119.845 181.939C118.448 184.061 116.266 186.053 113.304 187.765C113.254 187.794 113.203 187.823 113.15 187.851C101.964 194.216 83.9964 194.216 72.8104 187.851C72.7565 187.823 72.7063 187.794 72.656 187.765C69.6908 186.053 67.5117 184.061 66.1153 181.939C64.8624 180.04 64.2378 178.033 64.2378 176.03V116.262C64.2378 120.509 67.0415 124.756 72.656 127.998C78.6188 131.44 86.5524 133.056 94.3639 132.84C101.249 132.65 108.045 131.035 113.304 127.998C118.915 124.756 121.722 120.509 121.722 116.262Z" stroke="#2F80ED" stroke-width="1.5" stroke-linecap="round" stroke-linejoin="round"/>
<path d="M121.693 104.128C121.539 106.067 120.799 107.995 119.471 109.815C118.071 111.735 116.014 113.537 113.303 115.103C112.715 115.444 112.108 115.763 111.48 116.068C111.361 116.129 111.243 116.187 111.121 116.241C110.808 116.388 110.493 116.531 110.169 116.671C109.997 116.747 109.821 116.819 109.645 116.89C109.462 116.966 109.279 117.041 109.092 117.113C108.906 117.188 108.719 117.257 108.532 117.328C108.346 117.397 108.156 117.465 107.965 117.533C107.52 117.691 107.068 117.842 106.608 117.985C106.483 118.025 106.357 118.061 106.231 118.1C105.054 118.456 103.848 118.757 102.613 119.008C102.408 119.051 102.204 119.091 101.995 119.13C101.583 119.213 101.166 119.285 100.75 119.349C100.538 119.385 100.33 119.418 100.121 119.446C99.9096 119.479 99.6978 119.507 99.4896 119.536C99.3173 119.561 99.1486 119.583 98.9763 119.604C98.8075 119.626 98.6388 119.644 98.4701 119.662C98.2439 119.687 98.0142 119.712 97.788 119.734C97.5619 119.755 97.3321 119.777 97.1059 119.795C96.9875 119.805 96.869 119.816 96.7506 119.823C96.5998 119.834 96.449 119.848 96.2946 119.856C95.8818 119.884 95.4654 119.909 95.049 119.924C94.8192 119.935 94.593 119.942 94.3633 119.949C92.0694 120.01 89.7683 119.917 87.5067 119.662C87.2805 119.637 87.0543 119.611 86.8282 119.583C86.602 119.554 86.3759 119.525 86.1497 119.493C85.7979 119.443 85.4461 119.389 85.0943 119.331C84.5522 119.242 84.0137 119.145 83.4824 119.037C83.3424 119.008 83.2024 118.98 83.0624 118.951C81.7844 118.678 80.5316 118.355 79.3182 117.974C79.0023 117.878 78.69 117.773 78.3812 117.669C77.7063 117.44 77.0458 117.192 76.4032 116.926C75.8719 116.711 75.3514 116.485 74.8416 116.244C74.0878 115.889 73.359 115.508 72.6554 115.103C69.9451 113.537 67.8881 111.735 66.488 109.815C65.1598 107.995 64.4203 106.067 64.2659 104.128C63.9105 99.6303 66.707 95.064 72.6554 91.6321C78.6182 88.1858 86.5518 86.574 94.3633 86.7858C96.4059 86.8432 98.4414 87.0263 100.434 87.335H100.437C105.151 88.0638 109.606 89.4961 113.303 91.6321C114.147 92.1203 114.926 92.6301 115.644 93.1578H115.651C119.984 96.3635 121.998 100.269 121.693 104.128Z" stroke="#2F80ED" stroke-width="1.5" stroke-linecap="round" stroke-linejoin="round"/>
<path d="M151.848 136.897V148.718C151.848 152.965 149.041 157.212 143.43 160.454C137.464 163.896 129.53 165.512 121.722 165.296V153.475C129.465 153.687 137.327 152.104 143.276 148.718C143.33 148.69 143.38 148.661 143.43 148.632C146.392 146.92 148.574 144.927 149.971 142.806C151.224 140.907 151.848 138.9 151.848 136.897Z" stroke="#2F80ED" stroke-width="1.5" stroke-linecap="round" stroke-linejoin="round"/>
<path d="M121.722 104.128V116.262C121.722 120.509 118.915 124.756 113.304 127.997C108.045 131.034 101.249 132.65 94.3639 132.84C86.5524 133.056 78.6188 131.44 72.656 127.997C67.0415 124.756 64.2378 120.509 64.2378 116.262V104.128H64.2665C64.4209 106.067 65.1604 107.995 66.4886 109.815C67.8887 111.735 69.9457 113.537 72.656 115.103C73.3596 115.508 74.0884 115.889 74.8422 116.244C75.352 116.485 75.8725 116.711 76.4038 116.926C77.0464 117.192 77.707 117.44 78.3818 117.669C78.6906 117.773 79.0029 117.878 79.3188 117.975C80.5322 118.355 81.785 118.678 83.063 118.951C83.203 118.98 83.343 119.008 83.483 119.037C84.0143 119.145 84.5528 119.242 85.0949 119.331C85.4467 119.389 85.7985 119.443 86.1503 119.493C86.3765 119.525 86.6026 119.554 86.8288 119.583C87.055 119.611 87.2811 119.64 87.5073 119.662C89.7689 119.917 92.07 120.01 94.3639 119.949C94.5937 119.942 94.8198 119.935 95.0496 119.924C95.466 119.909 95.8824 119.884 96.2953 119.856C96.4496 119.848 96.6004 119.834 96.7512 119.823C96.8696 119.816 96.9881 119.805 97.1066 119.795C97.3327 119.777 97.5625 119.755 97.7886 119.734C98.0148 119.712 98.2446 119.687 98.4707 119.662C98.6394 119.644 98.8082 119.626 98.9769 119.604C99.1492 119.583 99.3179 119.561 99.4902 119.536C99.6984 119.507 99.9102 119.479 100.122 119.446C100.33 119.418 100.538 119.385 100.75 119.349C101.167 119.285 101.583 119.213 101.996 119.13C102.204 119.091 102.409 119.051 102.613 119.008C103.848 118.757 105.055 118.456 106.232 118.1C106.358 118.061 106.483 118.025 106.609 117.985C107.068 117.842 107.521 117.691 107.966 117.533C108.156 117.465 108.346 117.397 108.533 117.328C108.72 117.257 108.906 117.188 109.093 117.113C109.28 117.041 109.463 116.969 109.646 116.89C109.822 116.819 109.998 116.747 110.17 116.671C110.493 116.531 110.809 116.388 111.121 116.241C111.243 116.187 111.362 116.129 111.48 116.068C112.109 115.763 112.715 115.444 113.304 115.103C116.014 113.537 118.071 111.735 119.471 109.815C120.8 107.995 121.539 106.067 121.694 104.128H121.722Z" stroke="#2F80ED" stroke-width="1.5" stroke-linecap="round" stroke-linejoin="round"/>
<path d="M100.434 87.3351C98.4419 87.0264 96.4064 86.8433 94.3638 86.7859V77.1292C94.3638 77.2404 94.3674 77.3553 94.371 77.4666C94.3745 77.524 94.3745 77.5815 94.3781 77.6353C94.3817 77.6928 94.3853 77.7502 94.3889 77.8076C94.3925 77.8866 94.3997 77.9656 94.4104 78.0482C94.4104 78.0589 94.4104 78.0733 94.414 78.0841C94.4176 78.163 94.4284 78.242 94.4392 78.321C94.4535 78.4538 94.4715 78.5866 94.4966 78.7195C94.5397 78.9887 94.5971 79.2615 94.6617 79.5272C94.6904 79.6313 94.7156 79.7354 94.7479 79.8359C94.7766 79.9436 94.8089 80.0513 94.8448 80.159C94.8735 80.2559 94.9058 80.3528 94.9417 80.4462C94.9525 80.4821 94.9669 80.518 94.9812 80.5539C95.0028 80.6149 95.0243 80.6795 95.0494 80.7441C95.1894 81.1031 95.3474 81.4621 95.5269 81.8139C95.5664 81.8929 95.6095 81.9719 95.6525 82.0508C95.7602 82.2555 95.8787 82.4637 96.0043 82.6647C96.0618 82.7616 96.1228 82.8586 96.1874 82.9555C96.2054 82.9878 96.2269 83.0165 96.2484 83.0452C96.3167 83.1565 96.3885 83.2642 96.4674 83.3719C96.6577 83.6447 96.8623 83.914 97.0813 84.1796C97.1603 84.2802 97.2464 84.3807 97.3326 84.4812C97.4331 84.6032 97.5408 84.7253 97.6521 84.8438C97.7382 84.9443 97.8316 85.0412 97.9285 85.1417C97.9464 85.1633 97.968 85.1848 97.9895 85.2063C98.1152 85.3356 98.2408 85.4648 98.3736 85.5905C98.5101 85.7269 98.6537 85.8561 98.7972 85.9889C99.2926 86.4448 99.8311 86.8864 100.413 87.3172C100.42 87.3208 100.427 87.3244 100.434 87.3351Z" stroke="#2F80ED" stroke-width="1.5" stroke-linecap="round" stroke-linejoin="round"/>
<path d="M151.848 77.1292V136.897C151.848 138.9 151.223 140.907 149.97 142.806C148.574 144.927 146.391 146.92 143.43 148.632C143.379 148.661 143.329 148.689 143.275 148.718C137.327 152.103 129.465 153.687 121.722 153.475V104.128H121.693C121.998 100.269 119.984 96.3636 115.651 93.1579C115.957 93.2046 116.258 93.2476 116.567 93.2907C116.858 93.3302 117.152 93.3661 117.443 93.3984C117.536 93.4128 117.626 93.4235 117.719 93.4307C117.881 93.4487 118.042 93.4666 118.204 93.481C118.584 93.5205 118.968 93.5528 119.353 93.5815C119.582 93.5994 119.812 93.6174 120.042 93.6317C120.742 93.6748 121.445 93.7 122.149 93.7143C122.451 93.7215 122.752 93.7251 123.054 93.7251C124.902 93.7251 126.755 93.6246 128.578 93.4199C129.408 93.3302 130.233 93.2153 131.052 93.0789C131.572 92.9927 132.089 92.8994 132.603 92.7953C132.743 92.7666 132.883 92.7379 133.023 92.7091C133.382 92.6338 133.737 92.5548 134.092 92.4686C134.419 92.3897 134.742 92.3107 135.062 92.2245C135.959 91.9876 136.842 91.7219 137.704 91.4276C137.847 91.3773 137.991 91.3306 138.135 91.2768C140.019 90.6127 141.796 89.805 143.43 88.8644C149.041 85.6228 151.848 81.376 151.848 77.1292Z" stroke="#2F80ED" stroke-width="1.5" stroke-linecap="round" stroke-linejoin="round"/>
<path d="M151.82 64.9955C151.665 66.934 150.926 68.8618 149.598 70.6818C148.198 72.6024 146.141 74.4045 143.43 75.9697C132.205 82.453 114.008 82.453 102.782 75.9697C100.072 74.4045 98.015 72.6024 96.615 70.6818C95.2867 68.8618 94.5472 66.934 94.3928 64.9955C94.0375 60.4974 96.834 55.9311 102.782 52.4992C114.008 46.0159 132.205 46.0159 143.43 52.4992C149.379 55.9311 152.175 60.4974 151.82 64.9955Z" stroke="#2F80ED" stroke-width="1.5" stroke-linecap="round" stroke-linejoin="round"/>
<path d="M151.848 64.9954V77.1291C151.848 81.3759 149.041 85.6227 143.43 88.8644C141.797 89.8049 140.02 90.6126 138.135 91.2767C137.991 91.3306 137.848 91.3772 137.704 91.4275C136.843 91.7219 135.959 91.9875 135.062 92.2245C134.743 92.3106 134.419 92.3896 134.093 92.4686C133.737 92.5547 133.382 92.6337 133.023 92.7091C132.883 92.7378 132.743 92.7665 132.603 92.7952C132.09 92.8994 131.573 92.9927 131.052 93.0788C130.234 93.2153 129.408 93.3301 128.579 93.4199C126.755 93.6245 124.903 93.725 123.054 93.725C122.752 93.725 122.451 93.725 122.149 93.7143C121.446 93.6999 120.742 93.6748 120.042 93.6317C119.812 93.6173 119.583 93.5994 119.353 93.5814C118.969 93.5527 118.585 93.5204 118.204 93.4809C118.042 93.4665 117.881 93.4486 117.719 93.4307C117.626 93.4235 117.536 93.4127 117.443 93.3983C117.152 93.366 116.858 93.3301 116.567 93.2906C116.258 93.2476 115.957 93.2045 115.652 93.1578H115.644C114.926 92.6301 114.147 92.1204 113.304 91.6321C109.606 89.4962 105.151 88.0638 100.438 87.3351H100.434C100.434 87.3351 100.42 87.3207 100.413 87.3171C99.8311 86.8863 99.2926 86.4448 98.7972 85.9889C98.6537 85.856 98.5101 85.7268 98.3736 85.5904C98.2408 85.4648 98.1152 85.3355 97.9895 85.2063C97.968 85.1847 97.9464 85.1632 97.9285 85.1417C97.8352 85.0447 97.7418 84.9442 97.6521 84.8437C97.5408 84.7252 97.4367 84.6032 97.3326 84.4811C97.2464 84.3806 97.1603 84.2801 97.0813 84.1796C96.8623 83.9139 96.6577 83.6447 96.4674 83.3719C96.392 83.2642 96.3167 83.1565 96.2484 83.0452C96.2269 83.0165 96.2054 82.9877 96.1874 82.9554C96.1228 82.8585 96.0618 82.7616 96.0043 82.6647C95.8787 82.4636 95.7602 82.2554 95.6525 82.0508C95.6095 81.9718 95.5664 81.8928 95.5269 81.8139C95.3474 81.4621 95.1894 81.1031 95.0494 80.7441C95.0243 80.6795 95.0028 80.6148 94.9812 80.5538C94.9669 80.5179 94.9525 80.482 94.9417 80.4461C94.9058 80.3528 94.8735 80.2559 94.8448 80.1589C94.8089 80.0512 94.7766 79.9435 94.7479 79.8358C94.7156 79.7353 94.6904 79.6312 94.6617 79.5271C94.5971 79.2615 94.5397 78.9886 94.4966 78.7194C94.4715 78.5866 94.4535 78.4538 94.4392 78.3209C94.4284 78.2419 94.4176 78.163 94.414 78.084C94.4104 78.0732 94.4104 78.0589 94.4104 78.0481C94.3997 77.9655 94.3925 77.8866 94.3889 77.8076C94.3853 77.7501 94.3817 77.6927 94.3781 77.6353C94.3745 77.5814 94.3745 77.524 94.371 77.4665C94.3674 77.3553 94.3638 77.2404 94.3638 77.1291V64.9954H94.3925C94.5469 66.9339 95.2864 68.8616 96.6146 70.6817C98.0147 72.6023 100.072 74.4044 102.782 75.9696C114.007 82.4529 132.205 82.4529 143.43 75.9696C146.14 74.4044 148.197 72.6023 149.597 70.6817C150.926 68.8616 151.665 66.9339 151.82 64.9954H151.848Z" stroke="#2F80ED" stroke-width="1.5" stroke-linecap="round" stroke-linejoin="round"/>
<path d="M151.848 136.897L188.048 158.544C190.701 160.131 190.704 163.972 188.059 165.566L105.032 215.529C100.347 218.347 94.4781 218.304 89.8364 215.414L43.161 186.372C41.0897 185.084 41.0825 182.072 43.1431 180.772L64.2335 167.472" stroke="#2F80ED" stroke-width="1.5" stroke-linecap="round" stroke-linejoin="round"/>
<path d="M675.365 112.495L675.361 208.731V219.188L544.318 145.385L544.322 38.6926L553.103 43.6362L675.365 112.495Z" stroke="#2F80ED" stroke-width="1.5" stroke-linecap="round" stroke-linejoin="round"/>
<path d="M684.146 110.95V211.343C684.146 213.663 682.791 215.769 680.684 216.737L675.361 219.187V112.495L553.103 43.636L544.322 38.6924L551.669 35.3137C552.569 34.8988 553.613 34.9422 554.474 35.4283L681.969 107.231C683.312 107.986 684.142 109.408 684.142 110.95H684.146Z" stroke="#2F80ED" stroke-width="1.5" stroke-linecap="round" stroke-linejoin="round"/>
<path d="M553.822 134.02C555.051 133.668 588.949 112.768 588.949 112.768L616.524 135.249L643.922 116.107L668.335 128.938" stroke="#2F80ED" stroke-width="1.5" stroke-linecap="round" stroke-linejoin="round"/>
<path d="M644.1 132.265V188.992" stroke="#2F80ED" stroke-width="1.5" stroke-linecap="round" stroke-linejoin="round"/>
<path d="M617.753 146.491V170.905" stroke="#2F80ED" stroke-width="1.5" stroke-linecap="round" stroke-linejoin="round"/>
<path d="M590.178 133.846V155.798" stroke="#2F80ED" stroke-width="1.5" stroke-linecap="round" stroke-linejoin="round"/>
<path d="M604.735 179.409V199.006L628.991 212.703V192.636" stroke="#2F80ED" stroke-width="1.5" stroke-linecap="round" stroke-linejoin="round"/>
<path d="M628.991 212.703L635.666 208.731V197.2" stroke="#2F80ED" stroke-width="1.5" stroke-linecap="round" stroke-linejoin="round"/>
<path d="M653.876 207.087L612.438 234.52C610.854 235.567 608.807 235.603 607.186 234.611L570.333 211.972C567.958 210.513 568.013 207.044 570.431 205.657L604.736 186.009" stroke="#2F80ED" stroke-width="1.5" stroke-linecap="round" stroke-linejoin="round"/>
<path d="M702.783 380.631C702.783 392.515 699.613 401.717 694.195 407.702C692.829 409.222 691.309 410.534 689.663 411.628L689.627 411.652C680.665 417.594 667.88 417.165 653.693 408.974C626.586 393.322 604.61 355.261 604.61 323.957C604.61 308.329 610.091 297.343 618.951 292.204C620.707 291.184 622.593 290.397 624.598 289.849C632.741 287.617 642.805 289.33 653.697 295.618C680.807 311.266 702.783 349.331 702.783 380.631Z" stroke="#2F80ED" stroke-width="1.5" stroke-linecap="round" stroke-linejoin="round"/>
<path d="M714.186 373.591C714.183 387.412 709.902 397.602 702.783 403.328L698.286 406.171L689.663 411.628C691.309 410.534 692.829 409.222 694.195 407.702C699.613 401.717 702.779 392.515 702.783 380.631C702.783 349.331 680.807 311.266 653.697 295.618C642.805 289.33 632.741 287.617 624.598 289.849C622.593 290.397 620.707 291.184 618.951 292.204L629.579 285.636L630.024 285.361C638.935 279.99 651.358 280.643 665.1 288.578C692.211 304.226 714.186 342.291 714.186 373.591Z" stroke="#2F80ED" stroke-width="1.5" stroke-linecap="round" stroke-linejoin="round"/>
<path d="M702.784 403.328C701.39 404.45 699.89 405.403 698.287 406.171L702.784 403.328Z" stroke="#2F80ED" stroke-width="1.5" stroke-linecap="round" stroke-linejoin="round"/>
<path d="M689.628 411.652L688.915 412.101" stroke="#2F80ED" stroke-width="1.5" stroke-linecap="round" stroke-linejoin="round"/>
<path d="M630.23 285.234L630.024 285.361" stroke="#2F80ED" stroke-width="1.5" stroke-linecap="round" stroke-linejoin="round"/>
<path d="M629.595 338.381C629.595 353.749 640.384 372.441 653.697 380.123C667.006 387.81 677.799 381.576 677.799 366.208C677.799 350.839 667.01 332.147 653.697 324.465C640.388 316.779 629.595 323.012 629.595 338.381Z" stroke="#2F80ED" stroke-width="1.5" stroke-linecap="round" stroke-linejoin="round"/>
<path d="M650.055 334.034C650.578 334.384 650.055 351.532 650.055 351.532L661.604 364.657" stroke="#2F80ED" stroke-width="1.5" stroke-linecap="round" stroke-linejoin="round"/>
<path d="M554.973 468.248L532.513 455.281L532.517 345.173L554.977 358.14L554.973 468.248Z" stroke="#2F80ED" stroke-width="1.5" stroke-linecap="round" stroke-linejoin="round"/>
<path d="M570.038 459.553L554.981 468.248L554.977 358.136L577.437 345.169V454.982L570.038 459.553Z" stroke="#2F80ED" stroke-width="1.5" stroke-linecap="round" stroke-linejoin="round"/>
<path d="M532.56 345.047L554.976 357.994L577.393 345.047L554.976 332.104L532.56 345.047Z" stroke="#2F80ED" stroke-width="1.5" stroke-linecap="round" stroke-linejoin="round"/>
<path d="M655.162 462.822L655.155 521.63L632.694 508.663V490.853L632.698 449.855L638.628 453.277L655.162 462.822Z" stroke="#2F80ED" stroke-width="1.5" stroke-linecap="round" stroke-linejoin="round"/>
<path d="M677.626 508.667L655.162 521.634L655.158 462.822L677.622 449.855L677.626 508.667Z" stroke="#2F80ED" stroke-width="1.5" stroke-linecap="round" stroke-linejoin="round"/>
<path d="M677.579 449.729L655.162 462.676L638.628 453.127L632.741 449.729L638.628 446.331L655.162 436.786L677.579 449.729Z" stroke="#2F80ED" stroke-width="1.5" stroke-linecap="round" stroke-linejoin="round"/>
<path d="M605.051 406.581L605.043 492.224L582.583 479.257V434.613L582.587 393.614L588.517 397.036L605.051 406.581Z" stroke="#2F80ED" stroke-width="1.5" stroke-linecap="round" stroke-linejoin="round"/>
<path d="M627.515 479.261L605.051 492.228L605.047 406.581L627.511 393.614L627.515 479.261Z" stroke="#2F80ED" stroke-width="1.5" stroke-linecap="round" stroke-linejoin="round"/>
<path d="M627.469 393.488L605.052 406.435L588.518 396.886L582.631 393.488L588.518 390.09L605.052 380.545L627.469 393.488Z" stroke="#2F80ED" stroke-width="1.5" stroke-linecap="round" stroke-linejoin="round"/>
<path d="M581.903 434.762L577.438 432.167" stroke="#2F80ED" stroke-width="1.5" stroke-linecap="round" stroke-linejoin="round"/>
<path d="M632.698 464.298L627.516 461.282" stroke="#2F80ED" stroke-width="1.5" stroke-linecap="round" stroke-linejoin="round"/>
<path d="M532.56 441.33L510.553 453.143L646.007 535.833L699.751 503.28L678.142 490.719" stroke="#2F80ED" stroke-width="1.5" stroke-linecap="round" stroke-linejoin="round"/>
<path d="M531.444 442.521L475.272 410.09C472.178 408.304 470.272 405.003 470.272 401.43V357.394" stroke="#2F80ED" stroke-width="1.5"/>
<path d="M66.6594 386.409L126.226 312.276M77.3284 392.803L136.895 318.67M87.6444 398.879L147.211 324.746M97.2542 405.211L157.145 330.431M107.353 411.29L166.92 336.834M117.284 417.399L176.851 342.619M226.886 445.558L249.582 457.315C251.616 458.446 251.681 461.348 249.698 462.566L147.283 523.681C144.115 525.628 140.141 525.712 136.895 523.898L43.0185 468.266C40.7901 467.019 40.7901 463.813 43.0185 462.566L58.941 454.089M197.47 372.812L226.886 394.733V465.082L139.762 516.646M139.762 516.646V516.656V516.649V516.646ZM139.762 516.646V431.427L139.801 431.372L139.759 431.417M186.626 348.922L127.707 424.029M58.9442 381.661L116.429 306.152L196.968 354.761M58.941 466.883L139.759 516.643V431.414L58.9442 381.654V466.883H58.941Z" stroke="#2F80ED" stroke-width="1.5" stroke-linecap="round" stroke-linejoin="round"/>
<path d="M197.47 372.812L139.801 431.372L141.651 428.898L188.495 366.124L196.968 354.768L197.47 372.812Z" stroke="#2F80ED" stroke-width="1.5" stroke-linecap="round" stroke-linejoin="round"/>
<path d="M75.6284 477.16V418.056L120.452 447.608V504.137" stroke="#2F80ED" stroke-width="1.5" stroke-linecap="round" stroke-linejoin="round"/>
<path d="M106.595 438.475V496.043" stroke="#2F80ED" stroke-width="1.5" stroke-linecap="round" stroke-linejoin="round"/>
<path d="M91.3721 428.577V486.149" stroke="#2F80ED" stroke-width="1.5" stroke-linecap="round" stroke-linejoin="round"/>
<path d="M75.6279 439.217L120.451 469.015" stroke="#2F80ED" stroke-width="1.5" stroke-linecap="round" stroke-linejoin="round"/>
<path d="M209.249 474.317V415.213L164.426 444.765V501.294" stroke="#2F80ED" stroke-width="1.5" stroke-linecap="round" stroke-linejoin="round"/>
<path d="M178.281 435.632V493.2" stroke="#2F80ED" stroke-width="1.5" stroke-linecap="round" stroke-linejoin="round"/>
<path d="M193.504 425.734V483.306" stroke="#2F80ED" stroke-width="1.5" stroke-linecap="round" stroke-linejoin="round"/>
<path d="M209.249 436.374L164.426 466.172" stroke="#2F80ED" stroke-width="1.5" stroke-linecap="round" stroke-linejoin="round"/>
<path d="M226.779 444.948L280.952 412.051C285.696 409.17 293.621 409.112 298.489 411.923L310.816 419.039L323.364 426.283C328.147 429.044 335.901 429.044 340.684 426.283L390.685 397.417" stroke="#2F80ED" stroke-width="1.5"/>
<path d="M150.656 186.941L205.012 218.321" stroke="#2F80ED" stroke-width="1.5"/>
</svg>
