<svg width="750" height="528" viewBox="0 0 750 528" fill="none" xmlns="http://www.w3.org/2000/svg">
<path d="M427.59 217.649V398.273L427.586 404.448C427.586 405.135 427.486 405.789 427.304 406.401C426.75 408.28 425.417 409.758 423.749 410.565C421.841 411.5 419.503 411.558 417.4 410.353L293.737 339.587C289.342 337.07 286.627 332.389 286.627 327.324L286.635 140.894C286.635 137.79 288.829 135.439 291.502 134.855C292.893 134.549 294.412 134.719 295.819 135.509L297.739 136.585L305.727 141.063L321.081 149.672V156.947L392.821 195.578V189.883L420.372 205.324C424.829 207.824 427.59 212.538 427.59 217.649Z" stroke="#2F80ED" stroke-width="1.65546" stroke-linecap="round" stroke-linejoin="round"/>
<path d="M306.853 132.198L321.082 140.173V149.671L305.728 141.063L297.74 136.585L295.82 135.509C294.412 134.718 292.894 134.549 291.503 134.855L300.96 132.119H300.972C302.715 131.201 304.891 131.101 306.853 132.198Z" stroke="#2F80ED" stroke-width="1.65546" stroke-linecap="round" stroke-linejoin="round"/>
<path d="M438.624 214.338L438.616 401.137C438.616 404.311 436.53 406.765 433.877 407.618L433.484 407.734L433.434 407.746L423.749 410.569C425.417 409.757 426.75 408.28 427.305 406.401C427.487 405.788 427.586 405.135 427.586 404.448V217.649C427.59 212.538 424.83 207.824 420.372 205.324L392.821 189.883V180.389L431.402 202.013C435.863 204.513 438.624 209.227 438.624 214.338Z" stroke="#2F80ED" stroke-width="1.65546" stroke-linecap="round" stroke-linejoin="round"/>
<path d="M387.668 160.184L376.266 153.914V146.005C376.266 139.043 372.247 132.707 365.952 129.736L355.117 124.629C349.17 121.822 342.329 126.164 342.329 132.736V136.809L330.447 130.327C326.225 128.026 321.081 131.081 321.081 135.886V156.947L392.821 195.578V168.9C392.821 165.27 390.846 161.934 387.668 160.184ZM358.49 136.113C361.077 137.607 363.171 141.237 363.171 144.225C363.171 147.213 361.077 148.422 358.49 146.928C355.904 145.434 353.81 141.804 353.81 138.82C353.81 135.836 355.904 134.623 358.49 136.113Z" stroke="#2F80ED" stroke-width="1.65546" stroke-linecap="round" stroke-linejoin="round"/>
<path d="M363.172 144.225C363.172 147.209 361.078 148.422 358.491 146.928C355.905 145.434 353.811 141.804 353.811 138.82C353.811 135.836 355.905 134.624 358.491 136.114C361.078 137.608 363.172 141.237 363.172 144.225Z" stroke="#2F80ED" stroke-width="1.65546" stroke-linecap="round" stroke-linejoin="round"/>
<path d="M363.172 144.225C363.172 147.209 361.078 148.422 358.491 146.928C355.905 145.434 353.811 141.804 353.811 138.82C353.811 135.836 355.905 134.624 358.491 136.114C361.078 137.608 363.172 141.237 363.172 144.225Z" stroke="#2F80ED" stroke-width="1.65546" stroke-linecap="round" stroke-linejoin="round"/>
<path d="M310.892 229.536C310.892 256.843 330.062 290.043 353.706 303.696C377.354 317.35 396.525 306.279 396.525 278.976C396.525 251.669 377.354 218.469 353.71 204.815C330.062 191.162 310.892 202.233 310.892 229.536Z" stroke="#2F80ED" stroke-width="1.65546" stroke-linecap="round" stroke-linejoin="round"/>
<path d="M332.67 244.414L347.019 270.074L375.439 238.069" stroke="#2F80ED" stroke-width="1.65546" stroke-linecap="round" stroke-linejoin="round"/>
<path d="M313.909 302.632L399.443 351.191" stroke="#2F80ED" stroke-width="1.65546" stroke-linecap="round" stroke-linejoin="round"/>
<path d="M312.713 320.727L398.247 369.285" stroke="#2F80ED" stroke-width="1.65546" stroke-linecap="round" stroke-linejoin="round"/>
<path d="M51.3838 374.919L108.38 407.822L108.384 342.012L51.3873 309.108L51.3838 374.919Z" stroke="#2F80ED" stroke-width="1.65546" stroke-linecap="round" stroke-linejoin="round"/>
<path d="M108.387 407.822L165.384 374.919L165.38 309.108L108.384 342.012L108.387 407.822Z" stroke="#2F80ED" stroke-width="1.65546" stroke-linecap="round" stroke-linejoin="round"/>
<path d="M51.3906 309.108L108.383 342.016L165.376 309.108L108.383 276.201L51.3906 309.108Z" stroke="#2F80ED" stroke-width="1.65546" stroke-linecap="round" stroke-linejoin="round"/>
<path d="M78.3379 324.587L89.6865 331.141L146.437 298.171L135.085 291.62L78.3379 324.587Z" stroke="#2F80ED" stroke-width="1.65546" stroke-linecap="round" stroke-linejoin="round"/>
<path d="M78.3379 324.586V344.468L89.9044 351.382L89.6865 331.141" stroke="#2F80ED" stroke-width="1.65546" stroke-linecap="round" stroke-linejoin="round"/>
<path d="M98.8066 394.26V375.868" stroke="#2F80ED" stroke-width="1.65546" stroke-linecap="round" stroke-linejoin="round"/>
<path d="M90.7236 379.85L98.8072 375.281L105.017 384.068" stroke="#2F80ED" stroke-width="1.65546" stroke-linecap="round" stroke-linejoin="round"/>
<path d="M215.469 473.244L162.849 503.62V437.592L215.466 407.215L215.469 473.244Z" stroke="#2F80ED" stroke-width="1.65546" stroke-linecap="round" stroke-linejoin="round"/>
<path d="M162.846 503.62L62.6523 444.434L63.9844 382.349L162.85 437.591L162.846 503.62Z" stroke="#2F80ED" stroke-width="1.65546" stroke-linecap="round" stroke-linejoin="round"/>
<path d="M215.463 407.215L162.849 437.595L109.575 407.823L162.849 376.838L215.463 407.215Z" stroke="#2F80ED" stroke-width="1.65546" stroke-linecap="round" stroke-linejoin="round"/>
<path d="M190.586 421.505L180.109 427.557L127.721 397.121L138.198 391.068L190.586 421.505Z" stroke="#2F80ED" stroke-width="1.65546" stroke-linecap="round" stroke-linejoin="round"/>
<path d="M190.587 421.505V439.862L179.909 446.241L180.11 427.557" stroke="#2F80ED" stroke-width="1.65546" stroke-linecap="round" stroke-linejoin="round"/>
<path d="M643.553 447.348L686.059 423.451L687.539 332.473L644.333 356.985L643.553 447.348Z" stroke="#2F80ED" stroke-width="1.65546" stroke-linecap="round" stroke-linejoin="round"/>
<path d="M564.206 311.277L644.333 356.986L687.538 331.351L607.412 285.643L564.206 311.277Z" stroke="#2F80ED" stroke-width="1.65546" stroke-linecap="round" stroke-linejoin="round"/>
<path d="M643.993 356.79V356.793L643.552 447.345L606.836 426.149L608.586 425.101V389.909L575.224 370.603L564.836 376.857L564.597 311.501L564.594 311.047V310.979L564.653 311.013L643.993 356.79Z" stroke="#2F80ED" stroke-width="1.65546" stroke-linecap="round" stroke-linejoin="round"/>
<path d="M601.198 437.171C601.198 441.423 598.211 446.592 594.531 448.719C590.847 450.845 587.863 449.12 587.863 444.867C587.863 441.249 590.027 436.96 592.945 434.458C593.452 434.019 593.984 433.637 594.531 433.32C594.997 433.049 595.454 432.841 595.895 432.692H595.901C598.926 431.676 601.198 433.463 601.198 437.171Z" stroke="#2F80ED" stroke-width="1.65546" stroke-linecap="round" stroke-linejoin="round"/>
<path d="M571.874 455.327C571.874 459.579 574.858 461.301 578.541 459.175C582.225 457.049 585.209 451.88 585.209 447.628C585.209 443.376 582.225 441.654 578.541 443.78C574.858 445.906 571.874 451.075 571.874 455.327Z" stroke="#2F80ED" stroke-width="1.65546" stroke-linecap="round" stroke-linejoin="round"/>
<path d="M538.305 475.22C538.305 479.472 541.289 481.194 544.972 479.068C548.655 476.942 551.639 471.773 551.639 467.521C551.639 463.269 548.655 461.547 544.972 463.673C541.289 465.799 538.305 470.968 538.305 475.22Z" stroke="#2F80ED" stroke-width="1.65546" stroke-linecap="round" stroke-linejoin="round"/>
<path d="M511.159 487.862C511.159 492.114 514.143 493.836 517.827 491.71C521.51 489.584 524.494 484.415 524.494 480.162C524.494 475.91 521.51 474.188 517.827 476.314C514.143 478.44 511.159 483.61 511.159 487.862Z" stroke="#2F80ED" stroke-width="1.65546" stroke-linecap="round" stroke-linejoin="round"/>
<path d="M523.434 476.613V438.986L509.198 447.985C502.957 451.929 499.174 458.796 499.174 466.181V495.872L511.16 488.723" stroke="#2F80ED" stroke-width="1.65546" stroke-linecap="round" stroke-linejoin="round"/>
<path d="M523.434 438.986L497.392 423.351L483.467 431.106C477.225 435.051 473.442 441.917 473.442 449.303V478.993L499.173 495.872" stroke="#2F80ED" stroke-width="1.65546" stroke-linecap="round" stroke-linejoin="round"/>
<path d="M474.428 442.872L499.173 459.61L514.715 451.24V467.428L499.173 475.404L473.442 459.138" stroke="#2F80ED" stroke-width="1.65546" stroke-linecap="round" stroke-linejoin="round"/>
<path d="M535.056 469.084L524.494 462.762" stroke="#2F80ED" stroke-width="1.65546" stroke-linecap="round" stroke-linejoin="round"/>
<path d="M608.587 389.909V425.101L606.837 426.149L595.902 432.689H595.899L595.896 432.692C595.455 432.841 594.998 433.049 594.531 433.32C593.984 433.637 593.453 434.019 592.946 434.457L535.057 469.084L535.231 434.426L577.131 409L608.587 389.909Z" stroke="#2F80ED" stroke-width="1.65546" stroke-linecap="round" stroke-linejoin="round"/>
<path d="M535.056 469.084L524.494 475.404" stroke="#2F80ED" stroke-width="1.65546" stroke-linecap="round" stroke-linejoin="round"/>
<path d="M595.895 432.692L592.945 434.457" stroke="#2F80ED" stroke-width="1.65546" stroke-linecap="round" stroke-linejoin="round"/>
<path d="M608.587 389.909L577.13 409L535.23 434.426L502.903 414.151L564.837 376.857L575.225 370.603L608.587 389.909Z" stroke="#2F80ED" stroke-width="1.65546" stroke-linecap="round" stroke-linejoin="round"/>
<path d="M502.903 426.662V414.151" stroke="#2F80ED" stroke-width="1.65546" stroke-linecap="round" stroke-linejoin="round"/>
<path d="M687.539 397.335L708.98 410.132C710.919 411.288 710.938 414.089 709.02 415.273L570.619 500.802C567.6 502.667 563.787 502.658 560.778 500.78L524.494 478.148" stroke="#2F80ED" stroke-width="1.65546" stroke-linecap="round" stroke-linejoin="round"/>
<path d="M78.2545 123.883L76.833 129.29C76.833 127.465 77.3044 125.64 78.2545 123.883Z" stroke="#2F80ED" stroke-width="1.65546" stroke-linecap="round" stroke-linejoin="round"/>
<path d="M139.541 131.479V129.293L138.023 123.308C139.609 125.94 140.113 128.743 139.541 131.479Z" stroke="#2F80ED" stroke-width="1.65546" stroke-linecap="round" stroke-linejoin="round"/>
<path d="M139.766 161.076C139.777 161.855 139.702 162.634 139.541 163.405V159.026C139.68 159.709 139.759 160.391 139.766 161.076Z" stroke="#2F80ED" stroke-width="1.65546" stroke-linecap="round" stroke-linejoin="round"/>
<path d="M139.745 183.881C139.709 184.37 139.641 184.859 139.541 185.345V180.966C139.745 181.934 139.809 182.909 139.745 183.881Z" stroke="#2F80ED" stroke-width="1.65546" stroke-linecap="round" stroke-linejoin="round"/>
<path d="M139.541 208.152V203.781C139.845 205.231 139.845 206.702 139.541 208.152Z" stroke="#2F80ED" stroke-width="1.65546" stroke-linecap="round" stroke-linejoin="round"/>
<path d="M133.22 89.9963C133.22 92.4892 132.106 94.975 129.884 97.1929C128.816 98.2572 127.495 99.2608 125.92 100.172C125.756 100.268 125.588 100.361 125.42 100.454C123.799 101.339 122.02 102.079 120.134 102.664C116.456 103.811 112.377 104.386 108.302 104.386C101.923 104.386 95.548 102.982 90.68 100.172C89.1014 99.2608 87.78 98.2572 86.7157 97.1929C84.4906 94.975 83.3799 92.4892 83.3799 89.9963C83.3799 86.3177 85.8121 82.6319 90.68 79.8247C99.5659 74.6925 113.498 74.246 123.256 78.489C124.184 78.8925 125.074 79.3354 125.92 79.8247C130.784 82.6319 133.22 86.3177 133.22 89.9963Z" stroke="#2F80ED" stroke-width="1.65546" stroke-linecap="round" stroke-linejoin="round"/>
<path d="M139.541 131.479V163.405C138.891 166.523 136.838 169.566 133.388 172.187C132.53 172.841 131.584 173.466 130.552 174.062C129.241 174.819 127.845 175.494 126.377 176.091C126.134 176.191 125.888 176.287 125.641 176.38C125.395 176.476 125.145 176.569 124.891 176.659C124.577 176.773 124.255 176.884 123.934 176.987C123.784 177.041 123.63 177.087 123.477 177.137C123.291 177.194 123.105 177.255 122.916 177.312C122.702 177.377 122.487 177.437 122.273 177.502C121.652 177.68 121.016 177.844 120.377 177.998C120.205 178.041 120.034 178.08 119.859 178.119C119.795 178.134 119.73 178.148 119.662 178.162C119.448 178.212 119.234 178.259 119.016 178.302C118.673 178.373 118.33 178.441 117.987 178.505C117.612 178.577 117.234 178.641 116.855 178.702C116.68 178.73 116.505 178.759 116.33 178.784C115.416 178.923 114.494 179.041 113.566 179.13C113.248 179.159 112.93 179.187 112.609 179.212C112.252 179.241 111.894 179.266 111.537 179.287C110.809 179.334 110.073 179.362 109.337 179.373C108.991 179.38 108.644 179.384 108.298 179.384C103.519 179.384 98.737 178.759 94.3548 177.509C93.8905 177.377 93.4333 177.237 92.9833 177.094C91.8547 176.73 90.7547 176.323 89.6904 175.873C89.269 175.691 88.8475 175.505 88.4368 175.309C87.6118 174.923 86.8153 174.505 86.0475 174.062C85.0153 173.466 84.0689 172.841 83.2117 172.187C78.958 168.955 76.833 165.083 76.833 161.215V129.293C76.833 133.944 79.9045 138.59 86.0475 142.14C88.2332 143.404 90.6618 144.44 93.2476 145.254C97.9263 146.73 103.119 147.465 108.312 147.462C108.594 147.462 108.88 147.458 109.162 147.455C109.534 147.447 109.905 147.44 110.28 147.426C110.591 147.415 110.902 147.401 111.212 147.383C111.537 147.365 111.859 147.347 112.184 147.322C112.448 147.305 112.712 147.283 112.977 147.262C113.112 147.247 113.252 147.237 113.387 147.222C113.759 147.187 114.127 147.151 114.494 147.105C115.148 147.033 115.802 146.944 116.448 146.844C116.716 146.801 116.984 146.758 117.252 146.712C117.737 146.629 118.223 146.54 118.702 146.444C118.941 146.397 119.18 146.347 119.42 146.29C119.659 146.244 119.898 146.19 120.134 146.129H120.145C120.191 146.119 120.234 146.112 120.28 146.097C120.287 146.094 120.291 146.094 120.298 146.09C120.559 146.033 120.816 145.969 121.073 145.901C121.33 145.837 121.587 145.769 121.841 145.697C122.348 145.562 122.855 145.412 123.352 145.254C125.938 144.44 128.366 143.404 130.552 142.14C131.198 141.765 131.813 141.379 132.391 140.983C132.538 140.883 132.68 140.783 132.82 140.683C132.959 140.583 133.098 140.479 133.234 140.379C133.891 139.887 134.502 139.379 135.059 138.858C135.156 138.769 135.252 138.679 135.345 138.586C135.438 138.497 135.531 138.408 135.62 138.315C135.713 138.222 135.798 138.133 135.888 138.04C135.977 137.947 136.063 137.854 136.148 137.758C136.234 137.669 136.313 137.583 136.391 137.49C136.809 137.015 137.188 136.529 137.531 136.036C137.613 135.915 137.691 135.794 137.773 135.672C137.877 135.511 137.977 135.351 138.07 135.186C138.141 135.072 138.206 134.954 138.27 134.84C138.341 134.719 138.406 134.594 138.466 134.472C138.484 134.44 138.502 134.404 138.52 134.369C138.641 134.129 138.752 133.89 138.852 133.651C138.927 133.479 138.995 133.308 139.059 133.136C139.109 133.008 139.152 132.879 139.195 132.751C139.231 132.654 139.259 132.554 139.288 132.458C139.316 132.372 139.341 132.29 139.363 132.208C139.431 131.965 139.491 131.722 139.541 131.479Z" stroke="#2F80ED" stroke-width="1.65546" stroke-linecap="round" stroke-linejoin="round"/>
<path d="M139.541 163.405V185.345C138.852 188.638 136.606 191.845 132.798 194.563C132.102 195.063 131.352 195.541 130.552 196.006C118.262 203.099 98.337 203.099 86.0475 196.006C85.2475 195.545 84.501 195.063 83.8046 194.563C79.1581 191.245 76.833 187.198 76.833 183.156V161.216C76.833 165.084 78.958 168.955 83.2117 172.187C84.0689 172.841 85.0153 173.466 86.0475 174.062C86.8153 174.505 87.6118 174.923 88.4368 175.309C88.8475 175.505 89.269 175.691 89.6904 175.873C90.7547 176.323 91.8547 176.73 92.9833 177.095C93.4333 177.238 93.8905 177.377 94.3548 177.509C98.737 178.759 103.519 179.384 108.298 179.384C108.644 179.384 108.991 179.38 109.337 179.373C110.073 179.363 110.809 179.334 111.537 179.288C111.894 179.266 112.252 179.241 112.609 179.213C112.93 179.188 113.248 179.159 113.566 179.13C114.494 179.041 115.416 178.923 116.33 178.784C116.505 178.759 116.68 178.73 116.855 178.702C117.234 178.641 117.612 178.577 117.987 178.505C118.33 178.441 118.673 178.373 119.016 178.302C119.234 178.259 119.448 178.213 119.662 178.163C119.73 178.148 119.795 178.134 119.859 178.12C120.034 178.08 120.205 178.041 120.377 177.998C121.016 177.845 121.652 177.68 122.273 177.502C122.487 177.438 122.702 177.377 122.916 177.313C123.105 177.255 123.291 177.195 123.477 177.138C123.63 177.088 123.784 177.041 123.934 176.988C124.255 176.884 124.577 176.773 124.891 176.659C125.145 176.57 125.395 176.477 125.641 176.38C125.888 176.288 126.134 176.191 126.377 176.091C127.845 175.495 129.241 174.82 130.552 174.062C131.584 173.466 132.53 172.841 133.388 172.187C136.838 169.566 138.891 166.523 139.541 163.405Z" stroke="#2F80ED" stroke-width="1.65546" stroke-linecap="round" stroke-linejoin="round"/>
<path d="M139.541 185.345V208.152C138.731 212.052 135.734 215.827 130.552 218.817C118.262 225.913 98.337 225.913 86.0475 218.817C80.8688 215.827 77.8723 212.052 77.058 208.152C76.908 207.427 76.833 206.699 76.833 205.97V183.155C76.833 187.198 79.1581 191.245 83.8046 194.563C84.501 195.063 85.2475 195.545 86.0475 196.006C98.337 203.099 118.262 203.099 130.552 196.006C131.352 195.541 132.102 195.063 132.798 194.563C136.606 191.845 138.852 188.638 139.541 185.345Z" stroke="#2F80ED" stroke-width="1.65546" stroke-linecap="round" stroke-linejoin="round"/>
<path d="M77.058 208.152H76.833V205.97C76.833 206.699 76.908 207.427 77.058 208.152Z" stroke="#2F80ED" stroke-width="1.65546" stroke-linecap="round" stroke-linejoin="round"/>
<path d="M133.22 89.9966V104.386C133.22 104.625 133.209 104.865 133.188 105.104C133.124 105.875 132.949 106.643 132.667 107.404C132.631 107.508 132.588 107.615 132.545 107.718C132.499 107.833 132.449 107.95 132.395 108.061C132.345 108.172 132.295 108.283 132.238 108.39C132.195 108.479 132.149 108.565 132.102 108.651C132.052 108.747 131.999 108.843 131.942 108.936C131.906 109.004 131.867 109.068 131.827 109.136C131.752 109.261 131.674 109.383 131.592 109.508C131.531 109.604 131.467 109.697 131.399 109.793C131.138 110.168 130.845 110.536 130.524 110.904C130.445 110.997 130.363 111.086 130.277 111.176C129.945 111.536 129.581 111.89 129.188 112.236C129.091 112.322 128.991 112.411 128.888 112.497C128.456 112.861 127.991 113.215 127.499 113.561C127.238 113.74 126.974 113.918 126.699 114.09C126.552 114.183 126.402 114.276 126.252 114.365C126.141 114.433 126.031 114.497 125.92 114.561C125.702 114.686 125.477 114.811 125.252 114.933C125.041 115.047 124.827 115.158 124.609 115.265C124.299 115.422 123.981 115.572 123.659 115.719C123.488 115.794 123.32 115.872 123.148 115.944C122.609 116.176 122.056 116.394 121.491 116.597C121.331 116.654 121.166 116.711 121.006 116.769C120.716 116.869 120.427 116.961 120.134 117.054C119.927 117.119 119.72 117.179 119.509 117.24C119.388 117.276 119.266 117.311 119.145 117.344C119.027 117.379 118.913 117.411 118.791 117.44C118.634 117.483 118.47 117.526 118.309 117.569C117.031 117.89 115.709 118.151 114.37 118.344C114.13 118.379 113.888 118.411 113.648 118.444C112.777 118.551 111.898 118.633 111.016 118.69C110.877 118.701 110.734 118.708 110.595 118.715C110.338 118.729 110.084 118.74 109.83 118.747C109.566 118.758 109.302 118.765 109.038 118.769C108.791 118.772 108.548 118.776 108.302 118.776C107.305 118.776 106.309 118.74 105.316 118.672C104.723 118.633 104.13 118.579 103.541 118.511C103.148 118.469 102.759 118.419 102.37 118.365C101.98 118.308 101.591 118.247 101.205 118.183C100.82 118.115 100.434 118.044 100.055 117.969C99.6766 117.89 99.298 117.808 98.923 117.722C98.7337 117.676 98.548 117.633 98.3623 117.586C97.9909 117.49 97.623 117.394 97.2587 117.29C94.8837 116.611 92.6586 115.701 90.68 114.561C90.5693 114.497 90.455 114.433 90.3479 114.365C85.7014 111.583 83.3799 107.983 83.3799 104.386V89.9966C83.3799 92.4895 84.4906 94.9753 86.7157 97.1932C87.78 98.2575 89.1014 99.261 90.68 100.172C95.548 102.983 101.923 104.386 108.302 104.386C112.377 104.386 116.456 103.811 120.134 102.665C122.02 102.079 123.799 101.34 125.42 100.454C125.588 100.361 125.756 100.268 125.92 100.172C127.495 99.261 128.816 98.2575 129.884 97.1932C132.106 94.9753 133.22 92.4895 133.22 89.9966Z" stroke="#2F80ED" stroke-width="1.65546" stroke-linecap="round" stroke-linejoin="round"/>
<path d="M139.541 129.294V131.48C139.491 131.722 139.431 131.965 139.363 132.208C139.341 132.29 139.316 132.372 139.288 132.458C139.259 132.555 139.231 132.655 139.195 132.751C139.152 132.88 139.109 133.008 139.059 133.137C138.995 133.308 138.927 133.48 138.852 133.651C138.752 133.89 138.638 134.13 138.52 134.369C138.502 134.405 138.484 134.44 138.466 134.473C138.402 134.598 138.338 134.719 138.27 134.84C138.206 134.955 138.141 135.073 138.07 135.187C137.977 135.351 137.877 135.512 137.773 135.673C137.691 135.794 137.613 135.915 137.531 136.037C137.188 136.53 136.809 137.015 136.391 137.49C136.313 137.583 136.234 137.669 136.148 137.758C136.063 137.855 135.977 137.948 135.888 138.04C135.798 138.133 135.713 138.223 135.62 138.315C135.531 138.408 135.438 138.498 135.345 138.587C135.252 138.68 135.156 138.769 135.059 138.858C134.502 139.38 133.891 139.887 133.234 140.38C133.098 140.48 132.959 140.583 132.82 140.683C132.68 140.783 132.538 140.883 132.391 140.983C131.813 141.38 131.198 141.766 130.552 142.141C128.366 143.405 125.938 144.441 123.352 145.255C122.855 145.412 122.348 145.562 121.841 145.698C121.587 145.769 121.33 145.837 121.073 145.901C120.816 145.966 120.559 146.03 120.298 146.091C120.291 146.094 120.287 146.094 120.28 146.098C120.234 146.112 120.191 146.119 120.145 146.13H120.134C119.898 146.187 119.659 146.241 119.42 146.291C119.18 146.344 118.941 146.394 118.702 146.444C118.223 146.541 117.737 146.63 117.252 146.712C116.984 146.758 116.716 146.801 116.448 146.844C115.802 146.944 115.148 147.033 114.494 147.105C114.127 147.151 113.759 147.187 113.387 147.223C113.252 147.237 113.112 147.248 112.977 147.262C112.712 147.283 112.448 147.305 112.184 147.323C111.859 147.348 111.537 147.366 111.212 147.383C110.902 147.401 110.591 147.416 110.28 147.426C109.905 147.441 109.534 147.448 109.162 147.455C108.88 147.458 108.594 147.462 108.312 147.462C103.119 147.466 97.9263 146.73 93.2476 145.255C90.6618 144.441 88.2332 143.405 86.0475 142.141C79.9045 138.59 76.833 133.944 76.833 129.294L78.2545 123.883L83.3796 104.386C83.3796 107.983 85.701 111.583 90.3476 114.365C90.4547 114.433 90.569 114.497 90.6797 114.561C92.6583 115.701 94.8834 116.611 97.2584 117.29C97.6227 117.394 97.9906 117.49 98.362 117.586C98.5477 117.633 98.7334 117.676 98.9227 117.722C99.2977 117.808 99.6763 117.89 100.055 117.969C100.433 118.044 100.819 118.115 101.205 118.183C101.591 118.247 101.98 118.308 102.369 118.365C102.759 118.419 103.148 118.469 103.541 118.512C104.13 118.579 104.723 118.633 105.316 118.672C106.309 118.74 107.305 118.776 108.301 118.776C108.548 118.776 108.791 118.772 109.037 118.769C109.301 118.765 109.566 118.758 109.83 118.747C110.084 118.74 110.337 118.729 110.594 118.715C110.734 118.708 110.877 118.701 111.016 118.69C111.898 118.633 112.777 118.551 113.648 118.444C113.887 118.411 114.13 118.379 114.369 118.344C115.709 118.151 117.03 117.89 118.309 117.569C118.47 117.526 118.634 117.483 118.791 117.44C118.912 117.411 119.027 117.379 119.145 117.344C119.266 117.311 119.387 117.276 119.509 117.24C119.72 117.179 119.927 117.119 120.134 117.054C120.427 116.961 120.716 116.869 121.005 116.769C121.166 116.711 121.33 116.654 121.491 116.597C122.055 116.394 122.609 116.176 123.148 115.944C123.32 115.872 123.487 115.794 123.659 115.719C123.98 115.572 124.298 115.422 124.609 115.265C124.827 115.158 125.041 115.047 125.252 114.933C125.477 114.811 125.702 114.686 125.92 114.561C126.03 114.497 126.141 114.433 126.252 114.365C126.402 114.276 126.552 114.183 126.698 114.09C126.973 113.919 127.238 113.74 127.498 113.561C127.991 113.215 128.455 112.861 128.888 112.497C128.991 112.411 129.091 112.322 129.188 112.236C129.58 111.89 129.945 111.536 130.277 111.176C130.363 111.086 130.445 110.997 130.523 110.904C130.845 110.536 131.138 110.168 131.398 109.793C131.466 109.697 131.53 109.604 131.591 109.508C131.673 109.383 131.752 109.261 131.827 109.136C131.866 109.068 131.905 109.004 131.941 108.936C131.998 108.843 132.052 108.747 132.102 108.651C132.148 108.565 132.195 108.479 132.238 108.39C132.295 108.283 132.345 108.172 132.395 108.061C132.448 107.951 132.498 107.833 132.545 107.718C132.588 107.615 132.63 107.508 132.666 107.404C132.948 106.643 133.123 105.876 133.188 105.104C133.195 105.111 133.206 105.118 133.216 105.118C133.281 105.147 133.345 105.176 133.409 105.197C133.413 105.204 133.42 105.204 133.427 105.204L138.023 123.308L139.541 129.294Z" stroke="#2F80ED" stroke-width="1.65546" stroke-linecap="round" stroke-linejoin="round"/>
<path d="M133.427 105.204C133.427 105.204 133.413 105.204 133.409 105.197C133.345 105.176 133.28 105.147 133.216 105.118C133.205 105.118 133.195 105.111 133.188 105.104C133.209 104.865 133.22 104.626 133.22 104.386L133.427 105.204Z" stroke="#2F80ED" stroke-width="1.65546" stroke-linecap="round" stroke-linejoin="round"/>
<path d="M165.471 123.883L164.05 129.29C164.05 127.465 164.521 125.64 165.471 123.883Z" stroke="#2F80ED" stroke-width="1.65546" stroke-linecap="round" stroke-linejoin="round"/>
<path d="M226.757 131.479V129.293L225.239 123.308C226.825 125.94 227.329 128.743 226.757 131.479Z" stroke="#2F80ED" stroke-width="1.65546" stroke-linecap="round" stroke-linejoin="round"/>
<path d="M226.758 163.405V159.026C227.061 160.48 227.061 161.951 226.758 163.405Z" stroke="#2F80ED" stroke-width="1.65546" stroke-linecap="round" stroke-linejoin="round"/>
<path d="M226.758 185.345V180.966C227.061 182.423 227.061 183.891 226.758 185.345Z" stroke="#2F80ED" stroke-width="1.65546" stroke-linecap="round" stroke-linejoin="round"/>
<path d="M226.758 208.152V203.781C227.061 205.231 227.061 206.702 226.758 208.152Z" stroke="#2F80ED" stroke-width="1.65546" stroke-linecap="round" stroke-linejoin="round"/>
<path d="M220.436 89.9963C220.436 92.4892 219.322 94.975 217.1 97.1929C216.032 98.2572 214.711 99.2608 213.136 100.172C208.271 102.982 201.893 104.386 195.518 104.386C195.285 104.386 195.05 104.382 194.818 104.379C194.682 104.379 194.546 104.375 194.41 104.372C194.232 104.368 194.053 104.361 193.871 104.354C193.657 104.347 193.443 104.336 193.228 104.325C192.996 104.314 192.764 104.3 192.532 104.282C192.428 104.275 192.321 104.268 192.214 104.261C192.182 104.257 192.15 104.257 192.118 104.254C191.882 104.232 191.643 104.211 191.407 104.189C191.189 104.168 190.975 104.147 190.757 104.122C190.707 104.114 190.657 104.111 190.607 104.104C190.335 104.072 190.067 104.039 189.8 104.004C189.278 103.932 188.757 103.854 188.242 103.761C188.207 103.757 188.171 103.75 188.139 103.743C187.896 103.7 187.65 103.654 187.41 103.604C187.175 103.557 186.939 103.511 186.703 103.461C186.675 103.454 186.646 103.447 186.617 103.443C186.36 103.382 186.107 103.325 185.85 103.261C185.592 103.2 185.339 103.136 185.085 103.068C184.882 103.014 184.678 102.957 184.475 102.9C184.2 102.822 183.925 102.739 183.653 102.654C183.553 102.625 183.453 102.593 183.353 102.557C183.253 102.525 183.157 102.493 183.057 102.461C183.028 102.45 183 102.443 182.971 102.432C182.928 102.418 182.885 102.404 182.842 102.389C182.782 102.368 182.721 102.347 182.66 102.325C182.514 102.275 182.371 102.225 182.228 102.175C182.085 102.122 181.946 102.068 181.807 102.014C181.653 101.957 181.503 101.9 181.353 101.839C181.207 101.779 181.06 101.722 180.917 101.661C180.724 101.579 180.532 101.497 180.342 101.411C180.157 101.329 179.971 101.243 179.789 101.161C179.774 101.15 179.76 101.147 179.746 101.139C179.546 101.043 179.353 100.95 179.157 100.85C178.985 100.764 178.817 100.675 178.646 100.586C178.607 100.564 178.564 100.543 178.521 100.522C178.371 100.439 178.224 100.357 178.078 100.275C178.06 100.264 178.039 100.254 178.021 100.243C177.978 100.218 177.939 100.197 177.896 100.172C176.317 99.2608 174.996 98.2572 173.931 97.1929C171.706 94.975 170.596 92.4892 170.596 89.9963C170.596 86.3177 173.028 82.6319 177.896 79.8247C178.539 79.4533 179.21 79.1068 179.903 78.7818C189.689 74.2282 204.05 74.5746 213.136 79.8247C218 82.6319 220.436 86.3177 220.436 89.9963Z" stroke="#2F80ED" stroke-width="1.65546" stroke-linecap="round" stroke-linejoin="round"/>
<path d="M226.758 131.479V163.405C226.108 166.523 224.055 169.566 220.604 172.187C219.747 172.841 218.801 173.466 217.769 174.062C207.101 180.223 190.672 181.034 178.486 176.498C176.636 175.809 174.882 174.998 173.264 174.062C172.232 173.466 171.286 172.841 170.428 172.187C166.175 168.955 164.05 165.084 164.05 161.216V138.987C165.325 138.669 166.575 138.301 167.782 137.88C167.957 138.072 168.139 138.262 168.336 138.451C168.418 138.533 168.503 138.619 168.593 138.701C168.7 138.808 168.811 138.912 168.925 139.012C169.086 139.158 169.253 139.308 169.425 139.455C169.511 139.53 169.6 139.605 169.689 139.676C169.832 139.798 169.982 139.915 170.132 140.033C170.318 140.18 170.507 140.326 170.7 140.465C170.832 140.565 170.968 140.662 171.104 140.758C171.775 141.237 172.496 141.698 173.264 142.14C175.45 143.405 177.879 144.44 180.464 145.255C180.675 145.323 180.886 145.387 181.1 145.448C181.279 145.501 181.461 145.555 181.643 145.605C182.039 145.719 182.439 145.826 182.843 145.926V146.423C182.875 146.265 182.904 146.108 182.932 145.948C183.182 146.015 183.432 146.076 183.686 146.13C183.936 146.194 184.189 146.251 184.447 146.301C184.957 146.415 185.468 146.519 185.986 146.612C186.529 146.712 187.075 146.801 187.625 146.883C187.861 146.919 188.093 146.951 188.329 146.983C188.582 147.019 188.836 147.051 189.09 147.08C189.415 147.119 189.743 147.155 190.072 147.187C190.425 147.226 190.782 147.258 191.14 147.283C191.304 147.301 191.468 147.312 191.632 147.323C191.954 147.348 192.279 147.366 192.6 147.383C192.872 147.398 193.143 147.412 193.415 147.419C193.615 147.43 193.811 147.437 194.011 147.441C194.247 147.448 194.483 147.451 194.718 147.455C200.172 147.537 205.651 146.801 210.569 145.255C213.154 144.44 215.583 143.405 217.769 142.14C222.947 139.147 225.944 135.376 226.758 131.479Z" stroke="#2F80ED" stroke-width="1.65546" stroke-linecap="round" stroke-linejoin="round"/>
<path d="M167.782 137.879C166.575 138.301 165.325 138.669 164.05 138.986V129.293C164.05 129.44 164.053 129.583 164.061 129.729C164.064 129.861 164.071 129.993 164.082 130.126C164.082 130.14 164.086 130.151 164.086 130.165C164.096 130.311 164.114 130.454 164.132 130.601C164.143 130.704 164.157 130.808 164.175 130.911C164.175 130.926 164.178 130.94 164.182 130.954C164.193 131.026 164.203 131.093 164.218 131.165C164.261 131.418 164.318 131.676 164.382 131.929C164.414 132.065 164.45 132.201 164.489 132.333C164.586 132.654 164.693 132.972 164.818 133.29C164.853 133.39 164.896 133.486 164.936 133.586C165.007 133.751 165.078 133.919 165.157 134.083C165.218 134.211 165.282 134.34 165.346 134.465C165.507 134.783 165.686 135.097 165.878 135.408C165.936 135.501 165.993 135.59 166.053 135.683C166.211 135.926 166.375 136.165 166.553 136.404C166.603 136.472 166.653 136.54 166.707 136.608C166.836 136.779 166.971 136.951 167.114 137.122C167.253 137.294 167.4 137.461 167.553 137.629C167.625 137.715 167.7 137.797 167.782 137.879Z" stroke="#2F80ED" stroke-width="1.65546" stroke-linecap="round" stroke-linejoin="round"/>
<path d="M168.335 138.451C168.138 138.262 167.956 138.072 167.781 137.879C167.96 138.072 168.142 138.262 168.335 138.451Z" stroke="#2F80ED" stroke-width="1.65546" stroke-linecap="round" stroke-linejoin="round"/>
<path d="M182.932 145.947C182.903 146.108 182.875 146.265 182.843 146.422V145.926C182.871 145.936 182.9 145.944 182.932 145.947Z" stroke="#2F80ED" stroke-width="1.65546" stroke-linecap="round" stroke-linejoin="round"/>
<path d="M226.758 185.345V208.152C225.947 212.052 222.951 215.827 217.769 218.817C205.479 225.913 185.554 225.913 173.264 218.817C168.086 215.827 165.089 212.052 164.275 208.152C164.125 207.427 164.05 206.699 164.05 205.97V183.155C164.05 183.348 164.053 183.541 164.068 183.734C164.278 187.584 166.596 191.402 171.021 194.563C171.718 195.063 172.464 195.545 173.264 196.006C185.554 203.099 205.479 203.099 217.769 196.006C218.569 195.541 219.319 195.063 220.015 194.563C223.822 191.845 226.069 188.638 226.758 185.345Z" stroke="#2F80ED" stroke-width="1.65546" stroke-linecap="round" stroke-linejoin="round"/>
<path d="M164.275 208.152H164.05V205.97C164.05 206.699 164.125 207.427 164.275 208.152Z" stroke="#2F80ED" stroke-width="1.65546" stroke-linecap="round" stroke-linejoin="round"/>
<path d="M220.436 89.9966V104.386C220.436 107.983 218.111 111.583 213.468 114.365C213.357 114.433 213.247 114.497 213.136 114.561C212.679 114.826 212.211 115.076 211.729 115.315C211.407 115.472 211.082 115.626 210.75 115.776C210.254 115.997 209.746 116.208 209.229 116.404C208.882 116.536 208.532 116.665 208.179 116.783C207.646 116.965 207.107 117.133 206.561 117.29C206.193 117.394 205.825 117.494 205.454 117.586C205.268 117.633 205.082 117.679 204.893 117.722C204.518 117.808 204.139 117.89 203.761 117.969C203.378 118.047 202.996 118.119 202.611 118.183C202.225 118.247 201.839 118.308 201.45 118.365C201.061 118.419 200.668 118.469 200.275 118.511C199.686 118.579 199.096 118.633 198.5 118.672C196.964 118.779 195.414 118.804 193.871 118.744C193.425 118.726 192.978 118.704 192.532 118.672C192.485 118.669 192.435 118.665 192.389 118.661C192.264 118.654 192.139 118.644 192.014 118.633C191.789 118.615 191.568 118.594 191.346 118.572C191.1 118.551 190.853 118.522 190.607 118.494C190.346 118.465 190.085 118.433 189.825 118.397C189.81 118.394 189.793 118.394 189.775 118.39C189.575 118.361 189.375 118.333 189.178 118.301C189.057 118.286 188.935 118.269 188.817 118.247C188.625 118.219 188.435 118.186 188.242 118.151C188.071 118.122 187.903 118.09 187.735 118.058C187.582 118.029 187.428 118.001 187.275 117.969C186.939 117.901 186.607 117.829 186.275 117.751C186.196 117.736 186.121 117.719 186.046 117.701C185.907 117.669 185.771 117.633 185.635 117.601C185.585 117.586 185.535 117.576 185.485 117.561C185.332 117.522 185.178 117.483 185.025 117.44C184.282 117.244 183.553 117.022 182.842 116.779C182.671 116.719 182.5 116.661 182.328 116.597C182.196 116.551 182.064 116.501 181.935 116.451C181.789 116.397 181.642 116.344 181.499 116.286C181.299 116.208 181.099 116.126 180.903 116.044C180.692 115.954 180.485 115.865 180.282 115.776C179.832 115.572 179.396 115.365 178.967 115.143C178.799 115.058 178.635 114.972 178.471 114.883C178.278 114.779 178.085 114.672 177.896 114.561C177.785 114.497 177.671 114.433 177.564 114.365C176.174 113.533 174.992 112.629 174.021 111.672C173.921 111.576 173.828 111.479 173.735 111.383C173.628 111.276 173.528 111.165 173.428 111.058C173.349 110.972 173.274 110.883 173.199 110.797C173.114 110.701 173.031 110.601 172.953 110.501C172.871 110.401 172.792 110.301 172.717 110.201C172.642 110.108 172.571 110.011 172.503 109.915C172.292 109.626 172.103 109.333 171.931 109.04C171.867 108.933 171.806 108.826 171.746 108.715C171.689 108.608 171.631 108.501 171.578 108.39C171.364 107.965 171.185 107.533 171.042 107.097C171.014 107.015 170.989 106.933 170.967 106.85C170.828 106.4 170.731 105.947 170.671 105.49C170.656 105.386 170.646 105.279 170.635 105.172C170.628 105.086 170.621 105.004 170.614 104.918C170.614 104.897 170.61 104.872 170.61 104.85C170.599 104.697 170.596 104.54 170.596 104.386V89.9966C170.596 92.4895 171.706 94.9753 173.931 97.1932C174.996 98.2575 176.317 99.261 177.896 100.172C177.939 100.197 177.978 100.218 178.021 100.243C178.039 100.254 178.06 100.265 178.078 100.275C178.224 100.357 178.371 100.44 178.521 100.522C178.564 100.543 178.607 100.565 178.646 100.586C178.817 100.675 178.985 100.765 179.157 100.85C179.353 100.95 179.546 101.043 179.746 101.14C179.76 101.147 179.774 101.15 179.789 101.161C179.971 101.243 180.157 101.329 180.342 101.411C180.532 101.497 180.724 101.579 180.917 101.661C181.06 101.722 181.207 101.779 181.353 101.84C181.503 101.9 181.653 101.958 181.807 102.015C181.946 102.068 182.085 102.122 182.228 102.175C182.371 102.225 182.514 102.275 182.66 102.325C182.721 102.347 182.782 102.368 182.842 102.39C182.885 102.404 182.928 102.418 182.971 102.433C183 102.443 183.028 102.45 183.057 102.461C183.157 102.493 183.253 102.525 183.353 102.558C183.453 102.593 183.553 102.625 183.653 102.654C183.925 102.74 184.2 102.822 184.475 102.9C184.678 102.958 184.882 103.015 185.085 103.068C185.339 103.136 185.592 103.2 185.85 103.261C186.107 103.325 186.36 103.383 186.617 103.443C186.646 103.447 186.675 103.454 186.703 103.461C186.939 103.511 187.175 103.561 187.41 103.604C187.65 103.654 187.896 103.7 188.139 103.743C188.171 103.75 188.207 103.758 188.242 103.761C188.757 103.854 189.278 103.933 189.8 104.004C190.067 104.04 190.335 104.075 190.607 104.104C190.657 104.111 190.707 104.115 190.757 104.122C190.975 104.147 191.189 104.168 191.407 104.19C191.643 104.211 191.882 104.233 192.118 104.254C192.15 104.254 192.182 104.254 192.214 104.261C192.321 104.268 192.428 104.275 192.532 104.283C192.764 104.3 192.996 104.315 193.228 104.325C193.443 104.336 193.657 104.347 193.871 104.354C194.053 104.361 194.232 104.368 194.41 104.372C194.546 104.375 194.682 104.379 194.818 104.379C195.05 104.383 195.285 104.386 195.518 104.386C201.893 104.386 208.271 102.983 213.136 100.172C214.711 99.261 216.032 98.2575 217.1 97.1932C219.322 94.9753 220.436 92.4895 220.436 89.9966Z" stroke="#2F80ED" stroke-width="1.65546" stroke-linecap="round" stroke-linejoin="round"/>
<path d="M226.758 129.293V131.479C225.944 135.376 222.947 139.147 217.769 142.14C215.583 143.404 213.154 144.44 210.569 145.254C205.651 146.801 200.172 147.537 194.718 147.454C194.483 147.451 194.247 147.447 194.011 147.44C193.811 147.437 193.615 147.429 193.415 147.419C193.143 147.412 192.872 147.397 192.6 147.383C192.279 147.365 191.954 147.347 191.632 147.322C191.468 147.312 191.304 147.301 191.14 147.283C190.782 147.258 190.425 147.226 190.072 147.187C189.743 147.154 189.415 147.119 189.09 147.079C188.836 147.051 188.582 147.019 188.329 146.983C188.093 146.951 187.861 146.919 187.625 146.883C187.075 146.801 186.529 146.712 185.986 146.612C185.468 146.515 184.957 146.412 184.447 146.301C184.193 146.247 183.939 146.19 183.686 146.129C183.432 146.072 183.182 146.012 182.932 145.947C182.9 145.944 182.872 145.937 182.843 145.926C182.439 145.826 182.039 145.719 181.643 145.604C181.461 145.554 181.279 145.501 181.1 145.447C180.886 145.387 180.675 145.322 180.464 145.254C177.879 144.44 175.45 143.404 173.264 142.14C172.496 141.697 171.775 141.236 171.104 140.758C170.968 140.661 170.832 140.565 170.7 140.465C170.507 140.326 170.318 140.179 170.132 140.033C169.982 139.915 169.832 139.797 169.689 139.676C169.6 139.604 169.511 139.529 169.425 139.454C169.253 139.308 169.086 139.158 168.925 139.011C168.811 138.911 168.7 138.808 168.593 138.701C168.503 138.619 168.418 138.533 168.336 138.451C168.143 138.261 167.961 138.072 167.782 137.879C167.703 137.797 167.628 137.711 167.553 137.629C167.4 137.461 167.253 137.294 167.114 137.122C166.971 136.951 166.836 136.779 166.707 136.608C166.653 136.54 166.603 136.472 166.553 136.404C166.375 136.165 166.211 135.926 166.053 135.683C165.993 135.59 165.936 135.501 165.878 135.408C165.686 135.097 165.507 134.783 165.346 134.465C165.282 134.34 165.218 134.211 165.157 134.083C165.078 133.918 165.007 133.751 164.936 133.586C164.896 133.486 164.853 133.39 164.818 133.29C164.693 132.972 164.586 132.654 164.489 132.333C164.45 132.201 164.414 132.065 164.382 131.929C164.318 131.676 164.261 131.418 164.218 131.165C164.203 131.093 164.193 131.026 164.182 130.954C164.178 130.94 164.175 130.926 164.175 130.911C164.157 130.808 164.143 130.704 164.132 130.601C164.114 130.454 164.096 130.311 164.086 130.165C164.086 130.151 164.082 130.14 164.082 130.126C164.071 129.993 164.064 129.861 164.061 129.729C164.053 129.583 164.05 129.44 164.05 129.293L165.471 123.883L170.457 104.918C170.511 104.896 170.561 104.875 170.611 104.85C170.611 104.871 170.614 104.896 170.614 104.918C170.621 105.004 170.629 105.086 170.636 105.171C170.643 105.275 170.657 105.382 170.671 105.489C170.732 105.946 170.829 106.4 170.968 106.85C170.989 106.932 171.014 107.014 171.043 107.097C171.186 107.532 171.364 107.964 171.579 108.389C171.632 108.5 171.689 108.607 171.746 108.714C171.807 108.825 171.868 108.932 171.932 109.039C172.104 109.332 172.293 109.625 172.504 109.914C172.571 110.011 172.643 110.107 172.718 110.2C172.789 110.3 172.868 110.4 172.954 110.5C173.032 110.6 173.114 110.7 173.2 110.797C173.275 110.882 173.35 110.972 173.429 111.057C173.529 111.164 173.629 111.275 173.736 111.382C173.829 111.479 173.921 111.575 174.021 111.672C174.993 112.629 176.175 113.532 177.564 114.365C177.671 114.432 177.786 114.497 177.896 114.561C178.086 114.672 178.279 114.779 178.472 114.882C178.636 114.972 178.8 115.057 178.968 115.143C179.397 115.365 179.832 115.572 180.282 115.775C180.486 115.865 180.693 115.954 180.904 116.043C181.1 116.125 181.3 116.207 181.5 116.286C181.643 116.343 181.789 116.397 181.936 116.45C182.064 116.5 182.197 116.55 182.329 116.597C182.5 116.661 182.672 116.718 182.843 116.779C183.554 117.022 184.282 117.243 185.025 117.44C185.179 117.482 185.332 117.522 185.486 117.561C185.536 117.575 185.586 117.586 185.636 117.6C185.772 117.632 185.907 117.668 186.047 117.7C186.122 117.718 186.197 117.736 186.275 117.75C186.607 117.829 186.94 117.9 187.275 117.968C187.429 118 187.582 118.029 187.736 118.057C187.904 118.09 188.072 118.122 188.243 118.15C188.436 118.186 188.625 118.218 188.818 118.247C188.936 118.268 189.057 118.286 189.179 118.3C189.379 118.336 189.575 118.365 189.775 118.39C189.793 118.393 189.811 118.393 189.825 118.397C190.086 118.432 190.347 118.465 190.607 118.493C190.854 118.522 191.1 118.55 191.347 118.572C191.568 118.593 191.79 118.615 192.015 118.632C192.14 118.643 192.265 118.654 192.39 118.661C192.436 118.665 192.486 118.668 192.532 118.672C192.979 118.704 193.425 118.725 193.872 118.743C195.415 118.804 196.965 118.779 198.5 118.672C199.097 118.632 199.686 118.579 200.275 118.511C200.668 118.468 201.061 118.418 201.451 118.365C201.84 118.307 202.226 118.25 202.611 118.182C202.997 118.118 203.379 118.047 203.761 117.968C204.14 117.893 204.518 117.811 204.893 117.722C205.083 117.679 205.268 117.632 205.454 117.586C205.826 117.493 206.193 117.393 206.561 117.29C207.108 117.132 207.647 116.965 208.179 116.782C208.533 116.665 208.883 116.536 209.229 116.404C209.747 116.207 210.254 115.997 210.751 115.775C211.083 115.629 211.408 115.475 211.729 115.315C212.211 115.075 212.679 114.825 213.136 114.561C213.247 114.497 213.358 114.432 213.469 114.365C218.112 111.582 220.437 107.982 220.437 104.386L225.24 123.308L226.758 129.293Z" stroke="#2F80ED" stroke-width="1.65546" stroke-linecap="round" stroke-linejoin="round"/>
<path d="M168.335 138.451C168.138 138.262 167.956 138.072 167.781 137.879C167.96 138.072 168.142 138.262 168.335 138.451Z" stroke="#2F80ED" stroke-width="1.65546" stroke-linecap="round" stroke-linejoin="round"/>
<path d="M170.611 104.85C170.561 104.875 170.511 104.896 170.457 104.918L170.596 104.386C170.596 104.539 170.6 104.696 170.611 104.85Z" stroke="#2F80ED" stroke-width="1.65546" stroke-linecap="round" stroke-linejoin="round"/>
<path d="M182.932 145.948C182.903 146.108 182.875 146.266 182.843 146.423V145.926C182.871 145.937 182.9 145.944 182.932 145.948Z" stroke="#2F80ED" stroke-width="1.65546" stroke-linecap="round" stroke-linejoin="round"/>
<path d="M176.521 51.0743C176.521 53.5672 175.407 56.053 173.185 58.2709C172.117 59.3352 170.796 60.3388 169.221 61.2495C164.356 64.0603 157.978 65.4639 151.603 65.4639C145.227 65.4639 138.849 64.0603 133.981 61.2495C132.402 60.3388 131.081 59.3352 130.016 58.2709C127.791 56.053 126.681 53.5672 126.681 51.0743C126.681 47.3957 129.113 43.7099 133.981 40.9027C143.713 35.2811 159.492 35.2811 169.221 40.9027C174.085 43.7099 176.521 47.3957 176.521 51.0743Z" stroke="#2F80ED" stroke-width="1.65546" stroke-linecap="round" stroke-linejoin="round"/>
<path d="M167.552 137.629C167.624 137.715 167.699 137.797 167.781 137.879C166.574 138.301 165.324 138.669 164.049 138.986C156.252 140.922 147.373 140.954 139.541 139.079V129.293L138.023 123.308L133.427 105.204C133.584 105.268 133.741 105.332 133.902 105.397C134.145 105.493 134.391 105.589 134.641 105.679C134.887 105.772 135.138 105.861 135.388 105.947C135.509 105.989 135.63 106.032 135.752 106.072C136.016 106.161 136.28 106.247 136.548 106.332C145.902 109.275 157.299 109.275 166.652 106.332C166.981 106.229 167.306 106.122 167.627 106.011C167.977 105.893 168.32 105.772 168.66 105.639C168.952 105.532 169.245 105.422 169.531 105.304C169.842 105.179 170.152 105.05 170.456 104.918L165.47 123.883L164.049 129.29C164.049 129.44 164.052 129.583 164.059 129.729C164.063 129.861 164.07 129.993 164.081 130.126C164.081 130.14 164.084 130.151 164.084 130.165C164.095 130.311 164.113 130.454 164.131 130.601C164.142 130.704 164.156 130.808 164.174 130.911C164.174 130.926 164.177 130.94 164.181 130.954C164.192 131.026 164.202 131.093 164.217 131.165C164.259 131.418 164.317 131.676 164.381 131.929C164.413 132.065 164.449 132.201 164.488 132.333C164.584 132.654 164.692 132.972 164.817 133.29C164.852 133.39 164.895 133.486 164.934 133.586C165.006 133.751 165.077 133.919 165.156 134.083C165.217 134.211 165.281 134.34 165.345 134.465C165.506 134.783 165.685 135.097 165.877 135.408C165.935 135.501 165.992 135.59 166.052 135.683C166.21 135.926 166.374 136.165 166.552 136.404C166.602 136.472 166.652 136.54 166.706 136.608C166.835 136.779 166.97 136.951 167.113 137.122C167.252 137.294 167.399 137.461 167.552 137.629Z" stroke="#2F80ED" stroke-width="1.65546" stroke-linecap="round" stroke-linejoin="round"/>
<path d="M164.049 138.987V160.927C163.499 161.062 162.941 161.191 162.377 161.309C162.202 161.348 162.024 161.384 161.845 161.419C161.784 161.43 161.724 161.441 161.663 161.455C161.466 161.494 161.266 161.53 161.066 161.566C160.791 161.616 160.513 161.662 160.234 161.709C159.988 161.752 159.741 161.791 159.491 161.827C159.181 161.873 158.866 161.916 158.552 161.955C158.345 161.984 158.138 162.012 157.927 162.034C157.702 162.062 157.477 162.087 157.252 162.112C157.188 162.112 157.123 162.123 157.063 162.13C156.845 162.152 156.627 162.173 156.406 162.194C156.381 162.194 156.356 162.194 156.331 162.202C156.138 162.216 155.945 162.234 155.748 162.248C155.423 162.269 155.102 162.291 154.777 162.312C154.513 162.327 154.248 162.341 153.984 162.352C153.841 162.359 153.695 162.366 153.552 162.369C153.406 162.377 153.259 162.38 153.109 162.384C153.027 162.387 152.941 162.387 152.856 162.391C152.438 162.402 152.016 162.405 151.598 162.405C149.298 162.405 147.002 162.259 144.752 161.969C144.327 161.919 143.905 161.859 143.484 161.794C143.409 161.78 143.33 161.769 143.255 161.759C142.88 161.698 142.509 161.634 142.137 161.566C141.337 161.423 140.548 161.259 139.766 161.077C139.691 161.059 139.616 161.041 139.541 161.019V139.08C147.373 140.955 156.252 140.923 164.049 138.987Z" stroke="#2F80ED" stroke-width="1.65546" stroke-linecap="round" stroke-linejoin="round"/>
<path d="M168.335 138.451C168.138 138.262 167.956 138.072 167.781 137.879C167.96 138.072 168.142 138.262 168.335 138.451Z" stroke="#2F80ED" stroke-width="1.65546" stroke-linecap="round" stroke-linejoin="round"/>
<path d="M226.758 163.405V185.345C226.069 188.638 223.822 191.845 220.015 194.563C219.319 195.063 218.569 195.541 217.769 196.006C205.479 203.099 185.554 203.099 173.264 196.006C172.464 195.545 171.718 195.063 171.021 194.563C166.596 191.402 164.278 187.584 164.068 183.734C164.053 183.541 164.05 183.348 164.05 183.156V161.216C164.05 165.084 166.175 168.955 170.428 172.187C171.286 172.841 172.232 173.466 173.264 174.062C174.882 174.998 176.636 175.809 178.486 176.498C190.672 181.034 207.101 180.223 217.769 174.062C218.801 173.466 219.747 172.841 220.604 172.187C224.055 169.566 226.108 166.523 226.758 163.405Z" stroke="#2F80ED" stroke-width="1.65546" stroke-linecap="round" stroke-linejoin="round"/>
<path d="M164.066 183.734C164.066 183.734 164.056 183.738 164.049 183.738C156.32 185.659 147.527 185.709 139.745 183.881C139.677 183.866 139.609 183.849 139.541 183.831V161.02C139.616 161.041 139.691 161.059 139.766 161.077C140.548 161.259 141.337 161.423 142.137 161.566C142.509 161.637 142.88 161.698 143.255 161.759C143.33 161.77 143.409 161.78 143.484 161.795C143.905 161.859 144.327 161.92 144.752 161.97C147.002 162.259 149.298 162.405 151.598 162.405C152.016 162.405 152.438 162.405 152.856 162.391C152.941 162.388 153.027 162.388 153.109 162.384C153.259 162.384 153.406 162.377 153.552 162.37C153.695 162.366 153.841 162.359 153.984 162.352C154.248 162.341 154.513 162.327 154.777 162.313C155.102 162.291 155.423 162.27 155.748 162.248C155.945 162.234 156.138 162.216 156.331 162.202C156.356 162.195 156.381 162.195 156.406 162.195C156.627 162.173 156.845 162.152 157.063 162.13C157.123 162.123 157.188 162.116 157.252 162.112C157.477 162.087 157.702 162.062 157.927 162.034C158.138 162.012 158.345 161.984 158.552 161.955C158.866 161.916 159.181 161.873 159.491 161.827C159.741 161.791 159.988 161.752 160.234 161.709C160.513 161.662 160.791 161.616 161.066 161.566C161.266 161.53 161.466 161.495 161.663 161.455C161.724 161.441 161.784 161.43 161.845 161.42C162.024 161.384 162.202 161.348 162.377 161.309C162.941 161.191 163.499 161.062 164.049 160.927V183.156C164.049 183.349 164.052 183.541 164.066 183.734Z" stroke="#2F80ED" stroke-width="1.65546" stroke-linecap="round" stroke-linejoin="round"/>
<path d="M176.521 51.0747V65.4643C176.521 69.0608 174.196 72.6608 169.553 75.443C169.442 75.5109 169.331 75.5752 169.221 75.6395C159.492 81.2574 143.713 81.2574 133.981 75.6395C133.87 75.5752 133.756 75.5109 133.649 75.443C129.002 72.6608 126.681 69.0608 126.681 65.4643V51.0747C126.681 53.5676 127.791 56.0534 130.016 58.2713C131.081 59.3356 132.402 60.3392 133.981 61.2499C138.849 64.0607 145.224 65.4643 151.603 65.4643C157.981 65.4643 164.356 64.0607 169.221 61.2499C170.796 60.3392 172.117 59.3356 173.185 58.2713C175.407 56.0534 176.521 53.5676 176.521 51.0747Z" stroke="#2F80ED" stroke-width="1.65546" stroke-linecap="round" stroke-linejoin="round"/>
<path d="M179.903 78.782C179.211 79.107 178.539 79.4534 177.896 79.8249C173.028 82.6321 170.596 86.3178 170.596 89.9965V104.386C170.596 104.54 170.6 104.697 170.61 104.85C170.56 104.875 170.51 104.897 170.457 104.918C170.153 105.05 169.842 105.179 169.532 105.304C169.246 105.422 168.953 105.532 168.66 105.64C168.321 105.772 167.978 105.893 167.628 106.011C167.307 106.122 166.982 106.229 166.653 106.333C157.299 109.275 145.903 109.275 136.549 106.333C136.281 106.247 136.017 106.161 135.753 106.072C135.631 106.033 135.51 105.99 135.388 105.947C135.138 105.861 134.888 105.772 134.642 105.679C134.392 105.59 134.145 105.493 133.902 105.397C133.742 105.332 133.585 105.268 133.427 105.204C133.42 105.204 133.413 105.204 133.41 105.197C133.345 105.175 133.281 105.147 133.217 105.118C133.206 105.118 133.195 105.111 133.188 105.104C133.21 104.865 133.22 104.625 133.22 104.386V89.9965C133.22 86.3178 130.785 82.6321 125.92 79.8249C125.074 79.3356 124.184 78.8927 123.256 78.4891L126.681 65.4639C126.681 69.0604 129.002 72.6604 133.649 75.4426C133.756 75.5105 133.87 75.5748 133.981 75.6391C143.713 81.257 159.492 81.257 169.221 75.6391C169.332 75.5748 169.442 75.5105 169.553 75.4426C174.196 72.6604 176.521 69.0604 176.521 65.4639L179.903 78.782Z" stroke="#2F80ED" stroke-width="1.65546" stroke-linecap="round" stroke-linejoin="round"/>
<path d="M653.548 229.43L703.23 199.33L703.226 123.891L653.548 153.992V229.43Z" stroke="#2F80ED" stroke-width="1.65546" stroke-linecap="round" stroke-linejoin="round"/>
<path d="M552.514 169.591L653.544 229.43L653.548 153.626L552.514 93.7832V169.591Z" stroke="#2F80ED" stroke-width="1.65546" stroke-linecap="round" stroke-linejoin="round"/>
<path d="M552.514 93.7827L654.781 154.414L703.226 123.891L603.029 65.4639L552.514 93.7827Z" stroke="#2F80ED" stroke-width="1.65546" stroke-linecap="round" stroke-linejoin="round"/>
<path d="M582.018 99.3489L611.655 80.6714" stroke="#2F80ED" stroke-width="1.65546" stroke-linecap="round" stroke-linejoin="round"/>
<path d="M602.323 111.515L631.957 92.8374" stroke="#2F80ED" stroke-width="1.65546" stroke-linecap="round" stroke-linejoin="round"/>
<path d="M623.208 123.219L652.842 104.541" stroke="#2F80ED" stroke-width="1.65546" stroke-linecap="round" stroke-linejoin="round"/>
<path d="M644.091 135.348L673.725 116.67" stroke="#2F80ED" stroke-width="1.65546" stroke-linecap="round" stroke-linejoin="round"/>
<path d="M567.258 116.67V165.008" stroke="#2F80ED" stroke-width="1.65546" stroke-linecap="round" stroke-linejoin="round"/>
<path d="M585.936 126.009V174.346" stroke="#2F80ED" stroke-width="1.65546" stroke-linecap="round" stroke-linejoin="round"/>
<path d="M605.11 140.058V188.392" stroke="#2F80ED" stroke-width="1.65546" stroke-linecap="round" stroke-linejoin="round"/>
<path d="M623.208 150.177V198.511" stroke="#2F80ED" stroke-width="1.65546" stroke-linecap="round" stroke-linejoin="round"/>
<path d="M642.465 161.608V209.942" stroke="#2F80ED" stroke-width="1.65546" stroke-linecap="round" stroke-linejoin="round"/>
<path d="M679.914 213.457V154.414" stroke="#2F80ED" stroke-width="1.65546" stroke-linecap="round" stroke-linejoin="round"/>
<path d="M665.129 164.227L694.266 146.898" stroke="#2F80ED" stroke-width="1.65546" stroke-linecap="round" stroke-linejoin="round"/>
<path d="M665.129 203.823L694.266 186.494" stroke="#2F80ED" stroke-width="1.65546" stroke-linecap="round" stroke-linejoin="round"/>
<path d="M532.52 111.256C532.52 124.904 519.377 145.098 509.233 158.654C508.839 159.178 508.452 159.692 508.068 160.198C502.362 167.713 497.865 172.845 497.673 173.065L497.667 173.071C497.667 173.071 462.823 93.2434 462.823 71.0225C462.823 61.6104 465.622 54.566 470.314 50.4224H470.317L474.368 47.7695C475.92 47.0505 477.6 46.5671 479.388 46.3222C481.623 46.0185 484.028 46.096 486.566 46.5764C490.052 47.2334 493.787 48.6559 497.673 50.8997C516.919 62.0132 532.52 89.0348 532.52 111.256Z" stroke="#2F80ED" stroke-width="1.65546" stroke-linecap="round" stroke-linejoin="round"/>
<path d="M474.367 47.7695L470.316 50.4224C471.544 49.3346 472.898 48.4482 474.367 47.7695Z" stroke="#2F80ED" stroke-width="1.65546" stroke-linecap="round" stroke-linejoin="round"/>
<path d="M544.972 103.158C544.972 125.379 510.122 164.973 510.122 164.973L497.673 173.065C497.865 172.845 502.362 167.713 508.067 160.198C508.452 159.692 508.839 159.178 509.233 158.654C519.376 145.099 532.517 124.905 532.52 111.256C532.52 89.0349 516.919 62.0134 497.673 50.8998C493.786 48.6561 490.052 47.2335 486.565 46.5765C484.027 46.0962 481.622 46.0187 479.388 46.3224C477.6 46.5672 475.92 47.0507 474.367 47.7697L482.98 42.1385L486.556 39.7987L486.565 39.7925C492.767 36.7956 501.042 37.558 510.125 42.8018C529.371 53.9122 544.972 80.9337 544.972 103.158Z" stroke="#2F80ED" stroke-width="1.65546" stroke-linecap="round" stroke-linejoin="round"/>
<path d="M486.556 39.7988L482.979 42.1387C484.077 41.1996 485.27 40.4187 486.556 39.7988Z" stroke="#2F80ED" stroke-width="1.65546" stroke-linecap="round" stroke-linejoin="round"/>
<path d="M474.367 82.4798C474.367 96.6832 484.337 113.955 496.641 121.058C508.941 128.158 518.914 122.403 518.914 108.197C518.914 93.9932 508.944 76.7216 496.641 69.6183C484.34 62.5182 474.367 68.2733 474.367 82.4798Z" stroke="#2F80ED" stroke-width="1.65546" stroke-linecap="round" stroke-linejoin="round"/>
<path d="M496.641 69.6216V120.981" stroke="#2F80ED" stroke-width="1.65546" stroke-linecap="round" stroke-linejoin="round"/>
<path d="M496.641 69.6216V120.981" stroke="#2F80ED" stroke-width="1.65546" stroke-linecap="round" stroke-linejoin="round"/>
<path d="M476.097 73.5269L485.431 81.0113C492.832 86.9462 500.444 91.3315 507.841 93.9255L516.971 97.1269" stroke="#2F80ED" stroke-width="1.65546" stroke-linecap="round" stroke-linejoin="round"/>
<path d="M476.647 95.2085L485.43 102.374C492.831 108.309 500.443 112.694 507.84 115.288L516.605 118.275" stroke="#2F80ED" stroke-width="1.65546" stroke-linecap="round" stroke-linejoin="round"/>
<path d="M503.706 75.0205L507.676 86.5989C511.743 98.4625 511.702 109.607 507.565 116.692L503.521 123.625" stroke="#2F80ED" stroke-width="1.65546" stroke-linecap="round" stroke-linejoin="round"/>
<path d="M490.722 67.5234L486.752 74.5182C482.683 81.6835 482.723 92.8745 486.86 104.738L490.905 116.555" stroke="#2F80ED" stroke-width="1.65546" stroke-linecap="round" stroke-linejoin="round"/>
<path d="M210.957 404.8L242.554 386.43C247.332 383.653 255.11 383.645 259.905 386.413L276.318 395.888C281.101 398.65 288.856 398.65 293.639 395.888L343.239 367.254" stroke="#2F80ED" stroke-width="1.5"/>
<path d="M559.164 380.162L507.578 350.381C502.795 347.62 495.04 347.62 490.257 350.381L438.699 380.145" stroke="#2F80ED" stroke-width="1.5"/>
<path d="M438.956 249.744L469.979 231.747C474.759 228.974 482.53 228.968 487.321 231.734L520.152 250.688C524.895 253.426 532.57 253.452 537.369 250.748L615.746 206.571" stroke="#2F80ED" stroke-width="1.5"/>
<path d="M287.096 243.502L226.604 208.712" stroke="#2F80ED" stroke-width="1.5"/>
</svg>
