<?xml version="1.0" encoding="UTF-8"?> <svg xmlns="http://www.w3.org/2000/svg" width="274" height="248" viewBox="0 0 274 248" fill="none"><path opacity="0.5" d="M152.075 235.06L0.896301 147.843L96.5249 92.6739L247.704 179.891L152.075 235.06Z" fill="#D8D4CD"></path><path d="M152.075 224.143L0.896301 136.926V124.956L152.075 212.173V224.143Z" fill="#F3F3ED" stroke="#7096F2" stroke-width="0.5" stroke-linecap="round" stroke-linejoin="round"></path><path d="M152.075 215.44L0.896301 128.229V124.956L152.075 212.173V215.44Z" fill="#F3F3ED" stroke="#7096F2" stroke-width="0.5" stroke-linecap="round" stroke-linejoin="round"></path><path d="M152.075 224.143V212.173L247.704 157.004V168.979L152.075 224.143Z" fill="#F3F3ED" stroke="#7096F2" stroke-width="0.5" stroke-linecap="round" stroke-linejoin="round"></path><path d="M152.075 215.44V212.173L247.704 157.004V160.276L152.075 215.44Z" fill="#F3F3ED" stroke="#7096F2" stroke-width="0.5" stroke-linecap="round" stroke-linejoin="round"></path><path d="M132.887 90.7628L154.44 103.202" stroke="#7096F2" stroke-width="0.5" stroke-linecap="round" stroke-linejoin="round"></path><path d="M164.141 108.798L247.704 157.004L152.075 212.173L0.896301 124.956L96.5249 69.7869L123.456 85.3214" fill="#F3F3ED"></path><path d="M164.141 108.798L247.704 157.004L152.075 212.173L0.896301 124.956L96.5249 69.7869L123.456 85.3214" stroke="#7096F2" stroke-width="0.5" stroke-linecap="round" stroke-linejoin="round"></path><path d="M133.213 97.463L50.5717 145.142V146.458L133.213 98.779V97.463Z" fill="#F3F3ED" stroke="#7096F2" stroke-width="0.5" stroke-linecap="round" stroke-linejoin="round"></path><path d="M9.66895 121.546V122.862L50.5716 146.458V145.142L9.66895 121.546Z" fill="#F3F3ED" stroke="#7096F2" stroke-width="0.5" stroke-linecap="round" stroke-linejoin="round"></path><path d="M92.3104 73.8665L9.66895 121.546L50.5716 145.142L133.213 97.463L92.3104 73.8665Z" fill="#F3F3ED" stroke="#7096F2" stroke-width="0.5" stroke-linecap="round" stroke-linejoin="round"></path><path d="M122.562 66.8859V94.5392L63.6275 128.538V100.885L122.562 66.8859Z" fill="#F3F3ED" stroke="#7096F2" stroke-width="0.5" stroke-linecap="round" stroke-linejoin="round"></path><path d="M80.9438 66.72V94.379L36.1644 120.213V92.5537L80.9438 66.72Z" fill="#F3F3ED" stroke="#7096F2" stroke-width="0.5" stroke-linecap="round" stroke-linejoin="round"></path><path d="M70.1211 58.681L108.773 80.9786L63.9883 106.812L54.2193 101.176C57.8783 99.0651 59.4989 96.2786 59.4989 93.4978C59.4989 90.6942 57.8554 87.8962 54.1334 85.7506C46.7293 81.4764 38.6095 83.6793 31.2512 87.9248L25.3303 84.509" fill="#F3F3ED"></path><path d="M70.1211 58.681L108.773 80.9786L63.9883 106.812L54.2193 101.176C57.8783 99.0651 59.4989 96.2786 59.4989 93.4978C59.4989 90.6942 57.8554 87.8962 54.1334 85.7506C46.7293 81.4764 38.6095 83.6793 31.2512 87.9248L25.3303 84.509" stroke="#7096F2" stroke-width="0.5" stroke-linecap="round" stroke-linejoin="round"></path><path opacity="0.5" d="M65.0934 93.8983L41.6902 80.9786L49.2603 76.8532L77.2732 93.0115L65.0934 93.8983Z" fill="#D8D4CD"></path><path d="M66.4448 56.5582V62.32L94.4577 78.4839V72.7164L66.4448 56.5582Z" fill="#F3F3ED" stroke="#7096F2" stroke-width="0.5" stroke-linecap="round" stroke-linejoin="round"></path><path d="M94.4577 77.3339L77.2732 87.2497V93.0115L94.4577 83.1014V77.3339Z" fill="#F3F3ED" stroke="#7096F2" stroke-width="0.5" stroke-linecap="round" stroke-linejoin="round"></path><path d="M49.2603 71.0914V76.8533L77.2732 93.0115V87.2497L49.2603 71.0914Z" fill="#F3F3ED" stroke="#7096F2" stroke-width="0.5" stroke-linecap="round" stroke-linejoin="round"></path><path d="M122.562 76.7331V56.501L94.4577 72.7164V83.1014L103.454 77.9061" fill="#F3F3ED"></path><path d="M122.562 76.7331V56.501L94.4577 72.7164V83.1014L103.454 77.9061" stroke="#7096F2" stroke-width="0.5" stroke-linecap="round" stroke-linejoin="round"></path><path d="M117.34 68.0532V72.9281L110.852 76.6759V71.8009L115.026 69.3864L115.794 68.9458L117.34 68.0532Z" fill="#F3F3ED" stroke="#7096F2" stroke-width="0.5" stroke-linecap="round" stroke-linejoin="round"></path><path d="M115.794 68.9458V72.0413L110.852 74.8907V71.801L115.026 69.3864L115.794 68.9458Z" fill="#F3F3ED" stroke="#7096F2" stroke-width="0.5" stroke-linecap="round" stroke-linejoin="round"></path><path d="M117.34 72.9281L110.852 76.6759V74.8907L115.794 72.0413L117.34 72.9281Z" fill="#F3F3ED" stroke="#7096F2" stroke-width="0.5" stroke-linecap="round" stroke-linejoin="round"></path><path d="M117.34 78.2379V83.1186L110.852 86.8663V81.9857L115.026 79.5768L115.794 79.1362L117.34 78.2379Z" fill="#F3F3ED" stroke="#7096F2" stroke-width="0.5" stroke-linecap="round" stroke-linejoin="round"></path><path d="M117.34 83.1186L110.852 86.8663V85.0811L115.794 82.226L117.34 83.1186Z" fill="#F3F3ED" stroke="#7096F2" stroke-width="0.5" stroke-linecap="round" stroke-linejoin="round"></path><path d="M115.794 79.1362V82.226L110.852 85.0811V81.9857L115.026 79.5768L115.794 79.1362Z" fill="#F3F3ED" stroke="#7096F2" stroke-width="0.5" stroke-linecap="round" stroke-linejoin="round"></path><path d="M102.623 54.0807V49.9038H105.99L113.234 54.0807H102.623Z" fill="#F3F3ED" stroke="#7096F2" stroke-width="0.5" stroke-miterlimit="10"></path><path d="M66.4448 56.5582L94.4577 72.7164L122.562 56.501L94.5493 40.3428L66.4448 56.5582Z" fill="#F3F3ED" stroke="#7096F2" stroke-width="0.5" stroke-linecap="round" stroke-linejoin="round"></path><path d="M49.2603 71.0914L77.2732 87.2497L94.4577 77.3339L66.4448 61.1757L49.2603 71.0914Z" fill="#F3F3ED" stroke="#7096F2" stroke-width="0.5" stroke-linecap="round" stroke-linejoin="round"></path><path d="M56.504 75.0051C56.4582 74.9651 56.401 74.9136 56.3609 74.8735C56.338 74.8564 56.3094 74.8277 56.2864 74.8106C56.2406 74.7705 56.1834 74.719 56.1433 74.679C56.0975 74.6389 56.0402 74.5874 56.0001 74.5474C55.9772 74.5302 55.9486 74.5016 55.9257 74.4845C55.8799 74.4444 55.8226 74.3929 55.7825 74.3528C55.7425 74.3128 55.6795 74.2613 55.6394 74.2212C55.6165 74.2041 55.5878 74.1755 55.5649 74.1583C55.5191 74.1183 55.4619 74.0668 55.4218 74.0267C55.376 73.9866 55.3187 73.9351 55.2786 73.8951C55.2557 73.8779 55.2271 73.8493 55.2042 73.8322C55.1584 73.7921 55.1011 73.7406 55.061 73.7006C59.2698 77.4998 58.617 82.6036 52.9881 85.9909C46.3972 89.9561 35.4829 90.0648 28.6171 86.2369C22.5588 82.8611 21.6654 77.5456 26.0632 73.6205C25.5765 74.0553 25.0898 74.4902 24.5973 74.925C19.7586 79.2449 20.7378 85.0926 27.4089 88.8117C34.9733 93.0229 46.9813 92.9028 54.2364 88.5428C60.4323 84.8179 61.1538 79.1992 56.5212 75.0166L56.504 75.0051Z" fill="#F3F3ED" stroke="#7096F2" stroke-width="0.5" stroke-linecap="round" stroke-linejoin="round"></path><path d="M28.096 72.1214C21.5051 76.0865 21.7284 82.4034 28.6 86.2312C35.4715 90.0591 46.38 89.9503 52.9709 85.9852C59.5619 82.02 59.3385 75.7032 52.467 71.8753C45.5955 68.0475 34.687 68.1562 28.096 72.1214Z" fill="#F3F3ED" stroke="#7096F2" stroke-width="0.5" stroke-linecap="round" stroke-linejoin="round"></path><path d="M59.5046 121.26V80.9558C59.4989 83.685 57.7409 86.4086 54.225 88.5313C46.9698 92.8913 34.9618 93.0172 27.3974 88.8003C23.5036 86.6317 21.5509 83.7365 21.5567 80.847V121.151C21.5509 124.046 23.5036 126.936 27.3974 129.104C34.9618 133.315 46.9698 133.195 54.225 128.835C57.7466 126.718 59.4989 123.989 59.5046 121.26Z" fill="#F3F3ED" stroke="#7096F2" stroke-width="0.5" stroke-linecap="round" stroke-linejoin="round"></path><path d="M54.2192 101.176V128.835L63.994 134.471V106.812L54.2192 101.176Z" fill="#F3F3ED" stroke="#7096F2" stroke-width="0.5" stroke-linecap="round" stroke-linejoin="round"></path><path d="M108.773 80.9786V108.632L63.994 134.471V106.812L108.773 80.9786Z" fill="#F3F3ED" stroke="#7096F2" stroke-width="0.5" stroke-linecap="round" stroke-linejoin="round"></path><path d="M99.5656 26.416C99.5656 25.964 99.8576 25.5063 100.447 25.1515C101.656 24.4248 103.66 24.4019 104.92 25.1057C105.567 25.4662 105.893 25.9468 105.893 26.4332L105.847 42.8603C105.847 42.3797 105.521 41.8933 104.874 41.5329C103.614 40.8291 101.61 40.852 100.402 41.5786C99.8118 41.9334 99.5198 42.3854 99.5198 42.8431L99.5656 26.416Z" fill="#F3F3ED" stroke="#7096F2" stroke-width="0.5" stroke-linecap="round" stroke-linejoin="round"></path><path d="M107.645 51.237L107.662 29.4657C107.662 30.1752 107.204 30.8847 106.288 31.4397C104.399 32.5783 101.272 32.607 99.3022 31.5084C98.2886 30.9419 97.779 30.1924 97.7847 29.4371L97.7675 51.2084C97.7675 51.9636 98.2772 52.7132 99.285 53.2796C101.255 54.3782 104.381 54.3439 106.271 53.211C107.187 52.6617 107.645 51.9522 107.645 51.237Z" fill="#F3F3ED" stroke="#7096F2" stroke-width="0.5" stroke-linecap="round" stroke-linejoin="round"></path><path d="M107.645 51.237V38.9352C107.645 39.6447 107.273 40.3542 106.357 40.9092C104.467 42.0478 101.341 42.0764 99.3709 40.9779C98.3573 40.4114 97.7675 39.6619 97.7733 38.9066V51.2084C97.7618 51.9636 98.2715 52.7132 99.285 53.2796C101.255 54.3782 104.381 54.3439 106.271 53.211C107.187 52.6617 107.645 51.9522 107.645 51.237Z" fill="#F3F3ED" stroke="#7096F2" stroke-width="0.5" stroke-linecap="round" stroke-linejoin="round"></path><path d="M107.657 41.2182V37.0127C107.657 37.7222 107.273 38.4317 106.357 38.9867C104.467 40.1253 101.341 40.1539 99.3709 39.0554C98.3573 38.4889 97.7504 37.7394 97.779 36.9841V41.1838C97.779 41.9334 98.2714 42.6944 99.285 43.2551C101.255 44.3537 104.381 44.3194 106.271 43.1865C107.187 42.6372 107.657 41.9277 107.657 41.2125V41.2182Z" fill="#F3F3ED" stroke="#7096F2" stroke-width="0.5" stroke-linecap="round" stroke-linejoin="round"></path><path d="M106.689 24.0472C108.968 25.3174 109.043 27.4116 106.855 28.7276C104.668 30.0436 101.049 30.0779 98.7755 28.8077C96.5022 27.5375 96.422 25.4433 98.6095 24.1273C100.797 22.8113 104.416 22.777 106.689 24.0472ZM100.448 25.1515C99.2394 25.8782 99.2794 27.0397 100.539 27.7377C101.799 28.4358 103.803 28.4186 105.011 27.692C106.22 26.9653 106.18 25.8038 104.92 25.1057C103.66 24.4077 101.656 24.4248 100.448 25.1515Z" fill="#F3F3ED" stroke="#7096F2" stroke-width="0.5" stroke-linecap="round" stroke-linejoin="round"></path><path d="M108.436 29.4714L108.447 26.4389C108.447 27.2628 107.914 28.081 106.855 28.7219C104.668 30.0379 101.049 30.0722 98.7753 28.802C97.6015 28.1497 97.0116 27.2743 97.0174 26.4046V29.4371C97.0059 30.3068 97.5957 31.1822 98.7696 31.8345C101.049 33.1047 104.668 33.0647 106.849 31.7544C107.909 31.1193 108.436 30.2954 108.441 29.4714H108.436Z" fill="#F3F3ED" stroke="#7096F2" stroke-width="0.5" stroke-linecap="round" stroke-linejoin="round"></path><path d="M82.0947 96.3701L63.994 106.812L54.225 101.176C57.8841 99.0651 59.5046 96.2786 59.5046 93.4978" fill="#F3F3ED"></path><path d="M82.0947 96.3701L63.994 106.812L54.225 101.176C57.8841 99.0651 59.5046 96.2786 59.5046 93.4978" stroke="#7096F2" stroke-width="0.5" stroke-linecap="round" stroke-linejoin="round"></path><path d="M205.364 135.192V136.508L167.903 158.119V156.803L205.364 135.192Z" fill="#F3F3ED" stroke="#7096F2" stroke-width="0.5" stroke-linecap="round" stroke-linejoin="round"></path><path d="M101.215 118.33L167.903 156.803V158.119L101.215 119.646V118.33Z" fill="#F3F3ED" stroke="#7096F2" stroke-width="0.5" stroke-linecap="round" stroke-linejoin="round"></path><path d="M138.676 96.7249L205.364 135.192L167.903 156.803L101.215 118.33L138.676 96.7249Z" fill="#F3F3ED" stroke="#7096F2" stroke-width="0.5" stroke-linecap="round" stroke-linejoin="round"></path><path d="M95.9809 130.924L115.233 142.024V139.718L95.9809 128.618V130.924Z" fill="#F3F3ED" stroke="#7096F2" stroke-width="0.5" stroke-linecap="round" stroke-linejoin="round"></path><path d="M95.9809 130.924L83.6408 138.042V135.742L95.9809 128.618V130.924Z" fill="#F3F3ED" stroke="#7096F2" stroke-width="0.5" stroke-linecap="round" stroke-linejoin="round"></path><path d="M95.9809 130.02L115.233 141.114L102.893 148.238L83.6408 137.138L95.9809 130.02Z" fill="#D7E1F0"></path><path d="M80.4169 135.742L102.893 148.701L118.457 139.724L95.9809 126.764L80.4169 135.742ZM83.6408 135.742L95.9809 128.624L115.233 139.724L102.893 146.842L83.6408 135.742Z" fill="#F3F3ED" stroke="#7096F2" stroke-width="0.5" stroke-linecap="round" stroke-linejoin="round"></path><path d="M80.4169 135.742V136.834L102.893 149.794V148.696L80.4169 135.742Z" fill="#F3F3ED" stroke="#7096F2" stroke-width="0.5" stroke-linecap="round" stroke-linejoin="round"></path><path d="M118.457 139.718L102.893 148.696V149.794L118.457 140.817V139.718Z" fill="#F3F3ED" stroke="#7096F2" stroke-width="0.5" stroke-linecap="round" stroke-linejoin="round"></path><path d="M77.7772 141.423L97.0289 152.523V150.218L77.7772 139.123V141.423Z" fill="#F3F3ED" stroke="#7096F2" stroke-width="0.5" stroke-linecap="round" stroke-linejoin="round"></path><path d="M77.7771 141.423L65.437 148.541V146.241L77.7771 139.123V141.423Z" fill="#F3F3ED" stroke="#7096F2" stroke-width="0.5" stroke-linecap="round" stroke-linejoin="round"></path><path d="M77.7771 140.519L97.0288 151.619L84.6887 158.737L65.437 147.637L77.7771 140.519Z" fill="#D7E1F0"></path><path d="M62.2131 146.241L84.6887 159.201L100.253 150.223L77.7771 137.263L62.2131 146.241ZM65.437 146.241L77.7771 139.123L97.0288 150.223L84.6887 157.341L65.437 146.241Z" fill="#F3F3ED" stroke="#7096F2" stroke-width="0.5" stroke-linecap="round" stroke-linejoin="round"></path><path d="M62.2131 146.241V147.34L84.6887 160.294V159.195L62.2131 146.241Z" fill="#F3F3ED" stroke="#7096F2" stroke-width="0.5" stroke-linecap="round" stroke-linejoin="round"></path><path d="M100.253 150.218L84.6887 159.195V160.294L100.253 151.316V150.218Z" fill="#F3F3ED" stroke="#7096F2" stroke-width="0.5" stroke-linecap="round" stroke-linejoin="round"></path><path d="M123.1 146.561L142.352 157.662V155.356L123.1 144.255V146.561Z" fill="#F3F3ED" stroke="#7096F2" stroke-width="0.5" stroke-linecap="round" stroke-linejoin="round"></path><path d="M123.1 146.561L110.76 153.679V151.379L123.1 144.255V146.561Z" fill="#F3F3ED" stroke="#7096F2" stroke-width="0.5" stroke-linecap="round" stroke-linejoin="round"></path><path d="M123.1 145.657L142.352 156.752L130.012 163.875L110.76 152.775L123.1 145.657Z" fill="#D7E1F0"></path><path d="M107.536 151.379L130.012 164.339L145.576 155.361L123.1 142.402L107.536 151.379ZM110.76 151.379L123.1 144.261L142.352 155.361L130.012 162.479L110.76 151.379Z" fill="#F3F3ED" stroke="#7096F2" stroke-width="0.5" stroke-linecap="round" stroke-linejoin="round"></path><path d="M107.536 151.379V152.472L130.012 165.432V164.333L107.536 151.379Z" fill="#F3F3ED" stroke="#7096F2" stroke-width="0.5" stroke-linecap="round" stroke-linejoin="round"></path><path d="M145.576 155.356L130.012 164.333V165.432L145.576 156.454V155.356Z" fill="#F3F3ED" stroke="#7096F2" stroke-width="0.5" stroke-linecap="round" stroke-linejoin="round"></path><path d="M104.897 157.061L124.148 168.161V165.855L104.897 154.761V157.061Z" fill="#F3F3ED" stroke="#7096F2" stroke-width="0.5" stroke-linecap="round" stroke-linejoin="round"></path><path d="M104.897 157.061L92.5566 164.179V161.878L104.897 154.761V157.061Z" fill="#F3F3ED" stroke="#7096F2" stroke-width="0.5" stroke-linecap="round" stroke-linejoin="round"></path><path d="M104.897 156.157L124.148 167.257L111.808 174.375L92.5566 163.275L104.897 156.157Z" fill="#D7E1F0"></path><path d="M89.3327 161.878L111.808 174.838L127.372 165.861L104.897 152.901L89.3327 161.878ZM92.5566 161.878L104.897 154.761L124.148 165.861L111.808 172.979L92.5566 161.878Z" fill="#F3F3ED" stroke="#7096F2" stroke-width="0.5" stroke-linecap="round" stroke-linejoin="round"></path><path d="M89.3327 161.878V162.977L111.808 175.931V174.833L89.3327 161.878Z" fill="#F3F3ED" stroke="#7096F2" stroke-width="0.5" stroke-linecap="round" stroke-linejoin="round"></path><path d="M127.372 165.855L111.808 174.833V175.931L127.372 166.954V165.855Z" fill="#F3F3ED" stroke="#7096F2" stroke-width="0.5" stroke-linecap="round" stroke-linejoin="round"></path><path opacity="0.5" d="M229.414 147.74C236.555 152.031 236.309 158.875 228.865 163.023C221.42 167.171 209.601 167.051 202.461 162.754C195.32 158.463 195.566 151.619 203.011 147.471C210.455 143.323 222.274 143.443 229.414 147.74Z" fill="#D8D4CD"></path><path d="M207.042 156.923C205.45 155.945 204.511 155.121 203.583 154.188C202.232 152.827 201.327 151.333 201.081 150.904C199.953 148.959 199.552 147.517 199.334 146.75C198.888 145.171 198.762 143.597 198.739 142.562C198.785 144.999 200.371 147.425 203.514 149.319C210.077 153.267 220.939 153.376 227.782 149.565C231.258 147.626 233.028 145.051 233.062 142.465C233.028 143.174 232.965 144.124 232.867 144.833C232.787 145.406 232.621 146.161 232.472 146.722C231.911 148.781 231.121 150.229 230.806 150.755C230.462 151.333 229.981 152.1 229.563 152.626C228.744 153.662 228.458 153.948 227.691 154.703C227.548 154.846 226.236 156.117 224.261 157.215C222.566 158.159 221.02 158.629 220.584 158.737C219.376 159.046 219.124 159.109 218.042 159.252C217.361 159.344 216.427 159.395 215.729 159.384C213.558 159.349 212.138 158.995 210.981 158.669C209.756 158.32 208.176 157.621 207.048 156.929L207.042 156.923Z" fill="#F3F3ED" stroke="#7096F2" stroke-width="0.5" stroke-linecap="round" stroke-linejoin="round"></path><path d="M233.56 141.337V143.289C233.56 140.748 231.922 138.208 228.641 136.239V134.288C231.917 136.262 233.549 138.797 233.56 141.337Z" fill="#F3F3ED" stroke="#7096F2" stroke-width="0.5" stroke-linecap="round" stroke-linejoin="round"></path><path d="M232.787 139.163C232.718 138.694 232.564 138.082 232.438 137.624C232.243 136.932 231.836 135.495 230.703 133.539C230.199 132.669 229.288 131.359 228.235 130.3C227.576 129.636 227.261 129.345 226.471 128.721C225.979 128.332 225.274 127.874 224.747 127.537C223.052 126.541 221.672 126.037 220.813 125.797C219.657 125.471 218.237 125.116 216.066 125.082C214.022 125.048 210.878 125.397 207.534 127.256C205.736 128.257 204.488 129.402 204.259 129.619C203.858 129.997 203.325 130.506 202.976 130.93C202.3 131.742 201.819 132.326 201.321 133.155C201.075 133.562 200.743 134.105 200.542 134.54C200.399 134.849 200.199 135.255 200.067 135.564C199.89 135.999 199.661 136.577 199.529 137.023C199.231 138.03 199.111 138.448 198.916 139.655C198.802 140.353 198.762 141.292 198.727 141.995C198.693 144.496 200.279 147.002 203.503 148.942C210.065 152.89 220.928 152.998 227.771 149.188C231.333 147.202 233.102 144.547 233.05 141.898C233.016 140.788 233.01 140.725 232.781 139.163H232.787ZM219.456 131.067C217.383 132.223 214.091 132.188 212.104 130.992C210.117 129.797 210.185 127.891 212.258 126.735C214.331 125.58 217.624 125.614 219.611 126.81C221.598 128.006 221.529 129.911 219.456 131.067Z" fill="#F3F3ED" stroke="#7096F2" stroke-width="0.5" stroke-linecap="round" stroke-linejoin="round"></path><path d="M219.605 125.992C221.592 127.187 221.523 129.093 219.451 130.249C217.378 131.404 214.085 131.37 212.098 130.174C210.111 128.978 210.18 127.073 212.253 125.917C214.326 124.761 217.618 124.796 219.605 125.992Z" fill="#F3F3ED" stroke="#7096F2" stroke-width="0.5" stroke-linecap="round" stroke-linejoin="round"></path><path d="M203.921 162.931V148.942H203.102V162.931C203.102 162.988 203.142 163.051 203.222 163.097C203.383 163.189 203.64 163.189 203.801 163.097C203.881 163.051 203.921 162.988 203.921 162.931Z" fill="#F3F3ED" stroke="#7096F2" stroke-width="0.5" stroke-linecap="round" stroke-linejoin="round"></path><path d="M216.084 151.711V165.701C216.084 165.758 216.124 165.821 216.204 165.867C216.364 165.958 216.622 165.958 216.782 165.867C216.862 165.821 216.902 165.758 216.902 165.701V151.711H216.084Z" fill="#F3F3ED" stroke="#7096F2" stroke-width="0.5" stroke-linecap="round" stroke-linejoin="round"></path><path d="M227.37 149.188V163.177C227.37 163.235 227.41 163.297 227.49 163.343C227.651 163.435 227.908 163.435 228.069 163.343C228.149 163.297 228.189 163.235 228.189 163.177V149.188H227.37Z" fill="#F3F3ED" stroke="#7096F2" stroke-width="0.5" stroke-linecap="round" stroke-linejoin="round"></path><path d="M234.465 141.578H233.646V155.567C233.646 155.625 233.686 155.688 233.766 155.733C233.927 155.825 234.184 155.825 234.345 155.733C234.425 155.688 234.465 155.625 234.465 155.567V141.578Z" fill="#F3F3ED" stroke="#7096F2" stroke-width="0.5" stroke-linecap="round" stroke-linejoin="round"></path><path d="M197.336 140.897V154.886C197.336 154.949 197.376 155.012 197.456 155.058C197.616 155.15 197.874 155.15 198.034 155.058C198.115 155.012 198.155 154.949 198.149 154.886V140.897H197.33H197.336Z" fill="#F3F3ED" stroke="#7096F2" stroke-width="0.5" stroke-linecap="round" stroke-linejoin="round"></path><path d="M217.515 126.787C217.515 126.541 217.349 126.295 217.028 126.112C216.381 125.74 215.328 125.734 214.681 126.112C214.354 126.301 214.194 126.547 214.2 126.793V128.092C214.2 128.338 214.366 128.578 214.686 128.767C215.333 129.144 216.387 129.144 217.034 128.767C217.361 128.578 217.521 128.332 217.515 128.086V126.787Z" fill="#F3F3ED" stroke="#7096F2" stroke-width="0.5" stroke-linecap="round" stroke-linejoin="round"></path><path d="M196.442 163.355V163.349C196.442 163.109 196.276 162.863 195.956 162.68C195.309 162.302 194.255 162.302 193.608 162.68C193.287 162.863 193.127 163.109 193.127 163.355V167.966V167.972C193.127 168.212 193.293 168.458 193.614 168.642C194.261 169.019 195.314 169.019 195.961 168.642C196.282 168.453 196.442 168.212 196.442 167.966V163.355Z" fill="#F3F3ED" stroke="#7096F2" stroke-width="0.5" stroke-linecap="round" stroke-linejoin="round"></path><path d="M197.261 143.123V141.44C197.261 144.118 198.985 146.796 202.444 148.879C209.567 153.164 221.363 153.284 228.79 149.148C232.61 147.019 234.534 144.175 234.522 141.337V143.02C234.534 145.863 232.615 148.701 228.79 150.83C221.363 154.967 209.567 154.846 202.444 150.561C198.985 148.484 197.261 145.8 197.256 143.123H197.261Z" fill="#F3F3ED" stroke="#7096F2" stroke-width="0.5" stroke-linecap="round" stroke-linejoin="round"></path><path d="M216.965 126.718V121.042C216.965 120.287 216.582 119.612 215.929 119.24C215.282 118.857 214.497 118.857 213.85 119.24L196.265 129.379C195.463 129.848 194.805 130.518 194.347 131.296C193.906 132.08 193.659 132.972 193.659 133.893V163.332C193.659 163.503 193.763 163.669 193.992 163.801C194.433 164.053 195.143 164.058 195.578 163.801C195.795 163.675 195.904 163.515 195.904 163.349V133.888C195.904 133.367 196.042 132.858 196.294 132.417C196.551 131.965 196.923 131.576 197.393 131.313L214.721 121.311V126.735C214.721 126.901 214.835 127.062 215.053 127.187C215.494 127.439 216.204 127.445 216.639 127.187C216.868 127.056 216.971 126.879 216.96 126.707L216.965 126.718Z" fill="#F3F3ED" stroke="#7096F2" stroke-width="0.5" stroke-linecap="round" stroke-linejoin="round"></path><path d="M168.75 183.621C174.522 186.951 183.902 186.934 189.708 183.581C195.515 180.234 195.543 174.815 189.771 171.491C183.999 168.161 174.62 168.178 168.813 171.531C163.007 174.878 162.978 180.297 168.75 183.621Z" fill="#D7E1F0"></path><path d="M160.854 174.575C161.449 174.026 162.154 177.093 162.984 176.612C168.79 173.265 178.176 173.248 183.942 176.572C184.772 177.053 185.477 173.986 186.067 174.541H188.248V177.527C188.237 179.713 186.777 181.905 183.873 183.581C178.067 186.928 168.682 186.945 162.915 183.621C160.041 181.962 158.603 179.782 158.609 177.602V174.575H160.854Z" fill="#F3F3ED" stroke="#7096F2" stroke-width="0.5" stroke-linecap="round" stroke-linejoin="round"></path><path d="M162.915 180.646C168.687 183.976 178.067 183.959 183.873 180.606C189.68 177.253 189.708 171.846 183.936 168.516C178.164 165.186 168.785 165.203 162.978 168.556C157.172 171.903 157.143 177.321 162.915 180.646Z" fill="#F3F3ED" stroke="#7096F2" stroke-width="0.5" stroke-linecap="round" stroke-linejoin="round"></path><path d="M159.663 163.601L187.195 163.561V174.346C187.172 176.326 185.82 178.311 183.135 179.828C177.74 182.872 169.025 182.889 163.665 179.862C160.991 178.351 159.663 176.372 159.663 174.386V163.595V163.601Z" fill="#F3F3ED" stroke="#7096F2" stroke-width="0.5" stroke-linecap="round" stroke-linejoin="round"></path><path d="M159.663 161.192H160.315C160.968 160.007 162.102 158.897 163.723 157.965C169.117 154.852 177.832 154.841 183.192 157.93C184.784 158.852 185.895 159.939 186.542 161.1H187.195V163.532V163.561C187.172 165.586 185.82 167.612 183.135 169.157C177.74 172.269 169.025 172.286 163.665 169.191C160.991 167.652 159.663 165.626 159.663 163.601V161.192Z" fill="#F3F3ED" stroke="#7096F2" stroke-width="0.5" stroke-linecap="round" stroke-linejoin="round"></path><path d="M160.19 159.023C160.19 159.023 160.189 159.012 160.195 159.006C160.201 158.995 160.207 158.983 160.212 158.972C160.424 158.554 160.693 158.148 161.02 157.753C162.142 156.34 163.711 155.23 165.091 154.503C169.724 151.831 177.202 151.82 181.806 154.475C181.869 154.515 181.932 154.549 181.995 154.589C181.995 154.589 184.423 155.939 185.614 157.421C188.351 160.414 187.515 164.219 183.123 166.753C177.729 169.866 169.014 169.883 163.654 166.788C160.018 164.688 158.867 161.701 160.178 159.023H160.19Z" fill="#F3F3ED" stroke="#7096F2" stroke-width="0.5" stroke-linecap="round" stroke-linejoin="round"></path><path d="M167.055 162.233C170.554 164.253 176.24 164.242 179.762 162.21C183.284 160.179 183.301 156.901 179.802 154.881C176.303 152.861 170.617 152.872 167.095 154.904C163.574 156.935 163.557 160.213 167.055 162.233Z" fill="#F3F3ED" stroke="#7096F2" stroke-width="0.5" stroke-linecap="round" stroke-linejoin="round"></path><path opacity="0.5" d="M143.263 198.332C149.035 201.662 158.414 201.645 164.221 198.292C170.027 194.944 170.056 189.526 164.284 186.202C158.512 182.872 149.132 182.889 143.326 186.242C137.519 189.589 137.491 195.002 143.263 198.332Z" fill="#D8D4CD"></path><path d="M135.36 189.28C135.956 188.731 136.66 191.798 137.491 191.317C143.297 187.97 152.682 187.952 158.449 191.277C159.279 191.757 159.983 188.691 160.573 189.246H162.755V192.232C162.743 194.418 161.283 196.61 158.38 198.286C152.574 201.633 143.188 201.65 137.422 198.326C134.547 196.667 133.11 194.487 133.116 192.307V189.28H135.36Z" fill="#F3F3ED" stroke="#7096F2" stroke-width="0.5" stroke-linecap="round" stroke-linejoin="round"></path><path d="M137.428 195.351C143.2 198.681 152.579 198.664 158.386 195.311C164.192 191.963 164.221 186.545 158.449 183.221C152.677 179.891 143.297 179.908 137.491 183.261C131.684 186.608 131.656 192.026 137.428 195.351Z" fill="#F3F3ED" stroke="#7096F2" stroke-width="0.5" stroke-linecap="round" stroke-linejoin="round"></path><path d="M134.169 178.306L161.701 178.266V188.891C161.678 190.842 160.327 192.799 157.641 194.292C152.247 197.296 143.532 197.308 138.172 194.327C135.498 192.839 134.169 190.888 134.169 188.937V178.306Z" fill="#F3F3ED" stroke="#7096F2" stroke-width="0.5" stroke-linecap="round" stroke-linejoin="round"></path><path d="M134.169 175.897H134.822C135.475 174.718 136.609 173.602 138.229 172.67C143.623 169.557 152.339 169.546 157.699 172.635C159.29 173.557 160.401 174.644 161.048 175.805H161.701V178.237V178.266C161.678 180.291 160.327 182.317 157.641 183.861C152.247 186.974 143.532 186.991 138.172 183.896C135.498 182.357 134.169 180.331 134.169 178.306V175.897Z" fill="#F3F3ED" stroke="#7096F2" stroke-width="0.5" stroke-linecap="round" stroke-linejoin="round"></path><path d="M134.696 173.734C134.696 173.734 134.696 173.722 134.702 173.717C134.708 173.705 134.713 173.694 134.719 173.682C134.931 173.265 135.2 172.859 135.526 172.464C136.649 171.05 138.218 169.94 139.598 169.214C144.23 166.542 151.709 166.53 156.313 169.185C156.376 169.225 156.439 169.26 156.502 169.3C156.502 169.3 158.93 170.65 160.121 172.132C162.858 175.124 162.022 178.929 157.63 181.464C152.236 184.577 143.52 184.594 138.161 181.498C134.524 179.398 133.373 176.412 134.685 173.734H134.696Z" fill="#F3F3ED" stroke="#7096F2" stroke-width="0.5" stroke-linecap="round" stroke-linejoin="round"></path><path d="M141.568 176.938C145.066 178.958 150.753 178.946 154.274 176.915C157.796 174.884 157.813 171.605 154.314 169.586C150.816 167.566 145.129 167.577 141.608 169.609C138.086 171.64 138.069 174.918 141.568 176.938Z" fill="#F3F3ED" stroke="#7096F2" stroke-width="0.5" stroke-linecap="round" stroke-linejoin="round"></path><path d="M152.579 83.3417L152.614 79.1362" stroke="#7096F2" stroke-width="0.5" stroke-linecap="round" stroke-linejoin="round"></path><path d="M233.154 145.417C233.205 145.343 233.257 145.268 233.308 145.194C233.463 144.959 233.606 144.719 233.732 144.479C233.743 144.461 233.755 144.439 233.766 144.421C233.904 144.153 234.018 143.884 234.116 143.615C234.138 143.552 234.156 143.489 234.179 143.426C234.253 143.214 234.31 142.997 234.362 142.779C234.379 142.711 234.396 142.642 234.408 142.573C234.459 142.316 234.493 142.058 234.516 141.801C234.516 141.789 234.516 141.772 234.516 141.761C234.534 141.48 234.534 141.194 234.516 140.914C234.516 140.868 234.505 140.822 234.499 140.777C234.476 140.542 234.442 140.307 234.396 140.073C234.385 140.016 234.373 139.958 234.356 139.896C234.293 139.632 234.219 139.369 234.121 139.106C234.121 139.094 234.121 139.089 234.11 139.077C234.098 139.054 234.093 139.032 234.087 139.003H234.075C233.635 137.853 232.867 136.737 231.768 135.707C231.888 135.993 232.003 136.285 232.094 136.537C232.214 136.857 232.346 137.298 232.438 137.63C232.461 137.71 232.484 137.79 232.506 137.876C232.787 138.328 233.01 138.791 233.176 139.26C233.205 139.341 233.234 139.421 233.257 139.495C233.291 139.609 233.325 139.724 233.354 139.833C233.377 139.913 233.394 139.993 233.411 140.073C233.434 140.187 233.457 140.302 233.48 140.416C233.491 140.491 233.497 140.571 233.509 140.645C233.554 141.057 233.566 141.469 233.526 141.881C233.52 141.955 233.514 142.03 233.503 142.104C233.486 142.224 233.468 142.339 233.446 142.453C233.428 142.528 233.417 142.608 233.4 142.682C233.371 142.802 233.342 142.917 233.308 143.037C233.285 143.111 233.262 143.18 233.239 143.254C233.199 143.374 233.159 143.5 233.113 143.62C233.102 143.655 233.085 143.689 233.068 143.723C232.959 143.992 232.827 144.256 232.678 144.519C232.65 144.57 232.621 144.627 232.592 144.679C232.524 144.799 232.443 144.919 232.363 145.039C232.323 145.102 232.277 145.171 232.232 145.234C232.151 145.348 232.06 145.469 231.974 145.583C231.928 145.646 231.877 145.709 231.825 145.766C231.728 145.886 231.63 146.001 231.527 146.115C230.668 147.065 229.535 147.952 228.132 148.736C221.094 152.661 209.911 152.546 203.154 148.484C202.014 147.797 201.081 147.048 200.336 146.247C200.331 146.235 200.319 146.224 200.308 146.218C199.724 145.583 199.26 144.919 198.922 144.238C198.922 144.227 198.91 144.215 198.905 144.204C198.83 144.05 198.762 143.895 198.699 143.735C198.693 143.718 198.687 143.7 198.676 143.683C198.613 143.529 198.561 143.369 198.51 143.214C198.51 143.203 198.498 143.186 198.498 143.174C197.977 141.435 198.229 139.638 199.266 137.962C199.288 137.876 199.311 137.796 199.334 137.716C199.391 137.498 199.472 137.241 199.546 136.995C199.655 136.628 199.827 136.182 199.981 135.799C198.092 137.595 197.187 139.638 197.273 141.675C197.284 141.938 197.313 142.196 197.359 142.459C197.359 142.493 197.37 142.522 197.376 142.556C197.422 142.814 197.485 143.065 197.565 143.317C197.576 143.357 197.593 143.403 197.605 143.443C197.685 143.695 197.782 143.941 197.897 144.187C197.914 144.227 197.931 144.261 197.954 144.301C198.074 144.553 198.212 144.805 198.366 145.057C198.378 145.074 198.389 145.091 198.401 145.108C198.555 145.354 198.727 145.594 198.916 145.835C198.933 145.858 198.951 145.88 198.973 145.909C199.162 146.149 199.369 146.384 199.592 146.613C199.626 146.653 199.666 146.693 199.701 146.727C199.924 146.95 200.159 147.174 200.411 147.391C200.457 147.431 200.502 147.471 200.548 147.505C200.806 147.723 201.081 147.94 201.373 148.146C201.413 148.175 201.453 148.204 201.493 148.232C201.802 148.45 202.129 148.667 202.472 148.873C205.146 150.481 208.473 151.499 211.984 151.934C213.152 152.077 214.343 152.157 215.534 152.169C220.304 152.214 225.108 151.213 228.819 149.142C228.819 149.142 228.819 149.142 228.824 149.142C229.185 148.942 229.523 148.73 229.849 148.518C229.947 148.455 230.044 148.387 230.141 148.318C230.376 148.158 230.6 147.998 230.811 147.832C230.903 147.763 230.995 147.694 231.081 147.626C231.344 147.414 231.596 147.196 231.831 146.973C231.848 146.956 231.865 146.939 231.882 146.928C232.134 146.687 232.358 146.441 232.575 146.195C232.632 146.127 232.69 146.058 232.747 145.983C232.902 145.795 233.045 145.606 233.176 145.417H233.154Z" fill="#F3F3ED" stroke="#7096F2" stroke-width="0.5" stroke-linecap="round" stroke-linejoin="round"></path><path d="M209.361 247.218C234.993 247.218 255.772 226.456 255.772 200.844C255.772 175.232 234.993 154.469 209.361 154.469C183.729 154.469 162.95 175.232 162.95 200.844C162.95 226.456 183.729 247.218 209.361 247.218Z" fill="#F3F3ED" stroke="#7096F2" stroke-width="0.5" stroke-linecap="round" stroke-linejoin="round"></path><path d="M209.361 243.619C233.004 243.619 252.17 224.468 252.17 200.844C252.17 177.219 233.004 158.068 209.361 158.068C185.718 158.068 166.551 177.219 166.551 200.844C166.551 224.468 185.718 243.619 209.361 243.619Z" fill="#F3F3ED" stroke="#7096F2" stroke-width="0.5" stroke-linecap="round" stroke-linejoin="round"></path><path opacity="0.2" d="M252.17 203.041C248.11 222.855 230.445 237.715 209.418 237.715C188.391 237.715 170.812 223.05 166.677 203.338C167.971 225.802 186.61 243.614 209.418 243.614C232.226 243.614 251.025 225.642 252.17 203.041Z" fill="#F3F3ED" stroke="#7096F2" stroke-miterlimit="10"></path><path d="M209.361 243.619C233.004 243.619 252.17 224.468 252.17 200.844C252.17 177.219 233.004 158.068 209.361 158.068C185.718 158.068 166.551 177.219 166.551 200.844C166.551 224.468 185.718 243.619 209.361 243.619Z" fill="#F3F3ED" stroke="#7096F2" stroke-width="0.5" stroke-miterlimit="10"></path><path d="M209.424 243.619C233.067 243.619 252.233 224.468 252.233 200.844C252.233 177.219 233.067 158.068 209.424 158.068C185.781 158.068 166.614 177.219 166.614 200.844C166.614 224.468 185.781 243.619 209.424 243.619Z" fill="#F3F3ED"></path><mask id="mask0_909_2099" style="mask-type:luminance" maskUnits="userSpaceOnUse" x="166" y="158" width="87" height="86"><path d="M209.424 243.619C233.067 243.619 252.233 224.468 252.233 200.844C252.233 177.219 233.067 158.068 209.424 158.068C185.781 158.068 166.614 177.219 166.614 200.844C166.614 224.468 185.781 243.619 209.424 243.619Z" fill="white"></path></mask><g mask="url(#mask0_909_2099)"><path opacity="0.2" d="M145.519 346.668L-178.427 159.79L26.4812 41.5786L350.427 228.462L145.519 346.668Z" fill="#F3F3ED" stroke="#7096F2" stroke-miterlimit="10"></path><path d="M145.519 323.283V297.627L350.427 179.421V205.072L145.519 323.283Z" fill="#F3F3ED" stroke="#7096F2" stroke-width="0.5" stroke-linecap="round" stroke-linejoin="round"></path><path d="M145.519 304.636V297.627L350.427 179.421V186.425L145.519 304.636Z" fill="#F3F3ED" stroke="#7096F2" stroke-width="0.5" stroke-linecap="round" stroke-linejoin="round"></path><path d="M171.373 76.1208L350.427 179.421L145.519 297.627L-178.427 110.749L26.4812 -7.46249L84.1905 25.8267" fill="#F3F3ED"></path><path d="M171.373 76.1209L350.427 179.421L145.519 297.627L-178.427 110.749L26.4812 -7.46249L84.1905 25.8267" stroke="#7096F2" stroke-width="0.5" stroke-linecap="round" stroke-linejoin="round"></path><path d="M259.689 132.686V135.501L179.424 181.807L179.43 178.992L259.689 132.686Z" fill="#F3F3ED" stroke="#7096F2" stroke-width="0.5" stroke-linecap="round" stroke-linejoin="round"></path><path d="M36.5365 96.5589L179.43 178.992L179.424 181.807L36.5365 99.3741V96.5589Z" fill="#F3F3ED" stroke="#7096F2" stroke-width="0.5" stroke-linecap="round" stroke-linejoin="round"></path><path d="M116.802 50.2528L259.689 132.686L179.424 178.987L36.5365 96.5589L116.802 50.2528Z" fill="#F3F3ED" stroke="#7096F2" stroke-width="0.5" stroke-linecap="round" stroke-linejoin="round"></path><path opacity="0.5" d="M218.844 113.215C199.214 101.411 166.717 101.079 146.257 112.483C125.798 123.88 125.122 142.693 144.751 154.497C164.381 166.301 196.878 166.633 217.338 155.23C237.797 143.832 238.473 125.019 218.844 113.215Z" fill="#D8D4CD"></path><path opacity="0.5" d="M311.231 159.561C326.532 168.762 326.005 183.421 310.057 192.307C294.11 201.193 268.782 200.935 253.487 191.735C238.187 182.534 238.714 167.875 254.661 158.989C270.609 150.103 295.936 150.361 311.231 159.561Z" fill="#D8D4CD"></path><path d="M263.297 179.244C259.889 177.144 257.868 175.382 255.887 173.379C252.995 170.455 251.048 167.257 250.521 166.347C248.105 162.176 247.24 159.098 246.776 157.438C245.826 154.051 245.551 150.687 245.494 148.461C245.591 153.679 248.992 158.886 255.732 162.937C269.796 171.394 293.073 171.628 307.727 163.463C315.182 159.309 318.967 153.788 319.042 148.244C318.967 149.766 318.836 151.802 318.624 153.313C318.452 154.543 318.097 156.162 317.771 157.358C316.568 161.775 314.873 164.877 314.197 166.004C313.459 167.245 312.434 168.876 311.54 170.015C309.788 172.241 309.17 172.847 307.526 174.466C307.217 174.77 304.405 177.493 300.174 179.845C296.537 181.865 293.222 182.872 292.3 183.106C289.706 183.764 289.168 183.901 286.854 184.21C285.394 184.405 283.401 184.519 281.89 184.497C277.246 184.422 274.199 183.661 271.714 182.957C269.092 182.214 265.702 180.714 263.291 179.233L263.297 179.244Z" fill="#F3F3ED" stroke="#7096F2" stroke-width="0.5" stroke-linecap="round" stroke-linejoin="round"></path><path d="M318.458 141.194C318.315 140.193 317.982 138.877 317.708 137.899C317.29 136.417 316.425 133.338 313.997 129.139C312.915 127.273 310.962 124.47 308.706 122.198C307.291 120.773 306.621 120.155 304.927 118.811C303.873 117.975 302.361 116.997 301.227 116.27C297.597 114.13 294.642 113.066 292.798 112.54C290.313 111.836 287.278 111.081 282.628 111.001C278.242 110.926 271.514 111.676 264.35 115.652C260.491 117.792 257.828 120.247 257.33 120.722C256.477 121.534 255.331 122.627 254.581 123.537C253.138 125.276 252.096 126.529 251.037 128.303C250.516 129.179 249.8 130.34 249.37 131.267C249.067 131.925 248.632 132.795 248.357 133.47C247.979 134.397 247.486 135.639 247.206 136.6C246.576 138.757 246.312 139.649 245.894 142.247C245.654 143.741 245.557 145.76 245.488 147.265C245.419 152.621 248.815 157.988 255.726 162.142C269.79 170.598 293.067 170.833 307.721 162.668C315.354 158.417 319.139 152.724 319.036 147.048C318.962 144.673 318.944 144.542 318.458 141.194ZM289.895 123.84C285.451 126.312 278.402 126.243 274.142 123.68C269.882 121.117 270.025 117.037 274.469 114.56C278.912 112.088 285.961 112.156 290.221 114.72C294.482 117.283 294.339 121.363 289.895 123.84Z" fill="#F3F3ED" stroke="#7096F2" stroke-width="0.5" stroke-linecap="round" stroke-linejoin="round"></path><path d="M242.499 144.902V174.873C242.499 175.004 242.579 175.136 242.756 175.239C243.1 175.439 243.655 175.439 243.993 175.239C244.171 175.136 244.251 175.004 244.245 174.873V144.902H242.493H242.499Z" fill="#F3F3ED" stroke="#7096F2" stroke-width="0.5" stroke-linecap="round" stroke-linejoin="round"></path><path d="M240.58 193.022V193.005C240.569 192.484 240.225 191.969 239.533 191.574C238.141 190.773 235.891 190.768 234.505 191.563C233.818 191.958 233.474 192.484 233.474 193.005V193.011V202.898V202.909C233.48 203.43 233.829 203.95 234.522 204.345C235.914 205.146 238.164 205.152 239.55 204.357C240.243 203.956 240.586 203.436 240.58 202.909V193.022Z" fill="#F3F3ED" stroke="#7096F2" stroke-width="0.5" stroke-linecap="round" stroke-linejoin="round"></path><path d="M242.338 149.674L242.327 146.069C242.344 151.808 246.032 157.553 253.442 162.004C268.708 171.188 293.984 171.44 309.897 162.577C318.085 158.011 322.203 151.923 322.185 145.835L322.197 149.439C322.214 155.527 318.103 161.615 309.908 166.181C293.995 175.05 268.719 174.792 253.453 165.609C246.043 161.152 242.356 155.413 242.338 149.674Z" fill="#F3F3ED" stroke="#7096F2" stroke-width="0.5" stroke-linecap="round" stroke-linejoin="round"></path><path d="M284.558 114.531V102.372C284.558 100.753 283.739 99.3054 282.331 98.5101C280.945 97.6919 279.267 97.6919 277.876 98.5101L240.197 120.23C238.473 121.237 237.065 122.667 236.08 124.344C235.135 126.02 234.608 127.931 234.608 129.905V192.988C234.597 193.354 234.831 193.714 235.312 193.995C236.257 194.538 237.78 194.538 238.714 194C239.178 193.731 239.407 193.382 239.412 193.033V129.905C239.412 128.795 239.704 127.702 240.254 126.758C240.798 125.791 241.6 124.956 242.608 124.39L279.742 102.962V114.588H279.754C279.76 114.937 279.994 115.292 280.464 115.561C281.409 116.104 282.932 116.11 283.865 115.567C284.358 115.281 284.581 114.903 284.552 114.531H284.558Z" fill="#F3F3ED" stroke="#7096F2" stroke-width="0.5" stroke-linecap="round" stroke-linejoin="round"></path><path opacity="0.5" d="M181.245 236.456C193.608 243.585 213.713 243.551 226.156 236.376C238.599 229.201 238.662 217.597 226.299 210.468C213.936 203.338 193.831 203.373 181.388 210.548C168.945 217.723 168.882 229.326 181.245 236.456Z" fill="#D8D4CD"></path><path d="M164.318 217.07C165.589 215.892 167.107 222.46 168.882 221.436C181.325 214.261 201.43 214.221 213.793 221.356C215.574 222.38 217.086 215.817 218.351 217.002H223.024V223.404C223.001 228.096 219.874 232.788 213.65 236.381C201.207 243.556 181.102 243.596 168.739 236.461C162.577 232.908 159.502 228.239 159.508 223.565V217.082H164.318V217.07Z" fill="#F3F3ED" stroke="#7096F2" stroke-width="0.5" stroke-linecap="round" stroke-linejoin="round"></path><path d="M168.739 230.07C181.102 237.2 201.207 237.165 213.65 229.99C226.093 222.815 226.156 211.211 213.793 204.082C201.43 196.953 181.325 196.987 168.882 204.162C156.439 211.337 156.376 222.941 168.739 230.07Z" fill="#F3F3ED" stroke="#7096F2" stroke-width="0.5" stroke-linecap="round" stroke-linejoin="round"></path><path d="M161.77 193.56L220.768 193.474V216.59C220.722 220.835 217.819 225.087 212.064 228.337C200.508 234.865 181.829 234.899 170.348 228.411C164.622 225.178 161.77 220.933 161.776 216.681V193.56H161.77Z" fill="#F3F3ED" stroke="#7096F2" stroke-width="0.5" stroke-linecap="round" stroke-linejoin="round"></path><path d="M161.77 188.399H163.173C164.564 185.87 166.998 183.484 170.474 181.481C182.029 174.815 200.709 174.781 212.19 181.407C215.603 183.375 217.985 185.71 219.365 188.199H220.768V193.411V193.48C220.722 197.817 217.819 202.154 212.064 205.478C200.508 212.144 181.829 212.178 170.348 205.553C164.622 202.251 161.764 197.914 161.776 193.571V188.404L161.77 188.399Z" fill="#F3F3ED" stroke="#7096F2" stroke-width="0.5" stroke-linecap="round" stroke-linejoin="round"></path><path d="M162.898 183.753C162.898 183.753 162.904 183.724 162.909 183.713C162.921 183.69 162.938 183.667 162.949 183.644C163.396 182.751 163.975 181.882 164.685 181.035C167.09 178.014 170.445 175.634 173.411 174.072C183.335 168.35 199.369 168.315 209.223 174.003C209.361 174.083 209.493 174.163 209.624 174.249H209.636C209.636 174.249 214.847 177.15 217.383 180.314C217.383 180.314 217.383 180.314 217.383 180.32C223.241 186.739 221.455 194.887 212.047 200.317C200.491 206.983 181.812 207.017 170.331 200.392C162.543 195.9 160.069 189.497 162.887 183.758L162.898 183.753Z" fill="#F3F3ED" stroke="#7096F2" stroke-width="0.5" stroke-linecap="round" stroke-linejoin="round"></path><path d="M177.609 190.625C185.104 194.95 197.29 194.927 204.831 190.573C212.373 186.225 212.413 179.193 204.917 174.867C197.422 170.541 185.236 170.564 177.695 174.918C170.153 179.267 170.113 186.299 177.609 190.625Z" fill="#F3F3ED" stroke="#7096F2" stroke-width="0.5" stroke-linecap="round" stroke-linejoin="round"></path><path opacity="0.2" d="M126.628 267.965C138.991 275.095 159.096 275.06 171.539 267.885C183.982 260.71 184.045 249.107 171.682 241.977C159.319 234.848 139.214 234.882 126.771 242.057C114.328 249.232 114.265 260.836 126.628 267.965Z" fill="#F3F3ED" stroke="#7096F2" stroke-width="0.5" stroke-miterlimit="10"></path><path d="M114.122 261.58C126.485 268.709 146.59 268.675 159.033 261.5C171.476 254.325 171.539 242.721 159.176 235.592C146.813 228.462 126.708 228.497 114.265 235.672C101.822 242.847 101.759 254.451 114.122 261.58Z" fill="#F3F3ED" stroke="#7096F2" stroke-width="0.5" stroke-linecap="round" stroke-linejoin="round"></path><path d="M108.281 215.262C108.281 215.262 108.287 215.234 108.292 215.222C108.304 215.199 108.321 215.177 108.332 215.154C108.779 214.261 109.357 213.391 110.067 212.545C112.473 209.523 115.828 207.143 118.794 205.581C128.712 199.854 144.751 199.825 154.606 205.513C154.744 205.593 154.875 205.673 155.007 205.759H155.019C155.019 205.759 160.23 208.659 162.766 211.824C162.766 211.824 162.766 211.824 162.766 211.829C168.624 218.249 166.838 226.397 157.429 231.827C145.874 238.493 127.195 238.527 115.714 231.901C107.926 227.41 105.452 221.007 108.269 215.268L108.281 215.262Z" fill="#F3F3ED" stroke="#7096F2" stroke-width="0.5" stroke-linecap="round" stroke-linejoin="round"></path><path d="M319.236 154.589C319.345 154.429 319.46 154.274 319.563 154.114C319.895 153.605 320.204 153.096 320.473 152.575C320.496 152.535 320.525 152.489 320.542 152.449C320.834 151.877 321.08 151.299 321.292 150.721C321.344 150.589 321.378 150.452 321.424 150.321C321.578 149.863 321.71 149.399 321.813 148.936C321.848 148.787 321.882 148.638 321.911 148.495C322.019 147.946 322.1 147.391 322.14 146.842C322.14 146.813 322.145 146.784 322.151 146.75C322.191 146.144 322.185 145.537 322.14 144.931C322.134 144.833 322.117 144.736 322.111 144.633C322.065 144.13 321.991 143.626 321.888 143.123C321.859 142.997 321.836 142.871 321.808 142.745C321.676 142.178 321.515 141.612 321.309 141.057C321.304 141.04 321.298 141.017 321.292 141C321.275 140.948 321.264 140.897 321.241 140.845H321.223C320.279 138.385 318.635 135.988 316.276 133.779C316.528 134.391 316.78 135.015 316.975 135.553C317.227 136.245 317.513 137.189 317.707 137.899C317.753 138.065 317.805 138.248 317.851 138.431C318.458 139.403 318.933 140.393 319.294 141.395C319.357 141.566 319.414 141.732 319.471 141.904C319.546 142.144 319.614 142.39 319.677 142.63C319.723 142.802 319.763 142.974 319.798 143.145C319.849 143.391 319.901 143.638 319.941 143.884C319.969 144.049 319.981 144.215 320.004 144.381C320.107 145.262 320.118 146.149 320.038 147.031C320.021 147.191 320.015 147.351 319.992 147.511C319.958 147.763 319.918 148.015 319.866 148.266C319.838 148.432 319.803 148.593 319.763 148.758C319.706 149.01 319.643 149.262 319.569 149.514C319.523 149.668 319.471 149.823 319.42 149.977C319.334 150.24 319.248 150.498 319.151 150.755C319.122 150.83 319.088 150.904 319.053 150.979C318.818 151.551 318.538 152.123 318.223 152.684C318.16 152.798 318.103 152.912 318.034 153.021C317.879 153.279 317.713 153.536 317.541 153.788C317.45 153.925 317.358 154.063 317.261 154.2C317.083 154.452 316.9 154.698 316.705 154.949C316.602 155.081 316.494 155.213 316.385 155.344C316.179 155.596 315.967 155.848 315.743 156.094C313.9 158.125 311.477 160.025 308.46 161.707C293.377 170.112 269.412 169.872 254.942 161.163C252.503 159.698 250.498 158.079 248.906 156.374C248.889 156.351 248.866 156.328 248.849 156.305C247.595 154.944 246.604 153.525 245.883 152.071C245.872 152.048 245.86 152.026 245.849 152.003C245.688 151.671 245.539 151.333 245.402 151.001C245.385 150.961 245.373 150.927 245.356 150.887C245.224 150.555 245.11 150.218 245.001 149.88C244.99 149.851 244.984 149.823 244.973 149.794C243.85 146.069 244.4 142.213 246.616 138.62C246.662 138.436 246.713 138.259 246.759 138.093C246.885 137.63 247.045 137.075 247.211 136.554C247.446 135.77 247.813 134.815 248.139 133.991C244.096 137.836 242.155 142.219 242.333 146.584C242.356 147.145 242.424 147.7 242.516 148.261C242.527 148.329 242.539 148.398 242.55 148.467C242.648 149.01 242.785 149.554 242.951 150.097C242.98 150.189 243.008 150.28 243.037 150.366C243.215 150.904 243.421 151.436 243.661 151.963C243.696 152.043 243.741 152.123 243.776 152.203C244.033 152.747 244.325 153.284 244.652 153.817C244.675 153.851 244.698 153.891 244.721 153.925C245.053 154.452 245.419 154.972 245.82 155.487C245.86 155.539 245.894 155.59 245.935 155.642C246.341 156.151 246.782 156.654 247.257 157.147C247.337 157.232 247.412 157.312 247.498 157.398C247.973 157.879 248.477 158.354 249.015 158.817C249.113 158.903 249.21 158.983 249.313 159.069C249.868 159.538 250.453 159.996 251.077 160.442C251.163 160.505 251.248 160.562 251.334 160.625C251.999 161.095 252.692 161.552 253.43 161.999C259.156 165.443 266.286 167.629 273.81 168.55C276.318 168.859 278.866 169.025 281.42 169.048C291.636 169.151 301.937 166.999 309.891 162.565C309.897 162.565 309.903 162.559 309.908 162.554C310.681 162.124 311.403 161.672 312.101 161.22C312.313 161.083 312.519 160.94 312.726 160.797C313.224 160.454 313.705 160.11 314.163 159.756C314.358 159.607 314.552 159.458 314.736 159.309C315.297 158.852 315.835 158.388 316.339 157.913C316.373 157.879 316.419 157.845 316.453 157.81C316.986 157.295 317.473 156.775 317.931 156.243C318.057 156.094 318.177 155.945 318.297 155.796C318.629 155.396 318.939 154.989 319.225 154.578L319.236 154.589Z" fill="#F3F3ED" stroke="#7096F2" stroke-width="0.5" stroke-linecap="round" stroke-linejoin="round"></path></g><path d="M209.424 243.619C233.067 243.619 252.233 224.468 252.233 200.844C252.233 177.219 233.067 158.068 209.424 158.068C185.781 158.068 166.614 177.219 166.614 200.844C166.614 224.468 185.781 243.619 209.424 243.619Z" stroke="#7096F2" stroke-width="0.5" stroke-miterlimit="10"></path><path d="M121.297 32.1034C120.237 32.1034 119.327 31.8459 118.56 31.331C117.792 30.816 117.202 30.0894 116.779 29.1453C116.361 28.2069 116.149 27.0969 116.149 25.8324C116.149 24.4935 116.372 23.372 116.813 22.4623C117.26 21.5525 117.867 20.8659 118.645 20.3967C119.424 19.9333 120.306 19.6987 121.285 19.6987C122.602 19.6987 123.656 20.0248 124.44 20.6771C125.225 21.3294 125.74 22.1762 125.998 23.2233L124.091 23.5895C123.868 22.8971 123.507 22.3421 123.02 21.9244C122.534 21.5067 121.955 21.3008 121.285 21.3008C120.695 21.3008 120.157 21.4667 119.67 21.8043C119.184 22.1419 118.789 22.6454 118.497 23.3205C118.205 23.99 118.056 24.8311 118.056 25.8267C118.056 26.7536 118.176 27.5661 118.422 28.2584C118.668 28.9565 119.023 29.5 119.499 29.8834C119.974 30.2667 120.569 30.467 121.28 30.467C122.15 30.467 122.831 30.2324 123.335 29.7689C123.833 29.3055 124.085 28.6933 124.085 27.9437H126.009C126.009 28.8191 125.815 29.563 125.425 30.1809C125.036 30.7989 124.486 31.2681 123.776 31.5999C123.072 31.9318 122.236 32.0977 121.28 32.0977L121.297 32.1034Z" fill="#7096F2"></path><path d="M132.623 32.1034C131.667 32.1034 130.825 31.8745 130.104 31.4168C129.382 30.9591 128.821 30.2725 128.42 29.3513C128.019 28.4301 127.819 27.2743 127.819 25.8839C127.819 24.4935 128.019 23.3434 128.42 22.4222C128.821 21.501 129.382 20.8201 130.104 20.3681C130.825 19.9161 131.667 19.6929 132.623 19.6929C133.58 19.6929 134.41 19.9161 135.131 20.3681C135.853 20.8201 136.414 21.501 136.815 22.4222C137.221 23.3434 137.422 24.4935 137.422 25.8839C137.422 27.2743 137.221 28.4358 136.815 29.3513C136.414 30.2725 135.853 30.9591 135.131 31.4168C134.41 31.8745 133.58 32.1034 132.623 32.1034ZM132.623 30.4613C133.574 30.4613 134.307 30.0665 134.816 29.2769C135.326 28.4873 135.584 27.3544 135.584 25.8896C135.584 24.4248 135.326 23.2977 134.816 22.5023C134.307 21.707 133.574 21.3122 132.623 21.3122C131.673 21.3122 130.94 21.707 130.43 22.5023C129.92 23.2977 129.663 24.4248 129.663 25.8896C129.663 27.3544 129.92 28.4873 130.43 29.2769C130.94 30.0665 131.673 30.4613 132.623 30.4613Z" fill="#7096F2"></path><path d="M139.019 25.615V24.5164C139.019 24.1216 139.082 23.784 139.208 23.5151C139.334 23.2462 139.512 23.0173 139.752 22.8342C139.993 22.6511 140.279 22.4966 140.617 22.365L142.02 21.8157C142.358 21.6784 142.604 21.5067 142.77 21.3008C142.936 21.0948 143.016 20.8373 143.016 20.5283C143.016 20.2193 142.908 19.9504 142.684 19.7387C142.461 19.5327 142.146 19.4297 141.739 19.4297C141.333 19.4297 141.012 19.5213 140.755 19.6987C140.491 19.8818 140.348 20.1507 140.308 20.5054H139.151C139.168 20.0706 139.289 19.7101 139.512 19.4126C139.735 19.115 140.033 18.8976 140.417 18.7431C140.795 18.5944 141.23 18.52 141.722 18.52C142.18 18.52 142.593 18.6058 142.959 18.7832C143.326 18.9606 143.612 19.2009 143.824 19.5098C144.036 19.8188 144.144 20.1793 144.144 20.5798C144.144 20.9403 144.076 21.255 143.95 21.5239C143.818 21.7928 143.623 22.0217 143.371 22.222C143.114 22.4165 142.805 22.5882 142.444 22.7369L141.024 23.2976C140.703 23.4235 140.462 23.5666 140.308 23.7325C140.153 23.8984 140.073 24.1159 140.073 24.3791V24.6537H144.093V25.6092H139.031L139.019 25.615Z" fill="#7096F2"></path><path d="M269.183 203.653C268.513 203.653 267.878 203.573 267.276 203.407C266.675 203.241 266.137 203.001 265.673 202.686C265.209 202.366 264.843 201.965 264.579 201.479C264.316 200.992 264.184 200.42 264.184 199.762H265.931C265.931 200.289 266.068 200.718 266.337 201.05C266.606 201.381 266.996 201.622 267.494 201.782C267.992 201.942 268.582 202.017 269.258 202.017C269.865 202.017 270.369 201.931 270.764 201.77C271.159 201.605 271.456 201.387 271.657 201.107C271.857 200.826 271.955 200.535 271.955 200.208C271.955 199.791 271.817 199.43 271.548 199.133C271.273 198.835 270.884 198.601 270.38 198.435L269.12 197.983V196.415L271.193 197.119C272.086 197.416 272.774 197.817 273.249 198.309C273.724 198.801 273.965 199.447 273.965 200.249C273.965 200.815 273.793 201.359 273.449 201.879C273.106 202.4 272.579 202.823 271.875 203.155C271.164 203.487 270.271 203.653 269.189 203.653H269.183ZM268.8 198L267.666 197.617C266.629 197.273 265.833 196.867 265.284 196.392C264.734 195.917 264.459 195.271 264.459 194.435C264.459 193.491 264.848 192.724 265.633 192.135C266.417 191.546 267.545 191.248 269.029 191.248C270.391 191.248 271.439 191.546 272.167 192.141C272.894 192.736 273.346 193.531 273.512 194.532H271.731C271.64 194.018 271.359 193.6 270.901 193.274C270.443 192.948 269.807 192.787 269 192.787C268.141 192.787 267.494 192.948 267.053 193.268C266.612 193.588 266.389 194 266.389 194.492C266.389 194.882 266.503 195.19 266.738 195.425C266.967 195.66 267.339 195.86 267.843 196.032L268.8 196.409V198.006V198ZM268.404 205.204V189.864H269.739V205.204H268.404Z" fill="#7096F2"></path><path opacity="0.5" d="M125.568 3.70638C125.643 3.3974 125.683 3.09414 125.683 2.80806C125.677 0.570852 123.181 0.187497 120.111 1.96124C119.768 2.1615 119.424 2.37893 119.098 2.61352C118.754 1.48061 117.157 1.39479 115.244 2.49909C113.2 3.67777 111.528 5.78909 111.35 7.34541C110.858 7.5285 110.337 7.77454 109.798 8.08351C106.729 9.85725 104.244 13.1072 104.25 15.3444C104.25 15.8708 104.393 16.2999 104.645 16.6146C103.339 18.1137 102.503 19.7559 102.509 21.0547L101.936 26.4103L104.204 22.9944C105.206 23.126 106.574 22.777 108.08 21.9073C108.974 21.3923 109.821 20.7458 110.566 20.042C112.009 20.0019 113.698 20.843 116.733 19.4011C121.045 17.3527 121.148 15.5046 121.675 13.1873C122.522 13.3246 124.217 14.2744 126.891 12.2261C129.703 10.0632 130.676 7.04787 130.671 4.81067C130.665 2.68218 128.42 2.23016 125.568 3.70638Z" fill="#D8D4CD"></path><path d="M123.398 78.0205L123.467 83.1758L124.738 91.4952L119.436 108.048L157.029 107.94L151.629 91.4151L152.854 83.09L152.9 77.2995L123.398 78.0205Z" fill="#F3F3ED"></path><path opacity="0.5" d="M156.897 108.792C147.826 103.339 132.806 103.185 123.352 108.454C113.898 113.724 113.589 122.416 122.66 127.868C131.73 133.321 146.75 133.476 156.204 128.206C165.658 122.936 165.967 114.245 156.897 108.792Z" fill="#D8D4CD"></path><path d="M152.012 102.59C159.325 106.984 159.073 113.993 151.451 118.239C143.83 122.484 131.724 122.364 124.412 117.964C117.099 113.57 117.351 106.561 124.973 102.315C132.595 98.0695 144.7 98.1897 152.012 102.59Z" fill="#F3F3ED" stroke="#7096F2" stroke-width="0.5" stroke-linecap="round" stroke-linejoin="round"></path><path d="M152.608 107.304C144.992 102.721 132.383 102.595 124.44 107.018C120.839 109.021 118.817 111.785 118.462 114.617C118.439 114.817 118.376 115.263 118.371 115.464C118.239 118.674 120.3 121.655 124.217 124.012C131.833 128.595 144.087 128.029 152.024 123.606C159.96 119.183 160.224 111.882 152.608 107.304ZM151.354 122.919C143.801 126.976 131.804 126.856 124.561 122.656C117.317 118.456 117.563 111.762 125.116 107.705C132.669 103.648 144.666 103.768 151.909 107.968C159.153 112.168 158.907 118.862 151.354 122.919Z" fill="#F3F3ED" stroke="#7096F2" stroke-width="0.5" stroke-linecap="round" stroke-linejoin="round"></path><path d="M119.413 108.306L125.047 90.7056C124.291 93.0687 125.442 95.5977 128.535 97.4573C133.631 100.524 142.077 100.61 147.391 97.6461C150.77 95.7636 152.07 93.103 151.262 90.6312L157 108.197C158.157 111.744 156.296 115.561 151.451 118.262C143.829 122.507 131.724 122.387 124.412 117.987C119.98 115.321 118.325 111.693 119.413 108.306Z" fill="#F3F3ED" stroke="#7096F2" stroke-width="0.5" stroke-linecap="round" stroke-linejoin="round"></path><path d="M124.881 92.8055L123.444 83.4275C123.73 85.2928 125.076 87.1181 127.492 88.5714C133.133 91.9644 142.467 92.0559 148.347 88.7831C151.039 87.284 152.539 85.3386 152.831 83.3417L151.451 92.7254C151.188 94.5277 149.831 96.29 147.397 97.6461C142.083 100.61 133.642 100.524 128.54 97.4573C126.353 96.1413 125.139 94.4934 124.881 92.8055Z" fill="#F3F3ED" stroke="#7096F2" stroke-width="0.5" stroke-linecap="round" stroke-linejoin="round"></path><path d="M148.771 73.2199C154.412 76.6129 154.217 82.0143 148.342 85.2928C142.461 88.5657 133.127 88.4741 127.487 85.0811C121.846 81.6881 122.041 76.2868 127.916 73.0082C133.797 69.7354 143.131 69.8269 148.771 73.2199Z" fill="#F3F3ED" stroke="#7096F2" stroke-width="0.5" stroke-linecap="round" stroke-linejoin="round"></path><path d="M148.336 76.6129C142.455 73.4431 133.121 73.5346 127.481 76.8189C125.563 77.9404 124.314 79.285 123.742 80.6983C122.682 78.0777 123.913 75.2168 127.481 73.1398C133.121 69.8555 142.461 69.764 148.336 72.9338C152.213 75.028 153.616 78.0148 152.505 80.7498C151.886 79.2278 150.495 77.7802 148.336 76.6129Z" fill="#F3F3ED" stroke="#7096F2" stroke-width="0.5" stroke-linecap="round" stroke-linejoin="round"></path><path d="M123.37 78.73L123.444 83.4275" stroke="#7096F2" stroke-width="0.5" stroke-linecap="round" stroke-linejoin="round"></path><path d="M152.877 78.73L152.831 83.3417" stroke="#7096F2" stroke-width="0.5" stroke-linecap="round" stroke-linejoin="round"></path><path d="M152.218 92.9943L152.287 98.1496L153.558 106.469L148.256 123.022L185.843 122.913L180.449 106.389L181.674 98.0638L181.714 92.2734L152.218 92.9943Z" fill="#F3F3ED"></path><path opacity="0.5" d="M185.711 123.772C176.641 118.319 161.621 118.164 152.167 123.434C142.713 128.704 142.404 137.395 151.474 142.848C160.544 148.301 175.564 148.455 185.019 143.186C194.473 137.916 194.782 129.224 185.711 123.772Z" fill="#D8D4CD"></path><path d="M180.833 117.564C188.145 121.958 187.893 128.967 180.271 133.213C172.65 137.458 160.544 137.338 153.232 132.938C145.92 128.544 146.172 121.534 153.793 117.289C161.415 113.043 173.52 113.163 180.833 117.564Z" fill="#F3F3ED" stroke="#7096F2" stroke-width="0.5" stroke-linecap="round" stroke-linejoin="round"></path><path d="M181.422 122.278C173.806 117.695 161.197 117.569 153.255 121.992C149.653 123.995 147.632 126.758 147.277 129.591C147.254 129.791 147.191 130.237 147.185 130.437C147.053 133.647 149.115 136.628 153.032 138.986C160.648 143.569 172.902 143.002 180.838 138.58C188.775 134.157 189.038 126.856 181.422 122.278ZM180.168 137.893C172.615 141.95 160.619 141.829 153.375 137.63C146.131 133.43 146.378 126.735 153.931 122.679C161.484 118.622 173.48 118.742 180.724 122.942C187.968 127.142 187.721 133.836 180.168 137.893Z" fill="#F3F3ED" stroke="#7096F2" stroke-width="0.5" stroke-linecap="round" stroke-linejoin="round"></path><path d="M148.233 123.28L153.868 105.679C153.112 108.043 154.263 110.572 157.355 112.431C162.451 115.498 170.898 115.584 176.212 112.62C179.59 110.737 180.89 108.077 180.082 105.605L185.82 123.171C186.977 126.718 185.116 130.535 180.271 133.235C172.65 137.481 160.544 137.361 153.232 132.961C148.8 130.294 147.145 126.667 148.233 123.28Z" fill="#F3F3ED" stroke="#7096F2" stroke-width="0.5" stroke-linecap="round" stroke-linejoin="round"></path><path d="M153.696 107.779L152.259 98.4014C152.545 100.267 153.891 102.092 156.307 103.545C161.947 106.938 171.281 107.03 177.162 103.757C179.853 102.258 181.354 100.312 181.646 98.3155L180.266 107.699C180.002 109.502 178.645 111.264 176.212 112.62C170.898 115.584 162.457 115.498 157.355 112.431C155.168 111.115 153.954 109.467 153.696 107.779Z" fill="#F3F3ED" stroke="#7096F2" stroke-width="0.5" stroke-linecap="round" stroke-linejoin="round"></path><path d="M177.586 88.1938C183.226 91.5868 183.031 96.9881 177.156 100.267C171.275 103.54 161.942 103.448 156.301 100.055C150.661 96.6619 150.856 91.2606 156.731 87.9821C162.612 84.7092 171.945 84.8008 177.586 88.1938Z" fill="#F3F3ED" stroke="#7096F2" stroke-width="0.5" stroke-linecap="round" stroke-linejoin="round"></path><path d="M177.156 91.5868C171.275 88.4169 161.942 88.5085 156.301 91.7928C154.383 92.9142 153.135 94.2588 152.562 95.6721C151.503 93.0515 152.734 90.1907 156.301 88.1137C161.942 84.8294 171.281 84.7378 177.156 87.9077C181.033 90.0018 182.436 92.9886 181.325 95.7236C180.707 94.2016 179.315 92.754 177.156 91.5868Z" fill="#F3F3ED" stroke="#7096F2" stroke-width="0.5" stroke-linecap="round" stroke-linejoin="round"></path><path d="M152.19 93.7038L152.264 98.4014" stroke="#7096F2" stroke-width="0.5" stroke-linecap="round" stroke-linejoin="round"></path><path d="M181.692 93.7038L181.651 98.3155" stroke="#7096F2" stroke-width="0.5" stroke-linecap="round" stroke-linejoin="round"></path></svg> 