<?xml version="1.0" encoding="UTF-8"?> <svg xmlns="http://www.w3.org/2000/svg" width="296" height="173" viewBox="0 0 296 173" fill="none"><path d="M154.47 87.5765C154.47 87.5765 166.635 98.8196 171.968 102.667C177.295 106.514 185.413 110.789 198.759 110.789C212.106 110.789 222.446 103.3 226.608 99.5818C230.77 95.8633 242.245 85.161 246.427 82.524L204.247 58.2661L154.475 87.5816L154.47 87.5765Z" fill="url(#paint0_linear_658_1462)"></path><path d="M48.6962 82.2356C48.6962 82.2356 70.119 67.7581 77.7001 61.0884C85.2811 54.4188 88.9479 49.423 99.2828 49.423C109.618 49.423 120.381 60.867 125.786 65.8319C131.19 70.7916 141.309 87.2365 148.003 90.1825L102.305 116.959L77.7001 114.94L48.6962 82.2407V82.2356Z" fill="url(#paint1_linear_658_1462)"></path><path d="M148.003 171.702C98.7929 143.329 49.5832 114.955 0.368347 86.5773" stroke="#7095F1" stroke-width="0.74" stroke-miterlimit="10"></path><path d="M155.032 167.638C105.817 139.265 56.6124 110.892 7.39758 82.5137" stroke="#7095F1" stroke-width="0.74" stroke-miterlimit="10"></path><path d="M162.061 163.58C112.795 135.17 63.6468 106.839 14.4268 78.4552" stroke="#7095F1" stroke-width="0.74" stroke-miterlimit="10"></path><path d="M169.09 159.516C144.537 145.358 119.355 131.9 95.2757 116.954C82.4653 109.002 74.8378 97.7689 59.8924 93.3293C45.8855 89.1678 34.189 81.7308 21.456 74.3916" stroke="#7095F1" stroke-width="0.74" stroke-miterlimit="10"></path><path d="M176.119 155.458C162.484 147.598 148.854 139.734 135.218 131.874C124.424 125.648 111.789 120.168 102.305 112.082C90.2475 101.802 85.1316 83.312 66.9268 82.9875C61.3158 82.8845 57.221 85.3258 51.3934 83.3017C43.4977 80.5617 35.7104 74.4998 28.4852 70.3384" stroke="#7095F1" stroke-width="0.74" stroke-miterlimit="10"></path><path d="M183.149 151.394C169.513 143.535 155.883 135.67 142.247 127.811C130.406 120.987 117.936 115.409 109.334 104.506C99.9997 92.6701 92.7951 66.9598 73.9611 70.5959C68.5152 71.6466 64.3946 76.3385 58.4226 76.4776C50.1092 76.6681 42.3683 70.2251 35.5145 66.2697" stroke="#7095F1" stroke-width="0.74" stroke-miterlimit="10"></path><path d="M190.183 147.335C176.548 139.476 162.917 131.612 149.282 123.752C135.961 116.073 124.971 110.145 116.374 96.8934C109.128 85.7275 99.3138 49.9328 81.0058 59.2188C75.4825 62.0206 71.6456 67.4027 65.4621 69.2928C56.7104 71.971 49.7173 66.3417 42.5488 62.2112" stroke="#7095F1" stroke-width="0.74" stroke-miterlimit="10"></path><path d="M197.212 143.272C172.546 129.052 138.673 116.341 123.403 91.4134C116.234 79.7119 106.477 41.0846 88.0351 52.4565C82.5427 55.8402 78.7109 61.5159 72.4914 63.9417C63.719 67.3615 56.8651 62.5717 49.5781 58.1527" stroke="#7095F1" stroke-width="0.74" stroke-miterlimit="10"></path><path d="M76.5964 61.7579C69.1753 62.582 62.9661 57.7561 56.6124 54.0891" stroke="#7095F1" stroke-width="0.74" stroke-miterlimit="10"></path><path d="M204.241 139.213C190.606 131.349 176.939 123.536 163.34 115.615C150.055 107.874 139.039 102.054 130.432 88.7919C124.151 79.1145 116.307 50.9166 102.295 49.6393" stroke="#7095F1" stroke-width="0.74" stroke-miterlimit="10"></path><path d="M79.928 59.0901C74.1056 57.1123 68.6493 52.9148 63.6417 50.0255" stroke="#7095F1" stroke-width="0.74" stroke-miterlimit="10"></path><path d="M211.271 135.15C197.682 127.316 184.196 119.256 170.369 111.85C158.379 105.427 146.002 99.1028 137.456 88.2872C131.763 81.0819 126.869 68.6954 119.643 60.9339" stroke="#7095F1" stroke-width="0.74" stroke-miterlimit="10"></path><path d="M84.7293 54.8617C79.9795 52.0857 75.0905 48.5165 70.6708 45.9671" stroke="#7095F1" stroke-width="0.74" stroke-miterlimit="10"></path><path d="M218.3 131.091C193.628 116.866 166.006 106.741 144.485 87.731C135.847 80.0982 130.54 68.1701 121.232 62.2112" stroke="#7095F1" stroke-width="0.74" stroke-miterlimit="10"></path><path d="M91.6657 49.9689C87.0397 47.3886 82.4447 44.6434 77.7001 41.9086" stroke="#7095F1" stroke-width="0.74" stroke-miterlimit="10"></path><path d="M225.334 127.028C217.81 122.691 210.327 117.577 202.426 113.956C196.599 111.283 190.462 110.995 184.423 109.125C170.72 104.881 162.401 93.4066 151.515 84.8828C141.814 77.2861 133.929 68.7469 123.238 63.576" stroke="#7095F1" stroke-width="0.74" stroke-miterlimit="10"></path><path d="M232.364 122.969C225.087 118.772 217.717 113.405 209.455 111.345C203.504 109.862 197.393 110.876 191.447 109.682C176.609 106.7 168.801 92.325 158.544 82.6476C138.235 63.4781 108.782 51.7148 84.7293 37.845" stroke="#7095F1" stroke-width="0.74" stroke-miterlimit="10"></path><path d="M239.393 118.906C232.085 114.693 225.076 109.903 216.479 108.909C210.404 108.203 204.489 110.346 198.465 109.79C183.025 108.368 175.006 90.6975 165.568 80.4484C155.573 69.5915 142.794 63.2927 130.19 55.9484C117.415 48.501 104.569 41.1773 91.7585 33.7917" stroke="#7095F1" stroke-width="0.74" stroke-miterlimit="10"></path><path d="M246.422 114.847C239.156 110.547 232.162 106.128 223.509 105.51C217.382 105.072 211.56 107.446 205.495 107.281C189.925 106.859 181.71 87.4683 172.597 77.1367C154.062 56.1235 122.815 43.5773 98.7877 29.7281" stroke="#7095F1" stroke-width="0.74" stroke-miterlimit="10"></path><path d="M253.451 110.784C246.143 106.571 239.135 101.771 230.538 100.772C224.463 100.066 218.547 102.203 212.524 101.647C197.078 100.231 189.064 82.5806 179.626 72.3315C160.844 51.926 129.643 39.4004 105.817 25.6594" stroke="#7095F1" stroke-width="0.74" stroke-miterlimit="10"></path><path d="M260.48 106.725C253.204 102.528 245.829 97.1509 237.572 95.0856C231.621 93.5971 225.515 94.6118 219.563 93.422C204.726 90.4555 196.913 76.1067 186.661 66.4241C176.496 56.8239 163.325 50.7105 151.283 43.7679C138.472 36.3824 125.662 28.9968 112.851 21.6113" stroke="#7095F1" stroke-width="0.74" stroke-miterlimit="10"></path><path d="M267.515 102.667C259.99 98.3303 252.507 93.216 244.607 89.585C238.779 86.9017 232.647 86.6082 226.603 84.7438C212.699 80.4484 204.969 68.7726 193.695 60.5321C171.132 44.0357 144.093 31.505 119.881 17.5477" stroke="#7095F1" stroke-width="0.74" stroke-miterlimit="10"></path><path d="M274.544 98.6033C261.043 90.816 247.979 83.1987 233.637 77.1265C221.374 71.935 212.024 62.8241 200.724 56.0411C176.388 41.4348 151.499 27.6577 126.91 13.4789" stroke="#7095F1" stroke-width="0.74" stroke-miterlimit="10"></path><path d="M281.573 94.5448C232.358 66.1717 183.164 37.8038 133.939 9.42047" stroke="#7095F1" stroke-width="0.74" stroke-miterlimit="10"></path><path d="M288.602 90.4812C239.393 62.1082 190.183 33.7351 140.968 5.35693" stroke="#7095F1" stroke-width="0.74" stroke-miterlimit="10"></path><path d="M295.632 86.4228C246.422 58.0497 197.212 29.6767 147.997 1.29846" stroke="#7095F1" stroke-width="0.74" stroke-miterlimit="10"></path><path d="M148.003 171.702C197.212 143.329 246.422 114.955 295.637 86.5773" stroke="#7095F1" stroke-width="0.74" stroke-miterlimit="10"></path><path d="M140.973 167.638C190.183 139.265 239.393 110.892 288.608 82.5137" stroke="#7095F1" stroke-width="0.74" stroke-miterlimit="10"></path><path d="M133.939 163.58C183.164 135.196 232.358 106.833 281.573 78.4552" stroke="#7095F1" stroke-width="0.74" stroke-miterlimit="10"></path><path d="M126.91 159.516C151.499 145.337 175.877 130.669 200.724 116.954C211.719 110.887 223.339 107.56 233.637 100.081C246.798 90.5224 260.434 82.5239 274.544 74.3916" stroke="#7095F1" stroke-width="0.74" stroke-miterlimit="10"></path><path d="M119.881 155.458L158.312 133.296C169.792 126.678 181.4 118.277 193.695 113.318C205.696 108.476 216.072 108.332 226.603 99.5767C232.781 94.4367 237.902 88.1945 244.607 83.6674C251.883 78.754 259.908 74.7162 267.515 70.3333" stroke="#7095F1" stroke-width="0.74" stroke-miterlimit="10"></path><path d="M112.851 151.394L151.283 129.232C162.252 122.908 174.082 113.56 186.661 111.088C200.023 108.456 208.672 110.253 219.563 100.128C225.979 94.1637 231.038 86.9121 237.572 81.0407C244.385 74.9222 252.6 70.8122 260.48 66.2697" stroke="#7095F1" stroke-width="0.74" stroke-miterlimit="10"></path><path d="M105.822 147.335C118.633 139.95 131.443 132.564 144.253 125.179C155.125 118.911 166.703 109.63 179.632 108.888C193.886 108.07 201.302 111.809 212.529 100.246C219.068 93.5147 224.024 85.3979 230.543 78.6149C237.304 71.5796 245.086 67.037 253.456 62.2163" stroke="#7095F1" stroke-width="0.74" stroke-miterlimit="10"></path><path d="M98.7929 143.272C111.603 135.886 124.414 128.501 137.224 121.115C148.142 114.822 159.493 105.711 172.602 105.561C187.249 105.396 194.231 110.176 205.5 97.7534C219.172 82.6836 228.212 68.3761 246.427 58.1527" stroke="#7095F1" stroke-width="0.74" stroke-miterlimit="10"></path><path d="M91.7585 139.213C104.569 131.828 117.343 124.375 130.19 117.057C141.077 110.851 152.675 101.498 165.568 100.756C179.817 99.9321 187.238 103.697 198.465 92.1396C205.005 85.4082 209.966 77.2913 216.479 70.5083C223.241 63.4679 231.018 58.9201 239.393 54.0943" stroke="#7095F1" stroke-width="0.74" stroke-miterlimit="10"></path><path d="M84.7293 135.15C97.5346 127.769 110.825 120.878 123.161 112.736C133.758 105.736 145.847 97.3363 158.539 94.8332C171.891 92.1963 180.544 94.0246 191.441 83.9146C197.862 77.9557 202.921 70.6989 209.45 64.8224C216.263 58.6935 224.473 54.5784 232.358 50.0307" stroke="#7095F1" stroke-width="0.74" stroke-miterlimit="10"></path><path d="M77.7001 131.091C91.2428 123.284 104.682 116.387 116.136 105.68C126.91 95.6109 138.225 93.7928 151.515 88.9464C163.624 84.5326 174.005 83.8836 184.422 75.2311C190.606 70.0911 195.727 63.8438 202.426 59.3064C209.698 54.3827 217.727 50.35 225.334 45.9619" stroke="#7095F1" stroke-width="0.74" stroke-miterlimit="10"></path><path d="M70.6708 127.028C78.1951 122.691 86.6426 118.818 93.579 113.56C100.072 108.636 104.002 101.472 109.112 95.3122C114.362 88.9928 119.793 83.5335 128.359 82.8691C133.97 82.4365 138.849 84.9344 144.491 83.6622C155.774 81.1231 168.136 74.3299 177.404 67.6036C190.57 58.0446 204.195 50.0359 218.31 41.8984" stroke="#7095F1" stroke-width="0.74" stroke-miterlimit="10"></path><path d="M63.6417 122.969C71.9344 118.185 80.2632 114.167 86.5498 106.725C92.7023 99.4427 96.7301 90.7387 102.088 82.9257C106.848 75.9831 112.104 69.0353 121.335 69.9315C127.028 70.4877 131.675 75.3238 137.461 76.1067C148.606 77.6209 161.318 67.2997 170.374 61.7116C183.804 53.4196 197.604 45.725 211.276 37.845" stroke="#7095F1" stroke-width="0.74" stroke-miterlimit="10"></path><path d="M56.6072 118.906C66.0242 113.477 73.2236 108.713 79.5205 99.5458C85.5854 90.7181 89.7266 80.8038 95.0642 71.5641C99.6129 63.6893 104.172 55.3561 114.311 57.8643C120.133 59.3013 124.687 66.2181 130.432 68.4843C142.325 73.1762 153.428 63.0095 163.34 57.3493C177.006 49.5517 190.611 41.646 204.241 33.7866" stroke="#7095F1" stroke-width="0.74" stroke-miterlimit="10"></path><path d="M49.5781 114.847C70.2171 103.558 77.2824 84.6407 88.0351 64.8327C92.2588 57.0454 96.8538 45.8538 107.282 50.9114C113.315 53.8367 117.281 60.0377 123.403 62.9888C135.553 68.8499 146.058 59.224 156.311 53.3114C169.946 45.452 183.577 37.5875 197.212 29.7281" stroke="#7095F1" stroke-width="0.74" stroke-miterlimit="10"></path><path d="M120.273 61.3819C130.695 62.8652 140.483 54.3157 149.282 49.2478C162.917 41.3884 176.548 33.5239 190.183 25.6646" stroke="#7095F1" stroke-width="0.74" stroke-miterlimit="10"></path><path d="M42.5488 110.784C51.9607 105.36 59.1652 100.612 65.4621 91.4547C71.5321 82.627 75.6733 72.7127 81.0058 63.473C85.5441 55.6085 90.2629 47.3834 100.402 49.871" stroke="#7095F1" stroke-width="0.74" stroke-miterlimit="10"></path><path d="M117.653 59.0282C126.394 56.4428 135.202 49.2478 142.247 45.1842C155.883 37.3248 169.513 29.4603 183.149 21.601" stroke="#7095F1" stroke-width="0.74" stroke-miterlimit="10"></path><path d="M35.5196 106.725C43.7968 101.951 52.1412 97.9389 58.4277 90.5173C64.5906 83.2451 68.6183 74.5462 73.9663 66.7332C75.3639 64.6885 76.8079 62.6438 78.3808 60.7949" stroke="#7095F1" stroke-width="0.74" stroke-miterlimit="10"></path><path d="M113.217 54.8617C120.886 50.7414 128.462 45.0194 135.218 41.1258C148.853 33.2664 162.484 25.4019 176.119 17.5425" stroke="#7095F1" stroke-width="0.74" stroke-miterlimit="10"></path><path d="M28.4904 102.667C36.0147 98.3303 44.4569 94.4573 51.3985 89.2194C57.8965 84.3163 61.8263 77.1574 66.9319 71.0028C70.2067 67.0525 73.5589 63.4267 77.7052 61.0936" stroke="#7095F1" stroke-width="0.74" stroke-miterlimit="10"></path><path d="M105.874 50.3088C127.193 38.5249 148.034 25.6234 169.095 13.4789" stroke="#7095F1" stroke-width="0.74" stroke-miterlimit="10"></path><path d="M21.456 98.6033C34.9884 90.8006 48.4486 83.9197 59.8924 73.2226C64.7968 68.6388 69.3919 65.1005 75.2452 62.6799" stroke="#7095F1" stroke-width="0.74" stroke-miterlimit="10"></path><path d="M14.4268 94.5448C63.6468 66.1666 112.789 37.8296 162.061 9.42047" stroke="#7095F1" stroke-width="0.74" stroke-miterlimit="10"></path><path d="M7.39758 90.4812C56.6073 62.1082 105.817 33.7351 155.032 5.35693" stroke="#7095F1" stroke-width="0.74" stroke-miterlimit="10"></path><path d="M0.368347 86.4228C49.578 58.0497 98.7877 29.6767 148.003 1.29846" stroke="#7095F1" stroke-width="0.74" stroke-miterlimit="10"></path><defs><linearGradient id="paint0_linear_658_1462" x1="200.446" y1="110.784" x2="200.446" y2="58.2609" gradientUnits="userSpaceOnUse"><stop stop-color="#CBDDFF"></stop><stop offset="0.17" stop-color="#D9E4F8"></stop><stop offset="0.47" stop-color="#EBEEEF"></stop><stop offset="0.68" stop-color="#F2F2EC"></stop></linearGradient><linearGradient id="paint1_linear_658_1462" x1="98.3494" y1="116.954" x2="98.3494" y2="49.423" gradientUnits="userSpaceOnUse"><stop stop-color="#F2F2EC"></stop><stop offset="0.34" stop-color="#EEF0ED"></stop><stop offset="0.64" stop-color="#E3EAF2"></stop><stop offset="0.92" stop-color="#D1E0FB"></stop><stop offset="1" stop-color="#CBDDFF"></stop></linearGradient></defs></svg> 