<?xml version="1.0" encoding="UTF-8"?> <svg xmlns="http://www.w3.org/2000/svg" width="227" height="226" viewBox="0 0 227 226" fill="none"><path opacity="0.5" d="M204.281 128.524C204.281 181.281 161.431 226 108.189 226C54.9465 226 11.469 181.281 11.469 128.524C11.469 75.7667 54.63 33.0007 107.872 33.0007C161.114 33.0007 204.281 75.7667 204.281 128.524Z" fill="#D8D4CD"></path><path d="M210.746 120.022C210.746 172.779 167.896 217.498 114.654 217.498C61.4116 217.498 17.934 172.779 17.934 120.022C17.934 67.2647 61.095 24.5049 114.337 24.5049C167.579 24.5049 210.746 67.2709 210.746 120.028V120.022Z" fill="#F3F3ED" stroke="#7096F2" stroke-width="0.5" stroke-linecap="round" stroke-linejoin="round"></path><g opacity="0.2"><path d="M113.923 23.8091L109.254 24.2363L108.511 24.3462H109.363L106.819 25.0114L105.76 25.1091L106.399 25.0114H105.449L106.606 24.8955L107.342 24.7856L107.568 24.5659L106.819 24.6819L107.349 24.4621L105.766 24.7856H105.553L105.662 24.8955H104.81L104.493 25.0114H105.23L104.609 25.2251V25.1152L104.396 25.2251H104.183L103.44 25.3288L103.763 25.2251L103.124 25.3288H102.911L102.058 25.4448H101.431L99.2033 25.8781L98.1441 25.988L97.9371 26.11L97.724 26.2077H97.6145L97.724 26.11L94.4367 26.5373L94.0167 26.757L94.4672 26.6715L94.5463 26.757H93.9071L93.1644 26.8729L94.1202 26.9828H93.0609L92.4339 27.0866L92.3183 27.2025V27.0866L91.4721 27.3063L91.6973 27.2025L91.0581 27.4223L91.3747 27.2025L89.0492 27.7457L88.617 27.9654H88.0874L87.5578 28.0692L87.3508 28.1791H87.2412L86.7177 28.3927L87.1499 28.1791H87.0342L86.0846 28.5147L86.4011 28.295L85.348 28.6185L85.2384 28.7223L85.0314 28.8382L84.3922 29.0518L85.1288 28.7162L83.6556 29.1556L83.3269 29.2716L82.9129 29.4791L83.0103 29.3814L82.5903 29.4791L82.1885 29.6133L81.525 29.9246L81.945 29.6927L80.9954 30.1321L81.2023 30.0162L80.7884 30.1321L80.1431 30.3518L80.0457 30.4617L79.6196 30.5716H79.7291L79.5222 30.6814L78.9925 30.9011L79.0899 30.7791H78.9925L78.3533 31.1209L77.5011 31.5603H77.2941L77.081 31.6641L76.9654 31.7678L76.3384 32.0974H76.1192L75.6992 32.3232L75.5835 32.4209L75.1634 32.6467L74.7373 32.8603H74.5303L74.2077 32.9702L73.1485 33.5134L72.8441 33.6232L71.3526 34.38L71.0482 34.4899L69.9829 35.0331L69.7638 35.2528L68.9298 35.6862L68.6071 35.8021L68.1749 36.0218L67.9679 36.2354L66.9087 36.7786L66.6956 37.0045L66.0564 37.3157L65.8494 37.5599L65.5268 37.6514L64.8998 37.9749L64.6928 38.1946L64.2667 38.4143L64.0597 38.6402L63.4205 38.9575L63.2074 39.1834L63.0004 39.281L61.2959 40.4895L59.6097 41.5759L55.5858 44.7252L55.5432 44.7496L55.3788 44.835L55.2692 44.9449L55.0622 45.0609L54.8553 45.2745L54.6422 45.3965L54.5326 45.6102L54.5022 45.6224L54.3256 45.7322H54.3865L54.003 46.0557L52.6211 47.2642L52.2985 47.4717L52.0854 47.5876L51.6654 48.0149L51.3488 48.2346L50.5026 49.1013L50.1739 49.321L48.7007 50.8529L48.3781 51.0665L48.0615 51.4022L47.9641 51.5121L47.4588 52.0492H47.4345L47.0084 52.4947L46.9962 52.5252L46.6005 52.9219H46.5883L46.1622 53.3797L45.7604 53.7947H45.7421L45.6387 53.9229L45.4256 54.1304L45.3282 54.3501L44.1594 55.5525L44.0559 55.6562L43.9463 55.8759L43.7393 56.1018L43.715 56.114L43.5324 56.1994L43.4228 56.4191L43.088 56.7548L43.0758 56.7731L43.0027 56.8586L42.8932 57.0722L42.3574 57.6154L42.254 57.8351L41.8339 58.2746L41.7243 58.4882L41.3043 58.9276L41.1947 59.1351L40.7808 59.5868L40.6712 59.8004L40.2511 60.2398L40.1416 60.4534L39.9285 60.6793L39.8311 60.8868L39.6059 61.1065L39.5085 61.3262H39.3989L39.3015 61.5581L39.0823 61.7657L38.9788 61.9854L38.7719 62.2051L38.5527 62.6445L38.3396 62.8521L38.2422 63.0718L38.0231 63.2915L37.9257 63.5051L37.7126 63.7309L37.4935 64.1582L37.2865 64.3779L37.1586 64.6281L37.0734 64.8173L37.0369 64.8539L36.2212 66.3493L36.5377 66.0075L36.1177 66.5507L35.8924 66.9901L35.795 67.0939L35.4724 67.753L35.582 67.6371L35.1497 68.5159L34.8332 68.9432L34.6262 69.3887L34.5227 69.7244L34.4131 69.822L34.2001 70.2615L34.0905 70.4812L32.9339 72.5441L32.179 73.5451V73.7587L31.8746 74.0822L31.3511 74.9488L31.2415 75.2723L30.3953 76.6944L29.9753 77.7808L29.6527 78.2263L29.5431 78.6597L29.4457 78.8733L30.6084 77.1277L33.3722 72.538L34.5349 70.9084L35.1619 70.5789H35.4846L36.1238 70.4812L36.6534 71.3601L36.8604 70.7009L37.0734 70.8169L37.39 70.1455L37.0734 71.0305H37.2804L37.603 70.5789L37.39 70.7009L37.7126 70.3713V69.8281L38.0231 69.938L37.7126 70.4812L38.1753 69.9258L38.5527 69.3948L39.0823 68.3084L38.8693 68.9493L39.0032 68.7295L39.3076 68.522L39.4293 68.3267L39.618 68.1925L39.7276 67.9788L40.2572 66.8863L40.5738 66.6666L39.7276 67.9727L40.5738 67.0878L41.1034 66.5446L41.3165 66.8802L40.5738 67.0878L39.618 68.6258L38.784 69.2727L40.0503 68.6258L41.4321 66.8802L40.5799 68.1864L41.3226 67.9727L42.1748 67.0878H42.7044L42.9175 68.3939L43.3375 67.9666L43.0271 68.5098L43.1245 69.169L43.6541 68.7357L43.2341 68.8394L43.9707 67.6309L45.5595 66.8802V67.1976L45.9796 66.8802L45.7726 67.4234L46.6248 66.9779L46.1987 67.3075L46.5153 67.4234L46.3022 67.8507L46.8379 68.1864L47.3675 67.5394L47.1545 68.3023L48.4207 68.9432L47.6902 69.0591L47.8972 70.1455L47.3675 70.0418L47.6902 69.3887L46.6309 69.053L45.7787 69.822L45.456 70.6948L46.8379 70.2554L46.7405 70.9023L47.051 70.5728L48.0067 71.7873L48.2137 71.9033L48.7433 70.5789L48.3233 69.822L48.8529 68.1864L49.7965 67.4234L49.693 66.9779L50.6548 66.6544L50.3383 66.215L50.6548 65.7816L50.7522 65.1103L50.8618 66.1051L51.5071 66.3309L52.2437 65.446V64.3596L51.5071 63.5905L49.1634 63.2671L50.3322 63.1633L50.9714 62.7117L52.3411 63.4807L53.1873 63.2671L53.6256 63.1633L54.3622 67.3014H54.4596L55.951 67.0817L56.4806 67.9666L57.6373 68.0765L57.9538 67.3075L58.1669 67.7408L58.0634 66.9779L58.2704 67.5333L58.4774 66.9779L59.214 66.6544L59.6401 65.8854L59.0009 65.6718L59.7436 65.3422L59.8532 64.4755L58.5809 64.0239L58.0512 63.8164L58.6783 64.0239L58.7878 63.9201L58.9887 63.8164L59.1044 63.7126L59.3175 63.5966L59.427 63.3891L59.634 63.2732L59.7375 63.1694L59.9567 63.0535L60.0541 62.9375L60.261 62.8276L60.3767 62.7117L60.5837 62.6201L60.6993 62.5042L60.9063 62.3882L60.3767 62.2844L61.5455 61.7412H61.229L61.5455 61.5337V60.7586H61.9656V60.429L62.0751 60.5389L62.1725 60.1117L62.3856 60.3192L62.5987 59.66L62.4891 60.2215L63.2257 60.0018L63.5422 59.0253L63.8588 59.2389L64.1814 58.5797L64.4858 58.476L64.1814 58.1464H64.918L64.5954 57.8229H65.2346L65.7642 57.3835L65.539 56.944L65.8616 57.176L66.9209 55.8576H67.347L67.4444 55.5342L66.5008 55.6379L65.9712 56.1811L65.7581 55.8576L65.5329 56.2971L65.1189 56.0774L64.3823 56.5107L65.1189 55.8515H63.9501L64.6989 55.2046L63.8466 55.2961L65.0094 54.8628L64.9119 53.8924H65.332L65.0094 54.2097L65.7581 53.99V53.7703L66.7017 53.3431L66.8113 52.6839V53.3431L68.2906 52.6839H67.8766L68.4001 51.5914L69.0272 51.3717V51.036L70.403 49.8337L69.8733 49.6261L70.823 47.9844L70.403 47.7768L69.3437 48.5336L68.2845 48.6496V48.8632L67.1217 49.5224L65.3259 49.6322L64.2667 50.8285L61.9351 52.1407L60.5532 52.3543L60.0236 51.4816L59.287 52.2506L56.6328 53.99H56.1093L55.257 54.5332L55.9997 53.8863L55.3666 53.9839L55.464 53.7642L55.7867 53.337L56.3163 53.0074L58.2217 51.152L61.1924 49.736L61.929 48.0942L66.2756 44.066L66.373 43.1871H66.7991L68.9237 42.3205L69.3437 41.7712L68.8141 41.881L69.9829 41.3378L71.7909 40.9045L72.8502 41.228L73.2641 41.0144L73.5868 41.5575L74.1164 41.228L73.7998 41.6613L74.1164 41.881L75.066 41.3378V41.0144H75.2852L76.0279 40.3613L76.4418 40.2575L75.066 41.3439L74.5364 41.7773L75.2852 41.8871L74.8591 42.65L76.0279 42.8698L78.0307 41.0144L77.9272 41.4477L76.3384 42.65L77.288 42.9796L78.0246 42.4242L76.9593 43.7364L78.2316 42.9796L78.0246 43.4069L77.1723 43.8402L78.4507 44.2796L80.137 43.4069L80.2527 43.8402L80.7823 43.5228L81.1962 43.6205L81.9389 42.8637L82.0485 43.0773L82.6877 42.1007L80.8797 42.6439L81.1049 42.3205H79.0839L78.9865 41.9909L81.8415 41.3378L82.4685 40.9045L81.0988 40.7946L83.1077 40.1416L82.9982 40.5688L83.8504 39.7082H84.2826L84.587 39.812L84.2705 40.0195L87.5578 39.0491L86.389 38.3899L85.9689 38.7256L85.1167 38.6157H84.9097L83.5339 39.5984L83.6495 39.2627H82.9069L83.1138 39.4824L82.3772 39.5984L82.1703 39.0552L80.8858 39.1711L81.6346 38.7317L82.6938 38.8416L82.4746 38.628L82.7912 38.7378L83.3208 38.4021L83.5339 37.9627L82.6938 38.1824L82.5842 38.4021H81.945L83.1138 37.9627L82.6938 37.8589L83.0043 37.5477L83.753 36.7664L84.7027 36.4552L85.3419 35.912L86.7116 35.5885L86.8212 34.8256L86.2915 35.143L86.0846 35.6862L85.975 35.0392L84.8123 35.2589H84.3861L84.9158 35.0392L83.8565 35.2589L85.3419 34.8317V35.0392L87.0282 34.38L87.3447 33.8368L88.9336 32.9702H89.4632L89.037 33.4096L90.0963 33.1899L90.9425 32.6467L92.854 32.0974L94.0228 31.7678L94.7594 31.1209L95.4047 31.3284L95.5021 31.2307L95.2951 30.9011L96.5613 30.7791H96.6709L97.0909 30.5777L97.9432 29.9307L98.0528 30.2481H98.1502L98.2598 30.1443H98.3572L99.0998 29.4852L99.6355 29.2777L100.159 29.3875L100.579 29.0518L99.8425 28.9359L102.911 28.6124L104.609 28.5086H105.029L109.473 27.9654L110.21 28.0692L110.112 28.1791L111.172 28.0692L111.695 28.295L112.115 28.0692L111.999 28.295H112.432L113.168 28.0692L114.112 27.9654L114.227 27.7457L114.337 27.8495L114.434 27.9654L115.396 27.7457L115.707 27.6298H115.719L116.669 27.2025H118.044L118.574 26.9828L116.985 26.6532L116.772 26.4274H116.76L115.396 26.3175L115.287 26.11H115.372L115.068 25.988H116.876L117.192 26.2077L119.84 26.11L118.568 25.8781H119.195L118.781 25.6706L116.565 25.4448H116.553V25.5607L116.346 25.4448L115.603 25.5607H114.903V25.5424L115.396 25.4448L114.867 25.2251L115.171 25.1152H115.183L116.029 25.2251L116.869 25.0114L117.618 25.1091L119.189 24.7795L118.775 24.6758H118.458L117.083 24.5598H118.032L117.825 24.3401H116.127L115.591 24.2302L116.127 24.1204L114.648 24.2302L114.331 24.1204H113.381L113.059 24.2302L112.742 24.1204L111.567 24.2302L112.206 24.1204L111.999 24.0105L114.331 23.9067V23.803H113.911L113.923 23.8091ZM115.372 26.0978L115.926 26.3053L115.396 26.0978H115.372ZM38.1387 69.938L37.3535 71.0427L38.3031 69.7366L38.1387 69.9319V69.938ZM37.0004 64.86L37.1221 64.6342L36.9578 64.9028L37.0004 64.86ZM36.9517 64.8967L36.8177 65.0431L36.6108 65.4704L36.9517 64.8967ZM82.1703 29.6072L82.4564 29.473L82.0363 29.6439L81.9937 29.6683L82.1642 29.6072H82.1703ZM114.434 24.7795L114.55 24.8894L114.343 25.0053V24.8894L114.441 24.7795H114.434ZM123.018 25.9758L123.663 26.1955H122.811L122.604 26.3053L121.965 26.1955L122.074 26.3053L121.545 26.1955L120.802 26.3053L121.849 26.7448H121.861L123.018 26.9645L123.755 27.0683L123.657 26.6349L123.864 27.4039L125.983 28.3744L127.571 29.2593L129.16 29.5828L129.903 30.0101H130.104L130.22 30.126H130.859L130.749 29.6866L131.382 29.8025L132.119 30.3518L131.918 30.5716L132.661 30.6814L134.566 31.6641L135.631 31.7678L135.303 32.2073H135.193L134.883 32.6467L135.844 33.4157L137.433 34.1786L137.64 35.265L137.001 34.9293V35.4847L137.433 35.6984L138.907 36.034L137.957 36.1439L138.377 35.9364L137.433 35.8204L138.377 37.3402L138.7 37.2486L139.333 37.5843H140.605L140.934 37.9993L141.67 38.1153L141.348 38.6646L142.09 39.3115L141.561 39.5312L143.783 40.1904L142.194 40.8435L141.768 40.52L141.457 40.7336L141.141 40.4101L140.404 40.6176L140.708 41.2768L140.075 41.7101L141.768 42.3693L141.877 43.1261L141.372 43.4862L141.031 43.3458L140.982 43.7731L139.308 44.9754L138.59 44.3285L137.64 44.4322L138.06 44.2186L137.64 43.9989L136.161 44.4322L136.581 45.5247L135.936 45.2073L135.528 45.8543L135.108 45.305L134.463 45.6346L135.424 46.5134L136.38 46.843L136.271 47.1604L136.167 47.3923H137.007L136.587 47.49L137.007 48.4787L136.587 48.2529L136.271 48.9121L136.587 49.1196L136.697 48.7961L136.91 50.9811L137.646 51.4144L137.117 51.5243L138.809 51.9637L137.853 53.813L139.436 54.7896L141.019 54.7041L140.605 55.2412L139.765 55.3328L138.907 55.4487V55.882L139.552 56.1079L138.907 56.5412L140.934 56.7487L139.868 57.2004L137.318 55.882L138.28 56.5412L138.59 57.7314L140.075 58.2868L140.708 58.9398L141.67 59.9225L142.297 59.1473L143.363 59.0558L144.318 59.4891L144.738 60.252L145.591 60.1422L144.641 60.3497L142.937 59.2694L142.516 60.0323L143.88 61.1248L144.732 63.6333L142.93 64.0666L143.667 62.9802L142.51 60.6976L141.555 60.4718L140.282 59.2755L139.217 58.3966L138.164 58.067L136.898 56.5473L136.258 56.6511L135.522 57.0905L136.782 58.7262V59.6966L138.054 60.9051L138.584 61.3445L139.114 61.0149L140.282 61.4544L140.812 62.6567L138.584 62.2173L138.9 62.1074L135.838 62.4309V62.9741L136.995 63.6272L136.575 64.0605V64.0788L136.782 64.5121L135.838 63.9567L135.516 64.8356L134.566 65.2751V65.922L133.714 66.1478L133.397 65.2812L133.714 64.9455L133.397 65.0615L133.184 66.2638L132.868 65.922L131.492 67.454L132.015 67.7774L131.279 68.0033L131.601 68.992L130.749 69.4192L129.8 68.7662L130.536 67.8934L130.22 67.5699L127.992 67.2342L128.838 67.6676L130.22 70.9451L128.74 70.4019L128.101 71.3906L127.778 72.0375L127.888 72.2573L127.992 72.5685L128.101 72.7944L128.631 73.5634H128.308L127.145 73.4474L126.932 73.777L127.145 73.3254L125.977 73.1178L125.867 73.777L127.145 74.2103L126.932 75.0892L124.808 74.3263L124.071 73.1239L124.278 72.361L122.908 71.9338L123.328 71.5981L121.953 70.7253L126.932 71.4822L127.358 70.8413L127.249 70.6033L127.145 70.2859L127.036 70.0662L126.616 68.7601L126.299 68.4183L123.219 67.4479L122.269 67.5577L122.062 68.1009L122.16 67.3319L121.417 67.4479L121.204 67.0023H121.843L121.204 66.6788L120.784 67.3258L120.145 66.8986L119.828 67.3258L119.292 66.8986L119.085 66.5629L120.035 66.6788L120.467 66.1356L119.195 65.5924L118.665 66.3554L118.976 65.4704L118.452 65.3666L118.239 66.2394L117.917 66.4652V65.5924L117.296 66.8986L117.503 65.6901L116.863 65.5924L116.328 66.9962V67.1L116.23 66.9962H116.017L115.792 67.1H115.378L115.585 67.4356L115.055 67.1L114.325 68.0948H114.215L114.325 67.8629V67.4356L114.118 67.8629V67.3197L113.686 67.6432L114.002 68.1986L113.266 67.8629L112.949 68.9493L112.206 69.1812L113.059 69.285L112.097 69.3948V70.1516L111.89 69.4925L111.354 69.8281L111.786 70.0479H111.153L111.677 70.4873L110.727 70.9206L111.354 71.1465L110.088 71.3662L110.411 71.5798L109.674 72.4587L110.411 72.3427L109.345 72.5502L109.668 73.0019L109.345 72.77L108.816 73.8563L109.443 73.7648L108.176 74.308L108.816 74.1981L108.176 74.5338L108.493 74.961L107.969 75.077L107.86 74.6376L106.588 75.9437L107.227 76.1634L108.079 75.4005L107.647 76.3831L106.801 76.4869L106.703 76.0474L105.851 76.2794L105.747 77.146L105.212 76.8226L105.65 77.3719L104.591 76.8226L105.327 77.3719L103.958 77.262L104.481 78.1409L104.165 77.6953L103.958 78.031L103.538 77.8052L103.745 78.1409L102.892 77.6953V78.2507L102.57 78.6841L103.209 79.0137L102.472 78.8977L102.996 79.1174L102.564 79.4531H102.357L102.783 79.7766L102.253 79.8864L102.466 80.3259L102.886 80.1061L102.253 80.5456L102.357 80.9789L102.783 80.5456L102.357 81.3024L103.842 80.5456L102.034 81.8517L102.253 82.2911L103.093 81.9555L102.351 82.6024L102.99 82.7184L102.673 83.0541L102.144 82.6085L102.034 83.3775L102.996 84.47L104.055 84.3541L105.437 82.9381L106.18 83.1517L106.6 81.8517L106.709 84.2503H107.123L106.91 85.0254L107.33 84.3602L107.02 85.3428L107.86 87.2043L107.324 87.6315L107.549 89.1635L108.816 89.2672L109.443 87.9611L110.502 88.1808L111.348 86.002L111.251 84.3541L111.671 84.47L111.025 84.1404L112.194 83.9329L112.31 83.2616L112.517 83.9329L113.253 83.1517L112.724 82.9381L113.57 82.4986L112.724 81.0827L111.987 80.9667L112.517 77.3719L112.937 77.7991L114.313 76.5967L114.842 76.1634L115.482 75.1869L115.159 73.8563L115.573 74.0883L115.482 73.2216L116.005 73.5512L116.102 73.008H117.375L118.124 74.1981L115.159 77.6831L115.682 79.7644L115.475 81.0705L116.419 81.7296L116.845 81.3939L116.742 82.2728L121.301 80.5212L121.399 81.1864L122.884 81.6137L121.076 82.0409L120.979 82.7062L119.073 82.3766L117.277 83.2494L117.594 84.5555H118.331L118.221 86.301L117.594 86.7466L116.632 85.5503L115.78 85.8677L115.159 87.4973L115.323 88.9071L114.842 89.9142L114.313 90.1217V90.5489H114.733L114.313 90.7747L113.674 91.3179L114.203 90.555L113.138 91.1104L112.304 90.2255L109.12 91.4339L109.017 92.087L107.537 90.671L105.419 91.3179L105.729 90.555L104.78 90.671L104.25 89.6884L104.573 88.3762L106.046 87.2898L105.303 86.7466L106.046 85.2146L104.037 85.9837L103.081 89.6884L103.507 89.5785L103.714 90.2255L103.294 90.4635L104.347 91.8673L103.294 91.1104L102.972 91.9771L102.539 91.3179L101.699 91.4339L101.906 92.087L100.415 91.5499L99.7877 91.9771L100.104 92.8621L99.4712 93.2893L99.1485 92.0931L98.0893 93.6128L98.6189 94.1682H97.3527L98.0893 94.6015L95.3499 94.925L95.1246 96.0236L94.7046 96.2311L93.0062 97.11L91.3199 96.0236V97.8729L89.938 97.7692L89.731 97.0062L87.8195 97.226L88.3492 97.7692L87.8195 97.5494V98.4161L89.731 99.5025L89.938 101.254L90.5833 101.681L90.1572 102.67L90.2607 103.006L88.7753 106.375L82.8521 104.648L82.3224 103.872L80.204 104.526L80.624 105.954L79.2482 109.439L77.7689 111.404L78.4081 111.294L77.8785 112.057L78.5055 112.277H78.2985L77.4463 114.462L79.997 114.785L80.9467 117.41L82.7425 116.647L85.5002 117.294L86.6568 116.207L87.6126 116.323L88.1483 115.121L88.7753 114.791L89.1892 114.681L88.9823 114.26V114.242L88.6718 113.925L88.9944 112.832L89.3049 112.606L90.8938 110.958L93.7671 110.098V108.474L94.3941 107.809L95.356 107.473L97.6753 108.78L101.06 106.826L102.649 107.803L103.385 110.531L108.791 115.017L109.418 116.97L108.572 118.392L109.102 118.606L109.838 117.086L110.691 116.751L109.838 115.444L110.374 114.358L111.525 114.584L112.164 115.444L112.377 114.901L109.199 112.503L109.522 111.734L107.829 111.514L106.673 108.786L105.291 107.596L105.175 105.63L106.77 105.081L107.087 106.833L107.939 105.966L109.418 109.018L110.478 109.329L111.537 110.318L110.703 109.988L112.821 110.867L113.771 112.057L113.351 114.462L114.301 115.658L115.25 116.964L115.774 116.744L115.25 117.202L115.774 117.953L118.531 118.166L118.111 118.6L116.09 118.166L115.768 118.832L116.523 120.565L117.15 120.242L117.582 121.328L117.789 120.565L118.525 121.224L117.88 119.253L118.939 119.473L118.203 118.71L118.939 118.38L119.585 119.045V118.16L117.576 117.074L118.203 116.738L118.105 116.195L118.635 116.421L117.576 114.23L117.99 114.022L119.371 115.109L119.055 114.456L119.907 114.779L118.945 113.796L120.753 113.253L122.872 113.687L122.129 114.779L123.718 113.143L125.526 112.93L123.718 110.641L123.298 110.751L124.564 108.676L124.68 106.161L124.887 106.717L125.63 106.283L125.416 104.654L125.587 104.989L125.526 105.075L125.593 105.008L125.63 105.075L125.757 104.819L126.366 104.111L126.591 103.335L127.858 102.572L128.485 103.226L127.328 103.116L127.961 103.335L127.748 103.659L129.873 103.561L129.976 104.111L128.807 104.971L129.544 104.861L129.976 106.289L130.719 106.509L133.476 104.318L132.198 104.66H131.571L130.828 103.775L131.461 102.682L131.352 103.451L132.198 102.353L135.601 100.601L135.163 101.81L134.219 101.919L134.95 102.463L134.42 104.111L133.476 104.654L137.92 106.723L139.935 107.596L140.666 108.902L140.361 109.781L139.077 110.873L138.98 110.965L136.959 111.416L134.53 111.306L132.624 110.11L130.603 110.543L128.278 112.399L125.739 112.509L125.952 113.162L126.798 113.272L125.63 113.497V114.041L122.878 114.15L122.135 115.023L122.038 115.78L123.188 115.566L122.981 117.208L123.627 117.416L122.981 117.751L122.659 117.086L122.452 117.837L123.828 118.295L123.511 118.838L124.357 119.485L123.937 119.924L125.307 119.698L124.144 120.474L125.526 120.034L127.218 121.127L128.174 120.913L128.387 119.705H129.13L131.352 120.791L132.837 120.26L133.574 119.161L134.536 119.393L135.485 118.734L135.272 120.913L135.899 122.665L134.317 128.438L131.468 129.427L131.041 128.548L129.879 128.664L127.231 130.306L124.156 129.427H121.721L121.307 128.768L118.964 128.548L118.653 127.675L116.748 127.236L114.416 128.548V130.849H114.307L112.827 131.82L111.238 130.617L108.274 129.751L107.537 127.999L105.096 127.029H103.605L100.859 125.051L100.646 124.392L102.338 122.756L101.602 121.12L102.454 119.607L101.602 120.15L100.865 118.942L98.3145 119.485L96.4152 118.838L94.9298 119.381L93.1279 118.606H89.4206L87.8317 119.485L86.6629 119.381L85.1836 120.144L84.0148 119.814V119.265L81.7928 119.064L81.1536 117.635H80.5205L78.7186 120.254L75.0113 121.664L73.8485 123.312L73.532 125.606L73.4163 125.716L72.4727 126.583L70.4699 127.682L68.5584 127.578L67.067 129.317L65.9103 129.641L64.7415 131.826L63.1526 132.698L63.4692 132.595L61.0342 135.317L60.6202 136.739L60.9368 136.403L61.4664 138.259L60.7237 139.357L60.9368 142.189L59.6584 145.131L58.1791 146.01L59.2383 147.969L59.1227 148.732L60.4011 149.055H59.3479L58.9096 148.512L58.593 149.824L59.3418 150.148L58.593 150.044L59.5488 150.587L59.0192 150.807L59.6523 151.253L59.5488 151.576L60.9307 151.79H60.0845L60.7176 152.223L59.9749 152.437L60.2915 153.09L60.7176 152.974L60.5045 153.309H61.0342L61.2411 154.738L61.7708 155.391L62.41 155.934L62.0873 156.245L62.6169 156.697L62.7326 158.003L63.1526 158.119H62.5195L63.5788 159.529L63.4692 160.072L65.2711 161.61L68.6558 165.76L70.4699 167.066L72.4727 166.737L75.6505 167.17L78.7125 168.806L81.8902 168.263L84.0087 167.829L87.9352 167.945L87.1803 168.153L88.8849 168.488L89.8284 169.459L90.3581 169.239L89.8284 169.575L90.5833 169.892L90.0537 169.782L90.3642 170.112L90.7964 169.996L90.2607 170.423L91.3199 171.845L92.4765 171.961V171.626L92.7018 171.961L92.5922 171.51L92.9088 171.961L93.0062 171.51L93.4323 171.961L95.0211 172.065L94.9116 171.418L95.4412 172.181L95.8673 171.845L96.4943 173.048L97.3466 172.938L97.4562 173.383H97.024L97.7667 174.47L96.7074 177.1L97.237 177.308V178.187L96.6039 177.961L97.7606 178.608L96.9205 178.73L96.7013 178.187L96.2813 179.7L95.636 179.493L97.1214 182.013L100.616 185.065L101.358 186.804L102.204 187.244L101.565 187.348L103.477 190.296L102.838 191.065L103.477 192.255L104.323 193.457L104.006 194.873L102.204 196.069L101.151 198.578L101.358 200.873L105.802 205.456L106.752 208.722L110.252 211.682L111.744 212.768L111.951 213.311L111.312 213.525L112.054 214.398L112.59 214.306L114.282 214.739L117.777 214.19H120.954L124.016 213.647L128.46 211.785L129.848 210.797L130.481 210.369L132.283 209.491L133.452 207.434L133.233 207.635L132.813 207.434L137.579 205.243L137.896 203.491L136.843 202.191L136.94 201.306L137.257 201.422L139.582 200.116L140.538 198.913L145.311 196.509L145.627 196.301L147.113 194.428L146.68 192.474L146.991 192.133L146.784 190.607L147.307 189.74L146.358 189.508L145.926 189.307L145.402 187.335L145.719 186.689L145.299 186.792L145.926 185.706L144.775 184.711L145.512 182.752L146.778 180.475L147.1 179.932L148.361 178.943L148.038 178.608L148.896 178.388L152.384 173.926L155.982 170.423L158.849 166.615L162.447 157.887V156.471L163.08 156.031L162.557 156.239L162.764 153.962H162.027L160.213 155.696L157.255 156.898L155.982 157.991H155.033L153.225 159.297L151.003 157.991L150.053 158.314L151.21 157.325L151.112 156.575L147.612 153.956L146.029 153.834L145.712 153.297L145.506 153.077L145.292 153.743L143.058 149.385L141.262 148.39L140.416 144.692L140.733 144.911L139.893 143.385L137.975 142.183L137.555 140.669L137.975 140.547L136.916 139.784L134.055 134.548L132.472 132.79L132.149 131.16L133.428 133.339L135.017 134.548L135.759 131.386L135.437 133.883L136.386 133.791L139.777 138.045L140.307 139.351L141.896 140.114L143.174 142.183L143.491 144.252L144.854 145.131L146.133 146.01L149.517 150.148L149.621 152.547L151.313 156.251L153.645 155.501L154.387 154.292L158.624 151.784L159.47 150.581L163.178 147.639L163.385 146.223L166.562 143.935L166.879 142.513L168.048 141.762L168.377 140.224L169.521 139.241L169.101 137.276L169.43 136.513L169.85 136.617L170.696 133.028L168.991 131.606L166.879 131.826L166.033 131.283L165.077 129.641V128.335L162.965 133.132L161.059 133.797L160.536 134.56L159.367 134.224L159.148 131.496L158.411 131.716L158.521 133.797L157.139 132.155L157.029 130.953L155.026 129.983L153.334 127.468L152.914 127.584L153.444 127.132L153.024 126.382H152.914L154.083 126.046V125.399L154.923 125.728L155.562 125.283L155.769 125.503L158.101 128.341H159.586L161.504 129.22L162.983 128.988L164.888 126.925L166.27 128.774L169.655 128.011L171.767 127.468L176.546 123.531L177.173 124.63L177.812 124.3L178.452 125.503L179.292 124.85L179.511 125.503L179.821 124.63L179.608 125.399L180.777 125.942L181.934 124.85L181.842 125.728L180.777 126.925L183.425 128.011L184.375 126.382L184.058 124.52L184.582 124.074L184.375 124.85L184.582 125.283L184.904 124.959L184.801 125.826L185.33 126.382L185.544 128.011L187.875 133.034L191.692 138.491L192.319 139.797L192.849 141.103L193.908 141.536L194.322 140.682V139.583L195.071 138.381H194.754L194.851 137.41V137.398H194.87V136.855L195.399 136.312L194.87 134.456V131.508L194.011 129.226L193.902 128.139L194.438 127.48V126.394L195.174 125.082L194.955 124.422L195.698 120.931L195.807 118.636L196.331 116.683V114.932L195.911 114.181L196.221 112.973L196.118 111.984L196.538 112.753V111.666L196.97 111.984L196.751 111.331L197.067 111.666L196.97 110.904L197.274 110.995L196.97 110.134L197.5 110.678L197.177 109.256L197.597 110.019V109.585L197.177 108.932L197.597 108.169L199.722 110.678L199.606 109.811L199.819 110.568L200.251 110.134L200.677 110.678L200.452 111.221L200.982 111.447L200.775 110.574L201.834 112.649L202.473 115.273V114.511L202.571 115.273V114.718L202.893 114.938L202.79 114.187L203.1 114.395L202.893 113.534L203.1 112.649L202.79 112.319L203.1 112.429V111.55L202.79 110.684L203.429 111.55L203.526 111.117L204.275 113.418L204.914 114.932L204.805 114.273L205.438 115.365L205.651 116.897L205.864 116.781L205.973 118.636L206.278 119.515L206.18 118.868L206.278 119.412L206.601 122.243L206.71 121.694L207.447 122.689L207.55 122.787L207.988 125.515L208.396 126.821H208.938L209.048 125.838L208.829 124.642L208.622 122.237L208.524 121.481L207.885 120.925L207.556 121.682L207.027 119.839L206.82 119.174L206.716 119.943L206.497 118.881V118.862L206.4 118.423L206.077 115.151L205.98 114.932V114.712L205.87 114.498L205.547 113.522L205.76 112.313L206.077 113.619L206.284 112.637L206.716 112.533L207.24 113.839L207.13 112.966L207.343 113.839V113.296L207.763 113.07L208.092 115.048L208.202 114.608L208.092 112.863L207.885 112.313H208.092L207.885 111.88V111.77H207.995V111.673L207.885 111.557L207.995 111.343H207.885V111.007L207.775 110.696L207.885 110.476L207.66 107.437L207.24 105.465V105.13L206.187 102.194L205.76 101.535L205.34 101.742L204.165 100.449L203.642 98.9166L203.538 97.7081L203.222 97.1649L203.331 96.9391L203.112 96.7316V96.0724L202.905 94.9738V94.217L202.698 93.7776H203.015L202.802 92.9109L202.905 93.0147L203.331 93.9912L203.642 94.6504V94.3391L203.015 92.6912L203.112 92.917L202.905 91.379L202.698 90.9518V90.5245L202.583 90.0851V89.7494L202.163 88.8766L202.485 89.31L202.272 88.7607H202.382L201.743 87.7902L202.272 87.9001L202.059 87.6743L201.846 86.8137L201.956 87.0212L201.639 86.2705H201.846L201.53 85.0742L201.219 84.5188H201.109L200.896 83.5362L200.689 83.1029H200.787L200.263 82.0043H200.16L199.941 81.1376L199.734 80.8019L199.618 80.4907L199.411 80.155V79.8315L199.095 79.2883H199.204L198.681 78.5254L198.352 77.8662L198.139 77.6587V77.3291L196.976 75.2601H196.873L196.446 74.1615L196.239 73.9296L195.917 73.3864H195.819L195.606 72.8432L195.381 72.416L195.606 72.9592L195.077 71.9887V72.1962H195.071V71.9887L194.961 72.1962L195.381 73.2948L194.224 70.9878H193.804L193.585 70.1211H193.165L191.789 68.815L191.692 68.9188V69.2483L191.363 68.9188L190.523 67.5028L190.194 67.0572L189.987 66.9535L189.878 66.5201L189.458 65.9647L188.715 64.6464V64.3352L188.088 63.6699L188.198 64.8784L188.715 65.745L188.733 65.7633L189.251 66.7277L188.289 65.9586V66.6117L187.552 65.9586L187.236 64.8722L186.164 63.2366L185.111 61.8145L184.582 60.9356L185.111 61.1553L186.493 62.9009L186.28 62.3577L187.23 63.6638L185.324 60.6121L184.898 59.4159L185.86 60.5023L185.964 60.2887L186.28 60.8318L186.81 61.491L186.597 61.0516L186.907 61.491L186.597 60.8318L186.487 60.3863L187.333 61.0516H187.224L187.65 61.7046L187.863 61.8145L187.54 61.491L188.07 61.9182L187.857 61.607L189.123 63.1206L189.44 63.3403L189.543 63.6638H189.762L189.013 62.6934L189.233 62.9009L188.806 62.3577L188.916 62.4614L188.593 62.0281L188.484 61.8084L188.07 61.1553L187.96 60.9356L186.901 59.6356L185.951 58.8727L184.886 58.2135L184.679 58.4271L184.149 57.89L182.147 55.3694L181.191 54.6187L180.235 53.5201L179.809 53.2027L179.706 52.9769L178.646 52.0064L178.744 51.567L176.844 49.6078L172.388 45.897L168.9 43.3885H168.894L168.87 43.3763L168.267 42.9552L167.098 42.412L166.246 42.0824L164.134 40.7763L163.385 40.8862L163.287 40.6604L162.855 40.3491L162.648 40.7824L162.551 40.8923L163.074 41.4355L163.494 41.5453L164.554 42.4181L163.494 41.8688L164.554 42.6317L163.494 42.1984L164.024 42.8515L163.817 42.9613L160.737 40.7824L158.527 39.574L155.447 37.9383L153.651 36.5284L153.76 36.4124L153.218 36.1927L152.165 35.2101L151.319 34.9843L150.266 33.8979L151.112 34.4411L151.319 34.3434L148.677 32.8054L148.47 32.9152L149 33.2448L148.561 33.135L145.39 32.1523L143.058 31.1758L142.851 31.0659L143.497 31.1758H144.026L143.697 30.9561L144.233 31.0659L141.902 30.4129L141.262 30.1932H140.52L139.564 29.8697L139.351 29.65L140.203 29.9795H141.682L143.277 30.5227L145.712 31.1758L147.825 31.8227L149 32.3781L150.686 32.9213L152.378 33.3547L155.562 33.8979L152.811 32.7016L152.269 32.5857L151.003 31.9265H150.686L150.583 31.8166H150.156V31.7129L148.032 30.8279L146.875 30.7303L145.913 30.2908L145.499 30.4068L144.647 30.1871L145.499 30.6265L142.529 29.9795L141.902 29.7476V29.65L140.313 29.3265L140.842 29.2105L139.887 29.1068L138.194 28.4476L137.872 28.234L137.348 28.1241L134.377 27.5748L131.309 27.0377L130.031 26.7082H129.501V27.2575H129.611L129.824 27.4772L130.877 27.6847H130.67L131.413 27.9044L128.436 27.1415H127.279L126.963 27.4772L126.317 27.3612L126.75 27.0377L125.483 26.818H125.471L125.051 26.4884L123.992 26.1711H123.675V26.049H122.939L123.018 25.9758ZM91.886 30.2298H92.3061L90.4007 31.5481L90.2972 31.6519L89.7737 31.8655L89.9806 31.5481H89.8711L89.7737 31.4321L89.0249 31.8655L88.9275 32.195L87.9656 31.9753L89.0249 31.4321H88.4892L88.6048 31.3162L88.9214 30.9988L89.244 31.2185L89.5667 30.7669L90.5163 30.4556L90.3033 30.8889L90.839 30.6692L90.0963 31.1026L91.2529 30.6692L91.886 30.2298ZM97.8093 31.6519L97.3892 31.8655H95.8004L95.1612 32.5246L95.4777 32.7505V32.8603L95.3681 34.1725L96.8535 33.9528L97.1579 33.6293L97.6814 33.5195L98.5337 33.4157L99.4955 32.7566H98.5337L97.791 31.6641L97.8093 31.6519ZM136.368 31.6519L136.685 31.8655L136.368 31.7556V31.6519ZM138.365 32.488L139.436 32.6406L140.605 33.2936L139.436 32.7505H139.114L138.365 32.488ZM91.2468 32.8542L89.5484 33.6232H88.8118L87.436 34.8317L87.5395 35.5946L86.2733 35.9181L85.3175 36.8885L86.1637 36.7786L85.8532 36.565L86.809 36.4674L86.2794 36.6871L86.4924 37.0106L85.9628 37.2303H86.5959L88.824 36.2354H91.3564L92.4157 36.0218L92.6409 35.5946L90.5224 35.4786L92.9453 35.1491L93.1644 35.0392L92.2087 35.1491L92.7383 34.9232L92.4218 34.8317L92.854 34.5998L93.0609 34.8317L93.9132 34.5998L94.0106 34.0566L94.8568 34.2824L95.3925 33.1838L94.8568 32.8542L94.2298 33.1838L94.1202 32.9702L93.0609 33.7331L93.8036 32.8603H93.0609L91.6852 33.8429L90.3033 34.3861L92.3183 32.8603H91.259L91.2468 32.8542ZM137.847 34.8317L139.862 35.3749H139.759L137.847 34.8317ZM132.758 35.4725L133.397 36.5589L134.024 36.2293L133.811 35.796L132.758 35.4725ZM133.817 36.681V37.6514L134.779 37.7674L134.56 37.8711L134.237 38.1946L135.522 38.5303L136.356 38.1946L135.93 37.7674L134.98 37.0045L134.134 37.3157L134.877 37.0045L133.811 36.681H133.817ZM136.995 36.7786L136.672 37.2303L137.847 37.6575H137.945L137.415 36.8946L136.995 36.7847V36.7786ZM90.5102 36.8885L88.3918 37.5599L87.7526 37.7674L87.5395 37.9749H87.8622L87.7526 38.3106L89.0188 38.5303L89.865 37.9749L90.5102 38.4143L91.3443 37.6514H90.3946L90.1876 37.5599H89.9745L90.9242 37.0045L90.5102 36.8885ZM81.2997 37.1082L80.7701 37.6514L80.3379 38.2007V37.7735H80.4475L81.2997 37.1143V37.1082ZM79.1813 37.5599L78.9743 37.8711L78.122 38.9636V38.4204L78.8586 37.8772L79.1813 37.566V37.5599ZM76.107 38.0909H76.5332L76.0096 38.1946L75.9061 38.2312L76.107 38.0909ZM72.9232 38.75H73.7755L73.672 39.0796L73.2398 38.8599L72.3936 39.0796L72.8258 38.8599L72.9232 38.75ZM95.1673 38.75L93.901 38.9636L93.6941 39.4031L91.4599 39.6228L90.4007 40.166L90.8207 40.4956L89.9806 40.7092L89.658 41.7956H90.1937L89.3414 42.3449L89.658 42.6684H89.9806L90.0841 42.5524L90.4007 42.6684L90.5102 42.5524H90.9242L91.4538 42.1191L91.2468 40.9167L91.9835 40.3735H91.6669L92.6287 40.1538L92.5131 39.8242L92.8357 40.0317L93.2558 39.7204L92.9331 40.2697L93.5723 39.8303L93.7854 39.9402V39.397H94.522L95.1612 38.7439L95.1673 38.75ZM87.6369 38.8599L87.9596 39.2871L88.5987 39.0796L88.1665 39.7388L89.5423 40.1721L90.6016 38.8599H87.6308H87.6369ZM161.041 39.1895L161.358 39.5068H161.79L162.63 40.05L163.896 40.5932L164.967 40.819L166.24 41.3622L170.477 43.6449L169.418 42.8881L169.089 42.4486L168.352 42.3449L166.654 41.3622L165.911 40.7092L166.124 40.5932L165.059 40.3857L164 40.166L161.041 39.1895ZM153.845 39.9463L155.72 40.459L153.858 40.05V39.9524L153.845 39.9463ZM153.864 40.1172L154.059 40.819H153.943L153.864 40.1172ZM93.4627 40.166L93.0427 40.4956H93.688L92.8357 40.7092H93.3592L92.72 40.9289H93.2497L92.507 41.2524L93.0427 41.3622L92.507 41.6857L93.1462 41.582L92.4096 41.9115L93.1462 41.6918L91.8739 42.235L92.093 42.4547H92.4096L92.5009 42.351H93.3471L93.5601 41.9115L94.4124 41.8017L93.9923 42.235H93.9802L93.6758 42.5646H94.6194L94.5159 43.1078L94.9359 42.7843L95.1429 43.2238L95.4595 42.7843V43.2238L96.403 42.3571L96.19 43.1139L96.8353 42.4608L96.9326 43.3336L97.5718 43.0162L97.2553 43.5594L97.8945 43.6571L98.1015 43.3336V43.6571L98.6311 43.5594L98.3084 43.767L100.104 44.3101L99.4773 43.5533L100.214 43.8707L100.53 43.4374L100.421 43.9806L101.157 44.4139H101.803L102.424 43.9806L102.004 43.4374L102.643 43.651L102.953 42.235L102.643 41.9115L102.424 41.582L101.267 41.9115L102.217 41.2524L101.894 41.0388L101.267 41.2524L101.894 40.819L101.48 40.2759L101.151 40.5871L100.847 40.3796V40.9228L100.317 40.4895V41.2463L100.098 40.4895L99.4712 40.8129L99.9947 41.5759L99.5686 41.1242L99.2581 41.0266L99.5686 41.4599L99.3616 41.6796L99.039 41.4599V41.7834L99.3616 42.0031L100.208 42.4364L99.3616 42.113L99.252 42.5463L98.9416 42.0031L98.7224 41.4599L97.3527 41.8993L98.6189 41.3561L98.9416 40.9228L96.7135 41.466V41.2463L96.6039 41.7895L96.3909 41.466L95.8612 41.6857L96.5978 41.1303L96.4943 40.8129L95.5325 40.7031L95.8552 41.0327H95.3316L96.0682 41.2463H94.382L95.009 41.6796L93.9497 41.3561L95.2342 40.4834L94.0654 40.8068L93.4201 40.1538L93.4627 40.166ZM85.8472 40.3857L84.9949 41.3683L84.7818 41.9115L85.9567 41.4721L87.1134 41.3622L88.4892 41.582L88.9214 41.1303L88.2822 40.4895L85.8532 40.3796L85.8472 40.3857ZM65.6242 40.4956L65.5085 40.819L66.1477 40.5932L65.6181 40.819V40.9289L65.5024 40.819L65.405 40.9289H65.2955L65.192 41.0388L64.4432 41.4721L64.8754 41.1364L65.6181 40.4956H65.6242ZM156.055 40.5627L157.023 40.819L157.115 41.0388L156.908 40.819L156.061 40.5627H156.055ZM65.3076 40.5932L65.0946 40.9289L64.6745 41.1364L64.358 41.3683L62.8665 41.9115L64.2484 41.3683L64.4554 41.2585L64.985 40.7153L65.3076 40.5993V40.5932ZM85.2141 40.5932L84.2522 40.9289L83.6252 41.2524L83.8322 41.6857L82.9799 41.9054L82.8703 42.0092V42.2228L82.7668 42.3388L82.6573 42.5524V42.6684L82.5599 42.8881V43.004L82.4503 43.2116V43.3214L82.3407 43.4313L82.6573 43.3214L82.2433 43.8646V43.9745L82.1276 44.0904V44.304L82.7668 43.9745H83.1869L82.0302 44.6336L81.598 44.8411L81.9146 44.951H81.385V45.2806L80.6484 45.7261L79.9118 45.5003L80.3318 45.8299L79.4856 46.489L79.7048 46.5928L77.5802 47.9111L76.8314 47.7951L76.6245 48.2224L76.734 47.7951L75.8879 47.4595L74.8286 48.2224L74.6156 47.3618L75.0356 46.5867L73.5563 46.8125L73.2337 48.4482L73.9703 48.1186L73.118 48.8815L73.5563 48.7656L72.3875 49.5407L71.9675 50.3036L71.7605 49.974L71.2248 50.4074L69.6359 53.7886L72.1744 51.1764L71.6509 52.0431L72.1744 51.6097L70.7012 53.7886L72.3875 52.8182L71.6509 53.5811L72.7041 52.9036L73.1241 52.2628L73.3493 52.4764L73.9764 51.9332L73.5624 51.8233L74.1894 51.3839L73.6598 51.4938L75.1513 50.7308L74.7251 50.5111L75.687 50.0778V50.5111L76.5332 49.852V50.4074L75.7844 50.9506L76.3079 51.0543L75.5713 51.1703L76.3079 51.4938L75.2487 51.3839L74.092 52.8121L75.6809 52.1468L75.2426 52.69L76.0948 52.1468L75.9974 52.69L76.4114 52.0309V52.5802L76.8314 52.1468L77.0506 52.4703L77.4706 51.9271H76.8314L77.3671 51.7196L77.0567 51.3839H77.1541L77.6837 51.274L77.2637 50.9506L77.6837 51.0543L77.7933 50.6271V51.0543L78.5299 50.5111L78.2133 50.2975H78.1159L78.6455 49.9679L78.1159 50.0717L78.749 49.8459H78.329L78.8586 49.6384H78.536L79.1752 49.1989L79.0656 48.9914L79.3943 49.3088L79.9239 48.1125V48.7595L80.4049 48.3628L80.551 48.4421L80.764 47.9966L80.551 48.8754L80.9832 48.5398V47.5693L81.2876 48.4421L81.7137 48.3322L81.8172 48.2163L81.7137 48.1125V47.6731L81.1841 47.4595L81.7137 47.5754L82.0363 47.6731L81.8172 47.2458L82.566 47.6731L82.986 47.1299L82.4564 46.9163H83.0956L81.8172 46.8186L82.566 46.7088L82.4564 46.489L83.406 46.5928L82.779 46.1534L83.7226 46.3731L84.3679 45.7261L83.406 45.6102L84.5749 45.3965L83.7226 45.1829L84.4653 45.067V44.8411L85.1045 45.067L84.8975 44.5238L85.7437 44.6397L86.3768 43.8707L85.8532 43.651L85.3175 44.2003L85.6341 43.651L84.7818 44.0965L86.0541 43.3214L85.9628 43.2116L85.2201 43.1017H86.4924L88.1787 42.4486L87.9656 41.582L87.223 42.0153L87.5456 41.4721L86.9064 42.0153L87.3325 41.4721L85.7437 42.1313L86.2733 41.6918L86.048 41.4721L85.2141 42.0153L84.2522 42.1252L84.6783 42.0153L85.208 40.5932H85.2141ZM153.523 40.819H153.632L154.473 42.3449L154.771 42.3632L153.845 43.3214L154.046 43.4435L153.2 43.8646L149.822 43.6449L145.792 42.1252L149.499 43.4313L152.89 43.7608L154.375 42.6745L153.529 40.819H153.523ZM164.109 41.2585H164.535L165.162 41.6186L165.053 41.5881L164.852 41.4782L164.535 41.3683L164.316 41.2585L164.225 41.3683L164.109 41.2585ZM165.162 41.3683L165.698 41.9115L166.435 42.4547L168.023 43.767L168.45 43.9867L168.559 44.1026L168.827 44.304L168.34 44.1026L165.381 41.6979L165.199 41.6308L164.955 41.4782L165.381 41.6979L165.162 41.3744V41.3683ZM154.886 42.3754L155.952 42.4547L157.76 43.4374L159.775 45.836L160.189 47.2581L160.511 47.5876H161.047L160.767 47.8745L160.091 47.2581L159.775 45.836L156.81 43.0101L154.886 42.3754ZM169.941 42.5646L170.678 43.2238L171.201 43.6571L170.994 43.9867L173.539 45.6224L174.178 46.2876L174.385 46.3914L175.024 46.9346L175.231 47.0505L174.805 46.721V46.5012L173.965 45.8421L173.539 45.2928L172.151 44.3163L170.471 42.9003L169.941 42.5707V42.5646ZM175.231 47.0444L175.444 47.2642L175.651 47.374L175.858 47.5876L176.071 47.6853L175.122 46.7149L175.231 47.0444ZM167.494 42.6745L167.603 42.8942H167.597L167.494 42.6745ZM154.192 43.535L154.899 43.9806L154.789 44.5238V43.9806L154.192 43.535ZM94.8568 43.651L93.6941 44.6397L93.901 45.189L93.3653 45.4026V44.7313L93.1583 45.4026L93.0488 44.304L92.4218 45.1829L91.9895 44.8411L91.4599 45.2745L91.1494 45.8238L91.6852 45.4942L91.3625 46.0435L91.9895 46.3731L91.7826 47.0322L91.3625 47.3618L89.658 49.0891H88.9214L89.244 49.3088L87.4482 50.1877L86.6933 50.9506L86.4864 50.5111V50.8407L85.9202 51.0177L85.3297 50.9506L85.2201 51.7257L86.602 51.1703L85.7498 51.7257L85.9628 52.2628L85.3358 52.037L85.6402 52.4764L85.0132 52.3665L85.3358 52.5863L85.0132 52.4764V53.0257L84.9036 52.6961L84.0574 53.6726L84.3801 52.5863L83.9539 52.037L83.3147 53.2393L83.7469 54.0022H83.6374L82.3651 54.3318L82.4625 54.759L82.0424 54.875L82.2555 54.4478L81.4032 55.0947L81.391 54.991L80.7762 55.0947L80.5631 55.6379L80.4536 54.3318L80.344 54.991L80.2466 54.5515L79.2847 54.759L80.4536 55.2107L80.0335 55.0947L80.557 55.7539L79.1813 54.759L79.5039 55.7539L78.7551 54.991L78.6577 55.8576L78.1281 55.5342V56.0102L79.0717 56.1811V56.6206L77.1663 56.0835L77.5924 56.7304L76.8558 56.4069L76.4297 56.9501L77.3915 57.1821V57.4994L76.3323 57.0722L76.5453 57.2797L75.6992 57.6215L76.2227 57.8412L75.5835 57.7253L74.8469 58.2807H76.0157L76.5392 57.7253L75.6931 59.0436V58.7079L74.9504 58.3722L75.273 59.0375L74.7434 58.4821V58.9215H74.2138L74.4208 59.3609L73.9885 59.2511L74.2138 59.7943L73.8911 59.3609L73.9946 59.9041L73.258 60.2337H73.7877L72.9354 60.5572L72.838 61.2103L72.3023 61.3201L72.7223 61.552H72.1927L72.6249 61.6436L72.0953 61.7534L72.1927 62.0769L71.8701 61.8572L72.0892 62.2966L71.6631 62.0769L71.9796 62.7239L71.3404 63.2793L72.6188 64.0361H71.6631L72.2962 64.1521L71.5657 64.3718L72.0892 64.4877L71.5657 64.9211L72.1866 64.8173L71.2369 65.1286L72.0831 65.037L71.2369 65.5863L71.864 65.3605V66.1295L72.1866 65.1347L72.6188 65.8061L72.7162 65.1347L73.3554 65.2629L73.1485 64.8234L73.4589 65.2629V64.7075L73.9885 64.9272L73.8851 64.5854L74.3051 64.8173L74.2077 64.4938H74.8347L75.1513 63.6089L75.2608 64.0422L75.3582 63.2854L76.0035 63.8286L76.4175 63.1816V63.7248L76.734 63.0657L76.8436 63.499L76.941 63.1816L77.3793 63.4013V62.8459L77.5863 63.4013L78.1159 62.8459L77.9029 62.4126L78.4325 62.73L79.2726 61.6497L79.3821 62.0891L80.2283 61.6497L80.8553 62.199L82.0302 61.4361L82.1398 61.8633L81.391 62.083V62.4065L81.8172 61.9732L81.6102 62.3027L82.4503 62.5225L82.7668 62.083L83.0895 62.6384L85.3175 61.6497H86.0541L86.7907 60.783L86.4742 61.6497L87.1134 62.0891L87.5273 61.7657L87.4299 62.2051L89.2258 62.5286L92.2878 61.8694L91.2286 61.3262L91.0216 61.1065L90.3763 60.783H90.2728L90.1693 60.5633L89.9563 60.2398L91.2286 60.3375L90.1754 59.6783L91.4417 59.2511L91.6669 59.7943H92.4948L91.7582 58.7079L92.2878 58.8178V58.2746L92.9331 59.9102L92.4035 61.1065L93.2497 60.8868L92.8174 61.3262L93.2497 61.5581L93.4566 60.6793L94.1932 60.3375L93.7793 60.13L94.4063 60.014L93.7793 59.9102L94.3028 59.6783L94.0837 58.7079L93.4505 58.8178L93.8706 58.5919L93.4505 58.3783L94.1871 58.5919L94.2967 58.1586H93.4445L93.5419 57.6154L94.6072 57.8351L93.8645 57.2736L94.3941 57.3957V56.9562L94.5037 57.4994H95.2464L95.4534 56.7365L95.356 57.4994L95.7699 57.2736L96.19 57.8351L95.6603 57.3957L95.7699 58.1586L96.7196 58.3722L97.1457 57.9389L96.9387 57.3957L96.4091 57.8351L96.6222 57.2736L97.3649 56.7304L97.6814 57.4933L98.0041 57.176L97.7788 56.8464L98.3084 56.5168L97.8884 56.0835L98.418 56.4008L98.205 55.6379L98.625 56.5168L99.2642 55.8576L98.8381 55.3022L99.5868 55.4182H99.6842L99.1546 55.0886L99.4773 54.4417L100.323 54.7529L100.421 54.5454L100.64 54.4417L100.853 54.2158L100.95 53.9961L100.743 53.7764H101.176L101.383 53.575V53.3492L100.743 53.575L101.273 53.0196L102.539 52.4703L103.179 51.8172L103.501 51.5975H103.294L103.599 51.2679H103.818L104.031 51.1642L104.134 50.9445L104.244 50.8346L104.037 50.7247L104.353 50.8346L104.773 50.3952L105.096 50.1754L105.303 49.9618L105.187 49.7482L103.294 50.4013L105.297 49.0829L103.714 49.1989L104.767 48.8754L103.294 48.1125L104.031 47.9966L104.98 48.7595L106.149 48.6618L105.51 48.1125L106.149 47.8989L104.134 47.1238L104.98 47.0261L106.247 47.667L105.09 46.3609L103.927 46.8064L104.244 46.0374H103.605L103.72 46.6965L103.3 47.0261V46.0374L102.771 46.8064L102.661 46.4768L101.918 46.8064L102.545 45.5979L101.182 46.2632L101.602 45.5979H100.865L102.022 45.1707L101.285 44.7191L100.336 45.3904L101.072 44.835L100.963 44.7191L100.865 44.5116L99.599 44.835L99.806 44.5116L99.0633 44.7191L99.6964 44.3956L98.3206 44.0782L97.9006 44.2918L98.1076 44.7191H96.3117L96.1961 44.182L94.8324 43.6327L94.8568 43.651ZM78.122 56.0285H78.0916L78.122 56.1018V56.0285ZM78.0916 56.0163L77.915 55.6501L77.7202 55.9492L78.0977 56.0163H78.0916ZM77.7141 55.9492L77.2758 55.8698L77.6959 55.9858L77.7141 55.9431V55.9492ZM169.083 44.4139L169.137 44.5177L169.606 44.8472H169.515L169.18 44.5909L169.137 44.5177H169.131L169.083 44.4139ZM132.125 45.0731L132.667 45.5064L131.705 45.2867L133.927 46.2815L133.288 45.0731H132.119H132.125ZM129.471 45.5064L128.314 45.6163L129.58 46.8247L130.226 46.5989L130.11 45.836L129.471 45.5064ZM170.605 45.5369L170.885 45.7322L173.009 47.8012L173.654 48.3689L174.062 49.1013L173.539 48.3505L170.605 45.5369ZM130.962 45.6163L130.433 45.7322L130.755 45.9458L130.226 45.836L130.853 46.9285L132.021 46.721L132.344 45.9519L132.113 45.8421H131.808L131.169 45.6224H130.956L130.962 45.6163ZM139.217 46.3792L139.643 47.3679L140.069 47.6853L139.546 48.0149L140.495 48.2346L139.862 48.1308L139.759 48.2346L139.43 48.3505L139.327 48.1308V47.9172L138.645 47.8318L138.584 47.8074H138.371L139.327 47.6914L139.217 46.8308L138.693 46.721L139.217 46.3853V46.3792ZM130.323 46.5989L129.909 47.0444L130.536 47.1421L130.646 46.8247L130.329 46.5989H130.323ZM142.401 47.5876H142.51L143.576 48.8937H144.312L143.667 49.0097L144.105 49.8703L143.984 49.7726L142.401 47.5937V47.5876ZM160.95 48.021L161.997 49.2111L161.053 49.5468L161.893 49.2111L160.956 48.021H160.95ZM173.703 48.4177L174.385 49.0036L175.444 50.3097L173.709 48.4116L173.703 48.4177ZM56.2067 49.1013L56.3041 49.2172H56.5111L56.0971 49.6567H55.9876L55.4579 49.8642L56.2128 49.1013H56.2067ZM53.863 49.2172L54.6057 49.9862H54.6118L54.3926 50.3158L54.7883 50.1083L54.3926 50.4257H54.5022L54.9222 50.206L54.0821 51.5121H54.07L53.0229 52.3848L52.5907 53.1478L50.7888 54.4661L49.1999 57.4079L48.1407 58.6041L48.0311 58.7201L47.7206 59.0558L47.398 59.1473H47.3858L47.7084 58.3905L48.6642 57.2919L47.818 58.1769L46.4422 58.9459L46.2292 58.7262L47.5015 57.6337V57.0905L48.0311 56.9745L49.0903 56.114L50.1435 54.698L49.0903 55.1252L49.6199 54.698H49.3034L47.3919 56.0041L46.3448 56.6511H46.3326V56.3276H46.3448L48.2441 54.698L49.7295 53.813L49.9487 53.4773L50.8922 53.16H50.8983L50.4722 53.6971L50.6792 54.0266L50.0643 55.2046L50.6792 54.5698L51.0018 54.1304L51.3245 53.9229L51.7384 52.4947L52.3837 51.9515V51.6219L53.0107 51.1886L52.9133 50.4257L53.2238 50.0961L53.5464 49.8703L53.863 49.2172ZM124.497 50.4196L124.077 50.6393L124.284 50.7431L124.394 50.8529L124.497 51.0665V50.4196ZM124.497 51.1825L123.864 51.2862L124.394 51.6158L124.497 51.1825ZM122.062 51.2862L121.752 52.4886L122.379 51.7379L122.062 51.2862ZM114.234 53.1478V53.5994H113.704L113.911 54.1304H114.343L114.873 54.0205L114.343 54.4661L115.5 54.7773L116.346 53.8008L115.707 53.3736L115.177 53.6849L115.074 53.1478L114.97 53.8008L114.343 53.2576L114.234 53.1478ZM130.427 53.2576L130.22 54.4661L129.16 55.113V55.5525L128.631 57.1943L129.465 57.6276L129.258 58.3844H129.903L129.258 58.5004L129.051 59.1473L129.994 58.9398L129.69 59.5929L130.749 59.2633L130.104 58.7201H130.749L130.104 58.5004H130.634L130.104 58.0609L130.634 58.1769L129.994 57.5177H130.524L130.42 56.9745L130.311 56.114L131.273 54.0327L130.414 53.2698L130.427 53.2576ZM113.278 53.6849V55.1069L112.748 54.0144L112.529 54.6797L111.993 54.2342L112.529 53.9168L111.573 54.2342L111.993 55.9919L112.846 55.229V55.6562L113.168 55.3205L113.485 55.7722L112.109 56.1018L112.219 56.5351L113.278 56.3154L112.426 56.6389L112.955 56.9623L112.103 56.8647L112.639 57.5116L113.162 58.0548L114.008 55.7722L114.331 55.5525L114.861 55.3205L114.331 54.7773L113.801 54.2403L113.582 54.5698L113.272 53.691L113.278 53.6849ZM80.557 54.2342L81.3728 54.9971L81.2997 54.46L80.557 54.2342ZM141.232 54.6797L143.576 56.0957L143.874 56.413L143.35 56.3093H143.034L141.975 55.4304L142.395 56.0896L141.031 54.6858L141.226 54.6736L141.232 54.6797ZM144.525 54.7773L145.372 55.229L144.635 55.113L144.525 54.7773ZM174.811 54.7773L175.231 55.0093L174.811 54.7957V54.7773ZM175.341 55.1069L175.755 55.3144V55.3328L175.341 55.1069ZM114.867 55.5464L114.337 55.6501L114.641 55.9858L114.867 55.5464ZM115.287 55.9919L114.641 56.0957V56.9562L115.171 56.7365L115.287 57.2797L115.701 56.7365L115.287 55.9858V55.9919ZM53.9786 56.0957L53.5586 56.413L53.4429 56.529L53.3334 56.3093L53.656 56.1933L53.9786 56.0957ZM49.5225 57.2797V57.8412L49.206 58.1647L49.413 57.7253L49.5164 57.2858L49.5225 57.2797ZM46.0343 58.8239L45.6143 59.2572V58.9886L46.0343 58.8239ZM45.523 59.0131L45.2917 59.2572L45.4986 59.6844L45.1821 60.7891L45.3891 60.4595V60.6854L45.4986 61.2286L45.0786 61.5703L44.8594 61.2286L44.4333 60.5755L45.176 59.1473L45.5169 59.0253L45.523 59.0131ZM130.755 59.367L130.013 59.5868L129.483 59.9163L129.909 60.2459L129.483 60.6854L130.11 60.4595L129.793 61.8755L130.323 62.315L130.962 61.8755L131.912 62.7422L133.501 62.0952L131.382 61.1126L130.755 60.3436V59.3731V59.367ZM53.9786 61.0027L53.1264 61.7657L52.7063 62.0891L53.1264 61.6497L53.3395 61.3262L53.9786 60.9966V61.0027ZM134.347 62.2051L134.664 62.7361H134.773L135.619 62.8521L135.412 62.6445L135.297 62.4126H135.193L134.347 62.199V62.2051ZM142.608 63.8347V64.4938L141.762 64.8173L141.981 65.5863L142.821 67.1L144.525 68.4061L145.055 69.7366L148.641 70.5911L151.611 68.5281L154.059 67.7591L154.363 67.8629L152.251 68.4061L149.292 70.707L150.029 70.9206L150.99 72.0192L150.029 71.0427L144.945 69.7366L144.318 68.3145L142.827 67.1061L141.877 65.6901L141.768 64.8234L142.614 63.8408L142.608 63.8347ZM88.2822 66.0136L87.9656 66.9962L87.8622 66.2333L87.436 66.8924L87.1255 66.5568L87.0099 66.8924L86.5959 66.7765L87.9596 67.6432L87.2169 67.7591L87.5395 68.0948L86.1637 67.6432L87.1255 69.0652L85.8472 69.4009L86.8029 69.7366L87.2169 70.3774L87.6369 71.1465L89.0188 71.0427H90.6077L91.8739 70.3835L91.673 70.1577L92.2026 70.2737L92.1052 68.4122L92.7261 68.2047L91.9835 68.3206L91.8739 67.6554L91.3443 68.2108L90.5102 67.6554L90.0841 68.3206L90.1937 67.4479L89.451 67.8751L89.3414 67.4479L89.2319 67.222L88.0752 68.2047L88.7022 67.0023L88.2822 66.0197V66.0136ZM138.273 66.2333L138.48 66.3493L138.273 66.2394V66.2272V66.2333ZM138.693 66.7765L138.9 66.8924L138.693 66.7887V66.7765ZM139.114 67.3258L139.327 67.4417L139.114 67.3319V67.3258ZM154.46 67.9056L155.958 68.4122L156.378 68.3145L157.224 68.0948L159.994 68.4061L161.053 68.7479L159.239 68.4061L156.591 68.522H155.964L154.466 67.8995L154.46 67.9056ZM140.702 69.4009L140.928 69.4986V69.5169L140.702 69.4009ZM141.135 69.9502L141.342 70.054V70.0662L141.135 69.9502ZM172.06 71.2563L172.687 71.4638L172.79 72.2329L172.163 72.0131L172.066 71.2502L172.06 71.2563ZM194.291 71.6897L194.596 71.9155L194.821 72.4587L194.705 72.3427L194.511 72.123H194.498L194.291 71.6836V71.6897ZM124.814 75.2906L125.763 75.8338H125.234L125.459 76.7127L124.814 75.2906ZM124.4 75.9437L124.814 76.3892H124.284L124.394 75.9437H124.4ZM119.42 76.2794L121.216 78.0249L120.364 77.4817L120.467 78.2446L121.52 78.3423L121.423 77.6892L121.953 77.9151V78.7756L120.893 79.6484L121.423 79.7644L120.571 79.978L120.047 79.2151L120.686 79.4348L121.313 78.8855L119.938 78.0188L120.157 77.3658L119.42 76.2794ZM196.331 76.6639L196.617 77.1521L197.049 77.7991V77.4817L197.353 78.0249H197.049L196.617 77.1521L196.519 77.3719L196.197 77.7991L196.087 77.3719H196.404L196.513 77.262L196.404 77.0362V76.8226L196.325 76.6639H196.331ZM125.35 76.8226L126.403 77.2559L127.352 79.1052L127.048 79.6484L126.202 79.5569L126.731 79.2212L125.459 78.3423L124.929 77.3658L125.672 78.0188L125.24 77.1399L125.995 77.9151L126.305 77.5855L125.356 76.8226H125.35ZM118.781 77.146L118.988 78.1348L119.098 77.4817L119.512 77.7991L118.781 78.8916V79.8742L119.408 79.6484L119.195 80.4174L118.464 79.6484L118.884 78.3423L118.781 77.4756L118.355 77.2559L118.781 77.1399V77.146ZM119.195 77.2559L119.731 77.4756L119.524 77.793L119.201 77.2559H119.195ZM198.748 77.5855L200.336 80.8507L200.653 81.6137L201.183 82.1569L198.857 77.5794H198.748V77.5855ZM117.192 78.5681H118.038V79.0075L117.296 79.2212V79.8742L118.038 79.2212L117.527 80.0756L117.929 80.4174L117.515 80.0939L117.527 80.0756L117.296 79.8742V80.0939L117.192 78.5681ZM122.902 78.8916L124.808 80.3137L123.755 81.6198L122.166 79.7705L122.902 78.8916ZM103.854 79.1113L104.274 79.563L104.597 79.1113V79.447L103.958 79.9902L103.745 79.447H103.629L103.848 79.1113H103.854ZM93.3653 81.4L92.8418 82.5963L92.2148 82.3827L92.1052 83.5911L91.2529 84.0184L92.2148 84.2381L90.7233 86.2034L91.4599 85.5503L92.1052 85.0987L92.2148 85.6419L91.886 85.5442L91.046 87.0578L91.1494 87.4912L91.2529 87.1738L92.9514 87.3935L92.1052 88.0405L92.3061 88.8034L92.7383 88.5837L92.1052 89.5663L92.4218 90.0118L90.9303 89.902L90.1937 90.4513L90.9303 90.3353L90.8329 90.9945L89.1345 91.7574L90.7233 92.9536L91.886 92.5142L90.9303 93.3931L89.7737 93.0574L87.7526 94.4734L89.865 94.8091L90.2972 94.0339L93.6941 94.6931L95.2768 94.3696L95.3803 94.0339L94.315 93.7104L94.9603 93.5945L96.1169 92.3921L95.9099 91.5316L94.7533 91.2996H94.6437L94.9603 90.3292L94.8568 90.1095L94.3272 89.902L95.0698 90.0118L95.1733 89.3588L94.3333 88.3639L94.2237 86.1912L92.8479 85.4282L94.0167 85.5381L93.3714 85.2024L94.2237 85.0865L95.3986 83.5728L93.1644 83.2372L94.9664 81.8212L93.3714 81.3817L93.3653 81.4ZM189.208 81.7357L189.945 82.163L189.525 82.4925L189.318 82.5963L189.208 82.163V81.7357ZM27.8203 82.047L27.6072 82.2789L27.4976 82.5963L27.3881 82.8282L27.175 83.1456L26.761 84.5677L26.1219 86.2156L25.9088 87.1982L25.7018 87.6254L25.4948 87.7414L25.0626 90.2438L25.1783 90.5733L25.5922 88.6203L25.9088 88.0771L26.2314 86.6672L27.8203 82.0714V82.047ZM108.511 82.8221L109.351 82.9259L109.047 83.9207L107.665 84.3419L107.878 83.4691L108.511 83.585V82.8221ZM172.267 83.2494L173.113 83.9207H172.37L172.273 83.2494H172.267ZM116.456 83.5911L116.139 83.6949L116.456 84.0184L116.991 83.8048L116.456 83.5911ZM115.926 84.3419L116.133 85.2146V85.3245L117.192 84.3419H115.926ZM170.568 84.4578L170.471 85.4466L168.237 86.6489L168.03 88.2846L168.979 89.8165L167.713 89.0475L167.603 87.7414L167.823 86.655L170.258 85.3367L170.58 84.47L170.568 84.4578ZM113.485 85.3245L112.645 85.8677L112.748 86.7527L113.485 85.3245ZM88.8179 85.7639L87.7587 86.4109L88.3979 86.6428L87.7587 87.186L86.389 86.7527L86.602 87.5034L85.7558 87.9489L86.8151 88.602L85.4332 89.3771L86.5959 89.5846L84.8001 89.6945L85.3236 90.0301L84.5809 90.2316L85.3236 90.4696L84.5809 90.6771L85.3236 90.7809L84.8001 91.1104L86.6994 91.0067L88.4953 90.8907H88.5074L89.451 88.0527L90.5102 87.6132L90.4007 86.3071H89.244L89.7615 86.0996L89.451 85.7639L88.9214 86.3071L88.8118 85.7639H88.8179ZM104.487 86.0996L105.224 86.2095L104.591 86.417L104.7 86.9602L104.493 86.5329L103.97 86.8625L104.493 86.0996H104.487ZM107.227 87.9489L106.916 88.602L106.697 88.0588L105.857 88.3822L106.6 90.4696V89.6945L107.452 88.8217L107.227 87.9489ZM105.017 88.602L104.804 89.255L105.547 89.4748V88.6081H105.017V88.602ZM115.36 88.9132L115.512 90.1278H114.873L115.366 88.9132H115.36ZM108.292 90.555L107.762 90.7809L108.292 91.0067V90.555ZM141.019 91.2264L140.392 92.3128L140.587 93.2588L140.276 92.4104L141.013 91.2264H141.019ZM24.74 91.9771L24.533 92.9659L24.3199 93.4053L23.9973 94.4917L24.3199 92.5325L24.2104 92.6424L23.8999 93.7349V95.1447L23.4738 96.5668L23.6807 96.341L23.8999 96.2311L23.7903 98.4161L23.9973 98.1903L24.2104 96.3349L24.4295 96.5607V96.0175L24.6426 95.2546L24.8495 92.1968L24.7339 91.971L24.74 91.9771ZM140.617 93.3015L141.451 94.0522L140.812 94.4856V94.5954L140.599 97.2199L140.702 94.6015L140.812 93.8264L140.617 93.2893V93.3015ZM157.76 93.6128L157.644 95.0349L157.967 95.6879L159.349 96.1274L159.13 96.7743L159.02 98.1964L159.659 98.7457L158.813 99.5086L158.606 99.6307L158.076 99.1912L157.017 99.7405L156.049 98.0926L155.836 96.341L156.573 96.0236L156.153 95.3706L156.682 95.4804V95.1447L156.573 94.394H157.425L157.748 93.6189L157.76 93.6128ZM203.928 93.9424V95.6879L204.232 97.11L204.774 97.8729L204.884 97.6532L204.665 96.1274L204.147 94.2903L203.928 93.9485V93.9424ZM136.995 95.5781L136.782 95.694H136.575L136.258 95.7978L136.575 95.6879H136.782L136.995 95.5842V95.5781ZM149.706 97.0062L150.126 97.3236L150.443 99.2889L151.082 99.3988L149.176 100.052L149.067 101.047L149.913 101.37L148.525 101.596L148.641 102.139H149.383L150.443 103.653L152.238 103.763V104.849L153.304 106.375L152.89 104.849L153.529 104.306L155.325 105.618L154.588 106.717L153.425 106.283L153.62 107.693L154.272 108.468L153.949 108.011L154.686 107.797L155.209 108.462H154.582L154.789 109.213L155.112 108.767L155.739 109.311L157.017 112.704L154.795 114.016L151.191 113.473L150.132 111.496L150.449 110.519L150.242 109.091L151.088 108.462L149.925 108.346L146.954 105.728L146.327 103.757L146.218 104.41L144.854 102.896L144.952 100.821L146.327 100.278L146.431 98.8556L147.916 97.3175L149.718 97.0001L149.706 97.0062ZM21.6779 99.0753L21.5683 99.2828V99.5819L21.6779 99.1851V99.0692V99.0753ZM21.5683 99.588L21.544 99.6734L21.5683 99.6307V99.588ZM21.544 99.6673L21.4588 99.8321V99.9419L21.544 99.6673ZM21.4648 99.9481L21.4344 100.131L21.4648 100.064V99.9542V99.9481ZM21.4344 100.125L21.3553 100.278V100.503L21.4344 100.125ZM21.1483 101.907L21.0387 102.133L20.9413 102.341V102.56L20.7343 103.329V103.213L20.6309 104.3L20.7343 103.738V103.848L19.8821 108.56L19.7725 109.439V109.774L19.6751 110.421L19.7725 109.988L19.6751 110.958V111.184L19.596 111.258L19.5655 111.3V112.063L19.4559 112.283V113.272L19.3585 113.497V114.681L19.249 114.901V115.78L19.1516 116.537V118.612L19.042 118.728V124.618L19.0663 124.789L19.249 127.779V128.115L19.462 129.97L19.6812 132.583L19.9856 134.548L20.0951 134.761L20.2047 135.518L20.4117 136.068V135.634L20.0891 132.479L20.0099 131.868L20.0891 132.363L20.6248 136.391L20.7283 136.727L21.1483 137.929L21.3553 137.697L21.6779 138.796L21.8849 138.576L22.0736 139.015L21.6779 138.899L21.3553 137.813L21.0387 138.027L20.7283 136.714L20.6248 136.592L20.1986 135.726L20.0891 134.743L19.8821 134.639V134.2L19.6751 132.778V133.657L19.7725 133.98V134.529L19.8821 134.743V135.286L19.9795 135.616V136.165L20.0891 136.489V136.714L20.1986 137.038V137.593L20.296 137.813V138.137L20.4056 138.35V138.68L20.5091 139.009V139.553L20.6187 139.772V140.102L20.7222 140.322V140.657L20.8196 140.865V141.194L20.9352 141.512V141.744L21.0326 142.055V142.287L21.1422 142.598L21.2518 142.824V143.141L21.3492 143.367V143.691L21.4588 144.014L21.5683 144.234V144.563L21.6779 144.777L21.7875 145.107V145.32L21.8849 145.65L21.9945 145.863V146.205L22.0919 146.419V146.638L22.2075 146.852V147.188L22.311 147.408V147.621L22.4084 147.841V147.951L22.518 148.164V148.384L22.6215 148.61V148.823L22.7311 148.933V149.153L22.8467 149.385V149.586L22.938 149.696V149.916L23.0476 150.136V150.362L23.1511 150.477V150.685L23.2607 150.905V151.112L23.3703 151.24L23.4738 151.448V151.668L23.5833 151.881V151.991L23.6807 152.211V152.424L23.7903 152.656V152.754L23.9973 153.193V153.419L24.113 153.517V153.743L24.3138 154.182V154.28L24.4234 154.506V154.725L24.5208 154.927L24.6304 155.049V155.269L24.8374 155.696V155.812L24.9469 156.025V156.233L25.0444 156.355L25.16 156.575V156.776L25.2574 157.008L25.367 157.118V157.325L25.5801 157.777V157.887L25.787 158.32V158.43L26.1097 159.083V159.199L26.3167 159.626V159.748L26.5297 160.176V160.383L26.6332 160.499L26.8402 160.939V161.042L27.0654 161.482L27.1628 161.604V161.811L27.3759 162.245L27.4855 162.367V162.58L27.5951 162.806L27.6985 162.916L27.9055 163.349V163.465L28.1247 163.899L28.2221 164.015L28.3377 164.222V164.442L28.4351 164.668L28.5447 164.771L28.7578 165.211V165.315L28.9648 165.754L29.0743 165.858L29.2813 166.297V166.407L29.4944 166.847L29.604 166.956L29.817 167.402L29.9266 167.5V167.713L30.024 167.945L30.1336 168.043L30.3466 168.488L30.4562 168.592L30.6693 169.038L30.7789 169.135V169.239L31.1076 169.837L30.7789 169.288V169.355L30.8763 169.581L30.9858 169.685L31.0832 169.898L31.1928 170.008L31.3998 170.435L31.4668 170.509L31.6129 170.771L31.8077 171.076L31.7163 170.979L31.8259 171.223V171.113L32.039 171.43L32.5686 172.517L32.7756 172.736L33.1956 173.609L33.4209 173.823L33.7252 174.482L33.9505 174.695L34.0479 174.915L34.0601 174.927L34.0722 174.958L34.4801 175.458L34.261 175.135L34.4801 175.349L35.0158 176.02L35.1071 175.904L35.8498 176.783H35.9594L36.069 177.118L36.8056 177.979L36.5986 177.54L37.0186 177.765L36.696 177.118V176.026L36.2759 174.702L36.3733 174.378L34.7845 168.812L34.9002 168.598L35.2167 169.251H35.4298L36.3794 167.506L37.1343 166.303L37.0186 164.887L36.3733 162.379L35.9533 161.494L34.5775 160.078L33.1956 157.246L31.9294 154.738H31.8259L30.0179 152.766L29.1839 151.033L28.2221 151.124V150.258L28.4351 150.142L28.0151 149.818L28.3377 149.702L28.1247 148.506L27.8081 148.72L27.6985 147.957H27.5951L27.6985 147.737H27.4916L27.2785 146.968L27.1689 147.084V146.541L27.0715 146.651L26.4262 145.119L26.3227 145.332L25.8966 144.466L25.6896 145.119L25.8966 145.662L25.6896 145.564L25.5801 144.911L25.1661 145.461L25.2635 144.795L24.5208 144.032L25.4827 144.795L25.6896 143.709L24.5208 141.524L24.3078 142.397V141.756L24.1069 141.976V141.213L23.8877 141.53L23.9851 140.676L24.8374 140.224L24.7217 139.9L24.8374 139.473L24.4173 138.051L24.3078 134.56L24.1982 134.121L24.1069 134.56L23.8877 132.698L23.1389 129.525L21.8666 126.699L21.6597 124.093L21.4466 124.404L21.6597 123.318V121.902L21.4466 120.156V119.705L21.2457 119.161L21.4466 118.075V116.665L21.2457 116.006V115.573L21.3431 114.688L21.6657 115.243L21.1361 112.948V113.821L20.8135 113.058V111.093L20.7161 109.341L20.8135 108.151L20.9291 106.625L20.9718 106.32L20.9291 106.521V105.978L20.7343 105.569L21.0265 104.129L21.1361 104.33L21.3431 103.244H21.0265L21.1361 102.261L21.0265 102.591L21.1361 101.932L21.1483 101.907ZM20.9778 106.296L21.0326 106.045V105.917L20.9778 106.296ZM21.0387 105.917L21.1483 105.191L21.0387 105.734V105.917ZM34.0905 174.927L34.2792 175.318L34.3888 175.428L34.0905 174.927ZM34.3827 175.434L34.541 175.66L34.4923 175.556L34.3827 175.434ZM34.541 175.654L34.7053 175.989L34.9184 176.203L34.7053 175.873L34.541 175.654ZM34.9184 176.209L35.1193 176.655L35.2776 176.807L34.9184 176.209ZM35.2776 176.801L35.4419 177.088L35.3324 176.862L35.2837 176.801H35.2776ZM35.4419 177.088L35.5515 177.295L35.7037 177.448L35.4359 177.088H35.4419ZM35.7098 177.448L35.8011 177.576L35.7646 177.509L35.7098 177.448ZM35.8011 177.582L35.9716 177.949L36.1846 178.174L36.2942 178.376V178.284L35.8011 177.576V177.582ZM36.2942 178.376L36.3916 178.595L36.6169 178.827L36.3003 178.37L36.2942 178.376ZM30.791 169.257V169.209L30.6815 169.007L30.5719 168.891L30.7971 169.257H30.791ZM19.669 132.772L19.5594 132.009L19.5473 131.978L19.5594 132.125V132.564L19.669 132.772ZM19.5473 131.978L19.4499 130.599L19.3525 129.5V130.599L19.4499 130.825V131.685L19.5473 131.978ZM19.3525 129.5L19.2429 128.206V128.53L19.1577 127.602L19.1455 127.553L19.2429 128.64V129.183L19.3525 129.494V129.5ZM19.1516 127.602L19.1942 127.736L19.2368 128.206L19.2064 127.749L19.1942 127.688L19.1394 127.016V127.108L19.182 127.663L19.1394 127.444L19.1516 127.602ZM20.6248 136.379L20.4056 135.506V135.622L20.6248 136.379ZM19.596 111.251L19.6751 110.745V110.635L19.596 111.245V111.251ZM20.8257 103.226V103.287L20.7891 103.525L20.777 103.567L20.7648 103.58L20.8257 103.226ZM20.7039 105.679L20.5152 107.04L20.4117 107.583L20.3021 108.011V107.797L20.5152 106.375V106.155L20.7039 105.673V105.679ZM101.523 109.219L100.348 110.196L100.664 111.837L101.517 110.861V109.219H101.523ZM100.987 112.167L99.6112 112.6L99.5138 115.988L101.097 115.658L101.523 113.583L100.987 112.167ZM93.2558 113.375L92.0991 113.693L92.72 114.346L93.4566 113.803L93.2497 113.375H93.2558ZM118.574 116.744L118.044 116.964L120.053 118.386L119.731 117.288L118.574 116.744ZM108.615 117.947L104.487 118.16L104.694 118.929L107.659 120.559L108.609 117.947H108.615ZM133.817 120.998L130.962 122.408L132.021 123.183L133.403 122.298L133.087 121.865L133.823 120.998H133.817ZM119.195 122.53V123.19L120.79 123.501L122.695 123.409L122.902 122.854L122.166 123.293L119.189 122.53H119.195ZM206.996 127.102L206.04 128.866L206.357 129.952H206.996L207.416 131.038L207.733 130.831L207.958 132.467L208.165 132.778L208.275 132.894L208.475 134.859L208.695 135.402V135.622L208.804 135.067V134.859L208.902 134.2V134.316L209.224 130.379L209.334 129.732L209.224 130.282L209.121 130.922L209.224 130.056L209.121 130.282L209.224 129.067L209.017 129.726L209.127 127.865H209.017L208.908 129.067V128.097L208.81 128.53L208.372 127.761V128.53L208.074 127.981L207.964 127.871L207.422 128.097V127.553L207.002 127.102H206.996ZM195.886 136.714L195.655 136.928V137.038H196.093L195.771 137.154V137.697L195.984 139.668L195.771 139.455L196.191 140.663V140.767L196.3 140.981L196.617 142.177L197.463 140.981L197.774 139.235L197.037 137.606L195.88 136.727L195.886 136.714ZM22.1162 139.095L22.4145 139.772L22.5241 140.315V140.572L22.4145 140.315L22.3171 141.512V139.998L22.098 139.449L22.3171 139.876L22.1223 139.095H22.1162ZM22.6032 140.761L22.7311 140.962L22.938 141.066H22.7311L22.6032 140.761ZM88.8179 160.707L89.7737 161.592L89.451 163.008L89.3414 163.227L89.244 163.008L89.031 162.355L89.6519 161.689L88.8118 160.713L88.8179 160.707ZM146.425 161.586L146.218 161.701H145.786L145.579 161.793L145.786 161.683H146.218L146.425 161.586ZM80.4475 162.562L82.0363 164.857L82.1459 164.955L82.4503 163.215L82.0302 167.469V166.926L81.9207 166.816L80.8614 166.047L81.9207 166.706V166.163L82.0302 165.943V165.4L81.6102 165.29H82.0302L80.971 165.071L81.9207 164.955L80.8614 164.192L80.6544 163.325L79.4978 163.105L80.551 163.221L80.4414 162.562H80.4475ZM31.8442 171.217V171.29L31.9477 171.406L31.8442 171.217ZM111.366 176.209L110.63 180.237L111.799 178.18L114.337 177.094L114.654 176.868L118.166 176.661L114.337 177.411L113.168 177.637L111.689 178.504L111.799 179.694L108.097 182.544L107.982 183.741L107.872 182.544L110.514 180.237L111.36 176.209H111.366ZM118.464 176.655L121.959 178.602L118.27 176.655H118.464ZM159.982 187.659L159.02 188.532V189.502L158.174 190.283H157.644L157.76 190.936L157.328 191.052H157.322L156.822 192.09L156.901 191.693L156.165 192.352L156.378 192.67L155.848 192.896L156.061 192.468L155.325 193.012L155.215 193.561L154.795 193.323L152.257 194.647L151.197 196.167L151.502 198.462L149.712 200.189L149.085 201.178L149.499 203.363H150.668L153.736 202.051L158.819 194.531L159.142 193.555L159.781 192.889V191.577L160.097 191.364L160.402 191.803L160.938 191.046L160.621 188.642L159.775 188.098L159.994 187.659H159.988H159.982ZM137.105 190.283L137.841 190.827L138.474 192.468L137.945 193.561L138.572 195.624L137.512 195.508L136.885 193.561L137.415 192.78L136.983 190.93L136.885 190.595H136.983L137.092 190.277L137.105 190.283Z" fill="#7096F2"></path></g><path d="M21.6292 125.521C22.0371 124.886 22.2806 124.129 22.2806 123.318C22.2806 121.078 20.4665 119.259 18.2323 119.259C15.9982 119.259 14.1841 121.078 14.1841 123.318C14.1841 124.129 14.4276 124.886 14.8355 125.521L14.872 125.582C14.872 125.582 14.872 125.582 14.872 125.588L17.7149 129.934C17.9584 130.306 18.5002 130.306 18.7437 129.934L21.5805 125.594C21.5805 125.594 21.5927 125.576 21.5988 125.564L21.6292 125.515V125.521Z" fill="#7096F2"></path><path d="M35.3445 157.985C35.7524 157.35 35.9959 156.593 35.9959 155.781C35.9959 153.541 34.1818 151.723 31.9477 151.723C29.7135 151.723 27.8994 153.541 27.8994 155.781C27.8994 156.593 28.1429 157.35 28.5508 157.985L28.5873 158.046C28.5873 158.046 28.5873 158.046 28.5873 158.052L31.4302 162.397C31.6737 162.77 32.2155 162.77 32.459 162.397L35.2958 158.058C35.2958 158.058 35.308 158.039 35.3141 158.027L35.3445 157.978V157.985Z" fill="#7096F2"></path><path d="M104.92 175.715C105.327 175.08 105.571 174.323 105.571 173.511C105.571 171.271 103.757 169.453 101.523 169.453C99.2885 169.453 97.4744 171.271 97.4744 173.511C97.4744 174.323 97.7179 175.08 98.1258 175.715L98.1623 175.776C98.1623 175.776 98.1623 175.776 98.1623 175.782L101.005 180.127C101.249 180.5 101.791 180.5 102.034 180.127L104.871 175.788C104.871 175.788 104.883 175.77 104.889 175.757L104.92 175.709V175.715Z" fill="#7096F2"></path><path d="M80.1552 56.1323C80.4048 55.7478 80.5509 55.29 80.5509 54.7956C80.5509 53.4346 79.4491 52.3299 78.0915 52.3299C76.734 52.3299 75.6321 53.4346 75.6321 54.7956C75.6321 55.29 75.7782 55.7478 76.0278 56.1323L76.0522 56.1689L77.7811 58.8116C77.9272 59.0375 78.2559 59.0375 78.4081 58.8116L80.1309 56.175C80.1309 56.175 80.137 56.1628 80.143 56.1567L80.1613 56.1262L80.1552 56.1323Z" fill="#7096F2"></path><path d="M196.623 70.2188C196.873 69.8342 197.019 69.3765 197.019 68.8821C197.019 67.5211 195.917 66.4164 194.559 66.4164C193.202 66.4164 192.1 67.5211 192.1 68.8821C192.1 69.3765 192.246 69.8342 192.496 70.2188L192.52 70.2554L194.249 72.8981C194.395 73.1239 194.724 73.1239 194.876 72.8981L196.599 70.2615C196.599 70.2615 196.605 70.2493 196.611 70.2432L196.629 70.2127L196.623 70.2188Z" fill="#7096F2"></path><path d="M146.912 29.949C147.161 29.5645 147.307 29.1067 147.307 28.6124C147.307 27.2513 146.206 26.1466 144.848 26.1466C143.49 26.1466 142.389 27.2513 142.389 28.6124C142.389 29.1067 142.535 29.5645 142.784 29.949L142.809 29.9856L144.538 32.6284C144.684 32.8542 145.012 32.8542 145.165 32.6284L146.887 29.9917C146.887 29.9917 146.893 29.9795 146.9 29.9734L146.918 29.9429L146.912 29.949Z" fill="#7096F2"></path><path d="M200.811 100.979C201.061 100.595 201.207 100.137 201.207 99.6429C201.207 98.2818 200.105 97.1771 198.747 97.1771C197.39 97.1771 196.288 98.2818 196.288 99.6429C196.288 100.137 196.434 100.595 196.684 100.979L196.708 101.016L198.437 103.659C198.583 103.885 198.912 103.885 199.064 103.659L200.787 101.022C200.787 101.022 200.793 101.01 200.799 101.004L200.817 100.973L200.811 100.979Z" fill="#7096F2"></path><path d="M134.408 128.371C134.657 127.987 134.804 127.529 134.804 127.035C134.804 125.674 133.702 124.569 132.344 124.569C130.987 124.569 129.885 125.674 129.885 127.035C129.885 127.529 130.031 127.987 130.28 128.371L130.305 128.408L132.034 131.051C132.18 131.276 132.509 131.276 132.661 131.051L134.383 128.414C134.383 128.414 134.39 128.402 134.396 128.396L134.414 128.365L134.408 128.371Z" fill="#7096F2"></path><path d="M111.421 201.648C111.671 201.263 111.817 200.805 111.817 200.311C111.817 198.95 110.715 197.845 109.357 197.845C108 197.845 106.898 198.95 106.898 200.311C106.898 200.805 107.044 201.263 107.294 201.648L107.318 201.684L109.047 204.327C109.193 204.553 109.522 204.553 109.674 204.327L111.397 201.69C111.397 201.69 111.403 201.678 111.409 201.672L111.427 201.642L111.421 201.648Z" fill="#7096F2"></path><path d="M62.7387 142.641C62.9882 142.256 63.1343 141.799 63.1343 141.304C63.1343 139.943 62.0325 138.838 60.675 138.838C59.3174 138.838 58.2156 139.943 58.2156 141.304C58.2156 141.799 58.3617 142.256 58.6113 142.641L58.6356 142.677L60.3645 145.32C60.5106 145.546 60.8393 145.546 60.9915 145.32L62.7143 142.684C62.7143 142.684 62.7204 142.671 62.7265 142.665L62.7447 142.635L62.7387 142.641Z" fill="#7096F2"></path><path d="M208.287 145.143C208.695 144.508 208.938 143.752 208.938 142.94C208.938 140.7 207.124 138.881 204.89 138.881C202.656 138.881 200.842 140.7 200.842 142.94C200.842 143.752 201.085 144.508 201.493 145.143L201.53 145.204C201.53 145.204 201.53 145.204 201.53 145.21L204.372 149.556C204.616 149.928 205.158 149.928 205.401 149.556L208.238 145.216C208.238 145.216 208.25 145.198 208.256 145.186L208.287 145.137V145.143Z" fill="#7096F2"></path><path d="M148.348 91.8978C148.756 91.263 149 90.5062 149 89.6945C149 87.4545 147.186 85.6357 144.952 85.6357C142.717 85.6357 140.903 87.4545 140.903 89.6945C140.903 90.5062 141.147 91.263 141.555 91.8978L141.591 91.9588C141.591 91.9588 141.591 91.9588 141.591 91.9649L144.434 96.3105C144.678 96.6828 145.219 96.6828 145.463 96.3105L148.3 91.971C148.3 91.971 148.312 91.9527 148.318 91.9405L148.348 91.8916V91.8978Z" fill="#7096F2"></path><path d="M175.462 44.8167C175.87 44.182 176.114 43.4251 176.114 42.6134C176.114 40.3735 174.3 38.5547 172.066 38.5547C169.831 38.5547 168.017 40.3735 168.017 42.6134C168.017 43.4251 168.261 44.182 168.669 44.8167L168.705 44.8777C168.705 44.8777 168.705 44.8777 168.705 44.8838L171.548 49.2294C171.792 49.6017 172.333 49.6017 172.577 49.2294L175.414 44.8899C175.414 44.8899 175.426 44.8716 175.432 44.8594L175.462 44.8106V44.8167Z" fill="#7096F2"></path><path d="M90.2485 25.5668C90.6563 24.9321 90.8998 24.1753 90.8998 23.3635C90.8998 21.1236 89.0857 19.3048 86.8516 19.3048C84.6174 19.3048 82.8033 21.1236 82.8033 23.3635C82.8033 24.1753 83.0468 24.9321 83.4547 25.5668L83.4912 25.6279C83.4912 25.6279 83.4912 25.6279 83.4912 25.634L86.3341 29.9795C86.5776 30.3518 87.1194 30.3518 87.3629 29.9795L90.1998 25.6401C90.1998 25.6401 90.2119 25.6218 90.218 25.6095L90.2485 25.5607V25.5668Z" fill="#7096F2"></path><path d="M58.2704 43.6205C58.6782 42.9857 58.9217 42.2289 58.9217 41.4172C58.9217 39.1773 57.1076 37.3585 54.8735 37.3585C52.6394 37.3585 50.8253 39.1773 50.8253 41.4172C50.8253 42.2289 51.0688 42.9857 51.4766 43.6205L51.5132 43.6815C51.5132 43.6815 51.5132 43.6815 51.5132 43.6876L54.3561 48.0332C54.5996 48.4055 55.1414 48.4055 55.3849 48.0332L58.2217 43.6937C58.2217 43.6937 58.2338 43.6754 58.2399 43.6632L58.2704 43.6144V43.6205Z" fill="#7096F2"></path><path d="M86.8333 29.6622C86.8333 29.3021 86.8394 28.942 86.8516 28.5819" stroke="#7096F2" stroke-width="0.94" stroke-miterlimit="10"></path><path d="M87.0159 26.3908C88.6352 11.7062 101.054 0.286865 116.133 0.286865C131.212 0.286865 144.245 12.2799 145.353 27.4833" stroke="#7096F2" stroke-width="0.94" stroke-miterlimit="10"></path><path d="M145.414 28.588C145.426 28.9481 145.432 29.3082 145.432 29.6683" stroke="#7096F2" stroke-width="0.94" stroke-miterlimit="10"></path><path d="M194.431 73.2277C209.072 73.2277 226.714 86.5024 226.714 103.83C226.714 130.208 192.447 141.506 176.114 141.506C111.117 141.506 44.4455 73.0629 22.9441 67.3258C8.25478 63.4013 0.286133 73.069 0.286133 89.0353C0.286133 106.241 14.178 123.312 14.178 123.312" stroke="#7096F2" stroke-width="0.94" stroke-miterlimit="10"></path><path d="M101.115 172.431C94.2602 184.034 79.3213 187.873 67.7427 181C56.1702 174.128 52.3411 159.15 59.1957 147.542" stroke="#7096F2" stroke-width="0.94" stroke-miterlimit="10"></path><path d="M78.402 58.8116C78.402 58.8116 112.748 24.1264 171.548 49.2294" stroke="#7096F2" stroke-width="0.94" stroke-miterlimit="10"></path><path d="M144.763 96.1579C144.763 95.8039 144.763 95.456 144.781 95.1142" stroke="#7096F2" stroke-width="0.94" stroke-miterlimit="10"></path><path d="M144.921 93.0147C146.394 78.5925 158.003 69.523 172.06 71.2563C186.11 72.9897 197.987 86.2156 198.985 101.565" stroke="#7096F2" stroke-width="0.94" stroke-miterlimit="10"></path><path d="M199.04 102.615C199.052 102.963 199.058 103.311 199.058 103.659" stroke="#7096F2" stroke-width="0.94" stroke-miterlimit="10"></path></svg> 