<svg width="101" height="101" viewBox="0 0 101 101" fill="none" xmlns="http://www.w3.org/2000/svg">
<g clip-path="url(#clip0_446_4145)">
<path d="M13.2486 3.85645L12.4473 4.15444" stroke="#2F80ED" stroke-width="1.04895" stroke-miterlimit="10"/>
<path d="M42.207 26.5455V46.6767C42.207 47.3452 41.8825 47.9025 41.4056 48.2472C40.8136 48.6773 39.9879 48.7787 39.2628 48.3632L8.542 30.7528C7.47628 30.1407 6.81934 29.0116 6.81934 27.789V7.60311C6.81934 6.62538 7.52334 5.89249 8.37332 5.72336C8.80804 5.63477 9.28005 5.69437 9.71477 5.94403L11.5737 7.01035L13.3012 7.99935L40.4843 23.5834C41.5516 24.1938 42.207 25.323 42.207 26.5455Z" stroke="#2F80ED" stroke-width="1.04895" stroke-miterlimit="10"/>
<path d="M14.4677 4.09814L45.2389 21.7375C46.3046 22.348 46.9615 23.4771 46.9615 24.6996V44.8308C46.9599 45.5637 46.569 46.1629 46.0175 46.4947L45.3492 46.7492L41.4059 48.2472C41.899 47.9734 42.2072 47.3452 42.2072 46.6767V26.5456C42.2072 25.323 41.5519 24.1939 40.4845 23.5834L13.3015 7.99938L11.5739 7.01038L9.715 5.94407C9.28028 5.6944 8.80827 5.6348 8.37355 5.72339L8.32812 5.68312L12.4466 4.15452" stroke="#2F80ED" stroke-width="1.04895" stroke-miterlimit="10"/>
<path d="M38.8225 30.0827L38.2824 26.5391L28.4411 35.5593L20.1149 20.2024L14.8155 28.3641L12.4473 22.9954" stroke="#2F80ED" stroke-width="1.04895" stroke-miterlimit="10"/>
<path d="M34.7676 26.2233H38.5114" stroke="#2F80ED" stroke-width="1.04895" stroke-miterlimit="10"/>
<path d="M13.0361 3.93544L13.5357 3.75503C13.599 3.73248 13.6704 3.7357 13.732 3.7647L14.5658 4.1545" stroke="#2F80ED" stroke-width="1.04895" stroke-miterlimit="10"/>
<path d="M70.3423 39.4508C70.3423 40.9681 69.3334 42.4871 67.3123 43.6452C63.2733 45.9631 56.7216 45.9631 52.6793 43.6452C50.7993 42.566 49.7936 41.1743 49.6639 39.7633C49.5146 38.1429 50.5203 36.4935 52.6793 35.2564C53.5374 34.7651 54.5091 34.377 55.5456 34.0951V40.0774C55.4823 40.7394 55.8911 41.4127 56.7735 41.9185C58.4183 42.8624 61.0851 42.8624 62.7315 41.9185C63.5539 41.4465 63.9643 40.828 63.9643 40.2111H63.9708V33.9727C65.1857 34.261 66.3244 34.6894 67.3123 35.2564C69.3334 36.4146 70.3423 37.9335 70.3423 39.4508Z" stroke="#2F80ED" stroke-width="1.04895" stroke-miterlimit="10"/>
<path d="M65.3228 55.9692L60.6285 57.8393L70.3546 63.4157V63.4286L60.6674 57.8924L60.6285 79.1286L60.7307 79.1914C57.8434 79.309 54.8863 78.7339 52.6786 77.4679C50.5115 76.226 49.5074 74.5717 49.6631 72.9465V39.7634C49.7929 41.1744 50.7986 42.5661 52.6786 43.6453C56.7209 45.9632 63.2725 45.9632 67.3115 43.6453C69.3327 42.4872 70.3416 40.9683 70.3416 39.4509H70.3546V51.2932L70.1713 51.6379C69.1218 53.6062 67.404 55.1396 65.3228 55.9692Z" stroke="#2F80ED" stroke-width="1.04895" stroke-linecap="round" stroke-linejoin="round"/>
<path d="M63.9635 3.48284C63.9635 4.10137 63.5531 4.7199 62.7307 5.19185C61.0859 6.13413 58.4176 6.13413 56.7728 5.19185C56.0071 4.75211 55.5967 4.18513 55.5448 3.6117C55.4848 2.95129 55.8936 2.27961 56.7728 1.77544C58.4176 0.833153 61.0859 0.833153 62.7307 1.77544C63.5531 2.24739 63.9635 2.86592 63.9635 3.48284Z" stroke="#2F80ED" stroke-width="1.04895" stroke-miterlimit="10"/>
<path d="M63.9706 3.48279V40.2111H63.9641C63.9641 40.828 63.5537 41.4466 62.7313 41.9185C61.0849 42.8624 58.4182 42.8624 56.7734 41.9185C55.8909 41.4128 55.4822 40.7395 55.5454 40.0774V3.61165C55.5973 4.18508 56.0077 4.75206 56.7734 5.19179C58.4182 6.13408 61.0865 6.13408 62.7313 5.19179C63.5537 4.71984 63.9641 4.10132 63.9641 3.48279H63.9706Z" stroke="#2F80ED" stroke-width="1.04895" stroke-miterlimit="10"/>
<path d="M88.6755 61.175L88.3689 82.5384L76.7012 89.0185L77.0078 67.6551L77.2722 67.5085L88.6755 61.175Z" stroke="#2F80ED" stroke-width="1.04895" stroke-linecap="round" stroke-linejoin="round"/>
<path d="M88.6749 60.9657L77.2748 67.3829L70.355 63.4156L60.6289 57.8392L65.3233 55.9691C67.4044 55.1396 69.1222 53.6061 70.1717 51.6378L70.355 51.2931L70.694 50.6569L88.6749 60.9657Z" stroke="#2F80ED" stroke-width="1.04895" stroke-linecap="round" stroke-linejoin="round"/>
<path d="M77.2748 67.383L77.2716 67.5086L77.0072 67.6552L76.7006 89.0186L60.7311 79.1914L60.6289 79.1286L60.6678 57.8925L70.355 63.4286L77.2748 67.383Z" stroke="#2F80ED" stroke-width="1.04895" stroke-linecap="round" stroke-linejoin="round"/>
<path d="M77.2722 67.5085L76.7012 89.0185L77.0078 67.6551L77.2722 67.5085Z" stroke="#2F80ED" stroke-width="1.04895" stroke-linecap="round" stroke-linejoin="round"/>
<path d="M33.2532 70.6624L22.1224 64.2806C21.2951 63.8054 21.2951 62.6199 22.1224 62.1447L29.0228 58.1887C29.7835 57.7522 30.7211 57.7522 31.4819 58.1887L42.5592 64.5399C43.4108 65.028 43.4108 66.2489 42.5592 66.737L35.7139 70.6624C34.9532 71.0989 34.0156 71.0989 33.2548 70.6624H33.2532Z" stroke="#2F80ED" stroke-width="1.04895" stroke-miterlimit="10"/>
<path d="M49.6638 60.877L31.7218 50.8501C31.2514 50.5875 30.6756 50.594 30.2117 50.8678L8.18525 63.8907C7.2055 64.4706 7.20388 65.8784 8.18038 66.4599L63.716 99.5479C64.5871 100.067 65.6755 100.059 66.5385 99.527L94.0703 82.5851C94.8829 82.0842 94.8781 80.9083 94.0605 80.4154L88.4367 77.0184" stroke="#2F80ED" stroke-width="1.04895" stroke-miterlimit="10"/>
</g>
<defs>
<clipPath id="clip0_446_4145">
<rect width="100" height="99.3007" fill="white" transform="translate(0.748047 0.849609)"/>
</clipPath>
</defs>
</svg>
