<svg width="101" height="101" viewBox="0 0 101 101" fill="none" xmlns="http://www.w3.org/2000/svg">
<g clip-path="url(#clip0_446_4381)">
<path d="M11.916 45.996L23.438 52.6487V39.3446L11.916 32.6919V45.996Z" stroke="#2F80ED" stroke-width="0.731707" stroke-linecap="round" stroke-linejoin="round"/>
<path d="M11.916 32.692L23.4367 39.3447L34.9586 32.692L23.4367 26.0393L11.916 32.692Z" stroke="#2F80ED" stroke-width="0.731707" stroke-linecap="round" stroke-linejoin="round"/>
<path d="M23.4388 52.6487L34.9607 45.996L34.9594 32.6919L23.4375 39.3446L23.4388 52.6487Z" stroke="#2F80ED" stroke-width="0.731707" stroke-linecap="round" stroke-linejoin="round"/>
<path d="M35.5664 58.4312L47.0896 65.0826V51.7785L35.5677 45.1271L35.5664 58.4312Z" stroke="#2F80ED" stroke-width="0.731707" stroke-linecap="round" stroke-linejoin="round"/>
<path d="M35.5674 45.1271L47.0893 51.7798L58.6113 45.1271L47.0893 38.4744L35.5674 45.1271Z" stroke="#2F80ED" stroke-width="0.731707" stroke-linecap="round" stroke-linejoin="round"/>
<path d="M47.0898 65.0826L58.6118 58.4312V45.1271L47.0898 51.7785V65.0826Z" stroke="#2F80ED" stroke-width="0.731707" stroke-linecap="round" stroke-linejoin="round"/>
<path d="M60.7734 72.9157L72.2954 79.5671V66.263L60.7734 59.6116V72.9157Z" stroke="#2F80ED" stroke-width="0.731707" stroke-linecap="round" stroke-linejoin="round"/>
<path d="M60.7754 59.6116L72.296 66.2643L83.818 59.6116L72.296 52.9589L60.7754 59.6116Z" stroke="#2F80ED" stroke-width="0.731707" stroke-linecap="round" stroke-linejoin="round"/>
<path d="M72.2972 79.5671L83.8191 72.9157L83.8178 59.6116L72.2959 66.263L72.2972 79.5671Z" stroke="#2F80ED" stroke-width="0.731707" stroke-linecap="round" stroke-linejoin="round"/>
<path d="M34.96 36.0631L43.1212 40.765" stroke="#2F80ED" stroke-width="0.731707" stroke-linecap="round" stroke-linejoin="round"/>
<path d="M58.6113 49.5527L68.246 55.2962" stroke="#2F80ED" stroke-width="0.731707" stroke-linecap="round" stroke-linejoin="round"/>
<path d="M83.8193 65.0826L95.8731 71.9597C98.2039 73.2892 99.6424 75.7666 99.6424 78.4503V78.5073C99.6424 79.9627 98.8745 81.3103 97.6228 82.0522L76.295 94.691V90.5079C76.295 87.8554 74.8708 85.4065 72.5659 84.0951L4.69629 45.4889L11.9158 41.0789" stroke="#2F80ED" stroke-width="0.731707" stroke-linecap="round" stroke-linejoin="round"/>
<path d="M4.69585 45.4877L3.70099 46.4151C2.01997 47.9833 1.69311 50.5255 2.92015 52.4698L3.26257 53.0133C3.69191 53.6943 4.27948 54.2611 4.97342 54.6684L73.9585 95.1229C75.31 94.8726 76.2893 93.691 76.2842 92.3161L76.2751 90.0008" stroke="#2F80ED" stroke-width="0.731707" stroke-linecap="round" stroke-linejoin="round"/>
<path d="M62.5642 85.4243C63.2212 85.045 63.2215 83.8156 62.565 82.6785C61.9085 81.5413 60.8436 80.9269 60.1867 81.3062C59.5297 81.6855 59.5293 82.9149 60.1858 84.0521C60.8424 85.1892 61.9072 85.8036 62.5642 85.4243Z" stroke="#2F80ED" stroke-width="0.731707" stroke-linecap="round" stroke-linejoin="round"/>
<path d="M36.7013 69.8493C37.3583 69.47 37.3831 68.2829 36.7566 67.1979C36.1302 66.1128 35.0897 65.5407 34.4327 65.92C33.7758 66.2993 33.751 67.4864 34.3775 68.5715C35.0039 69.6565 36.0443 70.2286 36.7013 69.8493Z" stroke="#2F80ED" stroke-width="0.731707" stroke-linecap="round" stroke-linejoin="round"/>
<path d="M12.1164 55.8258C12.7734 55.4464 12.7981 54.2594 12.1717 53.1743C11.5452 52.0893 10.5048 51.5171 9.84778 51.8964C9.19079 52.2758 9.16604 53.4629 9.7925 54.5479C10.419 55.633 11.4594 56.2051 12.1164 55.8258Z" stroke="#2F80ED" stroke-width="0.731707" stroke-linecap="round" stroke-linejoin="round"/>
<path d="M10.6182 57.9784V70.3058" stroke="#2F80ED" stroke-width="0.731707" stroke-linecap="round" stroke-linejoin="round"/>
<path d="M62.2861 88.3976V100.725" stroke="#2F80ED" stroke-width="0.731707" stroke-linecap="round" stroke-linejoin="round"/>
<path d="M53.0508 20.9441C53.0508 27.6806 57.7793 35.872 63.6144 39.2397C69.4483 42.6074 74.178 39.8766 74.178 33.14C74.178 26.4034 69.4495 18.2121 63.6144 14.8444C57.7805 11.4767 53.0508 14.2075 53.0508 20.9441Z" stroke="#2F80ED" stroke-width="0.823665" stroke-linecap="round" stroke-linejoin="round"/>
<path d="M63.6151 10.4745C61.6425 9.33584 59.7628 8.71041 58.0515 8.55577C57.3584 8.49163 56.6929 8.50537 56.0606 8.59472C55.5177 8.66917 54.9976 8.79976 54.5062 8.98304L53.0503 9.73333C50.7009 11.3267 49.2656 14.4355 49.2656 18.7597C49.2656 27.9098 55.6895 39.0358 63.6139 43.6109C67.6987 45.9683 71.3848 46.1252 73.9977 44.47C74.4879 44.1607 74.9404 43.7862 75.3505 43.3509C75.9198 42.7472 76.4078 42.0255 76.8018 41.1928C77.5487 39.6189 77.9622 37.6475 77.9622 35.3256C77.9633 26.1755 71.5395 15.0495 63.6151 10.4745Z" stroke="#2F80ED" stroke-width="0.823665" stroke-linecap="round" stroke-linejoin="round"/>
<path d="M54.5057 8.98303L53.0498 9.73332C53.5023 9.42633 53.9891 9.17547 54.5057 8.98303Z" stroke="#2F80ED" stroke-width="0.823665" stroke-linecap="round" stroke-linejoin="round"/>
<path d="M63.6133 39.2398V37.2627" stroke="#2F80ED" stroke-width="0.823665" stroke-linecap="round" stroke-linejoin="round"/>
<path d="M63.6143 14.8445V16.5673" stroke="#2F80ED" stroke-width="0.823665" stroke-linecap="round" stroke-linejoin="round"/>
<path d="M53.0508 20.9441L55.0348 21.9899" stroke="#2F80ED" stroke-width="0.823665" stroke-linecap="round" stroke-linejoin="round"/>
<path d="M74.171 32.754L72.0049 31.6796" stroke="#2F80ED" stroke-width="0.823665" stroke-linecap="round" stroke-linejoin="round"/>
<path d="M63.6133 20.6979L63.6144 28.4047L68.6454 27.0427" stroke="#2F80ED" stroke-width="0.823665" stroke-linecap="round" stroke-linejoin="round"/>
<path d="M77.7317 15.7264L76.5072 16.7654L75.6515 17.4916C75.3468 17.7505 74.9745 17.8765 74.6034 17.8765C74.1372 17.8765 73.6733 17.676 73.3526 17.2865C72.8497 16.6794 72.8978 15.7883 73.4614 15.2373L74.5473 14.1766L75.34 13.4022C75.2243 13.5786 75.1956 13.8318 75.2758 14.1376C75.4682 14.8684 76.2162 15.6222 76.9448 15.8203C77.2804 15.912 77.5542 15.8696 77.7317 15.7264Z" stroke="#2F80ED" stroke-width="0.823665" stroke-linecap="round" stroke-linejoin="round"/>
<path d="M82.1451 33.1859C82.144 36.9786 81.0409 39.8365 79.1841 41.5559L76.3719 43.1367L73.9973 44.4712C74.4876 44.1607 74.9401 43.7862 75.3502 43.3509C75.9195 42.7472 76.4074 42.0256 76.8015 41.1928C77.5483 39.6189 77.9618 37.6475 77.9618 35.3256C77.963 26.1756 71.5391 15.0495 63.6147 10.4745C61.6422 9.33586 59.7625 8.71043 58.0511 8.55579C57.3581 8.49164 56.6926 8.50539 56.0603 8.59473C55.5173 8.66919 54.9973 8.79977 54.5059 8.98305L57.3386 7.52256C58.4051 6.8284 59.6536 6.43894 61.0374 6.38281V6.56151H61.0477C60.9618 7.29003 61.4005 8.03574 62.365 8.59244C62.664 8.76541 62.995 8.9086 63.3467 9.022C64.9629 9.54777 67.0179 9.45613 68.4796 8.74708C70.6651 10.1274 72.7236 11.9991 74.5472 14.1767L73.4613 15.2374C72.8977 15.7883 72.8496 16.6795 73.3524 17.2866C73.6732 17.6761 74.1371 17.8766 74.6033 17.8766C74.9744 17.8766 75.3467 17.7506 75.6514 17.4917L76.5071 16.7654C79.9344 21.7712 82.1451 27.8182 82.1451 33.1859Z" stroke="#2F80ED" stroke-width="0.823665" stroke-linecap="round" stroke-linejoin="round"/>
<path d="M70.0875 3.53627C70.0177 4.07693 69.658 4.60615 69.0108 5.04143C68.9352 5.09298 68.8562 5.14223 68.7725 5.19034C67.0028 6.21211 64.1345 6.21211 62.3647 5.19034C62.2811 5.14223 62.2021 5.09298 62.1265 5.04143C61.4002 4.55345 61.0371 3.9475 61.0371 3.34039C61.0371 2.67143 61.4804 2.00133 62.3647 1.49044C64.1345 0.46982 67.0028 0.46982 68.7725 1.49044C69.7439 2.05173 70.1826 2.80316 70.0875 3.53627Z" stroke="#2F80ED" stroke-width="0.823665" stroke-linecap="round" stroke-linejoin="round"/>
<path d="M68.7728 8.59236C68.6777 8.64734 68.5803 8.69889 68.4795 8.747C67.0179 9.45605 64.9629 9.54769 63.3466 9.02191C62.995 8.90851 62.6639 8.76532 62.365 8.59236C61.4005 8.03565 60.9617 7.28995 61.0477 6.56142H61.0373V3.34033C61.0373 3.94744 61.4005 4.5534 62.1267 5.04137C62.2023 5.09292 62.2813 5.14217 62.365 5.19028C64.1347 6.21205 67.003 6.21205 68.7728 5.19028C68.8564 5.14217 68.9354 5.09292 69.011 5.04137C69.6582 4.60609 70.0179 4.07687 70.0878 3.53621V6.54653C70.1829 7.27964 69.7441 8.03107 68.7728 8.59236Z" stroke="#2F80ED" stroke-width="0.823665" stroke-linecap="round" stroke-linejoin="round"/>
<path d="M63.3467 9.02075V9.7321L64.0489 9.99441C65.0672 10.3747 66.1875 10.3747 67.2058 9.99441L67.908 9.7321V9.02075" stroke="#2F80ED" stroke-width="0.823665" stroke-linecap="round" stroke-linejoin="round"/>
<path d="M77.7309 15.7265C77.5533 15.8697 77.2795 15.912 76.9439 15.8204C76.2154 15.6222 75.4674 14.8685 75.275 14.1377C75.1948 13.8318 75.2234 13.5787 75.3391 13.4023C75.4983 13.156 75.8236 13.0586 76.2475 13.1743C76.976 13.3737 77.7228 14.1262 77.9153 14.8571C78.0195 15.2511 77.9405 15.5592 77.7309 15.7265Z" stroke="#2F80ED" stroke-width="0.823665" stroke-linecap="round" stroke-linejoin="round"/>
<path d="M77.7555 15.707L77.7314 15.7265" stroke="#2F80ED" stroke-width="0.823665" stroke-linecap="round" stroke-linejoin="round"/>
</g>
<defs>
<clipPath id="clip0_446_4381">
<rect width="100" height="100" fill="white" transform="translate(0.911133 0.724976)"/>
</clipPath>
</defs>
</svg>
