<svg width="101" height="101" viewBox="0 0 101 101" fill="none" xmlns="http://www.w3.org/2000/svg">
<g clip-path="url(#clip0_446_4168)">
<path d="M63.5668 27.9655C64.0635 28.3337 64.5254 28.722 64.9525 29.1277C67.5393 28.4408 70.3764 28.169 73.1586 28.3163C73.5416 27.8678 73.9593 27.426 74.4145 27.0002C70.7526 26.6882 66.8903 27.363 63.5654 27.9655H63.5668Z" stroke="#2F80ED" stroke-width="0.726271" stroke-miterlimit="10"/>
<path d="M60.5914 44.3496C66.9123 47.8146 76.9032 47.7584 83.1023 44.1795C86.2513 42.36 87.8272 39.9767 87.8272 37.5935C87.8272 35.2103 86.2527 32.8257 83.1023 31.0061C81.7553 30.2282 80.229 29.6163 78.6022 29.1718C79.1766 28.825 79.7389 28.4662 80.2758 28.0994C81.9066 28.5907 83.4356 29.2307 84.8053 30.0234C88.4257 32.1107 90.2386 34.8528 90.2386 37.5948C90.2386 40.3369 88.4257 43.0736 84.8053 45.1663C84.3528 45.4287 83.8828 45.6724 83.3968 45.9014C83.1719 46.0085 82.9429 46.1102 82.7113 46.2093C82.4783 46.307 82.2427 46.4034 82.0057 46.4945C81.8424 46.5587 81.6777 46.6203 81.5103 46.6806C81.2506 46.7743 80.9868 46.864 80.7204 46.9497C80.0241 47.1733 79.3092 47.3701 78.5781 47.5375C78.3585 47.5897 78.1403 47.6366 77.918 47.6807C77.5833 47.7504 77.2459 47.8133 76.9045 47.8709C76.6622 47.9124 76.4185 47.9499 76.1748 47.9847C74.5909 48.2109 72.9641 48.3154 71.3414 48.298C71.261 48.298 71.1807 48.298 71.099 48.294C71.004 48.294 70.9116 48.2913 70.8165 48.2873H70.7911C70.676 48.2833 70.5621 48.2792 70.4457 48.2752C70.1016 48.2632 69.7588 48.2431 69.4147 48.219C69.2862 48.2109 69.159 48.2016 69.0304 48.1895C68.9193 48.1802 68.8095 48.1708 68.6997 48.1601C68.6368 48.1534 68.5725 48.148 68.5083 48.1413C68.2659 48.1172 68.0223 48.0891 67.7813 48.0597C67.6741 48.0476 67.567 48.0329 67.4599 48.0181C67.3662 48.0074 67.2738 47.9927 67.1801 47.9793C66.8105 47.9271 66.4437 47.8655 66.0782 47.7999C65.9804 47.7838 65.8814 47.7651 65.785 47.745C65.6899 47.7276 65.5935 47.7089 65.4984 47.6888C65.4301 47.6767 65.3619 47.6607 65.2949 47.6459C65.2173 47.6312 65.1383 47.6138 65.0606 47.5951C64.833 47.5442 64.6067 47.492 64.3805 47.4371C64.2733 47.4103 64.1662 47.3848 64.0605 47.3554C63.9667 47.3313 63.8743 47.3072 63.782 47.2818C63.4365 47.1867 63.0965 47.0863 62.7604 46.9792C62.66 46.947 62.5609 46.9149 62.4618 46.8828C62.4498 46.8787 62.4377 46.8747 62.427 46.8721C62.3426 46.8439 62.2583 46.8158 62.1753 46.7864C62.1231 46.769 62.0695 46.7502 62.0173 46.7315C61.9477 46.7074 61.8807 46.6833 61.8138 46.6578C61.6063 46.5829 61.4001 46.5039 61.1966 46.4235C61.0948 46.3834 60.9944 46.3418 60.8926 46.3003C60.7882 46.2575 60.6838 46.2133 60.5807 46.1678C60.5579 46.1584 60.5365 46.149 60.5151 46.1383C60.412 46.0928 60.3102 46.0473 60.2084 46.0018C60.0946 45.9496 59.9822 45.8973 59.8697 45.8438C59.8135 45.817 59.7559 45.7916 59.6997 45.7621C59.6367 45.7313 59.5738 45.7005 59.5109 45.667C59.448 45.6362 59.385 45.6041 59.3234 45.572C59.2618 45.5398 59.2003 45.5091 59.14 45.4756C59.0677 45.4394 58.9967 45.4006 58.9258 45.3604C58.8106 45.2975 58.6955 45.2319 58.5803 45.1663C54.9613 43.0736 53.1484 40.3329 53.1484 37.5948C53.1484 34.8568 54.9332 32.1535 58.4973 30.0729C58.5254 30.0568 58.5522 30.0408 58.5803 30.0234C58.6245 29.9979 58.6674 29.9725 58.7115 29.9497C59.219 30.3045 59.7546 30.658 60.3022 30.9967C60.2968 30.9994 60.2915 31.0034 60.2874 31.0061C59.6715 31.3609 59.1172 31.7385 58.6219 32.1335C56.5827 33.7575 55.5625 35.6735 55.5625 37.5948C55.5625 39.9781 57.137 42.3626 60.2874 44.1809" stroke="#2F80ED" stroke-width="0.726271" stroke-miterlimit="10"/>
<path d="M71.1826 36.4327C72.9607 34.98 76.4672 32.9703 80.2563 35.5195C85.6949 39.1774 71.1826 36.4327 71.1826 36.4327Z" stroke="#2F80ED" stroke-width="0.726271" stroke-miterlimit="10"/>
<path d="M96.393 81.3166C97.0424 85.4082 94.6591 89.6257 89.2352 92.7614C79.5523 98.354 63.8457 98.354 54.1588 92.7614C53.6447 92.4642 53.1586 92.1576 52.6981 91.843C54.2445 89.682 54.8336 87.3456 54.4694 85.0507H54.5792L52.0741 76.9397C52.0072 76.7215 51.9416 76.5046 51.876 76.2863C52.923 77.5676 54.365 78.7686 56.2006 79.8317C64.7602 84.7736 78.6379 84.7736 87.1961 79.8317C91.0963 77.581 93.2158 74.6957 93.5626 71.7515C93.7018 72.2375 93.8491 72.7235 93.9977 73.2055L96.5014 81.3179H96.3916L96.393 81.3166Z" stroke="#2F80ED" stroke-width="0.726271" stroke-miterlimit="10"/>
<path d="M50.1498 73.2014C49.9797 73.2469 49.8097 73.2898 49.6383 73.3313C49.6249 73.3567 49.6115 73.3835 49.5968 73.4089C49.5861 73.4277 49.5754 73.4464 49.5647 73.4665C49.562 73.4732 49.558 73.4786 49.554 73.4853C49.5232 73.5388 49.4924 73.5937 49.4589 73.6473C49.4482 73.6647 49.4375 73.6834 49.4268 73.7008L49.5419 73.354L49.5995 73.18C49.7039 72.8653 49.8057 72.5507 49.9034 72.2307C49.9275 72.3566 49.9543 72.4838 49.9837 72.6096C50.0306 72.8078 50.0855 73.0033 50.1484 73.2001L50.1498 73.2014Z" stroke="#2F80ED" stroke-width="0.726271" stroke-miterlimit="10"/>
<path d="M50.0273 72.5105C50.0192 72.5265 50.0126 72.5439 50.0059 72.5613C50.0126 72.5453 50.0192 72.5292 50.0259 72.5105C50.0393 72.477 50.0527 72.4422 50.0661 72.41C50.0541 72.4435 50.0393 72.4783 50.0273 72.5105Z" stroke="#2F80ED" stroke-width="0.726271" stroke-miterlimit="10"/>
<path d="M92.4556 66.8149C92.4409 66.9595 92.4221 67.1068 92.394 67.25C92.3324 66.9742 92.2695 66.6944 92.2119 66.4186C92.2976 66.5511 92.3793 66.6823 92.4556 66.8149Z" stroke="#2F80ED" stroke-width="0.726271" stroke-miterlimit="10"/>
<path d="M50.0661 72.4088C50.0541 72.4423 50.0393 72.4771 50.0273 72.5092C50.0192 72.5253 50.0126 72.5427 50.0059 72.5601C50.0126 72.544 50.0192 72.528 50.0259 72.5092C50.0393 72.4758 50.0527 72.4409 50.0661 72.4088Z" stroke="#2F80ED" stroke-width="0.726271" stroke-miterlimit="10"/>
<path d="M92.4556 66.8149C92.4409 66.9595 92.4221 67.1068 92.394 67.25C92.3324 66.9742 92.2695 66.6944 92.2119 66.4186C92.2976 66.5511 92.3793 66.6823 92.4556 66.8149Z" stroke="#2F80ED" stroke-width="0.726271" stroke-miterlimit="10"/>
<path d="M69.9631 37.5934C69.9631 37.5934 69.5749 35.9586 68.4863 33.8712" stroke="#2F80ED" stroke-width="0.726271" stroke-linecap="round" stroke-linejoin="round"/>
<path d="M80.2784 28.098C79.7415 28.4649 79.1792 28.825 78.6048 29.1705C75.6097 30.97 72.3053 32.3383 70.8271 31.7961C71.3975 30.7022 72.1607 29.4851 73.1608 28.3136C73.5438 27.8651 73.9615 27.4232 74.4167 26.9974C76.176 25.3546 78.491 23.9595 81.5062 23.3623C86.8229 22.3086 84.2965 25.3533 80.2784 28.0967V28.098Z" stroke="#2F80ED" stroke-width="0.726271" stroke-linecap="round" stroke-linejoin="round"/>
<path d="M70.8254 31.7974C69.7369 33.8834 69.3486 35.5195 69.3486 35.5195" stroke="#2F80ED" stroke-width="0.726271" stroke-linecap="round" stroke-linejoin="round"/>
<path d="M71.1826 36.4326C70.4087 37.0659 69.9629 37.5921 69.9629 37.5921" stroke="#2F80ED" stroke-width="0.726271" stroke-linecap="round" stroke-linejoin="round"/>
<path d="M52.9469 7.56217C51.5772 6.77088 50.0482 6.12955 48.4175 5.63818C47.8806 6.00503 47.3182 6.3652 46.7438 6.71063C48.3719 7.15515 49.8969 7.76702 51.2439 8.54492C54.393 10.3658 55.9688 12.745 55.9688 15.1323C55.9688 17.5196 54.3943 19.9001 51.2439 21.7183C44.9444 25.3548 34.7299 25.3548 28.429 21.7183C25.28 19.8988 23.7041 17.5155 23.7041 15.1323C23.7041 12.7491 25.2786 10.3645 28.429 8.54492C28.4344 8.54224 28.4398 8.53823 28.4438 8.53555C27.8948 8.19681 27.3593 7.84334 26.8532 7.48853C26.809 7.51129 26.7661 7.53673 26.7219 7.56217C23.1029 9.64951 21.29 12.3916 21.29 15.1336C21.29 17.8757 23.1029 20.6124 26.7219 22.7051C33.9627 26.8865 45.7075 26.8865 52.9469 22.7051C56.5673 20.6124 58.3802 17.8717 58.3802 15.1336C58.3802 12.3956 56.5673 9.64951 52.9469 7.56217ZM41.2985 5.85508C41.6815 5.40655 42.0992 4.96471 42.5544 4.53894C38.8925 4.22698 35.0981 4.54831 31.7053 5.50429C32.2021 5.87248 32.664 6.26076 33.0911 6.66645C35.6778 5.97959 38.515 5.7078 41.2972 5.85508H41.2985Z" stroke="#2F80ED" stroke-width="0.726271" stroke-miterlimit="10"/>
<path d="M55.9689 15.1321C55.9689 17.5153 54.3943 19.8999 51.2439 21.7181C44.9444 25.3546 34.7299 25.3546 28.4291 21.7181C25.28 19.8986 23.7041 17.5153 23.7041 15.1321C23.7041 12.7489 25.2787 10.3643 28.4291 8.54473C28.4344 8.54205 28.4398 8.53804 28.4438 8.53536C31.5393 10.454 35.0807 11.9763 36.6258 11.41C35.8452 9.91442 34.7058 8.18724 33.0925 6.66625C35.6792 5.9794 38.5163 5.7076 41.2986 5.85488C40.2984 7.02508 39.5352 8.24348 38.9649 9.33736C40.443 9.87827 43.7474 8.50992 46.7425 6.71178C48.3706 7.15629 49.8956 7.76817 51.2426 8.54607C54.3916 10.367 55.9675 12.7462 55.9675 15.1334L55.9689 15.1321Z" stroke="#2F80ED" stroke-width="0.726271" stroke-miterlimit="10"/>
<path d="M24.9922 51.6733C25.3202 51.7229 25.6509 51.7684 25.9816 51.8086C25.6509 51.7697 25.3202 51.7242 24.9922 51.6733Z" stroke="#2F80ED" stroke-width="0.726271" stroke-miterlimit="10"/>
<path d="M31.0933 52.0041C31.1147 52.0041 31.1361 52.0041 31.1575 52.0015C31.1348 52.0015 31.112 52.0041 31.0879 52.0055C30.9513 52.0122 30.8121 52.0162 30.6729 52.0189C30.8121 52.0149 30.954 52.0095 31.0933 52.0041Z" stroke="#2F80ED" stroke-width="0.726271" stroke-miterlimit="10"/>
<path d="M32.3857 51.9251C32.5317 51.9143 32.6763 51.901 32.8209 51.8876C32.8021 51.8903 32.7821 51.8916 32.7633 51.8943C32.6803 51.9023 32.5973 51.909 32.5129 51.9157C32.5036 51.9157 32.4955 51.9184 32.4848 51.9184C32.4527 51.921 32.4192 51.9237 32.3857 51.9264V51.9251Z" stroke="#2F80ED" stroke-width="0.726271" stroke-miterlimit="10"/>
<path d="M35.3959 51.5314C35.428 51.5247 35.4601 51.5194 35.4909 51.5127C35.4816 51.5167 35.4735 51.5181 35.4628 51.5194C35.4401 51.5234 35.4173 51.5274 35.3945 51.5314H35.3959Z" stroke="#2F80ED" stroke-width="0.726271" stroke-miterlimit="10"/>
<path d="M35.6836 51.4752C35.78 51.4578 35.8764 51.439 35.9715 51.4189C35.9192 51.4297 35.8657 51.4417 35.8135 51.4511C35.7693 51.4591 35.7264 51.4685 35.6836 51.4752Z" stroke="#2F80ED" stroke-width="0.726271" stroke-miterlimit="10"/>
<path d="M38.7988 50.6826C39.0639 50.5969 39.329 50.5058 39.5888 50.4135C39.3277 50.5085 39.0653 50.5969 38.7988 50.6826Z" stroke="#2F80ED" stroke-width="0.726271" stroke-miterlimit="10"/>
<path d="M40.3111 50.139C40.3901 50.1082 40.4704 50.0747 40.5481 50.0426C40.4691 50.0747 40.3901 50.1055 40.3111 50.1377V50.139ZM40.3111 50.139C40.2495 50.1644 40.1866 50.1885 40.125 50.2126C40.1866 50.1885 40.2495 50.1631 40.3111 50.139Z" stroke="#2F80ED" stroke-width="0.726271" stroke-miterlimit="10"/>
<path d="M37.6267 49.4669C37.3951 49.5406 37.1608 49.6129 36.9238 49.6798C37.1608 49.6115 37.3951 49.5419 37.6267 49.4669Z" stroke="#2F80ED" stroke-width="0.726271" stroke-miterlimit="10"/>
<path d="M29.2598 40.1656C31.0378 38.7129 34.5444 36.7032 38.3335 39.2525C43.7721 42.9103 29.2598 40.1656 29.2598 40.1656Z" stroke="#2F80ED" stroke-width="0.726271" stroke-miterlimit="10"/>
<path d="M68.4859 33.8701C66.9408 34.4365 63.3994 32.9142 60.3039 30.9955C59.755 30.6568 59.2194 30.3033 58.7133 29.9485C58.637 29.8949 58.5607 29.8414 58.4857 29.7878C54.7984 27.1529 52.7365 24.4322 57.8069 25.4378C58.0064 25.4766 58.2045 25.5208 58.3987 25.5676C60.4432 26.0577 62.1502 26.9213 63.5668 27.9656C64.0635 28.3338 64.5255 28.7221 64.9526 29.1278C66.5659 30.6487 67.7053 32.3759 68.4859 33.8715V33.8701Z" stroke="#2F80ED" stroke-width="0.726271" stroke-miterlimit="10"/>
<path d="M92.213 66.4188C91.8984 64.9995 91.6212 63.5682 91.3883 62.1329C90.6304 57.5753 90.2529 52.9602 90.2609 48.3276L90.281 37.5923H90.2422C90.2422 40.329 88.4293 43.0711 84.8089 45.1638C84.3564 45.4262 83.8864 45.6699 83.4004 45.8988C83.1754 46.0059 82.9465 46.1077 82.7149 46.2068C82.4819 46.3058 82.2463 46.4009 82.0093 46.4919C81.8459 46.5562 81.6812 46.6178 81.5139 46.678C81.2528 46.7731 80.9904 46.8615 80.7239 46.9472C80.0277 47.1708 79.3127 47.3676 78.5817 47.5349C78.3621 47.5872 78.1439 47.634 77.9216 47.6782C77.5869 47.7478 77.2495 47.8108 76.9081 47.8683C76.6657 47.9098 76.4221 47.9473 76.1784 47.9821C74.5945 48.2084 72.9677 48.3128 71.345 48.2954C71.2646 48.2954 71.1843 48.2954 71.1026 48.2914C71.0075 48.2914 70.9152 48.2887 70.8201 48.2847H70.7947C70.6795 48.2807 70.5657 48.2767 70.4492 48.2727C70.1051 48.2606 69.7624 48.2405 69.4183 48.2164C69.2897 48.2084 69.1626 48.199 69.034 48.187C68.9229 48.1776 68.8131 48.1682 68.7033 48.1575C68.6404 48.1508 68.5761 48.1455 68.5118 48.1388C68.2695 48.1147 68.0258 48.0866 67.7848 48.0571C67.6777 48.0451 67.5706 48.0303 67.4635 48.0156C67.3698 48.0049 67.2774 47.9902 67.1837 47.9768C66.8141 47.9246 66.4473 47.863 66.0817 47.7974C65.984 47.7813 65.8849 47.7626 65.7885 47.7425C65.6935 47.7251 65.5971 47.7063 65.502 47.6862C65.4337 47.6742 65.3654 47.6581 65.2985 47.6434C65.2208 47.6287 65.1418 47.6113 65.0642 47.5925C64.8366 47.5416 64.6103 47.4894 64.384 47.4345C64.2769 47.4077 64.1698 47.3823 64.064 47.3529C63.9703 47.3301 63.8779 47.3046 63.7855 47.2792C63.4401 47.1841 63.1 47.0837 62.764 46.9766C62.6649 46.9458 62.5645 46.9137 62.4654 46.8802C62.4533 46.8762 62.4413 46.8722 62.4306 46.8695C62.3462 46.8414 62.2619 46.8146 62.1789 46.7838C62.1266 46.7664 62.0731 46.7477 62.0209 46.7289C61.9526 46.7062 61.8843 46.6807 61.8174 46.6553C61.6098 46.5803 61.4036 46.5013 61.2001 46.421C61.0984 46.3808 60.998 46.3406 60.8962 46.2978C60.7918 46.255 60.6873 46.2108 60.5842 46.1652C60.5615 46.1559 60.5401 46.1465 60.5186 46.1358C60.4155 46.0916 60.3138 46.0461 60.212 45.9992C60.0982 45.9483 59.9857 45.8961 59.8733 45.8412C59.817 45.8145 59.7595 45.789 59.7032 45.7596C59.639 45.7274 59.576 45.698 59.5145 45.6645C59.4515 45.6337 59.3886 45.6016 59.327 45.5694C59.2654 45.5373 59.2038 45.5065 59.1436 45.473C59.0713 45.4369 59.0003 45.3981 58.9293 45.3579C58.8142 45.295 58.6991 45.2294 58.5839 45.1638C54.9649 43.0711 53.152 40.3303 53.152 37.5923H53.1172L53.1373 51.2758C53.1373 51.7846 53.1319 52.2947 53.1225 52.8022C53.081 54.7583 52.9579 56.7091 52.7503 58.6491C52.6486 59.6185 52.5241 60.5852 52.3795 61.5492C52.1706 62.9805 51.9135 64.4037 51.6069 65.8189C51.4623 66.5031 51.307 67.1833 51.1396 67.8594C51.1597 67.9344 51.1812 68.012 51.2053 68.087C51.2227 68.1473 51.2414 68.2075 51.2615 68.2678C51.2615 68.2731 51.2655 68.2785 51.2668 68.2838C51.2775 68.316 51.2883 68.3468 51.3003 68.3789C51.3177 68.4311 51.3365 68.486 51.3565 68.5396C51.3847 68.6145 51.4128 68.6895 51.4449 68.7645C51.469 68.8234 51.4931 68.8823 51.5186 68.9426C51.5186 68.9426 51.5186 68.9453 51.5186 68.9466C51.5186 68.9506 51.5226 68.956 51.5253 68.9586C51.5319 68.9734 51.5386 68.9908 51.5453 69.0055C51.5534 69.0202 51.5587 69.0376 51.5667 69.0524C51.5708 69.0631 51.5761 69.0725 51.5802 69.0832C51.5962 69.122 51.6136 69.1595 51.6324 69.1983C51.6404 69.2157 51.6484 69.2331 51.6578 69.2505C51.6578 69.2532 51.6605 69.2545 51.6605 69.2572C51.6913 69.3175 51.7194 69.3777 51.7515 69.438C51.7729 69.4795 51.793 69.5196 51.8158 69.5598C51.8212 69.5678 51.8252 69.5759 51.8292 69.5839C51.8332 69.5933 51.8386 69.6013 51.8426 69.6107C51.8627 69.6495 51.8827 69.687 51.9055 69.7258C51.9055 69.7285 51.9095 69.7325 51.9109 69.7352C51.9684 69.8396 52.03 69.9441 52.0943 70.0458C52.113 70.078 52.1318 70.1088 52.1518 70.1396C52.1559 70.1462 52.1599 70.1503 52.1626 70.157C52.196 70.2118 52.2322 70.2681 52.2683 70.3216C52.271 70.327 52.275 70.331 52.2777 70.335C52.3098 70.3819 52.3406 70.4274 52.3728 70.4716C52.3848 70.4917 52.3996 70.5104 52.4129 70.5292C52.4237 70.5452 52.4357 70.5613 52.4464 70.5774C52.4544 70.5881 52.4625 70.6015 52.4705 70.6122C52.5441 70.7139 52.6205 70.8157 52.6981 70.9175C52.7276 70.9536 52.7557 70.9911 52.7865 71.0286C52.8267 71.0795 52.8682 71.1303 52.9097 71.1812C52.9632 71.2482 53.0208 71.3151 53.077 71.3807C53.1748 71.4959 53.2765 71.607 53.3823 71.7195C53.4332 71.773 53.4841 71.8279 53.5376 71.8815C53.5898 71.9363 53.6447 71.9912 53.6996 72.0461C53.7143 72.0609 53.7318 72.0769 53.7465 72.0917C53.7492 72.0943 53.7532 72.0984 53.7559 72.101C53.7826 72.1278 53.8081 72.1533 53.8349 72.1774C53.8616 72.2041 53.8871 72.2296 53.9138 72.2537C53.9861 72.3233 54.0598 72.3902 54.1348 72.4585C54.187 72.5054 54.2379 72.5522 54.2928 72.5991C54.3999 72.6942 54.511 72.7879 54.6235 72.8803C54.7399 72.978 54.8604 73.0744 54.9823 73.1681C55.0452 73.2177 55.1081 73.2645 55.1724 73.3127C55.2394 73.3636 55.3063 73.4132 55.3746 73.4627C55.4429 73.5136 55.5112 73.5618 55.5808 73.6113C55.6397 73.6542 55.6986 73.6957 55.7602 73.7358C55.8004 73.7639 55.8405 73.7907 55.8807 73.8188C55.9503 73.8657 56.0199 73.9126 56.0922 73.9581C56.19 74.0224 56.2904 74.0853 56.3908 74.1482C56.4765 74.2018 56.5635 74.2567 56.6506 74.3075C56.672 74.3196 56.6921 74.333 56.7135 74.345C56.8032 74.3986 56.8929 74.4521 56.9839 74.5044C65.1111 79.1985 78.2818 79.1985 86.4089 74.5044C89.9289 72.4746 91.9225 69.8932 92.3938 67.2449C92.3322 66.969 92.2693 66.6892 92.2117 66.4134L92.213 66.4188Z" stroke="#2F80ED" stroke-width="0.726271" stroke-miterlimit="10"/>
<path d="M58.4859 29.7878C58.4899 29.8828 58.4939 29.9752 58.4993 30.0703C54.9352 32.1523 53.1504 34.8729 53.1504 37.5935H53.1156L53.1357 51.2771C53.1357 51.7859 53.1303 52.296 53.121 52.8034C53.1169 52.8061 53.1129 52.8088 53.1102 52.8088C53.0982 52.8155 53.0835 52.8208 53.0714 52.8275C53.0138 52.857 52.9549 52.8838 52.8974 52.9092C52.892 52.9119 52.8866 52.9146 52.8813 52.9172C52.7742 52.9694 52.6671 53.0176 52.5573 53.0658C52.4381 53.1181 52.3176 53.1716 52.1971 53.2238C52.1556 53.2412 52.1141 53.26 52.0713 53.2761C51.9548 53.3283 51.8343 53.3751 51.7151 53.4233C51.7124 53.4233 51.7084 53.426 51.7057 53.4274C51.6361 53.4568 51.5665 53.4836 51.4955 53.5104C51.4246 53.5385 51.3563 53.5653 51.2853 53.592C51.1595 53.6402 51.035 53.6871 50.9078 53.7326C50.8796 53.7433 50.8529 53.7527 50.8247 53.7634C50.7551 53.7875 50.6882 53.813 50.6172 53.8371C50.5476 53.8612 50.4793 53.8866 50.4097 53.9094C50.2865 53.9522 50.1633 53.9937 50.0388 54.0325C50.0254 54.0379 50.0107 54.0419 49.9973 54.0459C49.9612 54.058 49.9237 54.07 49.8862 54.0807C49.7817 54.1142 49.6773 54.1477 49.5715 54.1798C49.5274 54.1919 49.4845 54.2066 49.4403 54.2186C49.3131 54.2575 49.1859 54.2936 49.0574 54.3311C48.9342 54.3659 48.8097 54.4007 48.6852 54.4342C48.6812 54.4342 48.6785 54.4369 48.6745 54.4369C48.6343 54.4476 48.5941 54.4596 48.5526 54.469C48.5071 54.4811 48.4616 54.4945 48.4161 54.5052C48.4027 54.5105 48.3866 54.5145 48.3719 54.5159C48.3464 53.6991 48.3371 52.8811 48.3384 52.0617L48.3572 41.3264H48.3197C48.3197 38.5843 46.5068 35.8423 42.8864 33.7549C41.5167 32.9636 39.9877 32.3223 38.3569 31.8309C37.82 32.1978 37.2577 32.5579 36.6833 32.9034C33.6882 34.7029 30.3838 36.0712 28.9056 35.529C29.476 34.4351 30.2392 33.218 31.2393 32.0465C28.4558 31.8992 25.62 32.171 23.0332 32.8579C22.6048 32.4522 22.1442 32.0639 21.6475 31.6957C21.5109 31.5953 21.373 31.4962 21.2324 31.4011C21.2646 30.5389 21.2806 29.6766 21.2793 28.813L21.2592 15.1295H21.294C21.294 17.8676 23.1069 20.6083 26.7259 22.701C33.9667 26.8824 45.7115 26.8824 52.9509 22.701C56.5713 20.6083 58.3842 17.8676 58.3842 15.1295H58.423L58.4029 25.5649C58.2088 25.518 58.0119 25.4738 57.8111 25.435C52.7407 24.4308 54.8026 27.1515 58.4899 29.7851L58.4859 29.7878Z" stroke="#2F80ED" stroke-width="0.726271" stroke-miterlimit="10"/>
<path d="M40.3116 50.1377C40.3906 50.1069 40.4696 50.0747 40.5486 50.0426C40.4709 50.0747 40.3906 50.1069 40.3116 50.1377ZM35.683 51.4752C35.7259 51.4685 35.7687 51.4592 35.8129 51.4511C35.8651 51.4404 35.9186 51.4297 35.9709 51.419C35.8758 51.4391 35.7794 51.4578 35.683 51.4752ZM35.3951 51.5315C35.4179 51.5261 35.4407 51.5221 35.4634 51.5194C35.4741 51.5194 35.4822 51.5167 35.4915 51.5127C35.4594 51.5194 35.4273 51.5248 35.3965 51.5315H35.3951ZM31.0933 52.0041C30.954 52.0108 30.8121 52.0148 30.6729 52.0188C30.8121 52.0161 30.9513 52.0108 31.0879 52.0054C31.112 52.0054 31.1348 52.0027 31.1575 52.0014C31.1361 52.0014 31.1147 52.0041 31.0933 52.0041Z" stroke="#2F80ED" stroke-width="0.726271" stroke-miterlimit="10"/>
<path d="M50.3921 70.6322C50.2368 71.1678 50.0735 71.7006 49.9034 72.2322C49.807 72.5522 49.7039 72.8668 49.5995 73.1815L49.5419 73.3555L49.4268 73.7023C49.4268 73.7023 49.4241 73.7077 49.4214 73.7103C49.392 73.7612 49.3625 73.8094 49.3304 73.8576C49.3197 73.875 49.309 73.8924 49.2983 73.9098C49.2875 73.9272 49.2768 73.9433 49.2661 73.9607C49.2554 73.9781 49.2447 73.9955 49.2327 74.0129C49.2072 74.0518 49.1818 74.0892 49.1563 74.1281C49.1416 74.1522 49.1242 74.1763 49.1081 74.2004C49.0974 74.2151 49.088 74.2298 49.076 74.2446C49.0573 74.274 49.0372 74.3021 49.0158 74.3302C49.0091 74.341 49.0037 74.349 48.9957 74.3597C48.9689 74.3972 48.9408 74.436 48.9113 74.4748C48.9019 74.4869 48.8926 74.5003 48.8832 74.5123C48.8537 74.5512 48.8256 74.59 48.7935 74.6302C48.7667 74.665 48.7399 74.7011 48.7105 74.7359C48.6609 74.8002 48.6101 74.8631 48.5552 74.9274C48.4735 75.0265 48.3878 75.1269 48.2994 75.226C48.2606 75.2715 48.2191 75.3183 48.1763 75.3625C48.1736 75.3665 48.1696 75.3692 48.1669 75.3732C48.0772 75.4723 47.9848 75.5714 47.8871 75.6678C47.863 75.6919 47.8402 75.7173 47.8148 75.7414C47.7907 75.7655 47.7666 75.791 47.7411 75.8137C47.6434 75.9101 47.543 76.0065 47.4399 76.1016C47.3877 76.1498 47.3368 76.1967 47.2832 76.2435C47.2203 76.3011 47.156 76.3587 47.0904 76.4136C47.0262 76.4698 46.9592 76.526 46.8923 76.5809C46.8641 76.6037 46.8387 76.6265 46.8106 76.6492C46.7329 76.7135 46.6526 76.7777 46.5723 76.8407C46.4839 76.9116 46.3928 76.9799 46.3005 77.0495C46.2282 77.1044 46.1559 77.1593 46.0809 77.2115C46.0488 77.237 46.0139 77.2611 45.9805 77.2852C45.8988 77.3441 45.8144 77.4017 45.7301 77.4619C45.7221 77.4673 45.714 77.4726 45.7047 77.4793C45.6149 77.5396 45.5239 77.6012 45.4315 77.6614C45.3257 77.7324 45.2186 77.7993 45.1102 77.8689C45.0178 77.9265 44.9241 77.9841 44.829 78.0417C44.7139 78.1113 44.5987 78.1782 44.4822 78.2465C36.3551 82.9407 23.1844 82.9407 15.0573 78.2465C11.8091 76.3734 9.86237 74.0317 9.20898 71.5975C9.37635 70.9214 9.53166 70.2399 9.67626 69.5571C9.98287 68.1405 10.2399 66.7186 10.4488 65.2873C10.9589 61.8919 11.212 58.4589 11.208 55.014L11.1879 41.3304H11.2227C11.2227 42.6988 11.6752 44.0685 12.5817 45.3578C12.6379 45.4382 12.6968 45.5185 12.7571 45.5988C12.7879 45.639 12.8173 45.6792 12.8494 45.718C12.9726 45.8773 13.1038 46.0353 13.2417 46.192C13.294 46.2522 13.3489 46.3111 13.4037 46.3714C13.4707 46.4437 13.5376 46.5146 13.6073 46.5856C13.6555 46.6351 13.7037 46.6847 13.7545 46.7342C13.8054 46.7851 13.8563 46.8346 13.9099 46.8842C14.029 46.998 14.1522 47.1104 14.2794 47.2216C14.3209 47.2577 14.3624 47.2952 14.4052 47.33C14.6489 47.5389 14.9073 47.7424 15.1805 47.9432C15.2461 47.9928 15.3144 48.0396 15.3813 48.0892C15.3907 48.0959 15.4 48.1012 15.4094 48.1079C15.4777 48.1561 15.546 48.203 15.6156 48.2498C15.6892 48.3007 15.7629 48.3503 15.8379 48.3998C15.8901 48.4333 15.9423 48.4694 15.9959 48.5016C16.0481 48.5364 16.1016 48.5698 16.1552 48.6033C16.2315 48.6515 16.3118 48.6984 16.3908 48.7466C16.4765 48.7988 16.5649 48.8497 16.6533 48.9019C17.1112 49.1657 17.5865 49.4147 18.0778 49.645C18.4875 49.8378 18.9093 50.0185 19.3391 50.1872C19.4127 50.218 19.4877 50.2461 19.5613 50.2743C20.1826 50.5126 20.8239 50.7255 21.4813 50.9143C21.5643 50.9384 21.6473 50.9625 21.7317 50.9852C21.8388 51.016 21.9459 51.0441 22.0544 51.0722C22.1548 51.1004 22.2552 51.1245 22.357 51.1499C22.3784 51.1566 22.3998 51.1606 22.4212 51.166C22.5337 51.1941 22.6435 51.2209 22.7573 51.2463C22.7921 51.2557 22.8296 51.2637 22.8644 51.2717C22.9568 51.2945 23.0492 51.3146 23.1429 51.3347C23.2085 51.3494 23.2741 51.3641 23.341 51.3775C23.4187 51.3936 23.499 51.4097 23.5767 51.4271C23.6865 51.4498 23.7963 51.4712 23.9047 51.4913C24.0413 51.5181 24.1792 51.5435 24.3171 51.5676C24.4282 51.5877 24.538 51.6065 24.6505 51.6239C24.7616 51.6426 24.8727 51.66 24.9839 51.6774C25.3119 51.7283 25.6426 51.7725 25.9733 51.8127C25.9894 51.8127 26.0068 51.8167 26.0255 51.8194C26.1286 51.8301 26.2317 51.8435 26.3348 51.8528C26.5584 51.8783 26.7847 51.8997 27.0083 51.9184C27.1435 51.9305 27.2787 51.9412 27.414 51.9506C27.4997 51.9573 27.584 51.9626 27.6697 51.968C27.7005 51.9706 27.7313 51.972 27.7621 51.9747C27.8571 51.98 27.9509 51.9854 28.0459 51.9907C28.1597 51.9961 28.2736 52.0014 28.3887 52.0068C28.5038 52.0122 28.6176 52.0162 28.7341 52.0188C28.9631 52.0269 29.192 52.0309 29.421 52.0336C29.5348 52.0336 29.6473 52.0336 29.7611 52.0336H29.7704C29.9124 52.0336 30.0543 52.0336 30.1949 52.0309H30.2083C30.2859 52.0309 30.3649 52.0282 30.4439 52.0255C30.5175 52.0255 30.5925 52.0229 30.6662 52.0202C30.8054 52.0175 30.9446 52.0122 31.0812 52.0068C31.1053 52.0068 31.1281 52.0041 31.1508 52.0028C31.1776 52.0028 31.2031 52.0028 31.2298 51.9988C31.3236 51.9961 31.4146 51.9907 31.507 51.9854C31.5338 51.9854 31.5592 51.9854 31.5833 51.9814C31.6797 51.976 31.7774 51.9707 31.8725 51.964C31.8779 51.964 31.8819 51.964 31.8859 51.964C31.9046 51.964 31.9234 51.964 31.9421 51.9599C31.985 51.9573 32.0265 51.9546 32.068 51.9506C32.1564 51.9452 32.2447 51.9399 32.3317 51.9305C32.3465 51.9305 32.3625 51.9305 32.3773 51.9265C32.4107 51.9238 32.4442 51.9211 32.4763 51.9184C32.4871 51.9184 32.4951 51.9184 32.5045 51.9158C32.5888 51.9091 32.6718 51.9024 32.7548 51.8943C32.7736 51.8917 32.7937 51.8903 32.8124 51.8876C32.8312 51.8876 32.8499 51.885 32.8673 51.8823C32.9932 51.8716 33.1204 51.8568 33.2449 51.8435C33.3895 51.8287 33.5327 51.8113 33.676 51.7926C33.8193 51.7752 33.9625 51.7564 34.1058 51.7363C34.1339 51.7337 34.1607 51.7296 34.1875 51.7256C34.2477 51.7176 34.3066 51.7096 34.3669 51.6989C34.3896 51.6962 34.4111 51.6935 34.4325 51.6881C34.4659 51.6841 34.5008 51.6788 34.5342 51.6734C34.5543 51.6734 34.5731 51.6681 34.5918 51.664C34.715 51.6466 34.8368 51.6265 34.96 51.6051C34.96 51.6051 34.9627 51.6051 34.964 51.6051C34.9895 51.5998 35.0149 51.5958 35.039 51.5917C35.0604 51.5891 35.0832 51.585 35.1046 51.581C35.1983 51.5663 35.2907 51.5489 35.3831 51.5315H35.3858C35.4085 51.5261 35.4313 51.5221 35.4541 51.5194C35.4648 51.5194 35.4728 51.5168 35.4822 51.5127C35.5036 51.5101 35.5237 51.5061 35.5438 51.502C35.5438 51.502 35.5464 51.502 35.5478 51.502C35.5612 51.4994 35.5759 51.4967 35.5879 51.494C35.6067 51.4913 35.6254 51.4873 35.6428 51.4833C35.6536 51.4833 35.6643 51.4793 35.675 51.4766C35.7178 51.4699 35.7607 51.4605 35.8048 51.4525C35.8571 51.4418 35.9106 51.4311 35.9628 51.4204C35.9735 51.4204 35.9816 51.4163 35.9923 51.4137C36.0592 51.4016 36.1248 51.3869 36.1904 51.3735C36.2012 51.3708 36.2132 51.3681 36.2239 51.3655C36.3618 51.336 36.5011 51.3052 36.6376 51.2731C36.7314 51.2517 36.8224 51.2302 36.9148 51.2088C37.0969 51.1646 37.2776 51.1191 37.457 51.0722C37.9083 50.9544 38.3528 50.8246 38.7906 50.6826C39.0557 50.5969 39.3195 50.5072 39.5805 50.4135C39.6622 50.3841 39.7425 50.3546 39.8229 50.3238C39.922 50.2877 40.021 50.2502 40.1174 50.2113C40.179 50.1872 40.242 50.1631 40.3035 50.1377C40.3825 50.1056 40.4615 50.0734 40.5405 50.0413C40.8552 49.9114 41.1645 49.7749 41.4684 49.6316C41.9544 49.4026 42.4257 49.1576 42.8769 48.8965C46.4973 46.8038 48.3102 44.0631 48.3102 41.3251H48.3476L48.3289 52.0604C48.3289 52.8784 48.3383 53.6965 48.3624 54.5146C48.4119 56.3462 48.5217 58.1751 48.6931 59.9973C48.8765 61.9628 49.1309 63.9203 49.4562 65.8657C49.6892 67.301 49.965 68.7323 50.281 70.1515C50.3105 70.2894 50.3399 70.43 50.3707 70.5679C50.3761 70.5894 50.3801 70.6094 50.3841 70.6309L50.3921 70.6322Z" stroke="#2F80ED" stroke-width="0.726271" stroke-miterlimit="10"/>
<path d="M92.3945 67.2502C91.9232 69.8986 89.9295 72.4813 86.4096 74.5097C78.2825 79.2039 65.1117 79.2039 56.9846 74.5097C56.8923 74.4575 56.8039 74.404 56.7142 74.3504C56.6928 74.3384 56.6727 74.325 56.6513 74.3129C56.5642 74.2607 56.4772 74.2072 56.3915 74.1536C56.2911 74.0907 56.192 74.0277 56.0929 73.9635C56.0206 73.9166 55.951 73.8698 55.8814 73.8242C55.8412 73.7961 55.8011 73.7693 55.7609 73.7412C55.7006 73.7011 55.6417 73.6595 55.5815 73.6167C55.5118 73.5672 55.4436 73.519 55.3753 73.4681C55.3057 73.4185 55.2387 73.369 55.1731 73.3181C55.1088 73.2699 55.0459 73.2231 54.983 73.1735C54.8611 73.0785 54.7406 72.9834 54.6242 72.8857C54.5104 72.7933 54.4006 72.6996 54.2934 72.6045C54.2399 72.5563 54.1877 72.5094 54.1355 72.4639C54.0605 72.3956 53.9855 72.3273 53.9145 72.2591C53.8878 72.2336 53.8623 72.2082 53.8355 72.1827C53.8088 72.1573 53.7833 72.1319 53.7566 72.1064C53.7539 72.1037 53.7499 72.0997 53.7472 72.0971C53.7324 72.0823 53.715 72.0663 53.7003 72.0515C53.6454 71.9966 53.5905 71.9417 53.5383 71.8868C53.4861 71.8333 53.4339 71.7784 53.383 71.7248C53.2772 71.6124 53.1755 71.5012 53.0777 71.3861C53.0215 71.3205 52.9639 71.2535 52.9104 71.1866C52.8689 71.1357 52.8273 71.0848 52.7872 71.034C52.7564 70.9978 52.7283 70.9603 52.6988 70.9228C52.6212 70.8211 52.5435 70.7193 52.4712 70.6176C52.4632 70.6069 52.4551 70.5935 52.4471 70.5828C52.4364 70.5667 52.4244 70.5506 52.4136 70.5346C52.4003 70.5158 52.3855 70.4971 52.3735 70.477C52.3413 70.4315 52.3105 70.3859 52.2784 70.3404C52.2757 70.3351 52.2717 70.331 52.269 70.327C52.2329 70.2735 52.1967 70.2172 52.1633 70.1623C52.1592 70.1557 52.1552 70.1516 52.1525 70.1449C52.1325 70.1141 52.1137 70.0833 52.095 70.0512C52.0307 69.9495 51.9691 69.845 51.9116 69.7406C51.9116 69.7379 51.9075 69.7339 51.9062 69.7312C51.8834 69.6937 51.8634 69.6562 51.8433 69.6161C51.8379 69.6067 51.8326 69.5987 51.8299 69.5893C51.8245 69.5813 51.8205 69.5732 51.8165 69.5652C51.7937 69.525 51.7736 69.4849 51.7522 69.4434C51.7201 69.3831 51.692 69.3229 51.6612 69.2626C51.6612 69.2599 51.6612 69.2586 51.6585 69.2559C51.6491 69.2385 51.6411 69.2211 51.6331 69.2037C51.6143 69.1662 51.5969 69.1287 51.5808 69.0885C51.5755 69.0778 51.5701 69.0685 51.5674 69.0578C51.5594 69.043 51.5541 69.0256 51.546 69.0109C51.5393 68.9962 51.5326 68.9788 51.5259 68.964C51.5233 68.96 51.5206 68.9547 51.5192 68.952C51.5192 68.952 51.5192 68.9493 51.5192 68.948C51.4925 68.8891 51.4684 68.8301 51.4456 68.7699C51.4135 68.6949 51.3854 68.6199 51.3572 68.545C51.3372 68.4914 51.3184 68.4365 51.301 68.3843C51.289 68.3522 51.2782 68.32 51.2675 68.2892C51.2675 68.2825 51.2635 68.2785 51.2622 68.2732C51.2421 68.2129 51.2234 68.1527 51.206 68.0924C51.1819 68.0174 51.1604 67.9398 51.1403 67.8648C50.9301 68.7217 50.7039 69.5732 50.4575 70.4208C50.4388 70.4944 50.4173 70.564 50.3959 70.6363C50.2406 71.1719 50.0773 71.7048 49.9072 72.2363C49.9313 72.3622 49.9581 72.4894 49.9876 72.6152C50.0344 72.8134 50.0893 73.0088 50.1522 73.2057C50.4495 74.1295 50.9248 75.0373 51.5795 75.9102C51.6746 76.0388 51.7736 76.1646 51.8781 76.2905C52.9251 77.5718 54.3671 78.7728 56.2027 79.8359C64.7623 84.7778 78.64 84.7778 87.1982 79.8359C91.0984 77.5852 93.2179 74.6999 93.5647 71.7556C93.1335 70.2668 92.7439 68.7659 92.3971 67.2569L92.3945 67.2502ZM50.0277 72.5108C50.0197 72.5268 50.013 72.5442 50.0063 72.5616C50.013 72.5456 50.0197 72.5295 50.0264 72.5108C50.0398 72.4773 50.0532 72.4425 50.0665 72.4104C50.0545 72.4438 50.0398 72.4786 50.0277 72.5108Z" stroke="#2F80ED" stroke-width="0.726271" stroke-miterlimit="10"/>
<path d="M49.9848 72.611C50.0317 72.8091 50.0866 73.0046 50.1495 73.2014C49.9795 73.2469 49.8094 73.2898 49.638 73.3313C49.6059 73.3407 49.5738 73.3487 49.543 73.3554L49.6005 73.1813C49.705 72.8667 49.8067 72.5521 49.9045 72.2321C49.9286 72.3579 49.9554 72.4851 49.9848 72.611Z" stroke="#2F80ED" stroke-width="0.726271" stroke-miterlimit="10"/>
<path d="M50.0661 72.4089C50.0541 72.4424 50.0393 72.4772 50.0273 72.5094C50.0192 72.5254 50.0126 72.5428 50.0059 72.5602C50.0126 72.5442 50.0192 72.5281 50.0259 72.5094C50.0393 72.4759 50.0527 72.4411 50.0661 72.4089Z" stroke="#2F80ED" stroke-width="0.726271" stroke-miterlimit="10"/>
<path d="M53.1212 52.8021C53.0796 54.7583 52.9565 56.709 52.7489 58.6491C52.6472 59.6185 52.5227 60.5851 52.3781 61.5491C52.1692 62.9804 51.9121 64.4037 51.6055 65.8189C51.4609 66.5031 51.3056 67.1832 51.1382 67.8594C50.928 68.7163 50.7018 69.5678 50.4554 70.4153C50.4367 70.489 50.4152 70.5586 50.3938 70.6309C50.3884 70.6095 50.3844 70.5894 50.3804 70.568C50.3496 70.4301 50.3202 70.2895 50.2907 70.1516C49.9747 68.7323 49.6989 67.3011 49.466 65.8658C49.1406 63.919 48.8862 61.9615 48.7028 59.9974C48.5314 58.1751 48.4203 56.3462 48.3721 54.5146C48.3868 54.5119 48.4029 54.5079 48.4163 54.5039C48.4631 54.4932 48.5086 54.4798 48.5528 54.4677C48.5943 54.457 48.6345 54.4463 48.6747 54.4356C48.6787 54.4356 48.6814 54.4356 48.6854 54.4329C48.8099 54.3994 48.9344 54.3646 49.0576 54.3298C49.1861 54.2937 49.3133 54.2562 49.4405 54.2173C49.4847 54.2053 49.5276 54.1906 49.5717 54.1785C49.6775 54.1464 49.7819 54.1129 49.8864 54.0794C49.9239 54.0687 49.96 54.0567 49.9975 54.0446C50.0109 54.0393 50.0256 54.0352 50.039 54.0312C50.1635 53.9924 50.2867 53.9509 50.4099 53.9081C50.4795 53.8853 50.5478 53.8599 50.6174 53.8358C50.6884 53.8117 50.7553 53.7862 50.8249 53.7621C50.8531 53.7514 50.8798 53.742 50.908 53.7313C51.0351 53.6845 51.1597 53.6376 51.2855 53.5907C51.3565 53.564 51.4248 53.5372 51.4957 53.5091C51.5667 53.4823 51.6363 53.4555 51.7059 53.4261C51.7086 53.4261 51.7126 53.4234 51.7153 53.422C51.8345 53.3738 51.955 53.327 52.0714 53.2748C52.1143 53.2587 52.1558 53.2399 52.1973 53.2225C52.3178 53.1703 52.4383 53.1181 52.5575 53.0646C52.6673 53.0164 52.7744 52.9682 52.8815 52.9159C52.8868 52.9133 52.8922 52.9106 52.8976 52.9079C52.9551 52.8825 53.0127 52.8557 53.0716 52.8262C53.0836 52.8195 53.0984 52.8142 53.1104 52.8075C53.1144 52.8075 53.1185 52.8048 53.1212 52.8021Z" stroke="#2F80ED" stroke-width="0.726271" stroke-miterlimit="10"/>
<path d="M53.1085 52.8075C53.1085 52.8075 53.1165 52.8048 53.1192 52.8021C53.0777 54.7583 52.9545 56.709 52.747 58.6491C51.4683 59.1873 50.1107 59.6385 48.7008 59.9974C48.5295 58.1751 48.4183 56.3462 48.3701 54.5146C48.3848 54.5119 48.4009 54.5079 48.4143 54.5039C48.4612 54.4932 48.5067 54.4798 48.5509 54.4677C48.5924 54.457 48.6325 54.4463 48.6727 54.4356C48.6767 54.4356 48.6794 54.4356 48.6834 54.4329C48.8079 54.4008 48.9325 54.3646 49.0556 54.3298C49.1842 54.2937 49.3114 54.2562 49.4386 54.2173C49.4828 54.2053 49.5256 54.1906 49.5698 54.1785C49.6756 54.1464 49.78 54.1129 49.8844 54.0794C49.9219 54.0687 49.9581 54.0567 49.9955 54.0446C50.0089 54.0393 50.0237 54.0352 50.0371 54.0312C50.1616 53.9924 50.2848 53.9509 50.4079 53.9081C50.4776 53.8853 50.5458 53.8599 50.6155 53.8358C50.6864 53.8117 50.7534 53.7862 50.823 53.7621C50.8511 53.7514 50.8779 53.742 50.906 53.7313C51.0332 53.6845 51.1577 53.6376 51.2836 53.5907C51.3545 53.564 51.4228 53.5372 51.4938 53.5091C51.5647 53.4823 51.6344 53.4555 51.704 53.4261C51.7067 53.4261 51.7107 53.4234 51.7134 53.422C51.8325 53.3738 51.953 53.327 52.0695 53.2748C52.1123 53.2587 52.1539 53.2399 52.1954 53.2225C52.3159 53.1703 52.4377 53.1194 52.5555 53.0646C52.6653 53.0164 52.7724 52.9682 52.8795 52.9159C52.8849 52.9133 52.8902 52.9106 52.8956 52.9079C52.9532 52.8825 53.0108 52.8557 53.0697 52.8262C53.0817 52.8195 53.0964 52.8142 53.1085 52.8075Z" stroke="#2F80ED" stroke-width="0.726271" stroke-miterlimit="10"/>
<path d="M60.591 44.3496C66.912 47.8147 76.9028 47.7584 83.1019 44.1796C86.251 42.36 87.8269 39.9768 87.8269 37.5935C87.8269 35.2103 86.2523 32.8257 83.1019 31.0061C81.755 30.2283 80.2286 29.6164 78.6019 29.1719C75.6068 30.9713 72.3024 32.3397 70.8242 31.7974C71.3946 30.7036 72.1578 29.4865 73.1579 28.315C70.3744 28.1677 67.5386 28.4395 64.9518 29.1263C66.5652 30.6473 67.7046 32.3745 68.4852 33.8701C66.9401 34.4364 63.3987 32.9141 60.3032 30.9954C60.2978 30.9981 60.2925 31.0021 60.2884 31.0048C59.6725 31.3596 59.1182 31.7372 58.6229 32.1322C56.5837 33.7562 55.5635 35.6722 55.5635 37.5935C55.5635 39.9768 57.138 42.3613 60.2884 44.1796L60.591 44.3496ZM71.1817 36.4327C72.9598 34.98 76.4663 32.9703 80.2554 35.5196C85.694 39.1774 71.1817 36.4327 71.1817 36.4327Z" stroke="#2F80ED" stroke-width="0.726271" stroke-miterlimit="10"/>
<path d="M36.6254 11.41C35.0804 11.9764 31.539 10.4541 28.4434 8.53542C27.8945 8.19668 27.3589 7.84321 26.8528 7.4884C23.0249 4.80525 20.7729 1.95206 25.9464 2.97631C28.256 3.43288 30.1546 4.35939 31.7063 5.50415C32.2031 5.87235 32.665 6.26063 33.0921 6.66632C34.7055 8.1873 35.8449 9.91448 36.6254 11.41Z" stroke="#2F80ED" stroke-width="0.726271" stroke-linecap="round" stroke-linejoin="round"/>
<path d="M38.1028 15.1323C38.1028 15.1323 37.7145 13.4975 36.626 11.4102" stroke="#2F80ED" stroke-width="0.726271" stroke-linecap="round" stroke-linejoin="round"/>
<path d="M48.4181 5.63806C47.8812 6.00492 47.3188 6.36508 46.7445 6.71052C43.7493 8.51 40.4449 9.87835 38.9668 9.3361C39.5372 8.24222 40.3003 7.02516 41.3005 5.85363C41.6834 5.4051 42.1012 4.96326 42.5564 4.53749C44.3157 2.89466 46.6306 1.49953 49.6458 0.902381C54.9626 -0.151331 52.4361 2.89332 48.4181 5.63672V5.63806Z" stroke="#2F80ED" stroke-width="0.726271" stroke-linecap="round" stroke-linejoin="round"/>
<path d="M38.9651 9.33606C37.8766 11.4221 37.4883 13.0582 37.4883 13.0582" stroke="#2F80ED" stroke-width="0.726271" stroke-linecap="round" stroke-linejoin="round"/>
<path d="M38.1025 15.1309C38.1025 15.1309 42.9587 9.40045 48.396 13.0583C53.8346 16.7162 39.3223 13.9714 39.3223 13.9714" stroke="#2F80ED" stroke-width="0.726271" stroke-linecap="round" stroke-linejoin="round"/>
<path d="M40.3112 50.1376C40.2496 50.163 40.1867 50.1884 40.1251 50.2112C40.1867 50.1871 40.2496 50.163 40.3112 50.1376ZM40.3112 50.1376C40.3902 50.1054 40.4692 50.0733 40.5482 50.0412C40.4705 50.0733 40.3902 50.1054 40.3112 50.1362V50.1376ZM24.9915 51.6733C25.3195 51.7242 25.6503 51.7683 25.981 51.8085C25.6503 51.7683 25.3195 51.7228 24.9915 51.6733ZM31.0929 52.004C30.9536 52.0107 30.8117 52.0147 30.6725 52.0187C30.8117 52.016 30.951 52.0107 31.0875 52.0053C31.1116 52.0053 31.1344 52.0026 31.1571 52.0013C31.1357 52.0013 31.1143 52.004 31.0929 52.004ZM32.3849 51.925C32.4184 51.9223 32.4519 51.9196 32.484 51.917C32.4947 51.917 32.5027 51.917 32.5121 51.9143C32.5965 51.9076 32.6795 51.9009 32.7625 51.8929C32.7812 51.8902 32.8013 51.8888 32.8201 51.8862C32.6755 51.8996 32.5309 51.9129 32.3849 51.9236V51.925ZM35.3948 51.5314C35.4175 51.526 35.4403 51.522 35.463 51.5193C35.4738 51.5193 35.4818 51.5166 35.4912 51.5126C35.459 51.5193 35.4269 51.5247 35.3961 51.5314H35.3948ZM35.6826 51.4751C35.7255 51.4684 35.7683 51.4591 35.8125 51.451C35.8647 51.4403 35.9183 51.4296 35.9705 51.4189C35.8754 51.439 35.779 51.4577 35.6826 51.4751ZM36.9238 49.6797C37.1608 49.6127 37.3951 49.5418 37.6267 49.4668C37.3951 49.5404 37.1608 49.6114 36.9238 49.6797ZM38.7982 50.6825C39.0633 50.5968 39.3271 50.5071 39.5882 50.4134C39.3284 50.5071 39.0647 50.5968 38.7982 50.6825ZM21.6429 31.6983C22.1397 32.0665 22.6016 32.4547 23.0287 32.8604C25.6154 32.1736 28.4526 31.9018 31.2348 32.049C31.6177 31.6005 32.0355 31.1587 32.4907 30.7329C28.8288 30.4209 25.0344 30.7423 21.6416 31.6983H21.6429Z" stroke="#2F80ED" stroke-width="0.726271" stroke-miterlimit="10"/>
<path d="M48.3185 41.3263C48.3185 44.063 46.5057 46.805 42.8853 48.8977C42.4328 49.1602 41.9628 49.4038 41.4768 49.6328C41.1729 49.7747 40.8636 49.9126 40.5489 50.0425C40.4713 50.0746 40.3909 50.1068 40.3119 50.1376C40.2504 50.163 40.1874 50.1884 40.1258 50.2112C40.0294 50.2487 39.9304 50.2862 39.8313 50.3237C39.7509 50.3545 39.6706 50.3839 39.5889 50.4134C39.3292 50.5071 39.0654 50.5968 38.799 50.6825C38.3625 50.8231 37.9167 50.9529 37.4654 51.0721C37.286 51.1203 37.1053 51.1658 36.9232 51.2087C36.8308 51.2301 36.7398 51.2515 36.646 51.2729C36.5095 51.3051 36.3702 51.3359 36.2323 51.3653C36.2216 51.368 36.2096 51.3707 36.1988 51.3734C36.1332 51.3867 36.0676 51.4015 36.0007 51.4135C35.99 51.4162 35.9819 51.4189 35.9712 51.4202C35.8762 51.4403 35.7798 51.459 35.6834 51.4765C35.6727 51.4791 35.662 51.4818 35.6512 51.4831C35.6338 51.4885 35.6151 51.4925 35.5963 51.4939C35.5843 51.4965 35.5696 51.4992 35.5562 51.5019C35.5562 51.5019 35.5535 51.5019 35.5522 51.5019C35.5321 51.5072 35.512 51.5113 35.4906 51.5126C35.4584 51.5193 35.4263 51.5246 35.3955 51.5313C35.3955 51.5313 35.3955 51.5313 35.3928 51.5313C35.3005 51.5487 35.2081 51.5648 35.1143 51.5809C35.0929 51.5862 35.0702 51.5903 35.0487 51.5916C35.0233 51.597 34.9979 51.601 34.9738 51.605C34.9738 51.605 34.9711 51.605 34.9697 51.605C34.8479 51.6264 34.7261 51.6465 34.6015 51.6639C34.5828 51.6679 34.5641 51.6719 34.544 51.6733C34.5105 51.68 34.4757 51.684 34.4422 51.688C34.4208 51.6933 34.3994 51.696 34.3766 51.6987C34.3177 51.7094 34.2588 51.7175 34.1972 51.7255C34.1704 51.7308 34.1436 51.7349 34.1155 51.7362C33.9736 51.7563 33.8303 51.775 33.6857 51.7924C33.5425 51.8098 33.3992 51.8259 33.2546 51.8433C33.1301 51.8567 33.0029 51.8714 32.877 51.8821C32.8596 51.8848 32.8409 51.8862 32.8222 51.8875C32.6776 51.9009 32.5329 51.9143 32.387 51.925C32.3723 51.9277 32.3562 51.929 32.3415 51.929C32.2531 51.937 32.1661 51.9424 32.0777 51.9491C32.0362 51.9531 31.9947 51.9558 31.9519 51.9585C31.9331 51.9611 31.9144 51.9625 31.8956 51.9625C31.8903 51.9625 31.8863 51.9625 31.8822 51.9625C31.7872 51.9705 31.6894 51.9745 31.593 51.9799C31.5676 51.9826 31.5422 51.9839 31.5167 51.9839C31.4243 51.9906 31.3333 51.9946 31.2396 51.9973C31.2128 52 31.1874 52.0013 31.1606 52.0013C31.1392 52.0013 31.1177 52.004 31.0963 52.004C30.9571 52.0107 30.8151 52.0147 30.6759 52.0187C30.6023 52.0214 30.5273 52.0241 30.4536 52.0241C30.3746 52.0267 30.2956 52.0281 30.218 52.0294H30.2046C30.0627 52.0294 29.9208 52.0321 29.7802 52.0321H29.7708C29.657 52.0321 29.5445 52.0321 29.4307 52.0321C29.2018 52.0294 28.9728 52.0241 28.7439 52.0174C28.6287 52.0133 28.5136 52.0093 28.3984 52.0053C28.2833 52 28.1695 51.9946 28.0557 51.9892C27.9606 51.9839 27.8669 51.9785 27.7718 51.9732C27.741 51.9705 27.7102 51.9692 27.6794 51.9665C27.5938 51.9611 27.5094 51.9558 27.4237 51.9491C27.2885 51.9384 27.1533 51.929 27.018 51.9169C26.7944 51.8982 26.5682 51.8768 26.3446 51.8513C26.2415 51.8406 26.1384 51.8286 26.0353 51.8179C26.0179 51.8152 26.0005 51.8125 25.9831 51.8112C25.6524 51.771 25.3216 51.7255 24.9936 51.6759C24.8825 51.6585 24.7714 51.6411 24.6602 51.6224C24.5478 51.605 24.438 51.5862 24.3268 51.5662C24.1889 51.5407 24.051 51.5153 23.9145 51.4898C23.8047 51.4698 23.6949 51.4483 23.5864 51.4256C23.5088 51.4095 23.4284 51.3934 23.3508 51.376C23.2838 51.3626 23.2182 51.3479 23.1526 51.3332C23.0589 51.3131 22.9665 51.2917 22.8741 51.2703C22.8393 51.2622 22.8018 51.2542 22.767 51.2448C22.6532 51.2194 22.5434 51.1926 22.431 51.1645C22.4095 51.1591 22.3881 51.1538 22.3667 51.1484C22.2663 51.123 22.1659 51.0975 22.0641 51.0708C21.9557 51.0426 21.8485 51.0145 21.7414 50.9837C21.6571 50.961 21.5741 50.9369 21.4911 50.9128C20.8337 50.724 20.1937 50.5111 19.5711 50.2728C19.4974 50.2447 19.4211 50.2165 19.3488 50.1858C18.9177 50.0171 18.4959 49.8363 18.0876 49.6435C17.5949 49.4132 17.1209 49.1655 16.663 48.9004C16.5746 48.8482 16.4863 48.7973 16.4006 48.7451C16.3216 48.6969 16.2426 48.65 16.1649 48.6018C16.1114 48.5684 16.0578 48.5349 16.0056 48.5001C15.9534 48.4666 15.8985 48.4318 15.8476 48.3983C15.7726 48.3488 15.6976 48.2992 15.6253 48.2484C15.5557 48.2015 15.4874 48.1533 15.4192 48.1064C15.4098 48.0997 15.4004 48.0944 15.391 48.0877C15.3228 48.0382 15.2545 47.9913 15.1902 47.9418C14.9171 47.7423 14.6587 47.5374 14.415 47.3285C14.3721 47.2937 14.3306 47.2562 14.2891 47.2201C14.1619 47.109 14.0388 46.9965 13.9196 46.8827C13.8674 46.8332 13.8152 46.7836 13.7643 46.7327C13.7134 46.6832 13.6652 46.6337 13.617 46.5841C13.546 46.5132 13.4804 46.4422 13.4135 46.3699C13.3586 46.3096 13.3037 46.2507 13.2515 46.1905C13.1136 46.0338 12.9824 45.8772 12.8592 45.7165C12.827 45.6777 12.7976 45.6375 12.7668 45.5973C12.7065 45.5184 12.649 45.438 12.5914 45.3563C11.6863 44.067 11.2324 42.6973 11.2324 41.3289C11.2324 38.5869 13.0453 35.8448 16.6643 33.7575C16.7085 33.732 16.7514 33.7066 16.7955 33.6838C17.303 34.0386 17.8385 34.3921 18.3862 34.7309C18.3808 34.7335 18.3754 34.7376 18.3714 34.7402C15.2223 36.5611 13.6465 38.9404 13.6465 41.3276C13.6465 43.7149 15.221 46.0954 18.3714 47.9136C18.4397 47.9525 18.508 47.9913 18.5776 48.0288C18.6928 48.0944 18.8079 48.156 18.9257 48.2162C18.9793 48.247 19.0355 48.2751 19.0904 48.3019C19.1948 48.3568 19.3006 48.4104 19.4077 48.4599C19.4854 48.4987 19.5657 48.5362 19.6447 48.5737C19.7893 48.642 19.9353 48.7076 20.0825 48.7719C20.1977 48.8241 20.3168 48.8723 20.4347 48.9218C20.5498 48.97 20.6676 49.0169 20.7855 49.0611C20.835 49.0812 20.8845 49.0999 20.9341 49.1187C21.001 49.1441 21.068 49.1695 21.1349 49.1923C21.1644 49.203 21.1938 49.2151 21.2233 49.2244C21.2822 49.2458 21.3411 49.2673 21.4014 49.2873C21.475 49.3141 21.55 49.3396 21.6236 49.3637C21.6236 49.3637 21.6236 49.3637 21.6263 49.3637C21.8164 49.4279 22.0079 49.4895 22.202 49.5484C22.2529 49.5645 22.3024 49.5806 22.3546 49.5953C22.4591 49.6274 22.5635 49.6569 22.6679 49.6863C22.7135 49.6997 22.759 49.7131 22.8045 49.7238C22.8648 49.7412 22.925 49.7586 22.9853 49.7747C23.1218 49.8122 23.2611 49.8483 23.399 49.8818C23.6145 49.9354 23.8301 49.9863 24.0483 50.0331C24.0992 50.0438 24.1501 50.0545 24.201 50.0652C24.5089 50.1309 24.8196 50.1911 25.1329 50.2447C25.248 50.2634 25.3645 50.2822 25.481 50.3009C25.5265 50.3089 25.572 50.3156 25.6175 50.3223C25.797 50.3504 25.9737 50.3759 26.1544 50.3986C26.2348 50.4094 26.3151 50.4201 26.3954 50.4308C26.4758 50.4415 26.5561 50.4509 26.6378 50.4602L26.8493 50.483C26.8493 50.483 26.852 50.483 26.8533 50.483C27.0033 50.4991 27.1546 50.5151 27.3059 50.5272C27.401 50.5379 27.496 50.5446 27.5897 50.5513C27.7049 50.562 27.8214 50.57 27.9378 50.5767C28.286 50.6008 28.6341 50.6169 28.9822 50.6276C29.0625 50.6276 29.1442 50.6316 29.2259 50.6329C29.2433 50.6329 29.2607 50.6329 29.2781 50.6329C29.3477 50.6329 29.4147 50.6356 29.4843 50.6356C29.6958 50.6383 29.9087 50.6383 30.1203 50.6356C30.1952 50.6356 30.2729 50.6329 30.3479 50.6316C30.3867 50.6316 30.4255 50.6316 30.4644 50.6289C30.5621 50.6262 30.6612 50.6236 30.7602 50.6196C30.783 50.6196 30.8071 50.6196 30.8299 50.6169C30.9169 50.6129 31.0053 50.6088 31.0923 50.6062C31.2369 50.5995 31.3802 50.5928 31.5248 50.5821C31.6694 50.574 31.8126 50.5647 31.9559 50.5513C32.0898 50.5419 32.2223 50.5312 32.3549 50.5178C32.4928 50.5071 32.632 50.4924 32.7686 50.4763C32.8168 50.4709 32.865 50.4656 32.9145 50.4616C32.9935 50.4509 33.0725 50.4428 33.1542 50.4321C33.1944 50.4281 33.2345 50.4227 33.276 50.4174C33.3912 50.4027 33.5063 50.3866 33.6215 50.3705C33.7473 50.3531 33.8732 50.3357 33.999 50.3156C34.469 50.242 34.9349 50.1563 35.3942 50.0572C35.4705 50.0425 35.5481 50.0251 35.6231 50.0063C35.6994 49.9903 35.7758 49.9729 35.8507 49.9541C36.0931 49.8979 36.3341 49.8376 36.5737 49.7734C36.6929 49.7412 36.8121 49.7091 36.9299 49.6756C37.1669 49.6087 37.4012 49.5377 37.6328 49.4627C37.8336 49.3971 38.0345 49.3289 38.2326 49.2592C38.2808 49.2432 38.3277 49.2258 38.3759 49.207C38.562 49.1401 38.7454 49.0705 38.9289 48.9968C38.973 48.9794 39.0159 48.9633 39.0587 48.9446C39.2087 48.883 39.356 48.8214 39.5032 48.7558C39.5126 48.7531 39.522 48.7478 39.5314 48.7451C39.6773 48.6808 39.8206 48.6152 39.9638 48.5483C40.0696 48.4987 40.174 48.4492 40.2771 48.3956C40.3816 48.3448 40.4847 48.2926 40.5864 48.2377C40.7899 48.1319 40.9921 48.0208 41.1876 47.9083C44.3367 46.0887 45.9126 43.7055 45.9126 41.3222C45.9126 38.939 44.338 36.5544 41.1876 34.7349C39.8407 33.957 38.3143 33.3451 36.6875 32.9006C37.2619 32.5538 37.8243 32.195 38.3612 31.8281C39.9919 32.3195 41.521 32.9595 42.8907 33.7521C46.511 35.8395 48.3239 38.5815 48.3239 41.3236L48.3185 41.3263Z" stroke="#2F80ED" stroke-width="0.726271" stroke-miterlimit="10"/>
<path d="M5.60487 83.1455L5.27148 84.147C5.36119 83.8096 5.47232 83.4749 5.60487 83.1455Z" stroke="#2F80ED" stroke-width="0.726271" stroke-miterlimit="10"/>
<path d="M41.182 34.7389C39.8351 33.961 38.3087 33.3492 36.682 32.9046C33.6869 34.7041 30.3825 36.0725 28.9043 35.5302C29.4747 34.4363 30.2379 33.2193 31.238 32.0478C28.4544 31.9005 25.6187 32.1723 23.0319 32.8591C24.6453 34.3801 25.7847 36.1073 26.5653 37.6028C25.4299 38.0192 23.2167 37.3069 20.8937 36.1394C20.0569 35.7177 19.204 35.237 18.3832 34.7282C18.3779 34.7309 18.3725 34.7349 18.3685 34.7376C15.2194 36.5585 13.6436 38.9377 13.6436 41.325C13.6436 43.7122 15.2181 46.0928 18.3685 47.911C18.4368 47.9498 18.5051 47.9887 18.5747 48.0262C18.6899 48.0918 18.805 48.1534 18.9228 48.2136C18.9764 48.2431 19.0326 48.2712 19.0875 48.2993C19.1919 48.3542 19.2977 48.4078 19.4048 48.4573C19.4825 48.4961 19.5628 48.5336 19.6418 48.5711C19.7864 48.6394 19.9324 48.705 20.0796 48.7692C20.1948 48.8215 20.3139 48.8697 20.4318 48.9192C20.5469 48.9674 20.6647 49.0143 20.7826 49.0585C20.8321 49.0785 20.8816 49.0973 20.9312 49.116C20.9981 49.1415 21.0651 49.1669 21.132 49.1897C21.1615 49.2004 21.1909 49.2124 21.2204 49.2218C21.2793 49.2432 21.3382 49.2646 21.3984 49.2847C21.4721 49.3115 21.5471 49.3369 21.6207 49.361C21.6207 49.361 21.6207 49.361 21.6234 49.361C21.8135 49.4253 22.005 49.4869 22.1991 49.5458C22.25 49.5619 22.2995 49.5779 22.3517 49.5927C22.4562 49.6248 22.5606 49.6543 22.665 49.6837C22.7106 49.6971 22.7561 49.7105 22.8016 49.7212C22.8619 49.7386 22.9221 49.756 22.9824 49.7721C23.1189 49.8082 23.2582 49.8444 23.3961 49.8792C23.6116 49.9314 23.8272 49.9823 24.0455 50.0305C24.0963 50.0412 24.1472 50.0519 24.1981 50.0626C24.506 50.1282 24.8167 50.1885 25.13 50.242C25.2451 50.2608 25.3616 50.2795 25.4781 50.2983C25.5236 50.3063 25.5691 50.313 25.6146 50.3197C25.794 50.3478 25.9708 50.3732 26.1515 50.396C26.2319 50.4067 26.3122 50.4174 26.3925 50.4281C26.4729 50.4389 26.5532 50.4482 26.6349 50.4576L26.8464 50.4804C26.8464 50.4804 26.8491 50.4804 26.8504 50.4804C27.0004 50.4964 27.1517 50.5125 27.303 50.5245C27.398 50.5353 27.4931 50.542 27.5868 50.5486C27.702 50.558 27.8185 50.5661 27.9349 50.5741C28.2831 50.5982 28.6312 50.6143 28.9793 50.625C29.0596 50.625 29.1413 50.629 29.223 50.6303C29.2404 50.6303 29.2578 50.6303 29.2752 50.6303C29.3448 50.6303 29.4118 50.633 29.4814 50.633C29.6929 50.6357 29.9058 50.6357 30.1174 50.633C30.1923 50.633 30.27 50.6303 30.345 50.629C30.3838 50.629 30.4226 50.629 30.4614 50.6263C30.5592 50.6236 30.6583 50.6209 30.7573 50.6169C30.7801 50.6169 30.8042 50.6169 30.827 50.6143C30.914 50.6102 31.0024 50.6062 31.0894 50.6035C31.234 50.5968 31.3773 50.5902 31.5219 50.5794C31.6651 50.5701 31.8097 50.5607 31.953 50.5486C32.0869 50.5379 32.2181 50.5272 32.352 50.5152C32.4899 50.5031 32.6278 50.4884 32.7657 50.4737C32.8139 50.4683 32.8621 50.463 32.9116 50.4589C32.9906 50.4482 33.0696 50.4402 33.1513 50.4295C33.1915 50.4255 33.2316 50.4201 33.2731 50.4148C33.3883 50.4 33.5034 50.384 33.6186 50.3679C33.7444 50.3505 33.8703 50.3331 33.9961 50.313C34.4661 50.2394 34.932 50.1537 35.3913 50.0546C35.4676 50.0385 35.5439 50.0225 35.6202 50.0037C35.6965 49.9876 35.7729 49.9702 35.8478 49.9515C36.0902 49.8953 36.3312 49.835 36.5708 49.7707C36.69 49.7386 36.8092 49.7065 36.927 49.673C37.164 49.6047 37.3983 49.5351 37.6299 49.4601C37.8307 49.3945 38.0316 49.3262 38.2297 49.2566C38.2779 49.2405 38.3248 49.2231 38.373 49.2044C38.5591 49.1374 38.7425 49.0678 38.926 48.9942C38.9701 48.9768 39.013 48.9607 39.0558 48.942C39.2058 48.8804 39.3531 48.8188 39.5003 48.7532C39.5097 48.7505 39.5191 48.7451 39.5285 48.7425C39.6744 48.6782 39.8177 48.6126 39.9609 48.5457C40.0667 48.4948 40.1711 48.4452 40.2742 48.393C40.3787 48.3408 40.4818 48.2899 40.5835 48.235C40.787 48.1293 40.9892 48.0181 41.1847 47.9057C44.3338 46.0861 45.9097 43.7029 45.9097 41.3196C45.9097 38.9364 44.3351 36.5518 41.1847 34.7322L41.182 34.7389ZM29.2605 40.1655C31.0385 38.7128 34.5451 36.7031 38.3342 39.2524C43.7728 42.9102 29.2605 40.1655 29.2605 40.1655Z" stroke="#2F80ED" stroke-width="0.726271" stroke-miterlimit="10"/>
<path d="M37.6267 49.4669C37.3951 49.5406 37.1608 49.6129 36.9238 49.6798C37.1608 49.6115 37.3951 49.5419 37.6267 49.4669Z" stroke="#2F80ED" stroke-width="0.726271" stroke-miterlimit="10"/>
<path d="M29.2598 40.1656C31.0378 38.7129 34.5444 36.7032 38.3335 39.2525C43.7721 42.9103 29.2598 40.1656 29.2598 40.1656Z" stroke="#2F80ED" stroke-width="0.726271" stroke-miterlimit="10"/>
<path d="M47.7436 75.8112C47.6941 75.8607 47.6459 75.9089 47.595 75.9571C47.5441 76.0053 47.4946 76.0522 47.4424 76.099C47.5455 76.004 47.6446 75.9076 47.7436 75.8112Z" stroke="#2F80ED" stroke-width="0.726271" stroke-miterlimit="10"/>
<path d="M25.9816 51.8087C25.6509 51.7699 25.3202 51.7243 24.9922 51.6735C25.3202 51.723 25.6509 51.7685 25.9816 51.8087Z" stroke="#2F80ED" stroke-width="0.726271" stroke-miterlimit="10"/>
<path d="M31.1575 52.0015C31.1348 52.0015 31.112 52.0041 31.0879 52.0055C31.0879 52.0055 31.0919 52.0055 31.0932 52.0055C31.1147 52.0055 31.1361 52.0055 31.1575 52.0028V52.0015Z" stroke="#2F80ED" stroke-width="0.726271" stroke-miterlimit="10"/>
<path d="M32.8219 51.8876C32.8031 51.8903 32.783 51.8916 32.7643 51.8943C32.6813 51.9023 32.5983 51.909 32.5139 51.9157C32.5045 51.9157 32.4965 51.9184 32.4858 51.9184C32.4537 51.921 32.4202 51.9237 32.3867 51.9264C32.5327 51.9157 32.6773 51.9023 32.8219 51.8889V51.8876Z" stroke="#2F80ED" stroke-width="0.726271" stroke-miterlimit="10"/>
<path d="M39.5858 50.4133C39.3248 50.5084 39.0623 50.5968 38.7959 50.6824C39.061 50.5968 39.3261 50.5057 39.5858 50.4133Z" stroke="#2F80ED" stroke-width="0.726271" stroke-miterlimit="10"/>
<path d="M40.3111 50.1377C40.3901 50.1069 40.4704 50.0734 40.5481 50.0413V50.0426C40.4691 50.0747 40.3901 50.1055 40.3111 50.1377ZM40.3111 50.1377C40.2495 50.1631 40.1866 50.1872 40.125 50.2113C40.1866 50.1872 40.2495 50.1618 40.3111 50.1377Z" stroke="#2F80ED" stroke-width="0.726271" stroke-miterlimit="10"/>
<path d="M48.5565 74.926C48.4762 75.0264 48.3905 75.1255 48.3008 75.2246C48.3891 75.1255 48.4748 75.0251 48.5565 74.926Z" stroke="#2F80ED" stroke-width="0.726271" stroke-miterlimit="10"/>
<path d="M49.9044 72.2321C49.9285 72.3579 49.9553 72.4851 49.9847 72.611C49.974 72.6364 49.9646 72.6605 49.9539 72.6846C49.9472 72.698 49.9419 72.7141 49.9352 72.7274C49.9312 72.7382 49.9258 72.7462 49.9231 72.7569C49.9057 72.7971 49.887 72.8359 49.8682 72.8761C49.8575 72.8988 49.8468 72.9229 49.8361 72.9457C49.804 73.018 49.7678 73.089 49.7303 73.1599C49.7009 73.2175 49.6714 73.2764 49.6393 73.3326C49.6259 73.3581 49.6125 73.3849 49.5978 73.4103C49.5871 73.429 49.5764 73.4478 49.5656 73.4679C49.563 73.4746 49.559 73.4799 49.5549 73.4866C49.5241 73.5402 49.4933 73.5951 49.4599 73.6486C49.4492 73.666 49.4384 73.6848 49.4277 73.7022L49.5429 73.3554L49.6005 73.1813C49.7049 72.8667 49.8067 72.5521 49.9044 72.2321Z" stroke="#2F80ED" stroke-width="0.726271" stroke-miterlimit="10"/>
<path d="M50.0672 72.4089C50.0551 72.4424 50.0404 72.4772 50.0283 72.5094C50.0417 72.4759 50.0551 72.4411 50.0685 72.4089H50.0672Z" stroke="#2F80ED" stroke-width="0.726271" stroke-miterlimit="10"/>
<path d="M54.4692 85.0493C54.8334 87.3442 54.2443 89.6793 52.6978 91.8416C51.4875 93.5339 49.6934 95.1179 47.3115 96.4942C37.6285 102.087 21.9219 102.087 12.235 96.4942C6.81113 93.3599 4.42655 89.141 5.07591 85.0493C5.12277 84.7534 5.18571 84.4535 5.26738 84.159L5.27139 84.1469L5.60478 83.1454L7.67873 76.9155C7.78316 76.6009 7.88492 76.2863 7.98266 75.9663C8.49546 78.7431 10.5962 81.433 14.2782 83.5645C22.8377 88.5064 36.7154 88.5064 45.2737 83.5645C45.8534 83.2298 46.3956 82.8803 46.8964 82.5202C49.6036 80.5707 51.1635 78.2651 51.5785 75.906C51.6736 76.0345 51.7727 76.1604 51.8771 76.2863C51.9427 76.5045 52.0083 76.7214 52.0753 76.9396L54.5803 85.0507H54.4705L54.4692 85.0493Z" stroke="#2F80ED" stroke-width="0.726271" stroke-miterlimit="10"/>
<path d="M47.7436 75.8112C47.6941 75.8607 47.6459 75.9089 47.595 75.9571C47.5441 76.0053 47.4946 76.0522 47.4424 76.099C47.5455 76.004 47.6446 75.9076 47.7436 75.8112Z" stroke="#2F80ED" stroke-width="0.726271" stroke-miterlimit="10"/>
<path d="M48.5565 74.926C48.4762 75.0264 48.3905 75.1255 48.3008 75.2246C48.3891 75.1255 48.4748 75.0251 48.5565 74.926Z" stroke="#2F80ED" stroke-width="0.726271" stroke-miterlimit="10"/>
<path d="M50.1501 73.2014C49.9801 73.2469 49.8101 73.2898 49.6387 73.3313C49.6708 73.2751 49.7003 73.2161 49.7297 73.1586C49.7672 73.0876 49.8034 73.0166 49.8355 72.9443C49.8462 72.9216 49.8582 72.8975 49.8676 72.8747C49.8864 72.8346 49.9051 72.7957 49.9225 72.7556C49.9265 72.7449 49.9319 72.7368 49.9346 72.7261C49.9413 72.7127 49.9466 72.6967 49.9533 72.6833C49.964 72.6592 49.9734 72.6351 49.9841 72.6096C50.031 72.8078 50.0859 73.0033 50.1488 73.2001L50.1501 73.2014Z" stroke="#2F80ED" stroke-width="0.726271" stroke-miterlimit="10"/>
<path d="M50.0661 72.4089C50.0541 72.4424 50.0393 72.4772 50.0273 72.5094C50.0192 72.5254 50.0126 72.5428 50.0059 72.5602C50.0126 72.5442 50.0192 72.5281 50.0259 72.5094C50.0393 72.4759 50.0527 72.4411 50.0661 72.4089Z" stroke="#2F80ED" stroke-width="0.726271" stroke-miterlimit="10"/>
<path d="M5.26758 84.1605C5.18591 84.4551 5.12297 84.755 5.07611 85.0509H4.97168L5.26758 84.1605Z" stroke="#2F80ED" stroke-width="0.726271" stroke-miterlimit="10"/>
<path d="M50.4547 70.4166C50.436 70.4902 50.4145 70.5599 50.3931 70.6322C50.3878 70.6107 50.3838 70.5906 50.3797 70.5692C50.3489 70.4313 50.3195 70.2907 50.29 70.1528C50.3463 70.2412 50.4025 70.3296 50.4547 70.4166Z" stroke="#2F80ED" stroke-width="0.726271" stroke-miterlimit="10"/>
<path d="M51.5773 75.906C51.1636 78.2651 49.6038 80.5707 46.8952 82.5201C46.3944 82.8816 45.8522 83.2298 45.2724 83.5645C36.7129 88.5064 22.8352 88.5064 14.2769 83.5645C10.595 81.433 8.49424 78.7431 7.98145 75.9662C8.44337 74.5229 8.85307 73.0662 9.21323 71.5961C9.86662 74.0302 11.8147 76.3719 15.0615 78.245C23.1886 82.9392 36.3594 82.9392 44.4865 78.245C44.603 78.1768 44.7195 78.1085 44.8333 78.0402C44.9283 77.9826 45.0221 77.925 45.1144 77.8675C45.2229 77.7978 45.33 77.7309 45.4358 77.6599C45.5282 77.5997 45.6192 77.5381 45.7089 77.4779C45.7183 77.4712 45.7263 77.4658 45.7344 77.4604C45.8187 77.4015 45.9031 77.344 45.9847 77.2837C46.0182 77.2596 46.053 77.2355 46.0851 77.2101C46.1588 77.1579 46.2324 77.103 46.3047 77.0481C46.3971 76.9798 46.4868 76.9102 46.5765 76.8392C46.6568 76.7763 46.7358 76.712 46.8148 76.6477C46.843 76.625 46.8684 76.6022 46.8965 76.5795C46.9635 76.5246 47.0304 76.4683 47.0947 76.4121C47.1603 76.3572 47.2245 76.2996 47.2875 76.242C47.3397 76.1952 47.3919 76.147 47.4441 76.1001C47.4963 76.0533 47.5459 76.0051 47.5968 75.9582C47.6476 75.91 47.6958 75.8618 47.7454 75.8123C47.7708 75.7895 47.7949 75.7641 47.819 75.74C47.8445 75.7159 47.8672 75.6904 47.8913 75.6663C47.9877 75.5699 48.0814 75.4708 48.1711 75.3718C48.1738 75.3677 48.1778 75.3651 48.1805 75.3611C48.2234 75.3155 48.2649 75.2687 48.3037 75.2245C48.3934 75.1267 48.4791 75.0263 48.5594 74.9259C48.613 74.8616 48.6652 74.7987 48.7147 74.7344C48.7442 74.6996 48.771 74.6635 48.7977 74.6287C48.8299 74.5885 48.858 74.5497 48.8874 74.5109C48.8968 74.4988 48.9062 74.4854 48.9156 74.4734C48.945 74.4359 48.9731 74.397 48.9999 74.3582C49.008 74.3475 49.0133 74.3395 49.02 74.3288C49.0414 74.3006 49.0615 74.2725 49.0803 74.2431C49.091 74.2283 49.1017 74.2136 49.1124 74.1989C49.1285 74.1748 49.1445 74.1507 49.1606 74.1266C49.1874 74.0878 49.2128 74.0503 49.2369 74.0114C49.249 73.9954 49.261 73.978 49.2704 73.9592C49.2811 73.9432 49.2931 73.9271 49.3025 73.9083C49.3132 73.8909 49.3253 73.8735 49.3346 73.8561C49.3668 73.8079 49.3976 73.7597 49.4257 73.7089C49.4284 73.7062 49.4297 73.7035 49.431 73.7008C49.4418 73.6834 49.4525 73.6647 49.4632 73.6473C49.4953 73.5937 49.5274 73.5388 49.5582 73.4853C49.5623 73.4786 49.5663 73.4732 49.569 73.4665C49.5797 73.4464 49.5917 73.4277 49.6011 73.4089C49.6158 73.3822 49.6292 73.3567 49.6426 73.3313C49.814 73.2898 49.984 73.2469 50.1541 73.2014C50.4513 74.1253 50.9266 75.033 51.5813 75.906H51.5773Z" stroke="#2F80ED" stroke-width="0.726271" stroke-miterlimit="10"/>
<path d="M50.1501 73.2014C49.9801 73.2469 49.8101 73.2898 49.6387 73.3313C49.6708 73.2751 49.7003 73.2161 49.7297 73.1586C49.7672 73.0876 49.8034 73.0166 49.8355 72.9443C49.8462 72.9216 49.8582 72.8975 49.8676 72.8747C49.8864 72.8346 49.9051 72.7957 49.9225 72.7556C49.9265 72.7449 49.9319 72.7368 49.9346 72.7261C49.9413 72.7127 49.9466 72.6967 49.9533 72.6833C49.964 72.6592 49.9734 72.6351 49.9841 72.6096C50.031 72.8078 50.0859 73.0033 50.1488 73.2001L50.1501 73.2014Z" stroke="#2F80ED" stroke-width="0.726271" stroke-miterlimit="10"/>
<path d="M50.4547 70.4166C50.436 70.4902 50.4145 70.5599 50.3931 70.6322C50.3878 70.6107 50.3838 70.5906 50.3797 70.5692C50.3489 70.4313 50.3195 70.2907 50.29 70.1528C50.3463 70.2412 50.4025 70.3296 50.4547 70.4166Z" stroke="#2F80ED" stroke-width="0.726271" stroke-miterlimit="10"/>
<path d="M26.5639 37.6041C25.4285 38.0205 23.2153 37.3082 20.8923 36.1407C20.0555 35.719 19.2027 35.2383 18.3819 34.7295C17.833 34.3908 17.2974 34.0373 16.7913 33.6825C12.9634 30.9993 10.7114 28.1461 15.8849 29.1704C17.9923 29.5868 19.757 30.3955 21.2284 31.4037C21.369 31.4987 21.5082 31.5978 21.6435 31.6982C22.1402 32.0664 22.6021 32.4547 23.0292 32.8604C24.6426 34.3814 25.782 36.1086 26.5626 37.6041H26.5639Z" stroke="#2F80ED" stroke-width="0.726271" stroke-linecap="round" stroke-linejoin="round"/>
<path d="M28.0413 41.3264C28.0413 41.3264 27.653 39.6916 26.5645 37.6042" stroke="#2F80ED" stroke-width="0.726271" stroke-linecap="round" stroke-linejoin="round"/>
<path d="M38.3556 31.8323C37.8187 32.1991 37.2563 32.5593 36.682 32.9047C33.6868 34.7042 30.3824 36.0726 28.9043 35.5303C29.4747 34.4364 30.2378 33.2194 31.238 32.0478C31.6209 31.5993 32.0387 31.1575 32.4939 30.7317C34.2532 29.0889 36.5681 27.6937 39.5833 27.0966C44.9001 26.0429 42.3736 29.0875 38.3556 31.8309V31.8323Z" stroke="#2F80ED" stroke-width="0.726271" stroke-linecap="round" stroke-linejoin="round"/>
<path d="M28.9026 35.5303C27.8141 37.6163 27.4258 39.2524 27.4258 39.2524" stroke="#2F80ED" stroke-width="0.726271" stroke-linecap="round" stroke-linejoin="round"/>
<path d="M29.2598 40.1655C28.4859 40.7988 28.04 41.325 28.04 41.325" stroke="#2F80ED" stroke-width="0.726271" stroke-linecap="round" stroke-linejoin="round"/>
</g>
<defs>
<clipPath id="clip0_446_4168">
<rect width="100" height="100" fill="white" transform="translate(0.736328 0.688721)"/>
</clipPath>
</defs>
</svg>
