<svg width="101" height="101" viewBox="0 0 101 101" fill="none" xmlns="http://www.w3.org/2000/svg">
<g clip-path="url(#clip0_446_4320)">
<path d="M72.3623 72.9714L90.0897 63.0051L90.7067 25.0627L72.6877 35.2856L72.3623 72.9714Z" stroke="#2F80ED" stroke-width="0.731707" stroke-linecap="round" stroke-linejoin="round"/>
<path d="M39.2705 16.2231L72.6874 35.2857L90.7064 24.5948L57.2895 5.53223L39.2705 16.2231Z" stroke="#2F80ED" stroke-width="0.731707" stroke-linecap="round" stroke-linejoin="round"/>
<path d="M72.5462 35.204V35.2053L72.3621 72.9701L57.0498 64.1304L57.7796 63.6935V49.0164L43.8661 40.9649L39.5337 43.5731L39.4339 16.3164L39.4326 16.1271V16.0986L39.4573 16.1129L72.5462 35.204Z" stroke="#2F80ED" stroke-width="0.731707" stroke-linecap="round" stroke-linejoin="round"/>
<path d="M54.698 68.7273C54.698 70.5007 53.4522 72.6564 51.9173 73.5431C50.3812 74.4298 49.1367 73.7104 49.1367 71.937C49.1367 70.428 50.039 68.6391 51.2562 67.5956C51.4675 67.4128 51.6892 67.2533 51.9173 67.1211C52.1118 67.0083 52.3024 66.9215 52.4864 66.8592H52.489C53.7504 66.4353 54.698 67.1807 54.698 68.7273Z" stroke="#2F80ED" stroke-width="0.731707" stroke-linecap="round" stroke-linejoin="round"/>
<path d="M42.4688 76.2993C42.4688 78.0727 43.7132 78.7909 45.2494 77.9042C46.7855 77.0175 48.03 74.8617 48.03 73.0883C48.03 71.3149 46.7855 70.5967 45.2494 71.4834C43.7132 72.3701 42.4688 74.5259 42.4688 76.2993Z" stroke="#2F80ED" stroke-width="0.731707" stroke-linecap="round" stroke-linejoin="round"/>
<path d="M28.4688 84.5958C28.4688 86.3692 29.7132 87.0874 31.2494 86.2007C32.7855 85.314 34.03 83.1582 34.03 81.3848C34.03 79.6114 32.7855 78.8933 31.2494 79.7799C29.7132 80.6666 28.4688 82.8224 28.4688 84.5958Z" stroke="#2F80ED" stroke-width="0.731707" stroke-linecap="round" stroke-linejoin="round"/>
<path d="M17.1475 89.8679C17.1475 91.6413 18.3919 92.3595 19.9281 91.4728C21.4642 90.5861 22.7087 88.4303 22.7087 86.6569C22.7087 84.8835 21.4642 84.1653 19.9281 85.052C18.3919 85.9387 17.1475 88.0945 17.1475 89.8679Z" stroke="#2F80ED" stroke-width="0.731707" stroke-linecap="round" stroke-linejoin="round"/>
<path d="M22.2663 85.1764V69.4843L16.3291 73.2371C13.7261 74.8822 12.1484 77.7458 12.1484 80.8259V93.2085L17.1471 90.2269" stroke="#2F80ED" stroke-width="0.731707" stroke-linecap="round" stroke-linejoin="round"/>
<path d="M22.2669 69.4843L11.4062 62.9637L5.59865 66.1981C2.99561 67.8432 1.41797 70.7067 1.41797 73.7868V86.1694L12.149 93.2085" stroke="#2F80ED" stroke-width="0.731707" stroke-linecap="round" stroke-linejoin="round"/>
<path d="M1.82891 71.1047L12.149 78.0855L18.6307 74.5945V81.3458L12.149 84.6722L1.41797 77.8884" stroke="#2F80ED" stroke-width="0.731707" stroke-linecap="round" stroke-linejoin="round"/>
<path d="M27.113 82.0368L22.708 79.4" stroke="#2F80ED" stroke-width="0.731707" stroke-linecap="round" stroke-linejoin="round"/>
<path d="M57.7803 49.0165V63.6936L57.0505 64.1304L52.49 66.8579H52.4887L52.4874 66.8592C52.3033 66.9214 52.1128 67.0083 51.9183 67.1211C51.6902 67.2533 51.4685 67.4127 51.2572 67.5955L27.1143 82.0367L27.1868 67.5826L44.6614 56.9786L57.7803 49.0165Z" stroke="#2F80ED" stroke-width="0.731707" stroke-linecap="round" stroke-linejoin="round"/>
<path d="M27.113 82.0369L22.708 84.6723" stroke="#2F80ED" stroke-width="0.731707" stroke-linecap="round" stroke-linejoin="round"/>
<path d="M52.4861 66.8593L51.2559 67.5956" stroke="#2F80ED" stroke-width="0.731707" stroke-linecap="round" stroke-linejoin="round"/>
<path d="M57.7795 49.0165L44.6606 56.9786L27.186 67.5826L13.7041 59.1266L39.5336 43.5732L43.8659 40.965L57.7795 49.0165Z" stroke="#2F80ED" stroke-width="0.731707" stroke-linecap="round" stroke-linejoin="round"/>
<path d="M13.7041 64.3443V59.1266" stroke="#2F80ED" stroke-width="0.731707" stroke-linecap="round" stroke-linejoin="round"/>
<path d="M90.7059 52.1135L99.648 57.4505C100.457 57.9328 100.465 59.1008 99.6649 59.5947L41.9443 95.2646C40.6856 96.0424 39.095 96.0385 37.8401 95.2555L22.708 85.8169" stroke="#2F80ED" stroke-width="0.731707" stroke-linecap="round" stroke-linejoin="round"/>
</g>
<defs>
<clipPath id="clip0_446_4320">
<rect width="100" height="100" fill="white" transform="translate(0.838867 0.688721)"/>
</clipPath>
</defs>
</svg>
